<?xml version="1.0" encoding="utf-8"?>
<!-- Generator: Adobe Illustrator 21.0.0, SVG Export Plug-In . SVG Version: 6.00 Build 0)  -->
<svg version="1.1" id="Layer_1" xmlns="http://www.w3.org/2000/svg" xmlns:xlink="http://www.w3.org/1999/xlink" x="0px" y="0px"
	 viewBox="0 0 430 379" style="enable-background:new 0 0 430 379;" xml:space="preserve">
<style type="text/css">
	.st0{fill-rule:evenodd;clip-rule:evenodd;fill:#ACC7E8;}
	.st1{fill-rule:evenodd;clip-rule:evenodd;fill:#4E4E4E;}
	.st2{fill-rule:evenodd;clip-rule:evenodd;fill:#577398;}
	.st3{fill-rule:evenodd;clip-rule:evenodd;fill:#F4F4F4;}
	.st4{fill-rule:evenodd;clip-rule:evenodd;fill:#D27A5E;}
	.st5{fill:#FFFFFF;}
	.st6{fill-rule:evenodd;clip-rule:evenodd;fill:#FFFFFF;}
	.st7{fill-rule:evenodd;clip-rule:evenodd;fill:#EFC251;}
	.st8{fill:#EFC251;}
	.st9{fill-rule:evenodd;clip-rule:evenodd;fill:#E1E0DE;}
	.st10{fill-rule:evenodd;clip-rule:evenodd;fill:#FDFCF9;}
	
		.st11{fill-rule:evenodd;clip-rule:evenodd;fill:none;stroke:#CACACA;stroke-width:1.1999;stroke-linecap:round;stroke-linejoin:round;stroke-miterlimit:22.9256;}
	.st12{fill-rule:evenodd;clip-rule:evenodd;fill:#F1DBD8;}
	.st13{fill-rule:evenodd;clip-rule:evenodd;fill:#5B91D7;}
	.st14{fill-rule:evenodd;clip-rule:evenodd;fill:#88A6CD;}
	.st15{fill-rule:evenodd;clip-rule:evenodd;fill:#9DBBE0;}
	.st16{fill-rule:evenodd;clip-rule:evenodd;fill:#151B25;}
	.st17{fill-rule:evenodd;clip-rule:evenodd;fill:#B36146;}
	.st18{fill-rule:evenodd;clip-rule:evenodd;fill:#E2967D;}
	.st19{fill-rule:evenodd;clip-rule:evenodd;fill:#E2968F;}
	.st20{fill-rule:evenodd;clip-rule:evenodd;fill:#F8E9C2;}
	.st21{fill-rule:evenodd;clip-rule:evenodd;fill:#F2D282;}
	.st22{fill-rule:evenodd;clip-rule:evenodd;fill:#CACACA;}
</style>
<path class="st0" d="M117.5,56.6h228.2c24,0,43.6,19.6,43.6,43.6v228.2c0,24-19.6,43.6-43.6,43.6H117.5c-24,0-43.6-19.6-43.6-43.6
	V100.2C73.9,76.2,93.5,56.6,117.5,56.6z"/>
<polygon class="st1" points="139.6,282.8 186.5,282.8 208.5,322.7 117.6,322.7 "/>
<path class="st2" d="M52.5,111h221.2c6.2,0,11.3,5.1,11.3,11.3v159.3c0,6.2-5.1,11.3-11.3,11.3H52.5c-6.2,0-11.3-5.1-11.3-11.3
	V122.3C41.1,116,46.2,111,52.5,111z"/>
<g>
	<circle class="st3" cx="271.2" cy="282.9" r="1.5"/>
	<circle class="st3" cx="265.5" cy="282.9" r="1.5"/>
	<circle class="st3" cx="259.7" cy="282.9" r="1.5"/>
</g>
<path class="st2" d="M28.1,310.6h270c3.3,0,6,2.7,6,6v0c0,3.3-2.7,6-6,6h-270c-3.3,0-6-2.7-6-6v0C22,313.3,24.8,310.6,28.1,310.6z"
	/>
<path class="st1" d="M304.1,316.7c0,3.3-2.7,6-6,6h-270c-3.3,0-6-2.7-6-6H304.1z"/>
<rect x="48.6" y="117.6" class="st4" width="228.8" height="155.2"/>
<g>
	<path class="st5" d="M48.6,194.1c39.5-33.9,84.1-16.2,126.7,0.6c37.5,14.8,73.4,29,102.1,5.6v5.2c-29.9,22.2-66,7.9-103.6-7
		c-42.4-16.8-86.8-34.4-125.2,1V194.1z"/>
	<g>
		
			<ellipse transform="matrix(0.4688 -0.8833 0.8833 0.4688 -104.8413 181.904)" class="st6" cx="98.8" cy="178.1" rx="6.9" ry="6.9"/>
		
			<ellipse transform="matrix(0.4688 -0.8833 0.8833 0.4688 -104.8415 181.898)" class="st7" cx="98.8" cy="178.1" rx="4.9" ry="4.9"/>
	</g>
	<g>
		<ellipse transform="matrix(0.4687 -0.8833 0.8833 0.4687 -69.3587 310.591)" class="st6" cx="223.5" cy="213" rx="6.9" ry="6.9"/>
		
			<ellipse transform="matrix(0.4687 -0.8833 0.8833 0.4687 -69.3599 310.5875)" class="st7" cx="223.5" cy="213" rx="4.9" ry="4.9"/>
	</g>
	<g>
		
			<ellipse transform="matrix(0.4687 -0.8833 0.8833 0.4687 -82.2952 250.7054)" class="st7" cx="167.3" cy="193.8" rx="4.8" ry="4.8"/>
		
			<rect x="136.3" y="192.7" transform="matrix(0.4688 -0.8833 0.8833 0.4688 -82.2982 250.6921)" class="st8" width="62" height="2.2"/>
		
			<ellipse transform="matrix(0.4687 -0.8833 0.8833 0.4687 -50.3814 248.9888)" class="st7" cx="181.8" cy="166.4" rx="4.8" ry="4.8"/>
		
			<ellipse transform="matrix(0.4688 -0.8833 0.8833 0.4688 -114.2129 252.4001)" class="st7" cx="152.7" cy="221.2" rx="4.8" ry="4.8"/>
	</g>
	<g>
		<path class="st9" d="M189.6,184.3l10.1,7.5c1.4,1,9,4.7,10.1,3.4c1.1-1.3-3.7-6.3-5.1-7.3l-7.9-5.2
			C192.3,179.7,188.5,183.5,189.6,184.3z"/>
		<path class="st10" d="M184.7,162.4l10.2,11.6c-0.3-2.6,3.3-4.2,5.4-2.3c-0.7-2.6,2.6-4.4,4.8-3c-0.2-2.5,3.4-3.9,5.3-1.8l8.7,9.8
			c12.8,14.5-6.9,25.1-14.5,16.8l-24.6-27C176.9,163,182.2,159.5,184.7,162.4z"/>
		<path class="st9" d="M208.3,172c0,0-1.7-2-3.2-3.7c0,0.1,0,0.3,0,0.4c-0.2-0.1-0.4-0.2-0.6-0.3C206.2,170,208.3,172,208.3,172
			L208.3,172z M199.4,178.6L199.4,178.6L199.4,178.6L199.4,178.6L199.4,178.6z M199.4,171.2L199.4,171.2c0.3,0.1,0.6,0.3,0.9,0.6
			c0-0.2-0.1-0.3-0.1-0.5c1.7,1.9,3.8,4.3,3.8,4.3S201.1,172.9,199.4,171.2z M199.4,171.1L199.4,171.1L199.4,171.1L199.4,171.1
			L199.4,171.1z M199.4,178.6L199.4,178.6c-0.4-0.4-3.3-3.3-4.5-4.6c0,0,0,0,0-0.1c0-0.2,0-0.5,0-0.7
			C196.5,175.1,199,178.1,199.4,178.6z"/>
	</g>
</g>
<rect x="267.6" y="183.6" class="st1" width="122.2" height="174.1"/>
<path class="st6" d="M272.9,185.8h113.4v169.7H272.9v-7.6l0,0c0.7,0,1.3-0.6,1.3-1.3v-5.1c0-0.7-0.6-1.3-1.3-1.3v-3.5l0,0
	c0.7,0,1.3-0.6,1.3-1.3v-5.1c0-0.7-0.6-1.3-1.3-1.3v-3.5l0,0c0.7,0,1.3-0.6,1.3-1.3v-5.1c0-0.7-0.6-1.3-1.3-1.3v-3.5l0,0
	c0.7,0,1.3-0.6,1.3-1.3v-5.1c0-0.7-0.6-1.3-1.3-1.3v-3.5l0,0c0.7,0,1.3-0.6,1.3-1.3v-5.1c0-0.7-0.6-1.3-1.3-1.3v-3.5l0,0
	c0.7,0,1.3-0.6,1.3-1.3v-5.1c0-0.7-0.6-1.3-1.3-1.3v-3.5l0,0c0.7,0,1.3-0.6,1.3-1.3v-5.1c0-0.7-0.6-1.3-1.3-1.3v-3.5l0,0
	c0.7,0,1.3-0.6,1.3-1.3v-5.1c0-0.7-0.6-1.3-1.3-1.3v-3.5l0,0c0.7,0,1.3-0.6,1.3-1.3v-5.1c0-0.7-0.6-1.3-1.3-1.3v-3.5l0,0
	c0.7,0,1.3-0.6,1.3-1.3v-5.1c0-0.7-0.6-1.3-1.3-1.3v-3.5l0,0c0.7,0,1.3-0.6,1.3-1.3v-5.1c0-0.7-0.6-1.3-1.3-1.3v-3.5l0,0
	c0.7,0,1.3-0.6,1.3-1.3v-5.1c0-0.7-0.6-1.3-1.3-1.3v-3.5l0,0c0.7,0,1.3-0.6,1.3-1.3v-5.1c0-0.7-0.6-1.3-1.3-1.3v-3.5l0,0
	c0.7,0,1.3-0.6,1.3-1.3v-5.1c0-0.7-0.6-1.3-1.3-1.3V185.8L272.9,185.8z M272.9,193.5L272.9,193.5L272.9,193.5z M272.9,204.7
	L272.9,204.7L272.9,204.7z M272.9,216L272.9,216L272.9,216z M272.9,227.3L272.9,227.3L272.9,227.3z M272.9,238.6L272.9,238.6
	L272.9,238.6z M272.9,249.9L272.9,249.9L272.9,249.9z M272.9,261.2L272.9,261.2L272.9,261.2z M272.9,272.4L272.9,272.4L272.9,272.4z
	 M272.9,283.7L272.9,283.7L272.9,283.7z M272.9,295L272.9,295L272.9,295z M272.9,306.3L272.9,306.3L272.9,306.3z M272.9,317.6
	L272.9,317.6L272.9,317.6z M272.9,328.9L272.9,328.9L272.9,328.9z M272.9,340.1 M268.9,185.8h4.1v7.6l0,0c-0.7,0-1.3,0.6-1.3,1.3
	v5.1c0,0.7,0.6,1.3,1.3,1.3v3.5l0,0c-0.7,0-1.3,0.6-1.3,1.3v5.1c0,0.7,0.6,1.3,1.3,1.3v3.5l0,0c-0.7,0-1.3,0.6-1.3,1.3v5.1
	c0,0.7,0.6,1.3,1.3,1.3v3.5l0,0c-0.7,0-1.3,0.6-1.3,1.3v5.1c0,0.7,0.6,1.3,1.3,1.3v3.5l0,0c-0.7,0-1.3,0.6-1.3,1.3v5.1
	c0,0.7,0.6,1.3,1.3,1.3v3.5l0,0c-0.7,0-1.3,0.6-1.3,1.3v5.1c0,0.7,0.6,1.3,1.3,1.3v3.5l0,0c-0.7,0-1.3,0.6-1.3,1.3v5.1
	c0,0.7,0.6,1.3,1.3,1.3v3.5l0,0c-0.7,0-1.3,0.6-1.3,1.3v5.1c0,0.7,0.6,1.3,1.3,1.3v3.5l0,0c-0.7,0-1.3,0.6-1.3,1.3v5.1
	c0,0.7,0.6,1.3,1.3,1.3v3.5l0,0c-0.7,0-1.3,0.6-1.3,1.3v5.1c0,0.7,0.6,1.3,1.3,1.3v3.5l0,0c-0.7,0-1.3,0.6-1.3,1.3v5.1
	c0,0.7,0.6,1.3,1.3,1.3v3.5l0,0c-0.7,0-1.3,0.6-1.3,1.3v5.1c0,0.7,0.6,1.3,1.3,1.3v3.5l0,0c-0.7,0-1.3,0.6-1.3,1.3v5.1
	c0,0.7,0.6,1.3,1.3,1.3v3.5l0,0c-0.7,0-1.3,0.6-1.3,1.3v5.1c0,0.7,0.6,1.3,1.3,1.3v7.6h-4.1V185.8L268.9,185.8z M272.9,201.2
	L272.9,201.2L272.9,201.2z M272.9,212.5L272.9,212.5L272.9,212.5z M272.9,223.8L272.9,223.8L272.9,223.8z M272.9,235.1L272.9,235.1
	L272.9,235.1z M272.9,246.4L272.9,246.4L272.9,246.4z M272.9,257.6L272.9,257.6L272.9,257.6z M272.9,268.9L272.9,268.9L272.9,268.9z
	 M272.9,280.2L272.9,280.2L272.9,280.2z M272.9,291.5L272.9,291.5L272.9,291.5z M272.9,302.8L272.9,302.8L272.9,302.8z M272.9,314.1
	L272.9,314.1L272.9,314.1z M272.9,325.3L272.9,325.3L272.9,325.3z M272.9,336.6L272.9,336.6L272.9,336.6z M272.9,347.9"/>
<path class="st11" d="M339.2,255.4c-17.5,3.9-26.1-26.9-0.4-33.9c26.7-7.4,39.2,31.5,20.5,43.6c-12.5,8-31.4,3.1-44.6,8.4
	c-11.9,4.8-18.3,20.3-10.7,31.5c4.7,7,14.1,10.8,24,7.7c10.6-3.3,15.4-13.5,8.4-26.9c-7-13.4-29.1-1.5-22.5,12.6
	c6.1,12.9,21.7,1.3,16-7"/>
<g>
	<g>
		<path class="st4" d="M272.1,194.9h-10.8c-0.5,0-0.8,0.4-0.8,0.8l0,0c0,0.5,0.4,0.8,0.8,0.8h10.8c0.5,0,0.8-0.4,0.8-0.8l0,0
			C272.9,195.2,272.6,194.9,272.1,194.9z"/>
		<path class="st4" d="M272.1,198.2h-10.8c-0.5,0-0.8,0.4-0.8,0.8l0,0c0,0.5,0.4,0.8,0.8,0.8h10.8c0.5,0,0.8-0.4,0.8-0.8l0,0
			C272.9,198.5,272.6,198.2,272.1,198.2z"/>
	</g>
	<g>
		<path class="st4" d="M272.1,206.1h-10.8c-0.5,0-0.8,0.4-0.8,0.8l0,0c0,0.5,0.4,0.8,0.8,0.8h10.8c0.5,0,0.8-0.4,0.8-0.8l0,0
			C272.9,206.5,272.6,206.1,272.1,206.1z"/>
		<path class="st4" d="M272.1,209.4h-10.8c-0.5,0-0.8,0.4-0.8,0.8l0,0c0,0.5,0.4,0.8,0.8,0.8h10.8c0.5,0,0.8-0.4,0.8-0.8l0,0
			C272.9,209.8,272.6,209.4,272.1,209.4z"/>
	</g>
	<g>
		<path class="st4" d="M272.1,217.4h-10.8c-0.5,0-0.8,0.4-0.8,0.8l0,0c0,0.5,0.4,0.8,0.8,0.8h10.8c0.5,0,0.8-0.4,0.8-0.8l0,0
			C272.9,217.8,272.6,217.4,272.1,217.4z"/>
		<path class="st4" d="M272.1,220.7h-10.8c-0.5,0-0.8,0.4-0.8,0.8l0,0c0,0.5,0.4,0.8,0.8,0.8h10.8c0.5,0,0.8-0.4,0.8-0.8l0,0
			C272.9,221.1,272.6,220.7,272.1,220.7z"/>
	</g>
	<g>
		<path class="st4" d="M272.1,228.7h-10.8c-0.5,0-0.8,0.4-0.8,0.8l0,0c0,0.5,0.4,0.8,0.8,0.8h10.8c0.5,0,0.8-0.4,0.8-0.8l0,0
			C272.9,229,272.6,228.7,272.1,228.7z"/>
		<path class="st4" d="M272.1,232h-10.8c-0.5,0-0.8,0.4-0.8,0.8l0,0c0,0.5,0.4,0.8,0.8,0.8h10.8c0.5,0,0.8-0.4,0.8-0.8l0,0
			C272.9,232.3,272.6,232,272.1,232z"/>
	</g>
	<g>
		<path class="st4" d="M272.1,239.9h-10.8c-0.5,0-0.8,0.4-0.8,0.8l0,0c0,0.5,0.4,0.8,0.8,0.8h10.8c0.5,0,0.8-0.4,0.8-0.8l0,0
			C272.9,240.3,272.6,239.9,272.1,239.9z"/>
		<path class="st4" d="M272.1,243.2h-10.8c-0.5,0-0.8,0.4-0.8,0.8l0,0c0,0.5,0.4,0.8,0.8,0.8h10.8c0.5,0,0.8-0.4,0.8-0.8l0,0
			C272.9,243.6,272.6,243.2,272.1,243.2z"/>
	</g>
	<g>
		<path class="st4" d="M272.1,251.2h-10.8c-0.5,0-0.8,0.4-0.8,0.8l0,0c0,0.5,0.4,0.8,0.8,0.8h10.8c0.5,0,0.8-0.4,0.8-0.8l0,0
			C272.9,251.6,272.6,251.2,272.1,251.2z"/>
		<path class="st4" d="M272.1,254.5h-10.8c-0.5,0-0.8,0.4-0.8,0.8l0,0c0,0.5,0.4,0.8,0.8,0.8h10.8c0.5,0,0.8-0.4,0.8-0.8l0,0
			C272.9,254.9,272.6,254.5,272.1,254.5z"/>
	</g>
	<g>
		<path class="st4" d="M272.1,262.5h-10.8c-0.5,0-0.8,0.4-0.8,0.8l0,0c0,0.5,0.4,0.8,0.8,0.8h10.8c0.5,0,0.8-0.4,0.8-0.8l0,0
			C272.9,262.9,272.6,262.5,272.1,262.5z"/>
		<path class="st4" d="M272.1,265.8h-10.8c-0.5,0-0.8,0.4-0.8,0.8l0,0c0,0.5,0.4,0.8,0.8,0.8h10.8c0.5,0,0.8-0.4,0.8-0.8l0,0
			C272.9,266.2,272.6,265.8,272.1,265.8z"/>
	</g>
	<g>
		<path class="st4" d="M272.1,273.8h-10.8c-0.5,0-0.8,0.4-0.8,0.8l0,0c0,0.5,0.4,0.8,0.8,0.8h10.8c0.5,0,0.8-0.4,0.8-0.8l0,0
			C272.9,274.1,272.6,273.8,272.1,273.8z"/>
		<path class="st4" d="M272.1,277.1h-10.8c-0.5,0-0.8,0.4-0.8,0.8l0,0c0,0.5,0.4,0.8,0.8,0.8h10.8c0.5,0,0.8-0.4,0.8-0.8l0,0
			C272.9,277.4,272.6,277.1,272.1,277.1z"/>
	</g>
	<g>
		<path class="st4" d="M272.1,285h-10.8c-0.5,0-0.8,0.4-0.8,0.8l0,0c0,0.5,0.4,0.8,0.8,0.8h10.8c0.5,0,0.8-0.4,0.8-0.8l0,0
			C272.9,285.4,272.6,285,272.1,285z"/>
		<path class="st4" d="M272.1,288.3h-10.8c-0.5,0-0.8,0.4-0.8,0.8l0,0c0,0.5,0.4,0.8,0.8,0.8h10.8c0.5,0,0.8-0.4,0.8-0.8l0,0
			C272.9,288.7,272.6,288.3,272.1,288.3z"/>
	</g>
	<g>
		<path class="st4" d="M272.1,296.3h-10.8c-0.5,0-0.8,0.4-0.8,0.8l0,0c0,0.5,0.4,0.8,0.8,0.8h10.8c0.5,0,0.8-0.4,0.8-0.8l0,0
			C272.9,296.7,272.6,296.3,272.1,296.3z"/>
		<path class="st4" d="M272.1,299.6h-10.8c-0.5,0-0.8,0.4-0.8,0.8l0,0c0,0.5,0.4,0.8,0.8,0.8h10.8c0.5,0,0.8-0.4,0.8-0.8l0,0
			C272.9,300,272.6,299.6,272.1,299.6z"/>
	</g>
	<g>
		<path class="st4" d="M272.1,307.6h-10.8c-0.5,0-0.8,0.4-0.8,0.8l0,0c0,0.5,0.4,0.8,0.8,0.8h10.8c0.5,0,0.8-0.4,0.8-0.8l0,0
			C272.9,307.9,272.6,307.6,272.1,307.6z"/>
		<path class="st4" d="M272.1,310.9h-10.8c-0.5,0-0.8,0.4-0.8,0.8l0,0c0,0.5,0.4,0.8,0.8,0.8h10.8c0.5,0,0.8-0.4,0.8-0.8l0,0
			C272.9,311.2,272.6,310.9,272.1,310.9z"/>
	</g>
	<g>
		<path class="st4" d="M272.1,318.8h-10.8c-0.5,0-0.8,0.4-0.8,0.8l0,0c0,0.5,0.4,0.8,0.8,0.8h10.8c0.5,0,0.8-0.4,0.8-0.8l0,0
			C272.9,319.2,272.6,318.8,272.1,318.8z"/>
		<path class="st4" d="M272.1,322.1h-10.8c-0.5,0-0.8,0.4-0.8,0.8l0,0c0,0.5,0.4,0.8,0.8,0.8h10.8c0.5,0,0.8-0.4,0.8-0.8l0,0
			C272.9,322.5,272.6,322.1,272.1,322.1z"/>
	</g>
	<g>
		<path class="st4" d="M272.1,330.1h-10.8c-0.5,0-0.8,0.4-0.8,0.8l0,0c0,0.5,0.4,0.8,0.8,0.8h10.8c0.5,0,0.8-0.4,0.8-0.8l0,0
			C272.9,330.5,272.6,330.1,272.1,330.1z"/>
		<path class="st4" d="M272.1,333.4h-10.8c-0.5,0-0.8,0.4-0.8,0.8l0,0c0,0.5,0.4,0.8,0.8,0.8h10.8c0.5,0,0.8-0.4,0.8-0.8l0,0
			C272.9,333.8,272.6,333.4,272.1,333.4z"/>
	</g>
	<g>
		<path class="st4" d="M272.1,341.4h-10.8c-0.5,0-0.8,0.4-0.8,0.8l0,0c0,0.5,0.4,0.8,0.8,0.8h10.8c0.5,0,0.8-0.4,0.8-0.8l0,0
			C272.9,341.7,272.6,341.4,272.1,341.4z"/>
		<path class="st4" d="M272.1,344.7h-10.8c-0.5,0-0.8,0.4-0.8,0.8l0,0c0,0.5,0.4,0.8,0.8,0.8h10.8c0.5,0,0.8-0.4,0.8-0.8l0,0
			C272.9,345,272.6,344.7,272.1,344.7z"/>
	</g>
</g>
<g>
	<polygon class="st12" points="389.4,208.6 347.6,250.4 339.5,255.2 344.3,247.2 386.1,205.3 	"/>
	<path class="st13" d="M405.1,186.3c0.8-0.8,2.2-0.7,3.1,0.2l0,0c0.9,0.9,1,2.3,0.2,3.1l-19,19l-3.3-3.3L405.1,186.3z"/>
	<path class="st14" d="M345.4,248.2l59.2-59.2l1.1,1.1l-59.2,59.2C345.6,249.5,345.2,249.2,345.4,248.2z"/>
	<path class="st2" d="M345.4,248.2c-0.9,0.2-1.3-0.2-1.1-1.1l59.2-59.2l1.1,1.1L345.4,248.2z"/>
	<path class="st15" d="M347.6,250.4c-0.9,0.2-1.3-0.2-1.1-1.1l59.2-59.2l1.1,1.1L347.6,250.4z"/>
	<path class="st16" d="M343.2,252.8l-3.7,2.4l2.4-3.7c0.2,0.2,0.5,0.4,0.7,0.6C342.9,252.3,343.1,252.6,343.2,252.8z"/>
	
		<rect x="400.8" y="190.6" transform="matrix(0.7068 -0.7074 0.7074 0.7068 -17.1143 341.4478)" class="st4" width="5.1" height="1.6"/>
	
		<rect x="399.7" y="189.5" transform="matrix(0.7071 -0.7071 0.7071 0.7071 -16.718 340.1883)" class="st17" width="5.1" height="1.5"/>
	
		<rect x="401.9" y="191.7" transform="matrix(0.7071 -0.7071 0.7071 0.7071 -17.6267 342.3825)" class="st18" width="5.1" height="1.5"/>
</g>
<g>
	<rect x="65" y="243.9" class="st1" width="15" height="15"/>
	<rect x="90" y="243.9" class="st2" width="15" height="15"/>
	<rect x="115" y="243.9" class="st0" width="15" height="15"/>
	<rect x="140" y="243.9" class="st19" width="15" height="15"/>
	<rect x="164.9" y="243.9" class="st6" width="15" height="15"/>
	<rect x="189.9" y="243.9" class="st20" width="15" height="15"/>
	<rect x="214.9" y="243.9" class="st21" width="15" height="15"/>
	<rect x="239.9" y="243.9" class="st22" width="15" height="15"/>
</g>
<g>
	<polygon class="st1" points="180,41.6 174.3,32.7 74,96.8 74,101.5 176.5,36.1 177.8,38.2 74,104.5 74,109.3 	"/>
	<path class="st1" d="M171.7,8c3.6-1.5,7.2-2.5,10.9-3L194,23.6c13.7,1.4,27.3,11.6,34.5,27.4c-10.6,3.6-21.6,7.9-32.8,12.7
		c-11.2,4.8-21.8,9.9-31.8,15.1c-6.6-16-4.6-33,3.8-43.9l-5.7-21C164.9,11.5,168.1,9.5,171.7,8z"/>
</g>
</svg>
