<?xml version="1.0" encoding="iso-8859-1"?>
<!-- Generator: Adobe Illustrator 19.0.0, SVG Export Plug-In . SVG Version: 6.00 Build 0)  -->
<svg version="1.1" id="Capa_1" xmlns="http://www.w3.org/2000/svg" xmlns:xlink="http://www.w3.org/1999/xlink" x="0px" y="0px"
	 viewBox="0 0 512 512" style="enable-background:new 0 0 512 512;" xml:space="preserve">
<linearGradient id="SVGID_1_" gradientUnits="userSpaceOnUse" x1="0" y1="258" x2="512" y2="258" gradientTransform="matrix(1 0 0 -1 0 514)">
	<stop  offset="0" style="stop-color:#80D8FF"/>
	<stop  offset="1" style="stop-color:#EA80FC"/>
</linearGradient>
<path style="fill:url(#SVGID_1_);" d="M452,512H60c-33.084,0-60-26.916-60-60V60C0,26.916,26.916,0,60,0h392
	c33.084,0,60,26.916,60,60v392C512,485.084,485.084,512,452,512z M60,40c-11.028,0-20,8.972-20,20v392c0,11.028,8.972,20,20,20h392
	c11.028,0,20-8.972,20-20V60c0-11.028-8.972-20-20-20H60z M226.849,395.982c6.589-0.28,12.616-3.79,16.111-9.382l150-240
	c5.854-9.367,3.007-21.706-6.36-27.56c-9.365-5.854-21.705-3.007-27.56,6.36L224.499,340.666L152,244
	c-6.628-8.836-19.162-10.628-28-4c-8.837,6.627-10.627,19.164-4,28l90,120c3.786,5.048,9.721,8,15.998,8
	C226.281,396,226.564,395.994,226.849,395.982z"/>
<g>
</g>
<g>
</g>
<g>
</g>
<g>
</g>
<g>
</g>
<g>
</g>
<g>
</g>
<g>
</g>
<g>
</g>
<g>
</g>
<g>
</g>
<g>
</g>
<g>
</g>
<g>
</g>
<g>
</g>
</svg>
