<?xml version="1.0" encoding="utf-8"?>
<!-- Generator: Adobe Illustrator 21.0.0, SVG Export Plug-In . SVG Version: 6.00 Build 0)  -->
<svg version="1.1" id="Layer_1" xmlns="http://www.w3.org/2000/svg" xmlns:xlink="http://www.w3.org/1999/xlink" x="0px" y="0px"
	 viewBox="0 0 500 300" style="enable-background:new 0 0 500 300;" xml:space="preserve">
<style type="text/css">
	.st0{fill:#DD518B;}
	.st1{fill:#B5B5B5;}
	.st2{fill:#82D4C9;}
	.st3{fill:#272425;}
	.st4{fill:#828282;}
	.st5{fill:#9DC44D;}
	.st6{fill:#7F5E40;}
	.st7{fill:#DEDEDE;}
	.st8{fill:#FFFFFF;}
	.st9{fill:#752ACD;}
	.st10{filter:url(#Adobe_OpacityMaskFilter);}
	.st11{fill:url(#XMLID_3_);}
	.st12{mask:url(#XMLID_2_);}
	.st13{opacity:0.5;clip-path:url(#XMLID_4_);}
	.st14{fill:#938379;}
	.st15{fill:#D9D9D9;}
	.st16{fill:#6E6659;}
	.st17{fill:#B7986E;}
	.st18{clip-path:url(#XMLID_4_);}
</style>
<g id="XMLID_263_">
	<path id="XMLID_266_" class="st0" d="M215.5,245.1H86.4c-0.9,0-1.8,0.3-2.5,0.8l-2.3,1.5c-1.3,0.9-2.1,2.3-2.1,3.9V262
		c0,2.6,2.1,4.6,4.6,4.6h133.7c2.6,0,4.6-2.1,4.6-4.6v-10.8c0-1.6-0.8-3-2.1-3.9l-2.3-1.5C217.3,245.4,216.4,245.1,215.5,245.1z"/>
	<path id="XMLID_267_" class="st1" d="M81.6,247.4c-0.5,0.4-1,0.8-1.3,1.4h141.4c-0.3-0.5-0.8-1-1.3-1.4l-2.3-1.5
		c-0.8-0.5-1.6-0.8-2.5-0.8H86.4c-0.9,0-1.8,0.3-2.5,0.8L81.6,247.4z"/>
</g>
<g id="XMLID_265_">
	<path id="XMLID_269_" class="st2" d="M210,223.6H80.9c-0.9,0-1.8,0.3-2.5,0.8l-2.3,1.5c-1.3,0.9-2.1,2.3-2.1,3.9v10.8
		c0,2.6,2.1,4.6,4.6,4.6h133.7c2.6,0,4.6-2.1,4.6-4.6v-10.8c0-1.6-0.8-3-2.1-3.9l-2.3-1.5C211.8,223.9,210.9,223.6,210,223.6z"/>
	<path id="XMLID_268_" class="st1" d="M76.1,225.8c-0.5,0.4-1,0.8-1.3,1.4h141.4c-0.3-0.5-0.8-1-1.3-1.4l-2.3-1.5
		c-0.8-0.5-1.6-0.8-2.5-0.8H80.9c-0.9,0-1.8,0.3-2.5,0.8L76.1,225.8z"/>
</g>
<g id="XMLID_270_">
	<path id="XMLID_272_" class="st3" d="M221.2,202.4H92.1c-0.9,0-1.8,0.3-2.5,0.8l-2.3,1.5c-1.3,0.9-2.1,2.3-2.1,3.9v10.8
		c0,2.6,2.1,4.6,4.6,4.6h133.7c2.6,0,4.6-2.1,4.6-4.6v-10.8c0-1.6-0.8-3-2.1-3.9l-2.3-1.5C223,202.7,222.1,202.4,221.2,202.4z"/>
	<path id="XMLID_271_" class="st1" d="M87.3,204.6c-0.5,0.4-1,0.8-1.3,1.4h141.4c-0.3-0.5-0.8-1-1.3-1.4l-2.3-1.5
		c-0.8-0.5-1.6-0.8-2.5-0.8H92.1c-0.9,0-1.8,0.3-2.5,0.8L87.3,204.6z"/>
</g>
<g id="XMLID_273_">
	<ellipse id="XMLID_262_" class="st4" cx="74" cy="282.6" rx="41.6" ry="2.8"/>
	<g id="XMLID_196_">
		<path id="XMLID_198_" class="st5" d="M42.2,188.7c1.5,5.4-5.8,21.5-2.2,32.2c3.6,10.7,9.7,15.4,9.7,15.4l7.7-2.6l7.7-2.6
			c0,0,1.9-7.5-1.7-18.1C59.9,202.4,44.3,194,42.2,188.7z"/>
		<path id="XMLID_197_" class="st1" d="M57.4,233.8l7.7-2.6c0,0,1.9-7.5-1.7-18.1c-3.6-10.7-19.2-19-21.3-24.3L57.4,233.8z"/>
	</g>
	<g id="XMLID_199_">
		<path id="XMLID_201_" class="st5" d="M99.7,204c-1.4,3.6-12.1,9.2-14.5,16.4c-2.5,7.2-1.2,12.3-1.2,12.3l5.2,1.8l5.2,1.8
			c0,0,4.1-3.2,6.6-10.5S98.6,207.7,99.7,204z"/>
		<path id="XMLID_200_" class="st1" d="M89.2,234.6l5.2,1.8c0,0,4.1-3.2,6.6-10.5c2.5-7.2-2.4-18.2-1.4-21.9L89.2,234.6z"/>
	</g>
	<g id="XMLID_202_">
		<path id="XMLID_204_" class="st5" d="M103.6,210.1c-1.2,3-10.1,7.7-12.1,13.7c-2.1,6-1,10.3-1,10.3l4.4,1.5l4.4,1.5
			c0,0,3.5-2.7,5.5-8.7C106.8,222.3,102.7,213.2,103.6,210.1z"/>
		<path id="XMLID_203_" class="st1" d="M94.8,235.6l4.4,1.5c0,0,3.5-2.7,5.5-8.7c2.1-6-2-15.2-1.1-18.3L94.8,235.6z"/>
	</g>
	<g id="XMLID_119_">
		<path id="XMLID_195_" class="st5" d="M74,158.6c-0.4,8.7-19.2,28.8-19.2,46.2s6.5,27.5,6.5,27.5H74h12.6c0,0,6.5-10,6.5-27.5
			S74.4,167.3,74,158.6z"/>
		<path id="XMLID_194_" class="st1" d="M74,232.3h12.6c0,0,6.5-10,6.5-27.5S74.4,167.3,74,158.6V232.3z"/>
	</g>
	<path id="XMLID_120_" class="st6" d="M40,228c8.5,0,8.5,2.6,17,2.6c8.5,0,8.5-2.6,17-2.6c8.5,0,8.5,2.6,17,2.6s8.5-2.6,17-2.6v6.3
		H40V228z"/>
	<path id="XMLID_121_" class="st7" d="M40,234.3h68v23.2c0,13.9-11.3,25.2-25.2,25.2H65.2c-13.9,0-25.2-11.3-25.2-25.2V234.3z"/>
	<rect id="XMLID_193_" x="40" y="234.3" class="st1" width="68" height="4.2"/>
</g>
<g id="XMLID_260_">
	<ellipse id="XMLID_261_" class="st4" cx="302.6" cy="263.5" rx="41.6" ry="2.8"/>
	<polygon id="XMLID_207_" class="st7" points="326.3,252.4 279,252.4 281.3,206.5 323.9,206.5 	"/>
	<path id="XMLID_220_" class="st7" d="M326.3,245.2l-23.7,1.3l-23.7-1.3c0,4.3-6.4,10.1-11.3,12.7c-1.8,0.9-2.9,2.8-2.9,4.8v0.2
		h37.9h37.9v-0.2c0-2-1.2-3.8-2.9-4.8C332.7,255.3,326.3,249.5,326.3,245.2z"/>
	<polygon id="XMLID_219_" class="st1" points="280.6,221.8 324.7,221.8 324.4,215.4 280.9,215.4 	"/>
	<path id="XMLID_118_" class="st8" d="M430.3,14.6H175c-13.3,0-24,10.8-24,24v152.7c0,13.3,10.8,24,24,24h255.3
		c13.3,0,24-10.8,24-24V38.6C454.3,25.4,443.6,14.6,430.3,14.6z"/>
	<path id="XMLID_206_" class="st7" d="M150.9,172.9v26.7c0,8.7,7.1,15.8,15.8,15.8h271.9c8.7,0,15.8-7.1,15.8-15.8v-26.7H150.9z"/>
	<path id="XMLID_209_" class="st3" d="M438.7,14.6h-272c-8.7,0-15.7,7-15.7,15.7v142.7h303.4V30.3C454.3,21.6,447.3,14.6,438.7,14.6
		z"/>
	<rect id="XMLID_205_" x="162.3" y="26.8" class="st9" width="280.7" height="134"/>
	<circle id="XMLID_210_" class="st1" cx="300.8" cy="194.2" r="6.4"/>
	<defs>
		<filter id="Adobe_OpacityMaskFilter" filterUnits="userSpaceOnUse" x="134.1" y="26.8" width="333.3" height="138.6">
			<feColorMatrix  type="matrix" values="1 0 0 0 0  0 1 0 0 0  0 0 1 0 0  0 0 0 1 0"/>
		</filter>
	</defs>
	<mask maskUnits="userSpaceOnUse" x="134.1" y="26.8" width="333.3" height="138.6" id="XMLID_2_">
		<g id="XMLID_62_" class="st10">
			<linearGradient id="XMLID_3_" gradientUnits="userSpaceOnUse" x1="302.6371" y1="30.232" x2="302.6371" y2="160.2423">
				<stop  offset="0" style="stop-color:#FFFFFF"/>
				<stop  offset="1" style="stop-color:#000000"/>
			</linearGradient>
			<rect id="XMLID_63_" x="162.3" y="26.8" class="st11" width="280.7" height="134"/>
		</g>
	</mask>
	<g id="XMLID_217_" class="st12">
		<defs>
			<rect id="XMLID_222_" x="162.3" y="26.8" width="280.7" height="134"/>
		</defs>
		<clipPath id="XMLID_4_">
			<use xlink:href="#XMLID_222_"  style="overflow:visible;"/>
		</clipPath>
		<g id="XMLID_253_" class="st13">
			<polygon id="XMLID_259_" class="st14" points="333.3,69 290.6,142.1 333.3,142.1 376.1,142.1 			"/>
			<polygon id="XMLID_258_" class="st15" points="376.1,142.1 333.3,69 342.3,109.3 333.3,111.5 333.3,142.1 			"/>
			<polygon id="XMLID_257_" class="st16" points="383.1,52.6 330.7,142.1 383.1,142.1 435.4,142.1 			"/>
			<polygon id="XMLID_256_" class="st15" points="435.4,142.1 383.1,52.6 394.1,101.9 383.1,104.7 383.1,142.1 			"/>
			<polygon id="XMLID_255_" class="st17" points="431.4,80.6 395.4,142.1 431.4,142.1 467.4,142.1 			"/>
			<polygon id="XMLID_254_" class="st15" points="467.4,142.1 431.4,80.6 439,114.5 431.4,116.4 431.4,142.1 			"/>
		</g>
		<g id="XMLID_246_" class="st13">
			<polygon id="XMLID_252_" class="st14" points="184.5,69 141.7,142.1 184.5,142.1 227.2,142.1 			"/>
			<polygon id="XMLID_251_" class="st15" points="227.2,142.1 184.5,69 193.5,109.3 184.5,111.5 184.5,142.1 			"/>
			<polygon id="XMLID_250_" class="st16" points="234.2,52.6 181.8,142.1 234.2,142.1 286.6,142.1 			"/>
			<polygon id="XMLID_249_" class="st15" points="286.6,142.1 234.2,52.6 245.2,101.9 234.2,104.7 234.2,142.1 			"/>
			<polygon id="XMLID_248_" class="st17" points="282.5,80.6 246.5,142.1 282.5,142.1 318.5,142.1 			"/>
			<polygon id="XMLID_247_" class="st15" points="318.5,142.1 282.5,80.6 290.1,114.5 282.5,116.4 282.5,142.1 			"/>
		</g>
		<g id="XMLID_223_" class="st18">
			<polygon id="XMLID_245_" class="st14" points="213.8,70.7 134.1,165.4 213.8,165.4 293.5,165.4 			"/>
			<polygon id="XMLID_244_" class="st15" points="293.5,165.4 213.8,70.7 230.6,122.9 213.8,125.8 213.8,165.4 			"/>
			<polygon id="XMLID_243_" class="st16" points="306.5,49.3 208.9,165.4 306.5,165.4 404.1,165.4 			"/>
			<polygon id="XMLID_242_" class="st15" points="404.1,165.4 306.5,49.3 327.1,113.3 306.5,116.9 306.5,165.4 			"/>
			<polygon id="XMLID_234_" class="st17" points="396.6,85.6 329.5,165.4 396.6,165.4 463.7,165.4 			"/>
			<polygon id="XMLID_224_" class="st15" points="463.7,165.4 396.6,85.6 410.7,129.6 396.6,132 396.6,165.4 			"/>
		</g>
	</g>
</g>
<g id="XMLID_325_">
	<ellipse id="XMLID_324_" class="st4" cx="290.5" cy="284.5" rx="123.3" ry="2.8"/>
	<g id="XMLID_225_">
		<polygon id="XMLID_351_" class="st7" points="397.8,269 183,269 167.3,280.9 413.5,280.9 		"/>
		<path id="XMLID_323_" class="st7" d="M169,284.2h242.8c1.1-0.9,1.7-2.1,1.7-3.3H290.4H167.3C167.3,282.1,167.9,283.3,169,284.2z"
			/>
		<g id="XMLID_274_">
			<polygon id="XMLID_322_" class="st3" points="236.3,274.6 244.7,274.6 246.4,271.1 238.3,271.1 			"/>
			<polygon id="XMLID_321_" class="st3" points="227.2,274.6 235.5,274.6 237.5,271.1 229.5,271.1 			"/>
			<polygon id="XMLID_320_" class="st3" points="281.7,271.1 273.6,271.1 273,274.6 281.4,274.6 			"/>
			<polygon id="XMLID_319_" class="st3" points="245.5,274.6 253.9,274.6 255.2,271.1 247.1,271.1 			"/>
			<polygon id="XMLID_318_" class="st3" points="254.6,274.6 263.1,274.6 264.1,271.1 255.9,271.1 			"/>
			<polygon id="XMLID_317_" class="st3" points="272.9,271.1 264.8,271.1 263.8,274.6 272.2,274.6 			"/>
			<polygon id="XMLID_316_" class="st3" points="208.9,274.6 217.2,274.6 219.8,271.1 211.8,271.1 			"/>
			<polygon id="XMLID_315_" class="st3" points="190.6,274.6 198.8,274.6 202.1,271.1 194.2,271.1 			"/>
			<polygon id="XMLID_314_" class="st3" points="218,274.6 226.4,274.6 228.6,271.1 220.7,271.1 			"/>
			<polygon id="XMLID_313_" class="st3" points="186.3,278.8 194.9,278.8 198.2,275.3 189.9,275.3 			"/>
			<polygon id="XMLID_312_" class="st3" points="282.1,274.6 290.6,274.6 290.6,271.1 282.4,271.1 			"/>
			<polygon id="XMLID_311_" class="st3" points="199.8,274.6 208,274.6 210.9,271.1 203,271.1 			"/>
			<polygon id="XMLID_310_" class="st3" points="327.8,274.6 336.3,274.6 334.6,271.1 326.5,271.1 			"/>
			<polygon id="XMLID_309_" class="st3" points="355.4,274.6 363.7,274.6 361.1,271.1 353.1,271.1 			"/>
			<polygon id="XMLID_308_" class="st3" points="364.6,274.6 372.8,274.6 369.9,271.1 362,271.1 			"/>
			<polygon id="XMLID_307_" class="st3" points="373.8,274.6 382,274.6 378.7,271.1 370.8,271.1 			"/>
			<polygon id="XMLID_306_" class="st3" points="346.2,274.6 354.6,274.6 352.3,271.1 344.2,271.1 			"/>
			<polygon id="XMLID_305_" class="st3" points="391.1,274.6 387.5,271.1 379.7,271.1 382.9,274.6 			"/>
			<polygon id="XMLID_304_" class="st3" points="300.3,274.6 308.8,274.6 308.1,271.1 300,271.1 			"/>
			<polygon id="XMLID_303_" class="st3" points="309.5,274.6 317.9,274.6 317,271.1 308.8,271.1 			"/>
			<polygon id="XMLID_302_" class="st3" points="291.3,274.6 299.6,274.6 299.3,271.1 291.3,271.1 			"/>
			<polygon id="XMLID_301_" class="st3" points="318.7,274.6 327.1,274.6 325.8,271.1 317.7,271.1 			"/>
			<polygon id="XMLID_300_" class="st3" points="337,274.6 345.4,274.6 343.4,271.1 335.4,271.1 			"/>
			<polygon id="XMLID_299_" class="st3" points="207.4,275.3 199.1,275.3 195.8,278.8 204.5,278.8 			"/>
			<polygon id="XMLID_298_" class="st3" points="382.6,275.3 374.3,275.3 377.3,278.8 385.9,278.8 			"/>
			<polygon id="XMLID_297_" class="st3" points="355,275.3 346.6,275.3 348.6,278.8 357.3,278.8 			"/>
			<polygon id="XMLID_296_" class="st3" points="364.2,275.3 355.8,275.3 358.1,278.8 366.8,278.8 			"/>
			<polygon id="XMLID_295_" class="st3" points="345.8,275.3 337.4,275.3 339,278.8 347.8,278.8 			"/>
			<polygon id="XMLID_294_" class="st3" points="336.6,275.3 328.1,275.3 329.4,278.8 338.2,278.8 			"/>
			<polygon id="XMLID_293_" class="st3" points="373.4,275.3 365.1,275.3 367.7,278.8 376.4,278.8 			"/>
			<polygon id="XMLID_292_" class="st3" points="402.6,275.3 402.6,275.3 392.8,275.3 396.4,278.8 407.2,278.8 			"/>
			<polygon id="XMLID_291_" class="st3" points="189.6,274.6 193.2,271.1 183.7,271.1 179,274.6 			"/>
			<polygon id="XMLID_290_" class="st3" points="188.9,275.3 178.1,275.3 173.5,278.8 185.3,278.8 			"/>
			<polygon id="XMLID_289_" class="st3" points="327.4,275.3 318.9,275.3 319.8,278.8 328.7,278.8 			"/>
			<polygon id="XMLID_288_" class="st3" points="391.8,275.3 383.6,275.3 386.9,278.8 395.4,278.8 			"/>
			<polygon id="XMLID_287_" class="st3" points="392.1,274.6 401.7,274.6 397.1,271.1 388.5,271.1 			"/>
			<polygon id="XMLID_286_" class="st3" points="216.7,275.3 208.3,275.3 205.4,278.8 214,278.8 			"/>
			<polygon id="XMLID_285_" class="st3" points="253.6,275.3 245.2,275.3 243.5,278.8 252.3,278.8 			"/>
			<polygon id="XMLID_284_" class="st3" points="244.4,275.3 236,275.3 234,278.8 242.8,278.8 			"/>
			<polygon id="XMLID_283_" class="st3" points="262.9,275.3 254.4,275.3 253.1,278.8 261.9,278.8 			"/>
			<polygon id="XMLID_282_" class="st3" points="235.2,275.3 226.7,275.3 224.5,278.8 233.2,278.8 			"/>
			<polygon id="XMLID_281_" class="st3" points="225.9,275.3 217.5,275.3 214.9,278.8 223.6,278.8 			"/>
			<polygon id="XMLID_280_" class="st3" points="272.1,275.3 263.6,275.3 262.6,278.8 271.5,278.8 			"/>
			<polygon id="XMLID_279_" class="st3" points="308.9,275.3 300.4,275.3 300.7,278.8 309.6,278.8 			"/>
			<polygon id="XMLID_278_" class="st3" points="299.7,275.3 291.3,275.3 291.3,278.8 300,278.8 			"/>
			<polygon id="XMLID_277_" class="st3" points="281.4,275.3 272.8,275.3 272.2,278.8 281,278.8 			"/>
			<polygon id="XMLID_276_" class="st3" points="318.1,275.3 309.6,275.3 310.3,278.8 319.1,278.8 			"/>
			<polygon id="XMLID_275_" class="st3" points="290.6,275.3 282.1,275.3 281.7,278.8 290.6,278.8 			"/>
		</g>
		<path id="XMLID_117_" class="st1" d="M169,284.2h242.8c1.1-0.9,1.7-2.1,1.7-3.3H290.4H167.3C167.3,282.1,167.9,283.3,169,284.2z"
			/>
	</g>
</g>
<g id="XMLID_327_">
	<ellipse id="XMLID_326_" class="st4" cx="441.7" cy="275.2" rx="17" ry="1.8"/>
	<path id="XMLID_264_" class="st7" d="M442.6,257.7h-1.7c-8.9,0-16.1,7.2-16.1,16.1v1.2h34v-1.2
		C458.7,264.9,451.5,257.7,442.6,257.7z"/>
</g>
</svg>
