<?xml version="1.0" encoding="iso-8859-1"?>
<!-- Generator: Adobe Illustrator 19.0.0, SVG Export Plug-In . SVG Version: 6.00 Build 0)  -->
<svg version="1.1" id="Layer_1" xmlns="http://www.w3.org/2000/svg" xmlns:xlink="http://www.w3.org/1999/xlink" x="0px" y="0px"
	 viewBox="0 0 511.884 511.884" style="enable-background:new 0 0 511.884 511.884;" xml:space="preserve">
<polygon style="fill:#8CC153;" points="362.668,469.236 127.972,511.882 127.972,42.654 362.574,0 "/>
<rect x="127.973" y="42.654" style="fill:#A0D468;" width="255.94" height="469.23"/>
<polygon style="fill:#E6E9ED;" points="170.627,277.28 219.372,196.017 268.128,277.28 "/>
<polygon style="fill:#F5F7FA;" points="211.25,277.28 276.251,163.517 341.251,277.28 "/>
<g>
	<path style="fill:#434A54;" d="M287.935,405.251H223.95c-5.897,0-10.669-4.78-10.669-10.686c0-5.873,4.772-10.653,10.669-10.653
		h63.985c5.89,0,10.654,4.78,10.654,10.653C298.589,400.47,293.824,405.251,287.935,405.251z"/>
	<path style="fill:#434A54;" d="M330.582,362.573H181.288c-5.89,0-10.662-4.765-10.662-10.653c0-5.89,4.772-10.654,10.662-10.654
		h149.293c5.905,0,10.67,4.765,10.67,10.654C341.251,357.808,336.487,362.573,330.582,362.573z"/>
</g>
<g>
</g>
<g>
</g>
<g>
</g>
<g>
</g>
<g>
</g>
<g>
</g>
<g>
</g>
<g>
</g>
<g>
</g>
<g>
</g>
<g>
</g>
<g>
</g>
<g>
</g>
<g>
</g>
<g>
</g>
</svg>
