<?xml version="1.0" encoding="utf-8"?>
<!-- Generator: Adobe Illustrator 21.0.0, SVG Export Plug-In . SVG Version: 6.00 Build 0)  -->
<svg version="1.1" id="Layer_1" xmlns="http://www.w3.org/2000/svg" xmlns:xlink="http://www.w3.org/1999/xlink" x="0px" y="0px"
	 viewBox="0 0 500 356" style="enable-background:new 0 0 500 356;" xml:space="preserve">
<style type="text/css">
	.st0{fill:#FFFFFF;}
	.st1{fill:#A2DDF8;}
	.st2{fill:#666563;}
	.st3{fill:#EDEDED;}
	.st4{fill:#EBCC3B;}
	.st5{fill:#F6DF52;}
	.st6{fill:#E0A535;}
	.st7{fill:#D55B5B;}
	.st8{opacity:0.38;fill:#B53E3E;}
	.st9{fill:#DFAB61;}
	.st10{opacity:0.71;fill:#504F47;}
	.st11{fill:#71AAC1;}
	.st12{fill:#504F47;}
	.st13{fill:#C0C4C4;}
	.st14{fill:#CAECF7;}
	.st15{opacity:0.79;fill:#FFFFFF;}
	.st16{opacity:0.71;fill:#FFFFFF;}
	.st17{fill:#D87A34;}
	.st18{fill:#DFB767;}
	.st19{fill:#EBCE8C;}
	.st20{opacity:0.49;fill:#D7B36E;}
	.st21{fill:#BF8741;}
	.st22{fill:#83C3DA;}
</style>
<g>
	<g>
		<g>
			<g>
				<path class="st0" d="M326.8,20c28.2,7.2,45.3,36,38.1,64.2c-4.4,17.2-16.8,30.2-32.2,36.2l7.1,11.9c0,0-11.4-3.8-20.3-8.7
					c-6.1,0.7-12.5,0.3-18.8-1.3c-28.2-7.2-45.3-36-38.1-64.2C269.8,29.8,298.6,12.8,326.8,20z"/>
				<g>
					<g>
						<path class="st1" d="M344.1,58.8l-0.2,29.4c0,3-2.5,5.5-5.6,5.5l-52.4-0.4c-3,0-5.5-2.5-5.5-5.6l0.2-29.4c0-3,2.5-5.5,5.6-5.5
							l52.4,0.4C341.7,53.3,344.2,55.8,344.1,58.8z"/>
						
							<rect x="307.6" y="36.1" transform="matrix(7.362267e-03 -1 1 7.362267e-03 242.2388 379.6455)" class="st2" width="9.5" height="63.5"/>
						<path class="st2" d="M304.4,77.5l-18.2-0.1c-0.8,0-1.5,0.7-1.5,1.5l0,0c0,0.8,0.7,1.5,1.5,1.5l18.2,0.1c0.8,0,1.5-0.7,1.5-1.5
							l0,0C305.9,78.2,305.2,77.5,304.4,77.5z"/>
						<path class="st2" d="M295.8,83.8l-9.7-0.1c-0.8,0-1.5,0.7-1.5,1.5l0,0c0,0.8,0.7,1.5,1.5,1.5l9.7,0.1c0.8,0,1.5-0.7,1.5-1.5
							l0,0C297.3,84.5,296.6,83.8,295.8,83.8z"/>
						
							<rect x="324.5" y="80.4" transform="matrix(1 7.367103e-03 -7.367103e-03 1 0.6311 -2.4424)" class="st3" width="14.7" height="8"/>
					</g>
					<g>
						
							<ellipse transform="matrix(7.370220e-03 -1 1 7.370220e-03 289.7635 388.7906)" class="st4" cx="340.7" cy="48.4" rx="15.7" ry="15.7"/>
						
							<ellipse transform="matrix(7.370108e-03 -1 1 7.370108e-03 289.7636 388.7907)" class="st5" cx="340.7" cy="48.4" rx="11.4" ry="11.4"/>
						<g>
							<path class="st6" d="M339.9,42.2l0-0.9l1.6,0l0,0.9c1.4,0.3,2.1,1.4,2.1,3.1l0,0.4l-1.9,0l0-0.5c0-0.9-0.4-1.2-1-1.3
								c-0.6,0-1,0.3-1,1.2c0,2.6,3.9,2.8,3.8,6.4c0,1.7-0.8,2.8-2.2,3.1l0,0.9l-1.6,0l0-0.9c-1.4-0.3-2.1-1.4-2.1-3.1l0-0.9l1.9,0
								l0,1c0,0.9,0.4,1.2,1,1.2c0.6,0,1-0.3,1-1.2c0-2.6-3.9-2.8-3.8-6.4C337.8,43.6,338.5,42.5,339.9,42.2z"/>
						</g>
					</g>
					<g>
						
							<ellipse transform="matrix(7.370222e-03 -1 1 7.370222e-03 275.1161 330.6666)" class="st4" cx="304.1" cy="26.8" rx="15.7" ry="15.7"/>
						
							<ellipse transform="matrix(7.370075e-03 -1 1 7.370075e-03 275.1162 330.6665)" class="st5" cx="304.1" cy="26.8" rx="11.4" ry="11.4"/>
						<g>
							<path class="st6" d="M303.3,20.5l0-0.9l1.6,0l0,0.9c1.4,0.3,2.1,1.4,2.1,3.1l0,0.4l-1.9,0l0-0.5c0-0.9-0.4-1.2-1-1.3
								c-0.6,0-1,0.3-1,1.2c0,2.6,3.9,2.8,3.8,6.4c0,1.7-0.8,2.8-2.2,3.1l0,0.9l-1.6,0l0-0.9c-1.4-0.3-2.1-1.4-2.1-3.1l0-0.9l1.9,0
								l0,1c0,0.9,0.4,1.2,1,1.2c0.6,0,1-0.3,1-1.2c0-2.6-3.9-2.8-3.8-6.4C301.2,21.9,301.9,20.8,303.3,20.5z"/>
						</g>
					</g>
				</g>
			</g>
			<g>
				<path class="st0" d="M243.5,57.9c-7.4-28.8-36.7-46.2-65.5-38.8s-46.2,36.7-38.8,65.5c4.5,17.5,17.1,30.8,32.8,36.9l-7.2,12.2
					c0,0,11.6-3.9,20.7-8.9c6.2,0.7,12.7,0.3,19.2-1.4C233.4,116,250.8,86.7,243.5,57.9z"/>
				<g>
					<g>
						<path class="st7" d="M168.1,89.5h46.3l-6.7-51.8c2.9-3.8,0.3-8.3,0.3-8.3l-6-7.8l0.6-12.5h-2.4l-0.9,11.6c0,0-8.7,11.1-8,8.6
							l-8-8.6l-0.9-11.6h-2.4l0.6,12.5l-6,7.8c0,0-2.5,4.4,0.3,8.3l0,0L168.1,89.5z"/>
						<polygon class="st8" points="177.7,59.8 176,89.5 171.2,89.5 						"/>
						<polygon class="st8" points="178.4,89.5 183.8,54.4 184.1,89.5 						"/>
						<polygon class="st8" points="210.9,89.5 206.1,89.5 204.4,59.8 						"/>
						<polygon class="st8" points="203.6,89.5 198,89.5 198.2,54.4 						"/>
						<polygon class="st8" points="194.3,89.5 187.2,89.5 190.9,51.6 						"/>
					</g>
					<g>
						<path class="st9" d="M163.1,77.3l4,22.5c0.6,3.1,3.2,5.3,6.4,5.3h35.8c3.1,0,5.8-2.2,6.4-5.3l4-22.5H163.1z"/>
						<path class="st2" d="M220.5,69.1h-58.2c-2.3,0-4.2,1.9-4.2,4.2v0c0,2.3,1.9,4.2,4.2,4.2h58.2c2.3,0,4.2-1.9,4.2-4.2v0
							C224.7,71,222.8,69.1,220.5,69.1z"/>
						<g>
							<path class="st2" d="M174.5,102.5L174.5,102.5c-1.2,0-2.4-0.9-2.5-2l-1.9-16.6c-0.2-1.4,0.9-2.5,2.3-2.5l0,0
								c1.4,0,2.6,1.1,2.8,2.5l1.5,16.6C176.7,101.6,175.8,102.5,174.5,102.5z"/>
							<path class="st2" d="M185.8,102.5L185.8,102.5c-1.2,0-2.3-0.9-2.3-2l-0.8-16.6c-0.1-1.4,1-2.5,2.4-2.5l0,0
								c1.4,0,2.6,1.1,2.6,2.5l0.3,16.6C188,101.6,187,102.5,185.8,102.5z"/>
							<path class="st2" d="M197,102.5L197,102.5c-1.2,0-2.2-0.9-2.2-2l0.3-16.6c0-1.4,1.2-2.5,2.6-2.5l0,0c1.4,0,2.5,1.1,2.4,2.5
								l-0.8,16.6C199.3,101.6,198.2,102.5,197,102.5z"/>
							<path class="st2" d="M208.2,102.5L208.2,102.5c-1.2,0-2.2-0.9-2.1-2l1.5-16.6c0.1-1.4,1.4-2.5,2.8-2.5l0,0
								c1.4,0,2.4,1.1,2.3,2.5l-1.9,16.6C210.6,101.6,209.5,102.5,208.2,102.5z"/>
						</g>
						<path class="st9" d="M215.3,56.5c-1.2,0-2.3,0.8-2.6,2l-3.8,13.3c-0.4,1.5,0.5,2.8,2,2.8c1.5,0,3.2-1.3,3.6-2.8l3.4-11.8
							C218.3,58.2,217,56.5,215.3,56.5L215.3,56.5z"/>
						<path class="st9" d="M169,56.5L169,56.5c-1.8,0-3.1,1.7-2.6,3.4l3.4,11.8c0.4,1.5,2.1,2.8,3.6,2.8l0,0c1.5,0,2.4-1.3,2-2.8
							l-3.8-13.3C171.3,57.3,170.2,56.5,169,56.5z"/>
					</g>
				</g>
			</g>
			<g>
				<path class="st0" d="M428,58.5c-28.8,0-52.1,23.3-52.1,52.1c0,17.5,8.7,33,21.9,42.4l-9.7,9.7c0,0,11.8-0.9,21.6-3.3
					c5.7,2.1,11.9,3.3,18.3,3.3c28.8,0,52.1-23.3,52.1-52.1C480.1,81.8,456.8,58.5,428,58.5z"/>
				<g>
					<g>
						<path class="st10" d="M392,96.3h-29.1c-1.6,0-3,1.1-3,2.4s1.3,2.4,3,2.4H392V96.3z"/>
						<path class="st10" d="M392,104.6h-11.3c-1.6,0-3,1.1-3,2.4c0,1.3,1.3,2.4,3,2.4H392V104.6z"/>
						<path class="st10" d="M392,89.3h-16.5c-1.6,0-3,1.1-3,2.4c0,1.3,1.3,2.4,3,2.4H392V89.3z"/>
						<path class="st10" d="M392,112.2h-25.9c-1.6,0-3,1.1-3,2.4c0,1.3,1.3,2.4,3,2.4H392V112.2z"/>
						<path class="st10" d="M392,119.4h-15.6c-1.6,0-3,1.1-3,2.4c0,1.3,1.3,2.4,3,2.4H392V119.4z"/>
						<path class="st10" d="M361.8,124.2h5.9c1.6,0,3-1.1,3-2.4l0,0c0-1.3-1.3-2.4-3-2.4h-6c-1.7,0-3.1,1.2-2.9,2.6
							C358.9,123.3,360.3,124.2,361.8,124.2z"/>
						<path class="st10" d="M370.9,109.4h2.4c1.6,0,3-1.1,3-2.4l0,0c0-1.3-1.3-2.4-3-2.4h-2.5c-1.7,0-3.1,1.2-2.9,2.6
							C368,108.5,369.4,109.4,370.9,109.4z"/>
					</g>
					
						<rect x="386.1" y="115.5" transform="matrix(-1 -1.224647e-16 1.224647e-16 -1 829.7573 244.3295)" class="st1" width="57.6" height="13.3"/>
					
						<rect x="442.1" y="115.5" transform="matrix(-1 -1.224647e-16 1.224647e-16 -1 885.7844 244.3295)" class="st11" width="1.6" height="13.3"/>
					<path class="st1" d="M443.7,94.8H462c1.6,0,10.9,19.5,10.9,19.5v12.5c0,1.1-0.9,2.1-2.1,2.1h-27.2V94.8z"/>
					<polygon class="st12" points="462.4,99.4 448.5,99.4 448.5,111.9 468.4,111.9 					"/>
					<path class="st11" d="M445.5,128.8h21.4c0-5.9-4.8-10.7-10.7-10.7S445.5,122.9,445.5,128.8z"/>
					<path class="st11" d="M398.3,128.8h21.4c0-5.9-4.8-10.7-10.7-10.7S398.3,122.9,398.3,128.8z"/>
					<circle class="st12" cx="456.2" cy="128.8" r="8.5"/>
					<circle class="st13" cx="456.2" cy="128.8" r="4.4"/>
					<circle class="st12" cx="456.2" cy="128.8" r="2.5"/>
					<circle class="st12" cx="409" cy="128.8" r="8.5"/>
					<circle class="st13" cx="409" cy="128.8" r="4.4"/>
					<circle class="st12" cx="409" cy="128.8" r="2.5"/>
					<rect x="388.3" y="85" class="st9" width="53.2" height="30.5"/>
					<polygon class="st0" points="433.8,100.6 422.5,92.3 422.5,97.6 397.7,97.6 397.7,103.6 422.5,103.6 422.5,108.9 					"/>
				</g>
			</g>
			<g>
				<path class="st0" d="M74.9,58.3c30.4,0,55,24.6,55,55c0,18.5-9.1,34.9-23.1,44.8l10.2,10.2c0,0-12.5-0.9-22.8-3.5
					c-6,2.3-12.5,3.5-19.3,3.5c-30.4,0-55-24.6-55-55C19.9,83,44.5,58.3,74.9,58.3z"/>
				<g>
					<g>
						<path class="st14" d="M100.7,79H33.8c-4.4,0-8,3.6-8,8v38c0,4.4,3.6,8,8,8h66.9c4.4,0,8-3.6,8-8V87
							C108.7,82.6,105.1,79,100.7,79z"/>
						<rect x="33.1" y="91.2" class="st7" width="25.1" height="30.4"/>
						<path class="st13" d="M93.6,91.2H65.7c-1.1,0-2,0.9-2,2l0,0c0,1.1,0.9,2,2,2h27.9c1.1,0,2-0.9,2-2l0,0
							C95.7,92.1,94.7,91.2,93.6,91.2z"/>
						<path class="st13" d="M80.8,99.8H65.2c-0.9,0-1.6,0.7-1.6,1.6v1c0,0.9,0.7,1.6,1.6,1.6h15.6c0.9,0,1.6-0.7,1.6-1.6v-1
							C82.4,100.5,81.7,99.8,80.8,99.8z"/>
						<path class="st13" d="M85.3,108.7H65.4c-1,0-1.7,0.8-1.7,1.7v0.6c0,1,0.8,1.7,1.7,1.7h19.9c1,0,1.7-0.8,1.7-1.7v-0.6
							C87.1,109.5,86.3,108.7,85.3,108.7z"/>
					</g>
					<g>
						<path class="st14" d="M121.6,32.2H72c-3.3,0-5.9,2.6-5.9,5.9v28.1c0,3.3,2.6,5.9,5.9,5.9h49.5c3.3,0,5.9-2.6,5.9-5.9V38.1
							C127.5,34.8,124.8,32.2,121.6,32.2z"/>
						<rect x="71.4" y="39.8" class="st7" width="21" height="25.4"/>
						<path class="st13" d="M122,39.8H98.7c-0.9,0-1.7,0.8-1.7,1.7l0,0c0,0.9,0.8,1.7,1.7,1.7H122c0.9,0,1.7-0.8,1.7-1.7l0,0
							C123.7,40.6,123,39.8,122,39.8z"/>
						<path class="st13" d="M111.3,47h-13c-0.7,0-1.3,0.6-1.3,1.3v0.8c0,0.7,0.6,1.3,1.3,1.3h13c0.7,0,1.3-0.6,1.3-1.3v-0.8
							C112.6,47.6,112,47,111.3,47z"/>
						<path class="st13" d="M115.1,54.5H98.5c-0.8,0-1.5,0.7-1.5,1.5v0.5c0,0.8,0.7,1.5,1.5,1.5h16.7c0.8,0,1.5-0.7,1.5-1.5V56
							C116.6,55.2,115.9,54.5,115.1,54.5z"/>
					</g>
					<g>
						<path class="st2" d="M115.2,110.1c-5-10.4-17.5-14.9-27.9-9.9c-10.4,5-14.9,17.5-9.9,27.9c5,10.4,17.5,14.9,27.9,9.9
							C115.8,133.1,120.2,120.6,115.2,110.1z M103.6,134.3c-8.4,4-18.4,0.4-22.4-7.9c-4-8.4-0.4-18.4,7.9-22.4
							c8.4-4,18.4-0.4,22.4,7.9C115.5,120.3,111.9,130.3,103.6,134.3z"/>
						
							<ellipse transform="matrix(0.9028 -0.4301 0.4301 0.9028 -41.8764 53.0172)" class="st15" cx="96.3" cy="119.1" rx="16.8" ry="16.8"/>
						<path class="st2" d="M109.6,131.1l-11.3,5.4l3,6.2c0.3,0.7,1.2,1,1.9,0.7l8.8-4.2c0.7-0.3,1-1.2,0.7-1.9L109.6,131.1z"/>
						
							<rect x="108.6" y="140.2" transform="matrix(0.9028 -0.4301 0.4301 0.9028 -53.8642 62.9364)" class="st13" width="7.3" height="20.8"/>
						<path class="st2" d="M108.2,155.7l5.1,10.7c1.5,3.1,5.2,4.6,8.3,3.2c3.2-1.4,4.5-5.2,3-8.3l-5.2-10.9c-0.6-1.2-2-1.7-3.2-1.1
							l-6.9,3.3C108.1,153,107.6,154.5,108.2,155.7z"/>
					</g>
				</g>
			</g>
		</g>
		<g>
			<g>
				<g>
					<path class="st2" d="M379.2,324H143.8V187c0-5.2,4.2-9.4,9.4-9.4h216.6c5.2,0,9.4,4.2,9.4,9.4V324z"/>
					
						<rect x="200.6" y="145.4" transform="matrix(-1.836970e-16 1 -1 -1.836970e-16 512.3007 -10.7074)" class="st3" width="121.7" height="210.7"/>
				</g>
				<path class="st3" d="M224.3,323.1h-85.8c-3.7,0-6.8,2.8-6.8,6.3v10.5c0,3.5,3,6.3,6.8,6.3h245.8c3.7,0,6.8-2.8,6.8-6.3v-10.5
					c0-3.5-3-6.3-6.8-6.3h-94H224.3z"/>
				<g>
					<path class="st13" d="M223.2,321.9h-85.8c-3.7,0-6.8,2.8-6.8,6.3v10.5c0,3.5,3,6.3,6.8,6.3h245.8c3.7,0,6.8-2.8,6.8-6.3v-10.5
						c0-3.5-3-6.3-6.8-6.3h-94H223.2z"/>
					<path class="st2" d="M289.2,321.9h-58.4c1,1.5,4.8,6.6,6.3,6.6h46.3c1.6,0,5.3-5.1,6.3-6.6H289.2z"/>
				</g>
			</g>
			<g>
				<path class="st16" d="M454.4,234.7h-41.9c-2.2-0.6-3.8-2.5-3.8-4.9c0-2.3,1.5-4.2,3.5-4.8h11.5c2.8,0,5.1-2.3,5.1-5.1
					c0-2.8-2.3-5.1-5.1-5.1h-14.9c-2.4-0.4-4.2-2.5-4.2-5c0-2.6,2-4.8,4.5-5h32.8c2.8,0,5.1-2.3,5.1-5.1s-2.3-5.1-5.1-5.1H330.2
					c-2.8,0-5.1,2.3-5.1,5.1s2.3,5.1,5.1,5.1h17.6c2.5,0.3,4.5,2.4,4.5,5c0,2.5-1.8,4.6-4.2,5h-14.1c-2.8,0-5.1,2.3-5.1,5.1
					c0,2.8,2.3,5.1,5.1,5.1h31.7c2,0.6,3.5,2.6,3.5,4.8c0,2.3-1.6,4.3-3.8,4.9h-41.7c-2.8,0-5.1,2.3-5.1,5.1c0,2.8,2.3,5.1,5.1,5.1
					h130.6c2.8,0,5.1-2.3,5.1-5.1C459.4,237,457.1,234.7,454.4,234.7z"/>
				<path class="st16" d="M227.9,251.3h-50.5c-2.6-0.7-4.6-3.1-4.6-5.9c0-2.7,1.8-5,4.3-5.8H191c3.3,0,6.1-2.7,6.1-6.1
					c0-3.3-2.7-6.1-6.1-6.1h-18c-2.9-0.5-5.1-3-5.1-6c0-3.1,2.4-5.7,5.5-6.1h39.5c3.3,0,6.1-2.7,6.1-6.1c0-3.3-2.7-6.1-6.1-6.1H78.4
					c-3.3,0-6.1,2.7-6.1,6.1c0,3.3,2.7,6.1,6.1,6.1h21.2c3.1,0.3,5.5,2.9,5.5,6.1c0,3-2.2,5.5-5.1,6H83c-3.3,0-6.1,2.7-6.1,6.1
					c0,3.3,2.7,6.1,6.1,6.1h38.2c2.5,0.8,4.3,3.1,4.3,5.8c0,2.8-2,5.2-4.6,5.9H70.6c-3.3,0-6.1,2.7-6.1,6.1c0,3.3,2.7,6.1,6.1,6.1
					h157.4c3.3,0,6.1-2.7,6.1-6.1C234,254.1,231.3,251.3,227.9,251.3z"/>
				<path class="st16" d="M97,288.2h17c2.4,0.2,4.4,2.3,4.4,4.8c0,2.4-1.8,4.4-4.1,4.8h-13.5c-2.7,0-4.9,2.2-4.9,4.9
					s2.2,4.9,4.9,4.9h50.1c2.7,0,4.9-2.2,4.9-4.9s-2.2-4.9-4.9-4.9h-14.4c-2.3-0.4-4.1-2.4-4.1-4.8c0-2.5,1.9-4.6,4.4-4.8h31.6
					c2.7,0,4.9-2.2,4.9-4.9c0-2.7-2.2-4.9-4.9-4.9H97c-2.7,0-4.9,2.2-4.9,4.9C92.1,286,94.3,288.2,97,288.2z"/>
				<path class="st16" d="M67.4,308.2H81c2.7,0,4.9-2.2,4.9-4.9s-2.2-4.9-4.9-4.9H67.4c-2.7,0-4.9,2.2-4.9,4.9
					S64.7,308.2,67.4,308.2z"/>
				<path class="st16" d="M46.1,287.6h26.6c2.7,0,4.9-2.2,4.9-4.9s-2.2-4.9-4.9-4.9H46.1c-2.7,0-4.9,2.2-4.9,4.9
					S43.5,287.6,46.1,287.6z"/>
				<g>
					<path class="st16" d="M405,282.4h-17c-2.4,0.2-4.4,2.3-4.4,4.8c0,2.4,1.8,4.4,4.1,4.8h13.5c2.7,0,4.9,2.2,4.9,4.9
						c0,2.7-2.2,4.9-4.9,4.9h-50.1c-2.7,0-4.9-2.2-4.9-4.9c0-2.7,2.2-4.9,4.9-4.9h14.4c2.3-0.4,4.1-2.4,4.1-4.8
						c0-2.5-1.9-4.6-4.4-4.8h-31.6c-2.7,0-4.9-2.2-4.9-4.9c0-2.7,2.2-4.9,4.9-4.9H405c2.7,0,4.9,2.2,4.9,4.9
						C409.8,280.2,407.6,282.4,405,282.4z"/>
					<path class="st16" d="M434.5,302.4H421c-2.7,0-4.9-2.2-4.9-4.9s2.2-4.9,4.9-4.9h13.6c2.7,0,4.9,2.2,4.9,4.9
						S437.2,302.4,434.5,302.4z"/>
					<path class="st16" d="M455.8,281.8h-26.6c-2.7,0-4.9-2.2-4.9-4.9c0-2.7,2.2-4.9,4.9-4.9h26.6c2.7,0,4.9,2.2,4.9,4.9
						C460.7,279.6,458.5,281.8,455.8,281.8z"/>
				</g>
			</g>
			<g>
				<g>
					<path class="st17" d="M204.1,143.5c5.9,0,9.5,1.6,12.6,6c1.7,2.4,3.3,5.7,2.5,10.1c-2.5,14.3-2.6,24.8-2.6,24.8l-32.8-1.6
						C183.8,182.8,185.3,143.5,204.1,143.5z"/>
					<path class="st18" d="M216.2,179.7c9.1-0.6,12.1,29.1,12.1,29.1l20.6-1.1l0,0.1c1.8-1.2,7.7-6.2,9.7-7.4c0.7-0.4,1.7-0.2,2,0.6
						c0.3,0.8,0.1,1.8-1.8,3.1l3.6-0.8c2.5-0.6,5,0.9,5.6,3.4c0.6,2.5-0.9,5.1-3.4,5.7l-13,3.1L220,220c0,0-6.9-26.5-8.1-30.6
						C210.7,185.3,211.1,180.1,216.2,179.7z"/>
					<path class="st7" d="M219.1,244.1h-38c1.2-5.1,2.5-12.5,5.1-18.4c3.3-7.3-7.8-32.6-7.1-38c0.2-2,2-3.8,4.2-5.2
						c3.9-2.5,8.5-3.7,13.1-3.5l20.1,0.7c0,0,3.6,10.3,5.2,18.9c1.6,8.6-5.5,15.1-5.5,21.6C216,224.7,216.5,238.2,219.1,244.1z"/>
					<g>
						<g>
							<path class="st19" d="M196.8,169.7l-0.8,9.4c0,0,1.7,5.9,8.4,7.5c0,0,5-2.9,4.9-6.9c0,0,0.2-8.2,1.4-9.7L196.8,169.7z"/>
							<path class="st18" d="M203.3,176.9c-2.7-0.6-5.1-2-6.8-4l0.3-3.3l14,0.5c-0.9,1.1-1.3,4.7-1.4,6.5
								C207.5,177.2,205.4,177.4,203.3,176.9z"/>
							<path class="st19" d="M208.2,150.2c-6.3-1.3-12.5,3.4-13.9,10.4l0.3,6.9c1.2,4.1,4.4,7.2,8.5,8.1c6.3,1.3,12-2.8,13.2-9.8
								C218.3,155.3,214.5,151.5,208.2,150.2z"/>
							<path class="st19" d="M191.7,163.1c0,0.1,0,0.1-0.1,0.2c-0.4,1.9,0.8,3.7,2.7,4.1c0.1,0,0.3,0,0.4,0.1l-0.3-6.9
								C193.1,160.8,192,161.8,191.7,163.1z"/>
						</g>
						<path class="st17" d="M194.4,160.6v3h0c1.3-0.7,2.2-2.1,2.2-3.6v-2.4c0,0,10.4-2.4,11.9-5c0,0,3.9,4.6,8.3,5.4
							c0,0-0.5-10.7-10.6-10.7c-10.9,0-14.8,8.7-14.3,15.2L194.4,160.6z"/>
					</g>
					<path class="st19" d="M185.2,181.5c4.3-0.4,11.1,21.8,13,28.3c0.3,1,1.3,1.6,2.3,1.5l17-2.8l0,0.1c1.7-1.3,7.2-6.9,9-8.2
						c0.7-0.5,1.7-0.3,2.1,0.4c0.3,0.7,0.2,1.8-1.5,3.3l3.5-1.1c2.4-0.8,5.1,0.4,5.9,2.9c0.8,2.4-0.5,5.1-2.9,5.9l-12.7,4.2
						l-27.4,6.4c-1.4,0.3-2.7-0.4-3.3-1.7c-2.6-6.3-10-23.9-11.2-27.3C176.4,185.2,180.4,182,185.2,181.5z"/>
					<path class="st1" d="M180.3,275.5c-1.7-6.2-3.2-12.5-3.6-16.8c-1.4-15.1,7.3-26.9,7.3-26.9l32.6-0.8
						c7.1,10.4,6.9,29.3,5.2,44.5H180.3z"/>
					<polygon class="st19" points="204.3,311.7 203.4,275.5 216.5,275.5 215.6,311.7 					"/>
					<polygon class="st19" points="187.1,311.7 186.2,275.5 199.3,275.5 198.3,311.7 					"/>
					<polygon class="st20" points="207.1,275.5 208,311.7 204.3,311.7 203.4,275.5 					"/>
				</g>
				<g>
					<path class="st7" d="M291.4,198.1c0,0,1.5-17.7-1.6-17.8c-2.3-0.1-11.8,7.5-11.8,7.5s-3.5-3.7-7,0.1c0,0-11.8-7.9-12.6-6.9
						c-2.6,3.4-1.4,15.2-1.4,15.2l16.1,4.9L291.4,198.1z"/>
					<path class="st19" d="M256.4,211c-2.2-0.5-2.7-1.4-2.7-2.1c0-0.8,0.8-1.4,1.6-1.3c2.2,0.4,8.9,1.1,10.9,1.5l0.6,9.5l-12.7,1.8
						c-2.5,0.3-4.7-1.4-5.1-3.9l0,0c-0.3-2.4,1.4-4.7,3.9-5L256.4,211z"/>
					<path class="st1" d="M265.1,207.5l23.3-2c3.1-0.2,5.5-2.8,5.6-5.9l0.2-9.3c1.9-16.8,9-14.2,9-14.2c8.8,1.9,7.3,15.8,7.3,15.8
						l-2.7,18.2c-0.6,4.3-4.4,7.5-8.7,7.3l-32.9,2.3L265.1,207.5z"/>
					<g>
						<polygon class="st21" points="274.5,188.9 274.5,233.6 274.1,233.7 251.4,228.8 251.4,194.2 						"/>
						<polygon class="st9" points="274.7,188.9 297.7,194.2 297.7,228.8 274.5,233.6 274.5,188.9 						"/>
					</g>
					<path class="st2" d="M325.9,311.7l-3.3-56.6c0-0.9-0.8-1.7-1.7-1.7c-1,0-1.8,0.7-1.8,1.7l-1.3,56.6h-16.3l0.4-76.5l43.3-2.3
						l-3,78.9H325.9z"/>
					<path class="st1" d="M300.7,234.7l0.3-58.6l19.5-5.4c0,0,11.3-0.3,19.6,8.9c0,0,9.8,24.5,6.2,57.8c-0.1,0.9-0.9,1.5-1.8,1.5
						l-42.2-2.5C301.3,236.3,300.7,235.6,300.7,234.7z"/>
					<path class="st19" d="M320.1,163.9l0.9,7.1c0,0-1.9,6.5-9.4,8.3c0,0-5.6-2.2-5.4-6.6c0,0-0.2-6.8-1.6-8.4L320.1,163.9z"/>
					<path class="st18" d="M313.1,171.9c3-0.6,5.6-2.2,7.5-4.5l-0.5-3.6l-15.4,0.4c1,1.2,1.4,5.2,1.5,7.2
						C308.4,172.2,310.7,172.4,313.1,171.9z"/>
					<path class="st19" d="M307.4,142.2c7-1.4,13.9,3.8,15.4,11.5l-0.4,7.6c-1.4,4.5-4.8,8.1-9.4,9c-7,1.4-13.9-3.8-15.4-11.5
						C296.1,151,300.5,143.6,307.4,142.2z"/>
					<path class="st17" d="M322.9,153.8v3.7c0,0-2.1-0.8-2.3-1.2c-0.6-1.5-0.1-5.4-1.4-5.9l-5-1.6l-17-0.9c0,0,0.9-11.8,8.8-12.8
						c7.1-0.9,22.6-0.2,19.7,22.1L322.9,153.8z"/>
					<g>
						<path class="st1" d="M319,146.9l5.9-0.4c1.2-0.1,0.2-5.4-2.4-9.3c-2.6-3.9-7.1-7.1-13.6-6.5c-10.6,0.9-13,8.9-12.7,16.5
							l7.4,5.4L319,146.9z"/>
						<path class="st22" d="M321.3,146.6c0,0-7.1,11.1-12.5,9.9c-4.5-0.9-12.4-3-17-1.9c-0.6,0.1-1-0.6-0.7-1l5.1-6.3
							C296.2,147.3,308.9,149.1,321.3,146.6z"/>
					</g>
					<path class="st22" d="M307.5,129.3h2.9c0.5,0,1,0.4,1,1l0,0c0,0.5-0.4,1-1,1h-2.9c-0.5,0-1-0.4-1-1l0,0
						C306.6,129.7,307,129.3,307.5,129.3z"/>
					<path class="st19" d="M325.8,156.5c0,0.1,0,0.2,0.1,0.2c0.4,2.1-0.9,4.1-3,4.5c-0.1,0-0.3,0-0.4,0.1l0.4-7.6
						C324.3,154,325.5,155.1,325.8,156.5z"/>
					<path class="st19" d="M284.3,210.4c-2.1-0.6-2.6-1.5-2.6-2.3c0-0.8,0.9-1.4,1.6-1.2c2.2,0.5,8.9,1.5,10.8,2.1l0.1,9.6
						l-12.8,1.1c-2.5,0.2-4.7-1.6-4.8-4.1l0,0c-0.2-2.5,1.7-4.6,4.1-4.8L284.3,210.4z"/>
					<path class="st22" d="M293.3,207.3l23.3,0c3.1,0,5.7-2.3,6.1-5.4l1-9.2c3.3-16.6,10.7-13.8,10.7-13.8
						c8.6,2.6,5.3,16.8,5.3,16.8l-4.2,17.9c-1,4.2-5,7.1-9.3,6.6l-32.9-0.5V207.3z"/>
				</g>
			</g>
		</g>
	</g>
</g>
</svg>
