<?xml version="1.0" encoding="utf-8"?>
<!-- Generator: Adobe Illustrator 21.0.0, SVG Export Plug-In . SVG Version: 6.00 Build 0)  -->
<svg version="1.1" id="Layer_1" xmlns="http://www.w3.org/2000/svg" xmlns:xlink="http://www.w3.org/1999/xlink" x="0px" y="0px"
	 viewBox="0 0 500 500" style="enable-background:new 0 0 500 500;" xml:space="preserve">
<style type="text/css">
	.st0{fill-rule:evenodd;clip-rule:evenodd;fill:#243E5B;}
	.st1{fill-rule:evenodd;clip-rule:evenodd;fill:#FFFFFF;}
	.st2{fill-rule:evenodd;clip-rule:evenodd;fill:#6D93C7;}
	.st3{fill-rule:evenodd;clip-rule:evenodd;fill:#345A83;}
	.st4{fill-rule:evenodd;clip-rule:evenodd;fill:#9CBDE7;}
	.st5{opacity:0.2;fill-rule:evenodd;clip-rule:evenodd;}
	.st6{fill-rule:evenodd;clip-rule:evenodd;fill:#9CBADF;}
	.st7{fill:#E2ECF9;}
	.st8{fill-rule:evenodd;clip-rule:evenodd;fill:#B42E1B;}
	.st9{fill-rule:evenodd;clip-rule:evenodd;fill:#D65844;}
	.st10{fill-rule:evenodd;clip-rule:evenodd;fill:#F4D772;}
	.st11{fill-rule:evenodd;clip-rule:evenodd;fill:#CEA82E;}
	
		.st12{fill-rule:evenodd;clip-rule:evenodd;fill:none;stroke:#6D93C7;stroke-width:6.0001;stroke-linecap:round;stroke-linejoin:round;stroke-miterlimit:22.9256;}
	
		.st13{fill-rule:evenodd;clip-rule:evenodd;fill:none;stroke:#6D93C7;stroke-width:3.6;stroke-linecap:round;stroke-linejoin:round;stroke-miterlimit:22.9256;}
</style>
<g>
	<g>
		<path class="st0" d="M80.3,101h290.1c5.9,0,10.8,4.9,10.8,10.8V295c0,5.9-4.9,10.8-10.8,10.8H80.3c-5.9,0-10.8-4.9-10.8-10.8
			V111.8C69.5,105.8,74.4,101,80.3,101z"/>
		<rect x="85.7" y="122.4" class="st1" width="279.3" height="149.9"/>
		<circle class="st2" cx="225.4" cy="112.1" r="3.9"/>
		<rect x="218.7" y="281.7" class="st3" width="13.3" height="13.3"/>
		<polygon class="st3" points="69.5,305.8 381.2,305.8 435.3,341.3 15.4,341.3 		"/>
		<path class="st0" d="M15.4,341.3h419.9v5c0,4.3-3.5,7.8-7.8,7.8H23.2c-4.3,0-7.8-3.5-7.8-7.8V341.3z"/>
		<rect x="15.4" y="341.3" class="st0" width="419.9" height="6"/>
	</g>
	<path class="st4" d="M364.6,326.1v-0.3l0.3,0.3L364.6,326.1L364.6,326.1z M364.6,319.1c1.5,1.1,3.1,2.3,4.6,3.4
		c1.7,1.2,3.3,2.4,5,3.6c9,0,18,0,27.1,0c-2-1.2-4-2.4-5.9-3.6c-2-1.2-3.9-2.4-5.9-3.6c-8.3,0-16.7,0-24.9,0V319.1L364.6,319.1z
		 M364.6,316v-7.3l8.5,0c2,1.2,4,2.4,5.9,3.6c2,1.2,4,2.4,5.9,3.6C378.2,316,371.4,316,364.6,316z M364.6,308.8v7.3l-4.2,0
		c-1.7-1.2-3.4-2.4-5-3.6c-1.4-1-2.8-2-4.2-3.1v-0.6L364.6,308.8L364.6,308.8z M364.6,318.9v0.2l-0.3-0.2H364.6L364.6,318.9z
		 M364.6,325.9c-1.4-1.1-2.9-2.2-4.4-3.4c-1.6-1.2-3.1-2.4-4.7-3.6l-4.5,0v7.3l13.5,0V325.9L364.6,325.9z M351.1,316l0.8,0l-0.8-0.6
		V316z M117.1,329.4h214.6l7.5,7.9H109.9L117.1,329.4L117.1,329.4z M351.1,308.8v0.6c-0.3-0.2-0.5-0.4-0.8-0.6L351.1,308.8
		L351.1,308.8z M351.1,315.4c-1.3-1-2.6-2-3.9-3c-1.6-1.2-3.1-2.4-4.7-3.6c-7.6,0-15.2,0-22.7,0c1.3,1.2,2.5,2.5,3.8,3.7
		c1.3,1.2,2.6,2.4,3.8,3.7l23.7,0V315.4L351.1,315.4z M351.1,318.9v7.3l-13.2,0c-1.3-1.2-2.6-2.4-3.8-3.7c-1.3-1.2-2.5-2.4-3.8-3.7
		C337.3,318.9,344.2,318.9,351.1,318.9L351.1,318.9z M97.2,326.4v-7.6c6.9,0,13.9,0,20.9,0c-1.2,1.3-2.5,2.5-3.8,3.8
		c-1.3,1.3-2.5,2.5-3.8,3.8L97.2,326.4L97.2,326.4z M97.2,315.9v-0.6c1.3-1.1,2.6-2.1,3.9-3.2c1.6-1.3,3.1-2.5,4.7-3.8
		c7.6,0,15.1,0,22.7,0c-1.2,1.3-2.5,2.5-3.8,3.8c-1.3,1.3-2.6,2.5-3.8,3.8C113,315.9,105.1,315.9,97.2,315.9L97.2,315.9z
		 M97.2,308.9l0.8-0.6l-0.8,0V308.9L97.2,308.9z M126.7,318.8c8.4,0,16.8,0,25.3,0c-0.9,1.3-1.7,2.5-2.6,3.8
		c-0.8,1.3-1.7,2.5-2.6,3.8c-9,0-18.1,0-27.1,0c1.2-1.3,2.3-2.5,3.5-3.8C124.4,321.4,125.6,320.1,126.7,318.8L126.7,318.8z
		 M160.6,318.8c8.4,0,16.9,0,25.3,0c-0.4,1.2-0.9,2.5-1.4,3.7c-0.4,1.3-0.9,2.5-1.4,3.7c-9,0-18.1,0-27.1,0c0.8-1.3,1.5-2.5,2.2-3.8
		C159.1,321.4,159.9,320.1,160.6,318.8L160.6,318.8z M194.6,318.8c8.4,0,16.8,0,25.2,0c0,1.2-0.1,2.5-0.2,3.7c0,1.2-0.1,2.5-0.1,3.7
		c-9,0-18,0-27,0c0.3-1.2,0.7-2.5,1-3.7C193.9,321.3,194.3,320.1,194.6,318.8L194.6,318.8z M228.6,318.8c8.4,0,16.8,0,25.2,0
		c0.3,1.2,0.7,2.5,1,3.7c0.4,1.2,0.7,2.5,1,3.7c-9,0-18,0-27,0c0-1.2-0.1-2.5-0.2-3.7C228.7,321.3,228.6,320.1,228.6,318.8
		L228.6,318.8z M262.5,318.8c8.4,0,16.8,0,25.3,0c0.7,1.2,1.5,2.5,2.2,3.7c0.8,1.2,1.5,2.5,2.3,3.7c-9,0-18.1,0-27.1,0
		c-0.5-1.2-0.9-2.5-1.4-3.7C263.4,321.3,262.9,320.1,262.5,318.8L262.5,318.8z M296.4,318.8c8.4,0,16.9,0,25.3,0
		c1.2,1.2,2.3,2.4,3.5,3.7c1.2,1.2,2.3,2.4,3.5,3.7c-9,0-18.1,0-27.1,0c-0.9-1.2-1.7-2.4-2.6-3.7
		C298.1,321.3,297.3,320.1,296.4,318.8L296.4,318.8z M136.3,308.3c7.6,0,15.2,0,22.8,0c-0.9,1.3-1.7,2.5-2.6,3.8
		c-0.9,1.3-1.7,2.5-2.6,3.8c-8.2,0-16.4,0-24.6,0c1.2-1.3,2.3-2.5,3.5-3.8C134,310.9,135.2,309.6,136.3,308.3L136.3,308.3z
		 M166.9,308.4c7.6,0,15.2,0,22.8,0c-0.5,1.3-0.9,2.5-1.4,3.7c-0.4,1.2-0.9,2.5-1.4,3.7c-8.2,0-16.4,0-24.6,0
		c0.7-1.3,1.5-2.5,2.3-3.8C165.4,310.9,166.2,309.7,166.9,308.4L166.9,308.4z M197.5,308.5c7.6,0,15.1,0,22.7,0
		c0,1.2-0.1,2.5-0.1,3.7c0,1.2-0.1,2.5-0.2,3.7c-8.2,0-16.4,0-24.5,0c0.3-1.2,0.7-2.5,1-3.7C196.8,311,197.2,309.7,197.5,308.5
		L197.5,308.5z M228.1,308.5c7.6,0,15.2,0,22.7,0c0.4,1.2,0.7,2.5,1.1,3.7c0.3,1.2,0.7,2.5,1.1,3.7c-8.2,0-16.4,0-24.5,0
		c-0.1-1.2-0.1-2.5-0.2-3.7C228.2,311,228.1,309.8,228.1,308.5L228.1,308.5z M258.6,308.6c7.6,0,15.2,0,22.8,0
		c0.8,1.2,1.5,2.5,2.3,3.7c0.8,1.2,1.5,2.5,2.3,3.7c-8.2,0-16.4,0-24.6,0c-0.5-1.2-0.9-2.5-1.4-3.7
		C259.5,311,259.1,309.8,258.6,308.6L258.6,308.6z M289.2,308.6c7.6,0,15.2,0,22.8,0c1.2,1.2,2.3,2.4,3.5,3.7
		c1.2,1.2,2.3,2.4,3.5,3.7c-8.2,0-16.4,0-24.6,0c-0.9-1.2-1.7-2.5-2.6-3.7C290.9,311.1,290.1,309.9,289.2,308.6z M97.2,308.3v0.6
		c-1.4,1.1-2.8,2.2-4.2,3.2c-1.7,1.3-3.3,2.5-5,3.8l-4.2,0v-7.6L97.2,308.3L97.2,308.3z M97.2,315.3c-0.3,0.2-0.5,0.4-0.8,0.6h0.8
		V315.3L97.2,315.3z M97.2,318.8v7.6l-13.4,0v-0.2c1.5-1.2,2.9-2.4,4.4-3.5c1.5-1.2,3.1-2.5,4.7-3.8H97.2L97.2,318.8z M83.8,319.1
		l0.3-0.2h-0.3V319.1z M83.8,308.2v7.6c-6.8,0-13.6,0-20.3,0c1.9-1.3,3.9-2.5,5.9-3.8c1.9-1.3,3.9-2.5,5.9-3.8L83.8,308.2
		L83.8,308.2z M83.8,318.8v0.2c-1.5,1.2-3.1,2.4-4.7,3.6c-1.7,1.3-3.3,2.5-5,3.8c-9,0-18,0-27,0c2-1.3,3.9-2.5,5.9-3.8
		c1.9-1.3,3.9-2.5,5.9-3.8C67.2,318.8,75.5,318.8,83.8,318.8L83.8,318.8z M83.8,326.2l-0.3,0.2h0.3V326.2z"/>
	<rect x="169.7" y="141.3" class="st2" width="111.4" height="19.3"/>
	<path class="st5" d="M115.5,140.2c0,8.7,7,15.7,15.7,15.7c8.7,0,15.7-7,15.7-15.7c0,8.7,7,15.7,15.7,15.7c8.7,0,15.7-7,15.7-15.7
		c0,8.7,7,15.7,15.7,15.7c8.7,0,15.7-7,15.7-15.7c0,8.7,7,15.7,15.7,15.7c8.7,0,15.7-7,15.7-15.7c0,8.7,7,15.7,15.7,15.7
		c8.7,0,15.7-7,15.7-15.7c0,8.7,7,15.7,15.7,15.7c8.7,0,15.7-7,15.7-15.7c0,8.7,7,15.7,15.7,15.7c8.7,0,15.7-7,15.7-15.7
		c0,8.7,7,15.7,15.7,15.7c8.7,0,15.7-7,15.7-15.7c0,8.3,6.4,15.1,14.5,15.7v-44.1c0-5.9-4.9-10.8-10.8-10.8H80.3
		c-5.9,0-10.8,4.9-10.8,10.8v44.1c8.1-0.6,14.5-7.4,14.5-15.7c0,8.7,7,15.7,15.7,15.7S115.5,148.8,115.5,140.2z"/>
	<rect x="105.7" y="185.4" class="st2" width="239.3" height="86.9"/>
	<rect x="151.7" y="168.1" class="st6" width="147.4" height="8.1"/>
	<g>
		<path class="st7" d="M329.9,222.8c-0.4-0.5-0.3-1.2,0.2-1.6c0.5-0.4,1.2-0.3,1.6,0.2l5.2,6.8c0,0,0.1,0.1,0.1,0.1l0,0l0,0l0,0
			c0,0,0,0.1,0,0.1l0,0.1l0,0l0,0.1l0,0.1c0,0,0,0.1,0,0.1l0,0l0,0.1l0,0l0,0v0l0,0l0,0l0,0l0,0l0,0.1l0,0.1l0,0.1l0,0l0,0.1l0,0.1
			l0,0l0,0l0,0c0,0-0.1,0.1-0.1,0.1l-5.2,6.8c-0.4,0.5-1.1,0.6-1.6,0.2c-0.5-0.4-0.6-1.1-0.2-1.6l4.7-6.1L329.9,222.8z"/>
		<path class="st7" d="M118.9,221.4c0.4-0.5,1.1-0.6,1.6-0.2c0.5,0.4,0.6,1.1,0.2,1.6l-4.7,6.1l4.7,6.1c0.4,0.5,0.3,1.2-0.2,1.6
			c-0.5,0.4-1.2,0.3-1.6-0.2l-5.2-6.8c0,0-0.1-0.1-0.1-0.1l0,0l0,0l0,0c0,0,0-0.1,0-0.1l0-0.1l0,0l0-0.1l0-0.1c0,0,0-0.1,0-0.1l0,0
			l0,0l0,0l0,0v0l0,0l0,0l0-0.1l0,0l0-0.1l0-0.1l0-0.1l0,0l0-0.1c0,0,0-0.1,0-0.1l0,0l0,0l0,0c0,0,0.1-0.1,0.1-0.1L118.9,221.4z"/>
	</g>
	<rect x="182.9" y="345.4" class="st3" width="84.8" height="4"/>
	<g>
		<path class="st1" d="M254.4,233.2h2.5c7.1,0,7.4-8,0-8l-2.5,0v0.6l0,0c1.9,0,3.4,1.5,3.4,3.4c0,1.9-1.5,3.4-3.4,3.4l0,0V233.2z
			 M196.3,233.2h58.1v-0.7c-1.9,0-3.4-1.5-3.4-3.4c0-1.9,1.5-3.4,3.4-3.4v-0.6c-19.4,0-38.7,0-58.1,0v0.6l0,0c1.9,0,3.4,1.5,3.4,3.4
			c0,1.9-1.5,3.4-3.4,3.4l0,0V233.2z M193.8,233.2h2.5v-0.7c-1.9,0-3.4-1.5-3.4-3.4c0-1.9,1.5-3.4,3.4-3.4v-0.6l-2.5,0
			C186.5,225.2,186.8,233.2,193.8,233.2z"/>
		<circle class="st1" cx="229.8" cy="201.2" r="3.4"/>
		<path class="st1" d="M255.7,228.2l-22.9-25.6c-0.5-0.6-1.4-0.6-2-0.1l0,0c-0.6,0.5-0.6,1.4-0.1,2l22.9,25.6c0.5,0.6,1.4,0.6,2,0.1
			l0,0C256.2,229.8,256.2,228.8,255.7,228.2z"/>
		<circle class="st1" cx="220.9" cy="201.2" r="3.4"/>
		<path class="st1" d="M195,228.2l25-27.9c0.5-0.6,1.4-0.6,2-0.1l0,0c0.6,0.5,0.6,1.4,0.1,2l-25,27.9c-0.5,0.6-1.4,0.6-2,0.1l0,0
			C194.5,229.8,194.5,228.8,195,228.2z"/>
		<path class="st1" d="M244.7,235.5h11.7l-3.1,17.7c-0.7,3.8-2.5,6.7-8.4,6.7h-0.3v-5.3c0.8-0.4,1.5-1.2,1.6-2.2c0.3-2,0.6-4,0.8-6
			c0.3-2,0.6-4,0.8-6c0.2-1.4-0.9-2.5-2.3-2.5l0,0c-0.3,0-0.6,0.1-0.9,0.2V235.5z M235.1,235.5h9.6v2.4c-1.1,0.3-1.9,1.3-2,2.3
			c-0.2,2-0.4,4-0.6,6c-0.2,2-0.4,4-0.6,6c-0.1,1.4,0.8,2.5,2.1,2.5l0,0c0.4,0,0.8-0.1,1.1-0.3v5.3h-9.6v-5.1c1.1-0.3,1.9-1.2,2-2.4
			c0.2-2,0.3-4,0.5-6c0.2-2,0.3-4,0.5-6c0.1-1.4-1-2.5-2.5-2.5l0,0c-0.1,0-0.3,0-0.4,0V235.5z M225.4,235.5h9.7v2.3
			c-1.3,0.2-2.3,1.2-2.4,2.4c-0.1,2-0.2,4-0.3,6c-0.1,2-0.2,4-0.3,6c-0.1,1.4,1,2.5,2.3,2.5l0,0c0.2,0,0.4,0,0.6-0.1v5.1h-9.7v-5.1
			c1.3,0,2.4-1.1,2.4-2.5c0-2,0.1-4,0.1-6c0-2,0.1-4,0.1-6c0-1.4-1.2-2.5-2.6-2.5l0,0h0V235.5z M215.6,235.5h9.7v2.3
			c-1.5,0-2.7,1.1-2.6,2.5c0,2,0.1,4,0.1,6c0,2,0.1,4,0.1,6c0,1.4,1.1,2.5,2.4,2.5l0,0h0v5.1h-9.7v-5.1c0.2,0.1,0.4,0.1,0.6,0.1l0,0
			c1.3,0,2.4-1.1,2.3-2.5c-0.1-2-0.2-4-0.3-6c-0.1-2-0.2-4-0.3-6c-0.1-1.2-1.1-2.2-2.4-2.4V235.5z M206,235.5h9.6v2.3
			c-0.1,0-0.3,0-0.4,0l0,0c-1.5,0-2.6,1.1-2.5,2.5c0.2,2,0.3,4,0.5,6c0.2,2,0.3,4,0.5,6c0.1,1.1,0.9,2.1,2,2.4v5.1H206v-5.3
			c0.4,0.2,0.7,0.3,1.1,0.3l0,0c1.3,0,2.3-1.1,2.1-2.5c-0.2-2-0.4-4-0.6-6c-0.2-2-0.4-4-0.6-6c-0.1-1.1-0.9-2-2-2.3V235.5z
			 M205.7,259.9c-5.8,0-7.7-2.9-8.4-6.7l-3.1-17.7H206v2.4c-0.3-0.1-0.6-0.1-0.9-0.1l0,0c-1.5,0-2.5,1.1-2.3,2.5c0.3,2,0.6,4,0.8,6
			c0.3,2,0.6,4,0.8,6c0.1,1,0.8,1.8,1.6,2.2v5.3H205.7z"/>
	</g>
	<g>
		<g>
			<path class="st0" d="M169.7,231.3h1.4c4,0,4.2-4.5,0-4.5l-1.4,0v0.4h0c1,0,1.9,0.8,1.9,1.9c0,1-0.8,1.9-1.9,1.9h0V231.3z
				 M136.9,231.3h32.8v-0.4c-1,0-1.9-0.8-1.9-1.9c0-1,0.8-1.9,1.9-1.9v-0.4c-10.9,0-21.9,0-32.8,0v0.4c1,0,1.9,0.8,1.9,1.9
				c0,1-0.8,1.9-1.9,1.9V231.3z M135.5,231.3h1.4v-0.4c-1,0-1.9-0.8-1.9-1.9c0-1,0.8-1.9,1.9-1.9v-0.4l-1.4,0
				C131.4,226.8,131.6,231.3,135.5,231.3z"/>
			<circle class="st0" cx="155.8" cy="213.3" r="1.9"/>
			<path class="st0" d="M170.5,228.5l-12.9-14.4c-0.3-0.3-0.8-0.4-1.1-0.1l0,0c-0.3,0.3-0.4,0.8-0.1,1.1l12.9,14.4
				c0.3,0.3,0.8,0.4,1.1,0.1l0,0C170.7,229.4,170.8,228.8,170.5,228.5z"/>
			<circle class="st0" cx="150.8" cy="213.3" r="1.9"/>
			<path class="st0" d="M136.2,228.5l14.1-15.8c0.3-0.3,0.8-0.4,1.1-0.1l0,0c0.3,0.3,0.4,0.8,0.1,1.1l-14.1,15.8
				c-0.3,0.3-0.8,0.4-1.1,0.1l0,0C135.9,229.4,135.9,228.8,136.2,228.5z"/>
			<path class="st0" d="M164.3,232.6h6.6l-1.7,10c-0.4,2.1-1.4,3.8-4.7,3.8h-0.2v-3c0.5-0.2,0.8-0.7,0.9-1.2
				c0.2-1.1,0.3-2.3,0.5-3.4c0.2-1.1,0.3-2.3,0.5-3.4c0.1-0.8-0.5-1.4-1.3-1.4l0,0c-0.2,0-0.4,0-0.5,0.1V232.6z M158.8,232.6h5.4
				v1.4c-0.6,0.2-1.1,0.7-1.1,1.3c-0.1,1.1-0.2,2.3-0.4,3.4c-0.1,1.1-0.2,2.3-0.4,3.4c-0.1,0.8,0.5,1.4,1.2,1.4l0,0
				c0.2,0,0.4-0.1,0.6-0.2v3h-5.4v-2.9c0.6-0.2,1.1-0.7,1.1-1.3c0.1-1.1,0.2-2.3,0.3-3.4c0.1-1.1,0.2-2.3,0.3-3.4
				c0.1-0.8-0.6-1.4-1.4-1.4l0,0c-0.1,0-0.2,0-0.2,0V232.6z M153.3,232.6h5.5v1.3c-0.7,0.1-1.3,0.7-1.3,1.4c0,1.1-0.1,2.3-0.2,3.4
				c0,1.1-0.1,2.3-0.2,3.4c0,0.8,0.6,1.4,1.3,1.4l0,0c0.1,0,0.2,0,0.3,0v2.9h-5.5v-2.9c0.7,0,1.4-0.6,1.4-1.4c0-1.1,0-2.3,0.1-3.4
				c0-1.1,0-2.3,0.1-3.4c0-0.8-0.7-1.4-1.5-1.4l0,0h0V232.6z M147.8,232.6h5.5v1.3c-0.8,0-1.5,0.6-1.5,1.4c0,1.1,0,2.3,0.1,3.4
				c0,1.1,0,2.3,0.1,3.4c0,0.8,0.6,1.4,1.4,1.4l0,0h0v2.9h-5.5v-2.9c0.1,0,0.2,0,0.3,0l0,0c0.7,0,1.3-0.6,1.3-1.4
				c0-1.1-0.1-2.3-0.2-3.4c-0.1-1.1-0.1-2.3-0.2-3.4c0-0.7-0.6-1.3-1.3-1.4V232.6z M142.4,232.6h5.4v1.3c-0.1,0-0.2,0-0.2,0l0,0
				c-0.8,0-1.5,0.6-1.4,1.4c0.1,1.1,0.2,2.3,0.3,3.4c0.1,1.1,0.2,2.3,0.3,3.4c0,0.6,0.5,1.2,1.1,1.3v2.9h-5.4v-3
				c0.2,0.1,0.4,0.2,0.6,0.2l0,0c0.7,0,1.3-0.6,1.2-1.4c-0.1-1.1-0.2-2.3-0.4-3.4c-0.1-1.1-0.2-2.3-0.4-3.4
				c-0.1-0.6-0.5-1.1-1.1-1.3V232.6z M142.2,246.4c-3.3,0-4.3-1.6-4.7-3.8l-1.7-10h6.6v1.4c-0.2-0.1-0.3-0.1-0.5-0.1l0,0
				c-0.8,0-1.4,0.6-1.3,1.4c0.2,1.1,0.3,2.3,0.5,3.4c0.2,1.1,0.3,2.3,0.5,3.4c0.1,0.5,0.4,1,0.9,1.2v3H142.2z"/>
		</g>
		<g>
			<path class="st0" d="M313.8,231.3h1.4c4,0,4.2-4.5,0-4.5l-1.4,0v0.4l0,0c1,0,1.9,0.8,1.9,1.9c0,1-0.8,1.9-1.9,1.9l0,0V231.3z
				 M281,231.3h32.8v-0.4c-1,0-1.9-0.8-1.9-1.9c0-1,0.8-1.9,1.9-1.9v-0.4c-10.9,0-21.9,0-32.8,0v0.4c1,0,1.9,0.8,1.9,1.9
				c0,1-0.8,1.9-1.9,1.9V231.3z M279.6,231.3h1.4v-0.4l0,0c-1,0-1.9-0.8-1.9-1.9c0-1,0.8-1.9,1.9-1.9l0,0v-0.4l-1.4,0
				C275.5,226.8,275.6,231.3,279.6,231.3z"/>
			<circle class="st0" cx="299.9" cy="213.3" r="1.9"/>
			<path class="st0" d="M314.5,228.5l-12.9-14.4c-0.3-0.3-0.8-0.4-1.1-0.1l0,0c-0.3,0.3-0.4,0.8-0.1,1.1l12.9,14.4
				c0.3,0.3,0.8,0.4,1.1,0.1l0,0C314.8,229.4,314.8,228.8,314.5,228.5z"/>
			<circle class="st0" cx="294.9" cy="213.3" r="1.9"/>
			<path class="st0" d="M280.3,228.5l14.1-15.8c0.3-0.3,0.8-0.4,1.1-0.1l0,0c0.3,0.3,0.4,0.8,0.1,1.1l-14.1,15.8
				c-0.3,0.3-0.8,0.4-1.1,0.1l0,0C280,229.4,280,228.8,280.3,228.5z"/>
			<path class="st0" d="M308.3,232.6h6.6l-1.7,10c-0.4,2.1-1.4,3.8-4.7,3.8h-0.2v-3c0.5-0.2,0.8-0.7,0.9-1.2
				c0.2-1.1,0.3-2.3,0.5-3.4c0.2-1.1,0.3-2.3,0.5-3.4c0.1-0.8-0.5-1.4-1.3-1.4l0,0c-0.2,0-0.4,0-0.5,0.1V232.6z M302.9,232.6h5.4
				v1.4c-0.6,0.2-1.1,0.7-1.1,1.3c-0.1,1.1-0.2,2.3-0.4,3.4c-0.1,1.1-0.2,2.3-0.4,3.4c-0.1,0.8,0.5,1.4,1.2,1.4l0,0
				c0.2,0,0.4-0.1,0.6-0.2v3h-5.4v-2.9c0.6-0.2,1.1-0.7,1.1-1.3c0.1-1.1,0.2-2.3,0.3-3.4c0.1-1.1,0.2-2.3,0.3-3.4
				c0.1-0.8-0.6-1.4-1.4-1.4l0,0c-0.1,0-0.2,0-0.2,0V232.6z M297.4,232.6h5.5v1.3c-0.7,0.1-1.3,0.7-1.3,1.4c0,1.1-0.1,2.3-0.2,3.4
				c0,1.1-0.1,2.3-0.2,3.4c0,0.8,0.6,1.4,1.3,1.4l0,0c0.1,0,0.2,0,0.3,0v2.9h-5.5v-2.9c0.7,0,1.4-0.6,1.4-1.4c0-1.1,0-2.3,0.1-3.4
				c0-1.1,0-2.3,0.1-3.4c0-0.8-0.7-1.4-1.5-1.4l0,0h0V232.6z M291.9,232.6h5.5v1.3c-0.8,0-1.5,0.6-1.5,1.4c0,1.1,0,2.3,0.1,3.4
				c0,1.1,0,2.3,0.1,3.4c0,0.8,0.6,1.4,1.4,1.4l0,0h0v2.9h-5.5v-2.9c0.1,0,0.2,0,0.3,0l0,0c0.7,0,1.3-0.6,1.3-1.4
				c-0.1-1.1-0.1-2.3-0.2-3.4c-0.1-1.1-0.1-2.3-0.2-3.4c0-0.7-0.6-1.3-1.3-1.4V232.6z M286.5,232.6h5.4v1.3c-0.1,0-0.2,0-0.2,0l0,0
				c-0.8,0-1.5,0.6-1.4,1.4c0.1,1.1,0.2,2.3,0.3,3.4c0.1,1.1,0.2,2.3,0.3,3.4c0,0.6,0.5,1.2,1.1,1.3v2.9h-5.4v-3
				c0.2,0.1,0.4,0.2,0.6,0.2l0,0c0.7,0,1.3-0.6,1.2-1.4c-0.1-1.1-0.2-2.3-0.4-3.4c-0.1-1.1-0.2-2.3-0.4-3.4
				c-0.1-0.6-0.5-1.1-1.1-1.3V232.6z M286.3,246.4c-3.3,0-4.3-1.6-4.7-3.8l-1.7-10h6.6v1.4c-0.2-0.1-0.3-0.1-0.5-0.1l0,0
				c-0.8,0-1.4,0.6-1.3,1.4c0.2,1.1,0.3,2.3,0.5,3.4c0.2,1.1,0.3,2.3,0.5,3.4c0.1,0.5,0.4,1,0.9,1.2v3H286.3z"/>
		</g>
	</g>
	<rect x="69.5" y="81.8" class="st8" width="311.7" height="19.2"/>
	<polygon class="st9" points="21.3,122.2 429.4,122.2 381.2,101 69.5,101 	"/>
	<polygon class="st10" points="398,122.2 366.6,122.2 333.2,101 357.2,101 	"/>
	<polygon class="st9" points="335.2,122.2 366.6,122.2 333.2,101 309.3,101 	"/>
	<polygon class="st10" points="335.2,122.2 303.9,122.2 285.3,101 309.3,101 	"/>
	<polygon class="st9" points="272.5,122.2 303.9,122.2 285.3,101 261.3,101 	"/>
	<polygon class="st10" points="272.5,122.2 241.1,122.2 237.3,101 261.3,101 	"/>
	<polygon class="st9" points="209.7,122.2 241.1,122.2 237.3,101 213.4,101 	"/>
	<polygon class="st10" points="209.7,122.2 178.3,122.2 189.4,101 213.4,101 	"/>
	<polygon class="st9" points="146.9,122.2 178.3,122.2 189.4,101 165.4,101 	"/>
	<polygon class="st10" points="146.9,122.2 115.5,122.2 141.5,101 165.4,101 	"/>
	<polygon class="st9" points="84.1,122.2 115.5,122.2 141.5,101 117.5,101 	"/>
	<polygon class="st10" points="84.1,122.2 52.7,122.2 93.5,101 117.5,101 	"/>
	<polygon class="st9" points="21.3,122.2 52.7,122.2 93.5,101 69.5,101 	"/>
	<path class="st11" d="M84.1,122.2c0,8.7-7,15.7-15.7,15.7c-8.7,0-15.7-7-15.7-15.7H84.1z"/>
	<path class="st8" d="M21.3,122.2c0,8.7,7,15.7,15.7,15.7c8.7,0,15.7-7,15.7-15.7H21.3z"/>
	<path class="st11" d="M146.9,122.2c0,8.7-7,15.7-15.7,15.7c-8.7,0-15.7-7-15.7-15.7H146.9z"/>
	<path class="st8" d="M84.1,122.2c0,8.7,7,15.7,15.7,15.7s15.7-7,15.7-15.7H84.1z"/>
	<path class="st11" d="M209.7,122.2c0,8.7-7,15.7-15.7,15.7c-8.7,0-15.7-7-15.7-15.7H209.7z"/>
	<path class="st8" d="M146.9,122.2c0,8.7,7,15.7,15.7,15.7c8.7,0,15.7-7,15.7-15.7H146.9z"/>
	<path class="st11" d="M272.5,122.2c0,8.7-7,15.7-15.7,15.7c-8.7,0-15.7-7-15.7-15.7H272.5z"/>
	<path class="st8" d="M209.7,122.2c0,8.7,7,15.7,15.7,15.7c8.7,0,15.7-7,15.7-15.7H209.7z"/>
	<path class="st11" d="M335.2,122.2c0,8.7-7,15.7-15.7,15.7c-8.7,0-15.7-7-15.7-15.7H335.2z"/>
	<path class="st8" d="M272.5,122.2c0,8.7,7,15.7,15.7,15.7c8.7,0,15.7-7,15.7-15.7H272.5z"/>
	<path class="st11" d="M398,122.2c0,8.7-7,15.7-15.7,15.7c-8.7,0-15.7-7-15.7-15.7H398z"/>
	<path class="st8" d="M335.2,122.2c0,8.7,7,15.7,15.7,15.7c8.7,0,15.7-7,15.7-15.7H335.2z"/>
	<path class="st8" d="M398,122.2c0,8.7,7,15.7,15.7,15.7c8.7,0,15.7-7,15.7-15.7H398z"/>
</g>
<g>
	<g>
		<g>
			<g>
				<path class="st12" d="M453.2,230.8h-69.3c-13.4,0-24.4,11-24.4,24.4v119.6c0,13.4,11,24.4,24.4,24.4h69.3
					c13.4,0,24.4-11,24.4-24.4V255.2C477.6,241.8,466.6,230.8,453.2,230.8z"/>
				<path class="st0" d="M453.2,230.8h-69.3c-13.4,0-24.4,11-24.4,24.4v119.6c0,13.4,11,24.4,24.4,24.4h69.3
					c13.4,0,24.4-11,24.4-24.4V255.2C477.6,241.8,466.6,230.8,453.2,230.8z"/>
			</g>
			<path class="st1" d="M468.8,245H368.3c-0.2,0-0.4,0.2-0.4,0.4v138c0,0.2,0.2,0.4,0.4,0.4h100.5c0.2,0,0.4-0.2,0.4-0.4v-138
				C469.2,245.1,469,245,468.8,245z"/>
			<path class="st2" d="M431.5,235h-25.9c-0.7,0-1.3,0.6-1.3,1.3v0c0,0.7,0.6,1.3,1.3,1.3h25.9c0.7,0,1.3-0.6,1.3-1.3v0
				C432.8,235.6,432.2,235,431.5,235z"/>
			<circle class="st2" cx="418.6" cy="391.2" r="4.3"/>
		</g>
		<rect x="367.9" y="245" class="st1" width="101.3" height="138.7"/>
		<rect x="367.9" y="245" class="st6" width="101.3" height="8.7"/>
		<rect x="391.6" y="258.9" class="st2" width="53.9" height="13.5"/>
		<rect x="367.9" y="289" class="st2" width="101.3" height="49.1"/>
		<rect x="382.9" y="277.7" class="st6" width="71.3" height="5.7"/>
		<path class="st7" d="M462.8,310.9c-0.2-0.2-0.1-0.5,0.1-0.7c0.2-0.2,0.5-0.1,0.7,0.1l2.2,2.9c0,0,0,0,0,0.1l0,0l0,0l0,0
			c0,0,0,0,0,0l0,0l0,0l0,0l0,0c0,0,0,0,0,0l0,0l0,0l0,0v0v0v0l0,0l0,0l0,0l0,0l0,0l0,0l0,0l0,0l0,0l0,0l0,0l0,0c0,0,0,0,0,0.1
			l-2.2,2.9c-0.2,0.2-0.5,0.3-0.7,0.1c-0.2-0.2-0.3-0.5-0.1-0.7l2-2.6L462.8,310.9z"/>
		<path class="st7" d="M373.5,310.3c0.2-0.2,0.5-0.3,0.7-0.1c0.2,0.2,0.3,0.5,0.1,0.7l-2,2.6l2,2.6c0.2,0.2,0.1,0.5-0.1,0.7
			c-0.2,0.2-0.5,0.1-0.7-0.1l-2.2-2.9c0,0,0,0,0-0.1l0,0l0,0l0,0c0,0,0,0,0,0l0,0l0,0l0,0l0,0c0,0,0,0,0,0v0l0,0l0,0v0v0v0l0,0l0,0
			v0l0,0l0,0l0,0l0,0l0,0c0,0,0,0,0,0l0,0l0,0l0,0c0,0,0,0,0-0.1L373.5,310.3z"/>
		<g>
			<path class="st1" d="M433.1,315.6h1.2c3.5,0,3.7-4,0-4l-1.2,0v0.3l0,0c0.9,0,1.7,0.8,1.7,1.7c0,0.9-0.8,1.7-1.7,1.7l0,0V315.6z
				 M404,315.6h29.1v-0.3c-0.9,0-1.7-0.8-1.7-1.7c0-0.9,0.8-1.7,1.7-1.7v-0.3c-9.7,0-19.4,0-29.1,0v0.3c0.9,0,1.7,0.8,1.7,1.7
				c0,0.9-0.8,1.7-1.7,1.7V315.6z M402.8,315.6h1.2v-0.3c-0.9,0-1.7-0.8-1.7-1.7c0-0.9,0.8-1.7,1.7-1.7v-0.3l-1.2,0
				C399.1,311.7,399.3,315.6,402.8,315.6z"/>
			<circle class="st1" cx="420.8" cy="299.7" r="1.7"/>
			<path class="st1" d="M433.7,313.2l-11.4-12.8c-0.3-0.3-0.7-0.3-1-0.1l0,0c-0.3,0.3-0.3,0.7-0.1,1l11.4,12.8
				c0.3,0.3,0.7,0.3,1,0.1l0,0C434,313.9,434,313.5,433.7,313.2z"/>
			<circle class="st1" cx="416.3" cy="299.7" r="1.7"/>
			<path class="st1" d="M403.4,313.2l12.5-14c0.3-0.3,0.7-0.3,1-0.1l0,0c0.3,0.3,0.3,0.7,0.1,1l-12.5,14c-0.3,0.3-0.7,0.3-1,0.1l0,0
				C403.1,313.9,403.1,313.5,403.4,313.2z"/>
			<path class="st1" d="M428.3,316.8h5.9l-1.5,8.8c-0.3,1.9-1.3,3.3-4.2,3.3h-0.1v-2.7c0.4-0.2,0.7-0.6,0.8-1.1c0.1-1,0.3-2,0.4-3
				c0.1-1,0.3-2,0.4-3c0.1-0.7-0.4-1.2-1.2-1.2l0,0c-0.2,0-0.3,0-0.5,0.1V316.8z M423.4,316.8h4.8v1.2c-0.5,0.2-0.9,0.6-1,1.2
				c-0.1,1-0.2,2-0.3,3c-0.1,1-0.2,2-0.3,3c-0.1,0.7,0.4,1.2,1.1,1.2l0,0c0.2,0,0.4,0,0.6-0.1v2.7h-4.8v-2.6c0.5-0.1,0.9-0.6,1-1.2
				c0.1-1,0.2-2,0.2-3c0.1-1,0.2-2,0.2-3c0.1-0.7-0.5-1.2-1.2-1.2l0,0c-0.1,0-0.1,0-0.2,0V316.8z M418.6,316.8h4.9v1.1
				c-0.6,0.1-1.2,0.6-1.2,1.2c0,1-0.1,2-0.1,3c0,1-0.1,2-0.1,3c0,0.7,0.5,1.2,1.1,1.2l0,0c0.1,0,0.2,0,0.3,0v2.6h-4.9v-2.5
				c0.7,0,1.2-0.6,1.2-1.2c0-1,0-2,0-3c0-1,0-2,0-3c0-0.7-0.6-1.2-1.3-1.2l0,0h0V316.8z M413.7,316.8h4.9v1.1
				c-0.7,0-1.3,0.6-1.3,1.2c0,1,0,2,0,3c0,1,0,2,0,3c0,0.7,0.6,1.2,1.2,1.2l0,0h0v2.5h-4.9v-2.6c0.1,0,0.2,0,0.3,0l0,0
				c0.7,0,1.2-0.6,1.1-1.2c0-1-0.1-2-0.1-3c0-1-0.1-2-0.1-3c0-0.6-0.5-1.1-1.2-1.2V316.8z M408.9,316.8h4.8v1.1c-0.1,0-0.1,0-0.2,0
				l0,0c-0.7,0-1.3,0.6-1.2,1.2c0.1,1,0.2,2,0.2,3c0.1,1,0.2,2,0.2,3c0,0.6,0.5,1.1,1,1.2v2.6h-4.8v-2.7c0.2,0.1,0.4,0.1,0.6,0.1
				l0,0c0.7,0,1.1-0.6,1.1-1.2c-0.1-1-0.2-2-0.3-3c-0.1-1-0.2-2-0.3-3c-0.1-0.5-0.5-1-1-1.2V316.8z M408.7,329
				c-2.9,0-3.9-1.4-4.2-3.3l-1.5-8.8h5.9v1.2c-0.1,0-0.3-0.1-0.5-0.1l0,0c-0.7,0-1.3,0.6-1.2,1.2c0.1,1,0.3,2,0.4,3
				c0.1,1,0.3,2,0.4,3c0.1,0.5,0.4,0.9,0.8,1.1v2.7H408.7z"/>
		</g>
		<g>
			<g>
				<path class="st0" d="M393.9,314.5h0.6c1.7,0,1.7-1.9,0-1.9l-0.6,0v0.1c0.4,0,0.8,0.4,0.8,0.8c0,0.4-0.4,0.8-0.8,0.8V314.5z
					 M380.3,314.5h13.6v-0.2c-0.4,0-0.8-0.4-0.8-0.8c0-0.4,0.4-0.8,0.8-0.8v-0.1c-4.5,0-9.1,0-13.6,0v0.1l0,0c0.4,0,0.8,0.4,0.8,0.8
					c0,0.4-0.4,0.8-0.8,0.8l0,0V314.5z M379.7,314.5h0.6v-0.2c-0.4,0-0.8-0.4-0.8-0.8c0-0.4,0.4-0.8,0.8-0.8v-0.1l-0.6,0
					C378,312.6,378,314.5,379.7,314.5z"/>
				<circle class="st0" cx="388.1" cy="307" r="0.8"/>
				<path class="st0" d="M394.2,313.4l-5.4-6c-0.1-0.1-0.3-0.1-0.5,0l0,0c-0.1,0.1-0.1,0.3,0,0.5l5.4,6c0.1,0.1,0.3,0.2,0.5,0l0,0
					C394.3,313.7,394.3,313.5,394.2,313.4z"/>
				<circle class="st0" cx="386" cy="307" r="0.8"/>
				<path class="st0" d="M380,313.4l5.8-6.5c0.1-0.1,0.3-0.1,0.5,0l0,0c0.1,0.1,0.2,0.3,0,0.5l-5.8,6.5c-0.1,0.1-0.3,0.2-0.5,0l0,0
					C379.9,313.7,379.8,313.5,380,313.4z"/>
				<path class="st0" d="M391.6,315.1h2.7l-0.7,4.1c-0.2,0.9-0.6,1.6-2,1.6h-0.1v-1.2c0.2-0.1,0.3-0.3,0.4-0.5
					c0.1-0.5,0.1-0.9,0.2-1.4c0.1-0.5,0.1-0.9,0.2-1.4c0-0.3-0.2-0.6-0.5-0.6l0,0c-0.1,0-0.1,0-0.2,0V315.1z M389.4,315.1h2.3v0.6
					c-0.2,0.1-0.4,0.3-0.5,0.5c0,0.5-0.1,0.9-0.1,1.4c0,0.5-0.1,0.9-0.1,1.4c0,0.3,0.2,0.6,0.5,0.6l0,0c0.1,0,0.2,0,0.3-0.1v1.2
					h-2.3v-1.2c0.2-0.1,0.4-0.3,0.5-0.6c0-0.5,0.1-0.9,0.1-1.4c0-0.5,0.1-0.9,0.1-1.4c0-0.3-0.2-0.6-0.6-0.6l0,0c0,0-0.1,0-0.1,0
					V315.1z M387.1,315.1h2.3v0.5c-0.3,0-0.5,0.3-0.6,0.6c0,0.5,0,0.9-0.1,1.4c0,0.5,0,0.9-0.1,1.4c0,0.3,0.2,0.6,0.5,0.6l0,0
					c0,0,0.1,0,0.1,0v1.2h-2.3v-1.2c0.3,0,0.6-0.3,0.6-0.6c0-0.5,0-0.9,0-1.4c0-0.5,0-0.9,0-1.4c0-0.3-0.3-0.6-0.6-0.6l0,0h0V315.1z
					 M384.8,315.1h2.3v0.5c-0.3,0-0.6,0.3-0.6,0.6c0,0.5,0,0.9,0,1.4c0,0.5,0,0.9,0,1.4c0,0.3,0.3,0.6,0.6,0.6l0,0l0,0v1.2h-2.3
					v-1.2c0,0,0.1,0,0.1,0l0,0c0.3,0,0.6-0.3,0.5-0.6c0-0.5,0-0.9-0.1-1.4c0-0.5,0-0.9-0.1-1.4c0-0.3-0.3-0.5-0.6-0.6V315.1z
					 M382.5,315.1h2.3v0.5c0,0-0.1,0-0.1,0l0,0c-0.3,0-0.6,0.3-0.6,0.6c0,0.5,0.1,0.9,0.1,1.4c0,0.5,0.1,0.9,0.1,1.4
					c0,0.3,0.2,0.5,0.5,0.6v1.2h-2.3v-1.2c0.1,0,0.2,0.1,0.3,0.1l0,0c0.3,0,0.5-0.3,0.5-0.6c0-0.5-0.1-0.9-0.1-1.4
					c0-0.5-0.1-0.9-0.1-1.4c0-0.2-0.2-0.5-0.5-0.5V315.1z M382.5,320.8c-1.4,0-1.8-0.7-2-1.6l-0.7-4.1h2.7v0.6c-0.1,0-0.1,0-0.2,0
					l0,0c-0.3,0-0.6,0.3-0.5,0.6c0.1,0.5,0.1,0.9,0.2,1.4c0.1,0.5,0.1,0.9,0.2,1.4c0,0.2,0.2,0.4,0.4,0.5L382.5,320.8L382.5,320.8z"
					/>
			</g>
			<g>
				<path class="st0" d="M456.9,314.5h0.6c1.7,0,1.7-1.9,0-1.9l-0.6,0v0.1c0.4,0,0.8,0.4,0.8,0.8c0,0.4-0.4,0.8-0.8,0.8V314.5z
					 M443.3,314.5h13.6v-0.2c-0.4,0-0.8-0.4-0.8-0.8c0-0.4,0.4-0.8,0.8-0.8v-0.1c-4.5,0-9.1,0-13.6,0v0.1c0.4,0,0.8,0.4,0.8,0.8
					c0,0.4-0.4,0.8-0.8,0.8V314.5z M442.7,314.5h0.6v-0.2c-0.4,0-0.8-0.4-0.8-0.8c0-0.4,0.4-0.8,0.8-0.8v-0.1l-0.6,0
					C441,312.6,441,314.5,442.7,314.5z"/>
				<circle class="st0" cx="451.1" cy="307" r="0.8"/>
				<path class="st0" d="M457.2,313.4l-5.4-6c-0.1-0.1-0.3-0.1-0.5,0l0,0c-0.1,0.1-0.2,0.3,0,0.5l5.4,6c0.1,0.1,0.3,0.2,0.5,0l0,0
					C457.3,313.7,457.3,313.5,457.2,313.4z"/>
				<circle class="st0" cx="449" cy="307" r="0.8"/>
				<path class="st0" d="M443,313.4l5.8-6.5c0.1-0.1,0.3-0.1,0.5,0l0,0c0.1,0.1,0.2,0.3,0,0.5l-5.8,6.5c-0.1,0.1-0.3,0.2-0.5,0l0,0
					C442.8,313.7,442.8,313.5,443,313.4z"/>
				<path class="st0" d="M454.6,315.1h2.7l-0.7,4.1c-0.2,0.9-0.6,1.6-2,1.6h-0.1v-1.2c0.2-0.1,0.3-0.3,0.4-0.5
					c0.1-0.5,0.1-0.9,0.2-1.4c0.1-0.5,0.1-0.9,0.2-1.4c0-0.3-0.2-0.6-0.5-0.6l0,0c-0.1,0-0.1,0-0.2,0V315.1z M452.3,315.1h2.3v0.6
					c-0.2,0.1-0.4,0.3-0.5,0.5c0,0.5-0.1,0.9-0.1,1.4c0,0.5-0.1,0.9-0.1,1.4c0,0.3,0.2,0.6,0.5,0.6l0,0c0.1,0,0.2,0,0.3-0.1v1.2
					h-2.3v-1.2c0.2-0.1,0.4-0.3,0.5-0.6c0-0.5,0.1-0.9,0.1-1.4c0-0.5,0.1-0.9,0.1-1.4c0-0.3-0.2-0.6-0.6-0.6l0,0c0,0-0.1,0-0.1,0
					V315.1z M450.1,315.1h2.3v0.5c-0.3,0-0.5,0.3-0.6,0.6c0,0.5,0,0.9-0.1,1.4c0,0.5,0,0.9-0.1,1.4c0,0.3,0.2,0.6,0.5,0.6l0,0
					c0,0,0.1,0,0.1,0v1.2h-2.3v-1.2c0.3,0,0.6-0.3,0.6-0.6c0-0.5,0-0.9,0-1.4c0-0.5,0-0.9,0-1.4c0-0.3-0.3-0.6-0.6-0.6l0,0l0,0
					V315.1z M447.8,315.1h2.3v0.5c-0.3,0-0.6,0.3-0.6,0.6c0,0.5,0,0.9,0,1.4c0,0.5,0,0.9,0,1.4c0,0.3,0.3,0.6,0.6,0.6l0,0h0v1.2
					h-2.3v-1.2c0,0,0.1,0,0.1,0l0,0c0.3,0,0.5-0.3,0.5-0.6c0-0.5,0-0.9-0.1-1.4c0-0.5,0-0.9-0.1-1.4c0-0.3-0.3-0.5-0.6-0.6V315.1z
					 M445.5,315.1h2.3v0.5c0,0-0.1,0-0.1,0l0,0c-0.3,0-0.6,0.3-0.6,0.6c0,0.5,0.1,0.9,0.1,1.4c0,0.5,0.1,0.9,0.1,1.4
					c0,0.3,0.2,0.5,0.5,0.6v1.2h-2.3v-1.2c0.1,0,0.2,0.1,0.3,0.1l0,0c0.3,0,0.5-0.3,0.5-0.6c0-0.5-0.1-0.9-0.1-1.4
					c0-0.5-0.1-0.9-0.1-1.4c0-0.2-0.2-0.5-0.5-0.5V315.1z M445.5,320.8c-1.4,0-1.8-0.7-2-1.6l-0.7-4.1h2.7v0.6c-0.1,0-0.1,0-0.2,0
					l0,0c-0.3,0-0.6,0.3-0.5,0.6c0.1,0.5,0.1,0.9,0.2,1.4c0.1,0.5,0.1,0.9,0.2,1.4c0,0.2,0.2,0.4,0.4,0.5L445.5,320.8L445.5,320.8z"
					/>
			</g>
		</g>
		<rect x="374.1" y="341.7" class="st2" width="25.4" height="13.4"/>
		<rect x="405.9" y="341.7" class="st2" width="25.4" height="13.4"/>
		<rect x="437.6" y="341.7" class="st2" width="25.4" height="13.4"/>
		<rect x="367.9" y="376.4" class="st6" width="101.3" height="7.2"/>
		<rect x="374.1" y="356.9" class="st6" width="25.4" height="2.5"/>
		<rect x="374.1" y="361.2" class="st6" width="25.4" height="2.5"/>
		<rect x="374.1" y="365.5" class="st6" width="25.4" height="2.5"/>
		<rect x="374.1" y="369.9" class="st6" width="16.1" height="2.5"/>
		<rect x="405.9" y="356.9" class="st6" width="25.4" height="2.5"/>
		<rect x="405.9" y="361.2" class="st6" width="25.4" height="2.5"/>
		<rect x="405.9" y="365.5" class="st6" width="25.4" height="2.5"/>
		<rect x="405.9" y="369.9" class="st6" width="16.1" height="2.5"/>
		<rect x="437.6" y="356.9" class="st6" width="25.4" height="2.5"/>
		<rect x="437.6" y="361.2" class="st6" width="25.4" height="2.5"/>
		<rect x="437.6" y="365.5" class="st6" width="25.4" height="2.5"/>
		<rect x="437.6" y="369.9" class="st6" width="16.1" height="2.5"/>
	</g>
	<path class="st5" d="M357.1,268c2.5-2.2,4-5.5,4-9.2c0,6.7,5.1,12.1,11.5,12.1c6.3,0,11.5-5.4,11.5-12.1c0,6.7,5.1,12.1,11.5,12.1
		c6.3,0,11.5-5.4,11.5-12.1c0,6.7,5.1,12.1,11.5,12.1c6.3,0,11.5-5.4,11.5-12.1c0,6.7,5.1,12.1,11.5,12.1c6.3,0,11.5-5.4,11.5-12.1
		c0,6.7,5.1,12.1,11.5,12.1c6.3,0,11.5-5.4,11.5-12.1c0,3.7,1.6,7,4,9.2v-18.8c0-8.4-4.2-16-10.6-20.6H367.7
		c-6.4,4.6-10.6,12.1-10.6,20.6V268z"/>
	<rect x="357.1" y="220.1" class="st8" width="122.8" height="14.8"/>
	<polygon class="st9" points="338.1,251.3 499,251.3 480,234.9 357.1,234.9 	"/>
	<polygon class="st10" points="499,251.3 476,251.3 462.4,234.9 480,234.9 	"/>
	<polygon class="st9" points="453,251.3 476,251.3 462.4,234.9 444.9,234.9 	"/>
	<polygon class="st10" points="453,251.3 430.1,251.3 427.3,234.9 444.9,234.9 	"/>
	<polygon class="st9" points="407.1,251.3 430.1,251.3 427.3,234.9 409.8,234.9 	"/>
	<polygon class="st10" points="407.1,251.3 384.1,251.3 392.2,234.9 409.8,234.9 	"/>
	<polygon class="st9" points="361.1,251.3 384.1,251.3 392.2,234.9 374.7,234.9 	"/>
	<polygon class="st10" points="361.1,251.3 338.1,251.3 357.1,234.9 374.7,234.9 	"/>
	<path class="st11" d="M361.1,251.3c0,6.7-5.1,12.1-11.5,12.1c-6.3,0-11.5-5.4-11.5-12.1H361.1z"/>
	<path class="st11" d="M407.1,251.3c0,6.7-5.1,12.1-11.5,12.1c-6.3,0-11.5-5.4-11.5-12.1H407.1z"/>
	<path class="st8" d="M361.1,251.3c0,6.7,5.1,12.1,11.5,12.1c6.3,0,11.5-5.4,11.5-12.1H361.1z"/>
	<path class="st11" d="M453,251.3c0,6.7-5.1,12.1-11.5,12.1c-6.3,0-11.5-5.4-11.5-12.1H453z"/>
	<path class="st8" d="M407.1,251.3c0,6.7,5.1,12.1,11.5,12.1c6.3,0,11.5-5.4,11.5-12.1H407.1z"/>
	<path class="st11" d="M499,251.3c0,6.7-5.1,12.1-11.5,12.1c-6.3,0-11.5-5.4-11.5-12.1H499z"/>
	<path class="st8" d="M453,251.3c0,6.7,5.1,12.1,11.5,12.1c6.3,0,11.5-5.4,11.5-12.1H453z"/>
</g>
<g>
	<g>
		<g>
			<g>
				<path class="st13" d="M340,324.8h31.9c6,0,11,4.9,11,11l0,85.7c0,6-4.9,11-11,11H340c-6,0-11-4.9-11-11l0-85.7
					C329,329.7,334,324.8,340,324.8z"/>
				<path class="st0" d="M340,324.8h31.9c6,0,11,4.9,11,11l0,85.7c0,6-4.9,11-11,11H340c-6,0-11-4.9-11-11l0-85.7
					C329,329.7,334,324.8,340,324.8z"/>
			</g>
			<rect x="333" y="336" class="st1" width="46" height="81.5"/>
			<path class="st2" d="M345.6,330.7h20.7c0.6,0,1-0.5,1-1v0c0-0.6-0.5-1-1-1h-20.7c-0.6,0-1,0.5-1,1v0
				C344.6,330.3,345.1,330.7,345.6,330.7z"/>
			<path class="st2" d="M338.6,426.7h34.9c0.9,0,1.6-0.7,1.6-1.6v0c0-0.9-0.7-1.6-1.6-1.6l-34.9,0c-0.9,0-1.6,0.7-1.6,1.6l0,0
				C337,426,337.7,426.7,338.6,426.7z"/>
			<circle class="st0" cx="356" cy="425.1" r="6.2"/>
			<circle class="st2" cx="356" cy="425.1" r="4.4"/>
		</g>
		<rect x="333" y="336" class="st6" width="46" height="5.1"/>
		<rect x="343.8" y="344.3" class="st2" width="24.5" height="5.9"/>
		<rect x="333" y="358.4" class="st2" width="46" height="23.5"/>
		<rect x="339.8" y="352.5" class="st6" width="32.4" height="2.5"/>
		<g>
			<path class="st7" d="M376.1,369.1c-0.1-0.1-0.1-0.2,0-0.3c0.1-0.1,0.2-0.1,0.3,0l1,1.3c0,0,0,0,0,0l0,0l0,0v0c0,0,0,0,0,0l0,0
				l0,0l0,0l0,0c0,0,0,0,0,0v0l0,0v0v0v0v0v0l0,0v0l0,0l0,0l0,0l0,0l0,0l0,0v0l0,0l0,0c0,0,0,0,0,0l-1,1.3c-0.1,0.1-0.2,0.1-0.3,0
				c-0.1-0.1-0.1-0.2,0-0.3l0.9-1.1L376.1,369.1z"/>
			<path class="st7" d="M335.5,368.8c0.1-0.1,0.2-0.1,0.3,0c0.1,0.1,0.1,0.2,0,0.3l-0.9,1.1l0.9,1.1c0.1,0.1,0.1,0.2,0,0.3
				c-0.1,0.1-0.2,0.1-0.3,0l-1-1.3c0,0,0,0,0,0l0,0l0,0l0,0c0,0,0,0,0,0l0,0l0,0l0,0l0,0c0,0,0,0,0,0v0l0,0l0,0v0v0v0l0,0l0,0v0l0,0
				l0,0l0,0l0,0l0,0c0,0,0,0,0,0l0,0l0,0l0,0c0,0,0,0,0,0L335.5,368.8z"/>
		</g>
		<g>
			<path class="st1" d="M362.4,371.1h0.5c1.5,0,1.6-1.8,0-1.8l-0.5,0v0.1c0.4,0,0.7,0.3,0.7,0.7c0,0.4-0.3,0.7-0.7,0.7V371.1z
				 M349.6,371.1h12.7V371l0,0c-0.4,0-0.7-0.3-0.7-0.7c0-0.4,0.3-0.7,0.7-0.7l0,0v-0.1c-4.2,0-8.5,0-12.7,0v0.1h0
				c0.4,0,0.7,0.3,0.7,0.7c0,0.4-0.3,0.7-0.7,0.7h0V371.1z M349.1,371.1h0.5V371c-0.4,0-0.7-0.3-0.7-0.7c0-0.4,0.3-0.7,0.7-0.7v-0.1
				l-0.5,0C347.5,369.4,347.5,371.1,349.1,371.1z"/>
			<circle class="st1" cx="357" cy="364.1" r="0.7"/>
			<path class="st1" d="M362.6,370.1l-5-5.6c-0.1-0.1-0.3-0.1-0.4,0l0,0c-0.1,0.1-0.1,0.3,0,0.4l5,5.6c0.1,0.1,0.3,0.1,0.4,0l0,0
				C362.8,370.4,362.8,370.2,362.6,370.1z"/>
			<circle class="st1" cx="355" cy="364.1" r="0.7"/>
			<path class="st1" d="M349.3,370.1l5.5-6.1c0.1-0.1,0.3-0.1,0.4,0l0,0c0.1,0.1,0.1,0.3,0,0.4l-5.5,6.1c-0.1,0.1-0.3,0.1-0.4,0l0,0
				C349.2,370.4,349.2,370.2,349.3,370.1z"/>
			<path class="st1" d="M360.2,371.7h2.6l-0.7,3.9c-0.1,0.8-0.6,1.5-1.8,1.5h-0.1v-1.2c0.2-0.1,0.3-0.3,0.4-0.5
				c0.1-0.4,0.1-0.9,0.2-1.3c0.1-0.4,0.1-0.9,0.2-1.3c0-0.3-0.2-0.5-0.5-0.5l0,0c-0.1,0-0.1,0-0.2,0V371.7z M358.1,371.7h2.1v0.5
				c-0.2,0.1-0.4,0.3-0.4,0.5c0,0.4-0.1,0.9-0.1,1.3c0,0.4-0.1,0.9-0.1,1.3c0,0.3,0.2,0.5,0.5,0.5l0,0c0.1,0,0.2,0,0.2-0.1v1.2h-2.1
				v-1.1c0.2-0.1,0.4-0.3,0.4-0.5c0-0.4,0.1-0.9,0.1-1.3c0-0.4,0.1-0.9,0.1-1.3c0-0.3-0.2-0.5-0.5-0.5l0,0c0,0-0.1,0-0.1,0V371.7z
				 M356,371.7h2.1v0.5c-0.3,0-0.5,0.3-0.5,0.5c0,0.4,0,0.9-0.1,1.3c0,0.4,0,0.9-0.1,1.3c0,0.3,0.2,0.5,0.5,0.5l0,0c0,0,0.1,0,0.1,0
				v1.1H356v-1.1c0.3,0,0.5-0.2,0.5-0.5c0-0.4,0-0.9,0-1.3c0-0.4,0-0.9,0-1.3c0-0.3-0.3-0.5-0.6-0.5l0,0l0,0V371.7z M353.9,371.7
				h2.1v0.5c-0.3,0-0.6,0.2-0.6,0.5c0,0.4,0,0.9,0,1.3c0,0.4,0,0.9,0,1.3c0,0.3,0.2,0.5,0.5,0.5l0,0h0v1.1h-2.1v-1.1
				c0,0,0.1,0,0.1,0l0,0c0.3,0,0.5-0.2,0.5-0.5c0-0.4,0-0.9-0.1-1.3c0-0.4,0-0.9-0.1-1.3c0-0.3-0.2-0.5-0.5-0.5V371.7z M351.7,371.7
				h2.1v0.5c0,0-0.1,0-0.1,0l0,0c-0.3,0-0.6,0.2-0.5,0.5c0,0.4,0.1,0.9,0.1,1.3c0,0.4,0.1,0.9,0.1,1.3c0,0.2,0.2,0.5,0.4,0.5v1.1
				h-2.1v-1.2c0.1,0,0.2,0.1,0.2,0.1l0,0c0.3,0,0.5-0.2,0.5-0.5c0-0.4-0.1-0.9-0.1-1.3c0-0.4-0.1-0.9-0.1-1.3c0-0.2-0.2-0.4-0.4-0.5
				V371.7z M351.7,377c-1.3,0-1.7-0.6-1.8-1.5l-0.7-3.9h2.6v0.5c-0.1,0-0.1,0-0.2,0l0,0c-0.3,0-0.6,0.2-0.5,0.5
				c0.1,0.4,0.1,0.9,0.2,1.3c0.1,0.4,0.1,0.9,0.2,1.3c0,0.2,0.2,0.4,0.4,0.5L351.7,377L351.7,377z"/>
		</g>
		<g>
			<g>
				<path class="st0" d="M345.2,370.6h0.3c0.7,0,0.8-0.8,0-0.8h-0.3v0.1l0,0c0.2,0,0.3,0.2,0.3,0.3
					C345.5,370.4,345.4,370.6,345.2,370.6L345.2,370.6L345.2,370.6z M339.2,370.6h6v-0.1c-0.2,0-0.3-0.2-0.3-0.3
					c0-0.2,0.2-0.3,0.3-0.3v-0.1c-2,0-4,0-6,0v0.1c0.2,0,0.3,0.2,0.3,0.3C339.5,370.4,339.4,370.6,339.2,370.6L339.2,370.6z
					 M338.9,370.6h0.3v-0.1l0,0c-0.2,0-0.3-0.2-0.3-0.3c0-0.2,0.2-0.3,0.3-0.3l0,0v-0.1h-0.3C338.2,369.8,338.2,370.6,338.9,370.6z"
					/>
				<circle class="st0" cx="342.6" cy="367.3" r="0.3"/>
				<path class="st0" d="M345.3,370.1l-2.3-2.6c-0.1-0.1-0.1-0.1-0.2,0l0,0c-0.1,0.1-0.1,0.1,0,0.2l2.4,2.6c0.1,0.1,0.1,0.1,0.2,0
					l0,0C345.3,370.3,345.3,370.2,345.3,370.1z"/>
				<circle class="st0" cx="341.7" cy="367.3" r="0.3"/>
				<path class="st0" d="M339.1,370.1l2.6-2.9c0.1-0.1,0.1-0.1,0.2,0l0,0c0.1,0.1,0.1,0.1,0,0.2l-2.6,2.9c-0.1,0.1-0.1,0.1-0.2,0
					l0,0C339,370.3,339,370.2,339.1,370.1z"/>
				<path class="st0" d="M344.2,370.9h1.2l-0.3,1.8c-0.1,0.4-0.3,0.7-0.9,0.7h0v-0.5c0.1,0,0.2-0.1,0.2-0.2c0-0.2,0.1-0.4,0.1-0.6
					c0-0.2,0.1-0.4,0.1-0.6c0-0.1-0.1-0.3-0.2-0.3l0,0c0,0-0.1,0-0.1,0V370.9z M343.2,370.9h1v0.2c-0.1,0-0.2,0.1-0.2,0.2
					c0,0.2,0,0.4-0.1,0.6c0,0.2,0,0.4-0.1,0.6c0,0.1,0.1,0.3,0.2,0.3l0,0c0,0,0.1,0,0.1,0v0.5h-1v-0.5c0.1,0,0.2-0.1,0.2-0.2
					c0-0.2,0-0.4,0-0.6c0-0.2,0-0.4,0-0.6c0-0.1-0.1-0.3-0.3-0.3l0,0c0,0,0,0,0,0V370.9z M342.2,370.9h1v0.2c-0.1,0-0.2,0.1-0.2,0.2
					c0,0.2,0,0.4,0,0.6c0,0.2,0,0.4,0,0.6c0,0.1,0.1,0.3,0.2,0.3l0,0c0,0,0,0,0.1,0v0.5h-1v-0.5c0.1,0,0.2-0.1,0.3-0.3
					c0-0.2,0-0.4,0-0.6c0-0.2,0-0.4,0-0.6c0-0.1-0.1-0.3-0.3-0.3l0,0h0V370.9z M341.2,370.9h1v0.2c-0.2,0-0.3,0.1-0.3,0.3
					c0,0.2,0,0.4,0,0.6c0,0.2,0,0.4,0,0.6c0,0.1,0.1,0.3,0.3,0.3l0,0l0,0v0.5h-1v-0.5c0,0,0,0,0.1,0l0,0c0.1,0,0.2-0.1,0.2-0.3
					c0-0.2,0-0.4,0-0.6c0-0.2,0-0.4,0-0.6c0-0.1-0.1-0.2-0.2-0.2V370.9z M340.2,370.9h1v0.2c0,0,0,0,0,0l0,0c-0.2,0-0.3,0.1-0.3,0.3
					c0,0.2,0,0.4,0,0.6c0,0.2,0,0.4,0,0.6c0,0.1,0.1,0.2,0.2,0.2v0.5h-1v-0.5c0,0,0.1,0,0.1,0l0,0c0.1,0,0.2-0.1,0.2-0.3
					c0-0.2,0-0.4-0.1-0.6c0-0.2,0-0.4-0.1-0.6c0-0.1-0.1-0.2-0.2-0.2V370.9z M340.2,373.4c-0.6,0-0.8-0.3-0.9-0.7l-0.3-1.8h1.2v0.2
					c0,0-0.1,0-0.1,0l0,0c-0.2,0-0.3,0.1-0.2,0.3c0,0.2,0.1,0.4,0.1,0.6c0,0.2,0.1,0.4,0.1,0.6c0,0.1,0.1,0.2,0.2,0.2L340.2,373.4
					L340.2,373.4z"/>
			</g>
			<g>
				<path class="st0" d="M372.8,370.6h0.3c0.7,0,0.8-0.8,0-0.8h-0.3v0.1h0c0.2,0,0.3,0.2,0.3,0.3C373.1,370.4,373,370.6,372.8,370.6
					L372.8,370.6L372.8,370.6z M366.8,370.6h6v-0.1c-0.2,0-0.3-0.2-0.3-0.3c0-0.2,0.2-0.3,0.3-0.3v-0.1c-2,0-4,0-6,0v0.1
					c0.2,0,0.3,0.2,0.3,0.3C367.2,370.4,367,370.6,366.8,370.6L366.8,370.6z M366.6,370.6h0.3v-0.1l0,0c-0.2,0-0.3-0.2-0.3-0.3
					c0-0.2,0.2-0.3,0.3-0.3l0,0v-0.1h-0.3C365.8,369.8,365.8,370.6,366.6,370.6z"/>
				<circle class="st0" cx="370.3" cy="367.3" r="0.3"/>
				<path class="st0" d="M372.9,370.1l-2.4-2.6c-0.1-0.1-0.1-0.1-0.2,0l0,0c-0.1,0.1-0.1,0.1,0,0.2l2.3,2.6c0.1,0.1,0.1,0.1,0.2,0
					l0,0C373,370.3,373,370.2,372.9,370.1z"/>
				<circle class="st0" cx="369.3" cy="367.3" r="0.3"/>
				<path class="st0" d="M366.7,370.1l2.6-2.9c0.1-0.1,0.1-0.1,0.2,0l0,0c0.1,0.1,0.1,0.1,0,0.2l-2.6,2.9c-0.1,0.1-0.1,0.1-0.2,0
					l0,0C366.6,370.3,366.6,370.2,366.7,370.1z"/>
				<path class="st0" d="M371.8,370.9h1.2l-0.3,1.8c-0.1,0.4-0.3,0.7-0.9,0.7h0v-0.5c0.1,0,0.2-0.1,0.2-0.2c0-0.2,0.1-0.4,0.1-0.6
					c0-0.2,0.1-0.4,0.1-0.6c0-0.1-0.1-0.3-0.2-0.3l0,0c0,0-0.1,0-0.1,0V370.9z M370.8,370.9h1v0.2c-0.1,0-0.2,0.1-0.2,0.2
					c0,0.2,0,0.4-0.1,0.6c0,0.2,0,0.4-0.1,0.6c0,0.1,0.1,0.3,0.2,0.3l0,0c0,0,0.1,0,0.1,0v0.5h-1v-0.5c0.1,0,0.2-0.1,0.2-0.2
					c0-0.2,0-0.4,0-0.6c0-0.2,0-0.4,0-0.6c0-0.1-0.1-0.3-0.3-0.3l0,0c0,0,0,0,0,0V370.9z M369.8,370.9h1v0.2c-0.1,0-0.2,0.1-0.2,0.2
					c0,0.2,0,0.4,0,0.6c0,0.2,0,0.4,0,0.6c0,0.1,0.1,0.3,0.2,0.3l0,0c0,0,0,0,0.1,0v0.5h-1v-0.5c0.1,0,0.2-0.1,0.3-0.3
					c0-0.2,0-0.4,0-0.6c0-0.2,0-0.4,0-0.6c0-0.1-0.1-0.3-0.3-0.3l0,0l0,0V370.9z M368.8,370.9h1v0.2c-0.2,0-0.3,0.1-0.3,0.3
					c0,0.2,0,0.4,0,0.6c0,0.2,0,0.4,0,0.6c0,0.1,0.1,0.3,0.3,0.3l0,0l0,0v0.5h-1v-0.5c0,0,0,0,0.1,0l0,0c0.1,0,0.2-0.1,0.2-0.3
					c0-0.2,0-0.4,0-0.6c0-0.2,0-0.4,0-0.6c0-0.1-0.1-0.2-0.2-0.2V370.9z M367.8,370.9h1v0.2c0,0,0,0,0,0l0,0c-0.2,0-0.3,0.1-0.3,0.3
					c0,0.2,0,0.4,0,0.6c0,0.2,0,0.4,0,0.6c0,0.1,0.1,0.2,0.2,0.2v0.5h-1v-0.5c0,0,0.1,0,0.1,0l0,0c0.1,0,0.2-0.1,0.2-0.3
					c0-0.2,0-0.4-0.1-0.6c0-0.2,0-0.4-0.1-0.6c0-0.1-0.1-0.2-0.2-0.2V370.9z M367.8,373.4c-0.6,0-0.8-0.3-0.9-0.7l-0.3-1.8h1.2v0.2
					c0,0-0.1,0-0.1,0l0,0c-0.2,0-0.3,0.1-0.2,0.3c0,0.2,0.1,0.4,0.1,0.6c0,0.2,0.1,0.4,0.1,0.6c0,0.1,0.1,0.2,0.2,0.2L367.8,373.4
					L367.8,373.4z"/>
			</g>
		</g>
		<rect x="335.8" y="388.2" class="st2" width="11.5" height="9.9"/>
		<rect x="350.2" y="388.2" class="st2" width="11.5" height="9.9"/>
		<rect x="364.7" y="388.2" class="st2" width="11.5" height="9.9"/>
		<rect x="333" y="413.3" class="st6" width="46" height="4.2"/>
		<rect x="335.8" y="399.5" class="st6" width="11.5" height="1.9"/>
		<rect x="335.8" y="402.7" class="st6" width="11.5" height="1.9"/>
		<rect x="335.8" y="405.8" class="st6" width="11.5" height="1.9"/>
		<rect x="350.2" y="399.5" class="st6" width="11.5" height="1.9"/>
		<rect x="350.2" y="402.7" class="st6" width="11.5" height="1.9"/>
		<rect x="350.2" y="405.8" class="st6" width="11.5" height="1.9"/>
		<rect x="350.2" y="409" class="st6" width="7.3" height="1.9"/>
		<rect x="364.7" y="399.5" class="st6" width="11.5" height="1.9"/>
		<rect x="364.7" y="402.7" class="st6" width="11.5" height="1.9"/>
		<rect x="364.7" y="405.8" class="st6" width="11.5" height="1.9"/>
		<rect x="364.7" y="409" class="st6" width="7.3" height="1.9"/>
	</g>
	<path class="st5" d="M326.8,348.5c1.2-1,1.9-2.6,1.9-4.3c0,3.2,2.4,5.7,5.4,5.7c3,0,5.4-2.6,5.4-5.7c0,3.2,2.4,5.7,5.4,5.7
		c3,0,5.4-2.6,5.4-5.7c0,3.2,2.4,5.7,5.4,5.7c3,0,5.4-2.6,5.4-5.7c0,3.2,2.4,5.7,5.4,5.7c3,0,5.4-2.6,5.4-5.7c0,3.2,2.4,5.7,5.4,5.7
		c3,0,5.4-2.6,5.4-5.7c0,1.7,0.7,3.3,1.9,4.3v-8.9c0-4-2-7.5-5-9.7h-48.1c-3,2.2-5,5.7-5,9.7V348.5z"/>
	<rect x="326.8" y="322.9" class="st8" width="58.1" height="7"/>
	<polygon class="st9" points="317.8,337.6 393.9,337.6 384.9,329.9 326.8,329.9 	"/>
	<polygon class="st10" points="393.9,337.6 383,337.6 376.6,329.9 384.9,329.9 	"/>
	<polygon class="st9" points="372.2,337.6 383,337.6 376.6,329.9 368.3,329.9 	"/>
	<polygon class="st10" points="372.2,337.6 361.3,337.6 360,329.9 368.3,329.9 	"/>
	<polygon class="st9" points="350.4,337.6 361.3,337.6 360,329.9 351.7,329.9 	"/>
	<polygon class="st10" points="350.4,337.6 339.6,337.6 343.4,329.9 351.7,329.9 	"/>
	<polygon class="st9" points="328.7,337.6 339.6,337.6 343.4,329.9 335.1,329.9 	"/>
	<polygon class="st10" points="328.7,337.6 317.8,337.6 326.8,329.9 335.1,329.9 	"/>
	<path class="st11" d="M328.7,337.6c0,3.2-2.4,5.7-5.4,5.7c-3,0-5.4-2.6-5.4-5.7H328.7z"/>
	<path class="st11" d="M350.4,337.6c0,3.2-2.4,5.7-5.4,5.7c-3,0-5.4-2.6-5.4-5.7H350.4z"/>
	<path class="st8" d="M328.7,337.6c0,3.2,2.4,5.7,5.4,5.7c3,0,5.4-2.6,5.4-5.7H328.7z"/>
	<path class="st11" d="M372.2,337.6c0,3.2-2.4,5.7-5.4,5.7c-3,0-5.4-2.6-5.4-5.7H372.2z"/>
	<path class="st8" d="M350.4,337.6c0,3.2,2.4,5.7,5.4,5.7c3,0,5.4-2.6,5.4-5.7H350.4z"/>
	<path class="st11" d="M393.9,337.6c0,3.2-2.4,5.7-5.4,5.7c-3,0-5.4-2.6-5.4-5.7H393.9z"/>
	<path class="st8" d="M372.2,337.6c0,3.2,2.4,5.7,5.4,5.7c3,0,5.4-2.6,5.4-5.7H372.2z"/>
</g>
</svg>
