<?xml version="1.0" encoding="utf-8"?>
<!-- Generator: Adobe Illustrator 21.0.0, SVG Export Plug-In . SVG Version: 6.00 Build 0)  -->
<svg version="1.1" id="Layer_1" xmlns="http://www.w3.org/2000/svg" xmlns:xlink="http://www.w3.org/1999/xlink" x="0px" y="0px"
	 viewBox="0 0 317 356" style="enable-background:new 0 0 317 356;" xml:space="preserve">
<style type="text/css">
	.st0{fill:#FF9E5C;}
	.st1{fill:#252533;}
	.st2{opacity:0.5;fill:#36363D;}
	.st3{fill:#6B2A18;}
	.st4{fill:#C60900;}
	.st5{fill:#E04B00;}
	.st6{fill:#FFB600;}
	.st7{fill:#DD9900;}
	.st8{fill:#E01500;}
	.st9{fill:#FF5B00;}
	.st10{fill:#C14108;}
	.st11{fill:#FFD400;}
	.st12{fill:#FFB37B;}
	.st13{fill:none;stroke:#FFFFFF;stroke-width:5.3201;stroke-miterlimit:10;}
	.st14{fill:none;stroke:#252533;stroke-width:13.3004;stroke-miterlimit:10;}
	.st15{fill:#323244;}
	.st16{fill:#131516;}
	.st17{fill:#FFFFFF;}
	.st18{fill:#AFA2A0;}
	.st19{fill:#070404;}
	.st20{fill:#774320;}
	.st21{fill:#3F0400;}
	.st22{fill:#FFDD50;}
	.st23{fill:none;stroke:#FFFFFF;stroke-miterlimit:10;}
	.st24{fill:#9E9C97;}
	.st25{fill:#F2F2E7;}
	.st26{fill:#C4B8B5;}
	.st27{fill:#FFCE00;}
	.st28{fill:#FFE05F;}
	.st29{fill:#A51300;}
	.st30{fill:#D62300;}
	.st31{fill:#9E8F63;}
	.st32{fill:#BCAC77;}
	.st33{fill:none;stroke:#FFE948;stroke-width:1.9621;stroke-miterlimit:10;}
	.st34{fill:#B6CCB6;}
	.st35{fill:#E56533;}
	.st36{fill:#8F8FAA;}
	.st37{fill:#F3EEFF;}
	.st38{fill:#C2BAD8;}
	.st39{opacity:0.5;}
	.st40{fill:#DDDDED;}
	.st41{fill:#514E6B;}
	.st42{fill:#74708C;}
	.st43{fill:#A29FBF;}
	.st44{fill:none;stroke:#252533;stroke-width:18.4526;stroke-miterlimit:10;}
	.st45{fill:#A4A800;}
	.st46{fill:#BFCE00;}
</style>
<path class="st0" d="M63.4,291.4c0,0-1.1-4.8,0.4-5.1c0.7-0.1,1.1,1.1,2,1.4c1.8,0.5,3.1,2.6,3.1,2.6L63.4,291.4z"/>
<ellipse class="st1" cx="140.9" cy="153.4" rx="7.4" ry="3.3"/>
<path class="st2" d="M295.6,343.5c0,0.9-0.7,1.7-1.7,1.7H11.5c-0.9,0-1.7-0.7-1.7-1.7l0,0c0-0.9,0.7-1.7,1.7-1.7h282.4
	C294.8,341.8,295.6,342.6,295.6,343.5L295.6,343.5z"/>
<path class="st3" d="M236.9,258.8l-0.4-0.4c-1.4-1.5-3.8-1.6-5.3-0.2l-2.3,2.2c-0.5,0.5-1.4,0.5-1.9-0.1l0,0
	c-0.5-0.5-1.4-0.6-1.9-0.1l-4.8,4.5c-0.5,0.5-0.6,1.4-0.1,1.9l3.9,4.1l4.3-4.1l-0.5-0.5l1.6-0.5L236.9,258.8z"/>
<path class="st1" d="M227.8,260.8l-14.9-15c-1-1-2.2-1.5-3.6-1.5h-5.6v9.5h2.7c0.6,0,1.2,0.2,1.7,0.7l13,13L227.8,260.8z"/>
<path class="st4" d="M58.9,345.2H25.5c-2.7,0-4.8-2.2-4.8-4.8v-34.2c0-2.7,2.2-4.8,4.8-4.8h33.4c2.7,0,4.8,2.2,4.8,4.8v34.2
	C63.7,343,61.5,345.2,58.9,345.2z"/>
<path class="st5" d="M111,290.9H77.6c-2.7,0-4.8-2.2-4.8-4.8v-45.9c0-2.7,2.2-4.8,4.8-4.8H111c2.7,0,4.8,2.2,4.8,4.8v45.9
	C115.8,288.8,113.7,290.9,111,290.9z"/>
<path class="st6" d="M164.9,345.2h-33.4c-2.7,0-4.8-2.2-4.8-4.8V223.6c0-2.7,2.2-4.8,4.8-4.8h33.4c2.7,0,4.8,2.2,4.8,4.8v116.8
	C169.8,343,167.6,345.2,164.9,345.2z"/>
<path class="st7" d="M223.8,345.2h-33.4c-2.7,0-4.8-2.2-4.8-4.8v-82.7c0-2.7,2.2-4.8,4.8-4.8h33.4c2.7,0,4.8,2.2,4.8,4.8v82.7
	C228.6,343,226.4,345.2,223.8,345.2z"/>
<path class="st8" d="M51.9,345.2H18.5c-2.7,0-4.8-2.2-4.8-4.8v-34.2c0-2.7,2.2-4.8,4.8-4.8h33.4c2.7,0,4.8,2.2,4.8,4.8v34.2
	C56.7,343,54.6,345.2,51.9,345.2z"/>
<path class="st9" d="M108.9,240.2v45.9c0,2.7-2.2,4.8-4.8,4.8H70.6c-2.6,0-4.7-2-4.8-4.6c0-0.1,0-0.2,0-0.2v-45.9
	c0-2.7,2.2-4.8,4.8-4.8H104C106.7,235.4,108.9,237.6,108.9,240.2z"/>
<path class="st10" d="M71.4,289.9l-0.6,1h-0.1c-2.6,0-4.7-2-4.8-4.6L71.4,289.9z"/>
<path class="st10" d="M108.9,273.4v12.7c0,2.7-2.2,4.8-4.8,4.8H93.9l6.7-19.2c3.6,0.4,4.4,0.2,4.4,0.2S107.3,271.3,108.9,273.4z"/>
<path class="st11" d="M158,345.2h-33.4c-2.7,0-4.8-2.2-4.8-4.8V223.6c0-2.7,2.2-4.8,4.8-4.8H158c2.7,0,4.8,2.2,4.8,4.8v116.8
	C162.8,343,160.6,345.2,158,345.2z"/>
<path class="st6" d="M216.8,345.2h-33.4c-2.7,0-4.8-2.2-4.8-4.8v-82.7c0-2.7,2.2-4.8,4.8-4.8h33.4c2.7,0,4.8,2.2,4.8,4.8v82.7
	C221.6,343,219.5,345.2,216.8,345.2z"/>
<path class="st12" d="M54.7,218.4l-1.1-1.6c-0.2-0.3,0-3.2-1.2-2.4c-1,0.7-0.9,2.4,0.1,3.9c0.2,0.3,0.1,0.6-0.1,0.8L54.7,218.4z"/>
<path class="st0" d="M52.4,219.1C52.4,219.1,52.4,219.1,52.4,219.1c-0.2,0.2-0.6,0.2-0.8,0c-0.7-0.6-1.6-0.6-2.1,0.2
	c-0.5,1,1.5,0.7,1.8,1.6c0.5,1.3,2,1.5,2.5,1.4l0.7,2.6l1.7-1l-0.8-2.3c0.8-0.3,1-4.2,0.1-4.3c-0.5,0-0.3,0.6-1,1L52.4,219.1z"/>
<path class="st12" d="M55,217.1c-0.5-1-3.6,0.1-3.5,2c0.1,1.8,1.6,2,1.9,0.9c0.3-1.1-0.1-1.2-0.1-1.2S55.4,217.8,55,217.1z"/>
<path class="st12" d="M55.9,217.5c-0.3-0.4-1.8-0.6-2.5,0.5c-0.8,1.1-0.3,2.5,0.5,2.2c1-0.3,0.9-1.6,0.9-1.6S56.5,218.3,55.9,217.5z
	"/>
<line class="st13" x1="53.2" y1="223.8" x2="57.3" y2="221.9"/>
<path class="st14" d="M35.7,241.1c0,0,11.5,1.1,18.3-2.9c6.7-4,1.3-15.5,1.3-15.5"/>
<ellipse class="st15" cx="35.8" cy="242.3" rx="7.8" ry="3.5"/>
<path class="st3" d="M20.6,301.5v-0.4c0-1.6,1.3-2.8,2.8-2.8h2.4c0.6,0,1-0.5,1-1v0c0-0.6,0.5-1,1-1h4.9c0.6,0,1,0.5,1,1v4.3h-4.5
	v-0.5l-1.1,0.5H20.6z"/>
<path class="st3" d="M51,301.4V301c0-1.6-1.3-2.8-2.8-2.8h-2.4c-0.6,0-1-0.5-1-1v0c0-0.6-0.5-1-1-1h-4.9c-0.6,0-1,0.5-1,1v4.3h4.5
	v-0.5l1.1,0.5H51z"/>
<polygon class="st1" points="34.1,296.8 34.1,263.8 37.3,263.8 37.4,296.8 44.9,296.7 43.5,256.9 27.9,256.9 26.7,296.7 "/>
<g>
	<polygon class="st16" points="27.9,257.8 43.5,257.8 44.1,272.4 37.4,272.4 37.4,264.7 34.1,264.7 34.1,272.4 27.5,272.4 	"/>
</g>
<path class="st1" d="M35.7,238.6c-10.6,0-9.3,6.5-9.3,6.5v25.2h18.5v-25.2C44.9,245.1,46.3,238.6,35.7,238.6z"/>
<path class="st12" d="M27,262.1c0,0,0.9,0.1,1.9,0.5c1,0.4,1.8-0.9,0-1.6c-0.6-0.2-1.1-0.3-1.5-0.4c0.7-0.4,1.7-1,1.5-1.5
	c-0.4-1.2-1.7-0.5-2.7,0.5c-0.7,0.7-1.1,1.9-1.4,2.5c-0.1,0.1-0.1,0.3-0.2,0.5c-1,2.5,2.6,3.9,3.5,3.3c1.3-0.9-1.9-2-1.9-2
	s2.4,1.4,3.1,0.4C29.9,263.4,27.8,262.4,27,262.1z"/>
<line class="st13" x1="25.7" y1="258.6" x2="23.4" y2="262.6"/>
<g>
	<path class="st1" d="M23.4,263.1c-0.4-0.2-9.8-5.2-8.8-13.5c1.1-8.7,14.1-11.9,22.7-10.8l-0.7,5.6c-3.4-0.4-7.7,0.1-11,1.3
		c-1.5,0.6-5.2,2.1-5.5,4.7c-0.5,4.4,5.7,7.8,5.8,7.8L23.4,263.1z"/>
</g>
<polygon class="st17" points="31,239.6 35.7,253.4 40.5,239.6 "/>
<path class="st18" d="M40.5,241.1L40.5,241.1c-3-1.5-6.5-1.4-9.4,0l0,0l1.3,3.8l3.4-2.5l3.4,2.5L40.5,241.1z"/>
<polygon class="st19" points="36.7,250.5 35.7,253.4 34.8,250.5 35.7,239.6 35.7,239.6 "/>
<path class="st19" d="M35.7,243.5L35.7,243.5c0.5,0,0.9-0.3,1.1-0.8l0.5-1.8c0.2-0.7-0.3-1.4-1-1.4h-1.1c-0.7,0-1.2,0.7-1,1.4
	l0.5,1.8C34.8,243.2,35.2,243.5,35.7,243.5z"/>
<path class="st17" d="M40.5,239.6L40.5,239.6c-3-1.5-6.5-1.4-9.4,0l0,0l1.3,3.8l3.4-2.3l3.4,2.3L40.5,239.6z"/>
<polygon class="st15" points="35.7,253.4 40.5,238.7 43.9,240.2 41.8,243 40.5,243.5 41.1,245.3 "/>
<polygon class="st15" points="35.7,253.4 31,238.7 27.6,240 29.6,243 31,243.5 30.4,245.3 "/>
<path class="st0" d="M27.6,245.1"/>
<g>
	<path class="st15" d="M35.5,254c0,5.3,0,10.5,0,15.8c0,0.4,0.6,0.4,0.6,0c0-5.3,0-10.5,0-15.8C36,253.7,35.5,253.7,35.5,254
		L35.5,254z"/>
</g>
<path class="st20" d="M24.8,231.3c0,0-7.8-13.1,0-16.6c1.8-7,11.4-5.3,13.8-4.6c2.3,0.7,3.7-0.5,3.7-0.5c0.8,0.7,0.9,2.2,0.9,2.2
	l1.8-2.4c2.4,1.5,3.7,5.4,0.4,10.9L24.8,231.3z"/>
<path class="st0" d="M38.2,238.7c0,1.2-1,2.2-2.2,2.2h-0.6c-1.2,0-2.2-1-2.2-2.2v-3.8c0-1.2,1-2.2,2.2-2.2H36c1.2,0,2.2,1,2.2,2.2
	V238.7z"/>
<path class="st12" d="M37.3,214.1l-6.4,0.5c-4.1,0.3-7.2,4.1-6.8,8.4l0.2,1.9c0,0,0,0,0,0c-0.1,0-0.3,0-0.4,0l-0.1,0
	c-1.6,0.1-2.8,1.6-2.7,3.3l0,0.1c0.1,1.7,1.6,3,3.2,2.8l0.1,0c0.1,0,0.3,0,0.4-0.1c0,0,0,0,0,0c0.5,4.1,4,7.2,8,6.9l6.4-0.5
	c4.1-0.3,7.2-4.1,6.8-8.4l-0.6-7.7C45.1,217,41.4,213.8,37.3,214.1z"/>
<g>
	<path class="st20" d="M26.9,227.2c-0.3-3.7-1.4-8.2,1.6-11c1.5-1.4,3.4-1.5,5.3-1.7c1.6-0.1,3.1-0.3,4.7-0.4
		c1.7-0.1,1.5-2.8-0.2-2.7c-1.7,0.1-3.4,0.3-5.1,0.4c-2.4,0.2-4.7,0.7-6.5,2.5c-2.1,2-2.9,4.9-2.7,7.8c0.1,1.8,0.3,3.5,0.4,5.3
		C24.5,229.2,27.1,229,26.9,227.2L26.9,227.2z"/>
</g>
<ellipse transform="matrix(0.9967 -8.069919e-02 8.069919e-02 0.9967 -18.1445 3.4317)" class="st16" cx="33.4" cy="226.2" rx="0.7" ry="1"/>
<ellipse transform="matrix(0.9967 -8.069681e-02 8.069681e-02 0.9967 -18.0657 4.0748)" class="st16" cx="41.4" cy="225.5" rx="0.7" ry="1"/>
<g>
	<path class="st20" d="M42.8,221.9c-1-1.2-2.7-1.1-3.5,0.2c-0.2,0.3,0.3,0.6,0.5,0.3c0.7-1.1,1.8-1,2.6-0.1
		C42.7,222.6,43,222.2,42.8,221.9L42.8,221.9z"/>
</g>
<g>
	<path class="st20" d="M31.8,223.1c0.6-1,1.8-1.2,2.6-0.2c0.2,0.3,0.6-0.1,0.4-0.4c-1.1-1.2-2.7-0.9-3.5,0.4
		C31.1,223.2,31.6,223.4,31.8,223.1L31.8,223.1z"/>
</g>
<path class="st20" d="M44.7,211.9c0,0,0.5,4.1-7.8,4.8c-8.2,0.7-11.3,0.5-10.7,8c0,0-2.5-11,4.6-12.6
	C37.9,210.6,40.7,213.9,44.7,211.9z"/>
<circle class="st21" cx="38.8" cy="232.1" r="1.5"/>
<path class="st22" d="M61.5,188.4c0-4.1-3.5-7.5-7.7-7.2c-3.6,0.2-6.5,3.1-6.7,6.7c-0.2,2.3,0.8,4.4,2.4,5.9c0.5,0.5,0.9,1.2,1,1.9
	l0,0.1c0,0.9,0.4,4.1,3.8,4.1c3.4,0,3.8-3.2,3.8-4.1l0-0.2c0.1-0.7,0.4-1.3,0.9-1.8C60.6,192.5,61.5,190.5,61.5,188.4z"/>
<path class="st23" d="M52,190.9l1.5,6.4h1.6l1.5-6.4C56.8,190,51.7,190,52,190.9z"/>
<path class="st24" d="M54.3,202.8L54.3,202.8c-2.4,0-4.2-1.8-4.2-4.1v-1.6h8.3v1.6C58.4,200.9,56.6,202.8,54.3,202.8z"/>
<g>
	<path class="st25" d="M50.1,197.4c2.8,0,5.5,0,8.3,0c0.4,0,0.4-0.7,0-0.7c-2.8,0-5.5,0-8.3,0C49.7,196.8,49.7,197.4,50.1,197.4
		L50.1,197.4z"/>
</g>
<g>
	<path class="st25" d="M50.1,198.8c2.8,0,5.5,0,8.3,0c0.4,0,0.4-0.7,0-0.7c-2.8,0-5.5,0-8.3,0C49.7,198.1,49.7,198.8,50.1,198.8
		L50.1,198.8z"/>
</g>
<g>
	<path class="st22" d="M47.6,179.8c-0.3-0.3-0.6-0.6-0.9-0.9c-0.4-0.4-1.1-0.4-1.5,0c-0.4,0.4-0.4,1.1,0,1.5
		c0.3,0.3,0.6,0.6,0.9,0.9c0.4,0.4,1.1,0.4,1.5,0C48,180.8,48,180.2,47.6,179.8L47.6,179.8z"/>
</g>
<g>
	<path class="st22" d="M44.4,183.9c-1.5-0.6-2.9-1.2-4.4-1.7c-1.3-0.5-1.8,1.5-0.6,2c1.5,0.6,2.9,1.2,4.4,1.7
		C45.1,186.4,45.7,184.4,44.4,183.9L44.4,183.9z"/>
</g>
<g>
	<path class="st22" d="M62.5,181.3c0.4-0.4,0.9-0.9,1.3-1.3c0.4-0.4,0.4-1.1,0-1.5c-0.4-0.4-1.1-0.4-1.5,0c-0.4,0.4-0.9,0.9-1.3,1.3
		c-0.4,0.4-0.4,1.1,0,1.5C61.4,181.7,62.1,181.7,62.5,181.3L62.5,181.3z"/>
</g>
<g>
	<path class="st22" d="M64.8,185.9c1.5-0.5,2.9-1,4.4-1.5c1.3-0.4,0.7-2.5-0.6-2c-1.5,0.5-2.9,1-4.4,1.5
		C62.9,184.3,63.5,186.3,64.8,185.9L64.8,185.9z"/>
</g>
<g>
	<path class="st17" d="M60.7,195.1c0.3,0.3,0.6,0.6,0.9,0.9c0.2,0.2,0.6-0.1,0.3-0.3c-0.3-0.3-0.6-0.6-0.9-0.9
		C60.8,194.6,60.5,194.9,60.7,195.1L60.7,195.1z"/>
</g>
<g>
	<path class="st22" d="M64.2,193c0.9,0.3,1.7,0.6,2.6,0.9c1.3,0.4,1.8-1.6,0.6-2c-0.9-0.3-1.7-0.6-2.6-0.9
		C63.5,190.5,62.9,192.6,64.2,193L64.2,193z"/>
</g>
<g>
	<path class="st22" d="M46.2,195.6c-0.4,0.4-0.9,0.9-1.3,1.3c-0.4,0.4-0.4,1.1,0,1.5c0.4,0.4,1.1,0.4,1.5,0c0.4-0.4,0.9-0.9,1.3-1.3
		c0.4-0.4,0.4-1.1,0-1.5C47.2,195.2,46.6,195.2,46.2,195.6L46.2,195.6z"/>
</g>
<g>
	<path class="st22" d="M43.9,191c-1.1,0.4-2.2,0.7-3.3,1.1c-1.3,0.4-0.7,2.5,0.6,2c1.1-0.4,2.2-0.7,3.3-1.1
		C45.7,192.6,45.2,190.5,43.9,191L43.9,191z"/>
</g>
<g>
	<path class="st22" d="M55.3,178.3c0-1.6,0-3.1,0-4.7c0-1.4-2.1-1.4-2.1,0c0,1.6,0,3.1,0,4.7C53.2,179.6,55.3,179.6,55.3,178.3
		L55.3,178.3z"/>
</g>
<path class="st26" d="M94,338.3c0,0-0.7-3,4.8-5.4l2.3,2.3l-3.5,4.5L94,338.3z"/>
<path class="st26" d="M69.4,338.5c0,0,0-3.1,5.8-4.2L77,337l-4.4,3.7L69.4,338.5z"/>
<path class="st3" d="M70.5,343.1l-0.3,0.6l-4.2-2.3l2.7-4.9c0.4-0.6,1.2-0.9,1.8-0.5l4.7,2.6c0.6,0.4,0.9,1.2,0.5,1.8l0,0
	c-0.4,0.6-0.1,1.5,0.5,1.8l1.4,0.1c2.1,0,3.8,1.7,3.8,3.8v0.5h-3.5C75.1,346.6,72.4,345.3,70.5,343.1L70.5,343.1z"/>
<path class="st3" d="M110.6,344v-0.5c0-2.1-1.7-3.8-3.8-3.8h-3.2c-0.7,0-1.3-0.6-1.3-1.3v0c0-0.7-0.6-1.3-1.3-1.3h-6.5
	c-0.7,0-1.3,0.6-1.3,1.3v5.6H99v-0.7l1.5,0.7H110.6z"/>
<g>
	<path class="st1" d="M80.9,293.5c1.7-0.8,0.3-0.1-0.1,0c-0.8,0.4-1.6,0.7-2.4,1c-0.8,0.3-1.7,0.6-2.5,0.9c0,0,0.2,0.7,1,0.6
		c-0.3,0.1-1.6,0-0.6,0.1c0.2,0,1.3,0.8,0.7,0.3c-0.3-0.2-0.5-0.5-0.8-0.7c-0.6-0.6-0.8-0.9-1.5-1.8c-0.7-0.9-1.3-1.7-1.9-2.7
		c-2.8-4.1-9.2,0.1-6.5,4.2c2.1,3.1,4.6,7.1,8.4,8.2c2.3,0.6,3.6-0.9,5.7-1.7c1.6-0.6,3.2-1.3,4.7-2.1c1.9-0.9,2.2-3.7,1.1-5.3
		C85,292.7,82.8,292.6,80.9,293.5L80.9,293.5z"/>
</g>
<path class="st12" d="M72.1,290.2c-0.1,3.1-7.9,4.9-9.5,0.6c-0.6-1.5-0.7-3,0.4-3.6c1.4-0.8,0.5,3.1,1.5,3c0,0-0.7-4,0.2-4.5
	c1.6-0.9,1.5,1.6,1.9,2.8l0.4,1.6C67,290.1,72.1,288.5,72.1,290.2z"/>
<path class="st1" d="M104.1,320.8c-4.4-3.2-11.7-5.8-13.3-6.3c-0.5-0.2-1.1-0.4-1.7-0.4H76.6c-2.2,0-3.9,1.8-3.9,3.9
	c0,1.2,0.5,2.3,1.4,3c2.1,3.4,4.2,7.2,4.7,8.8c-1,1.3-7.1,4.2-7.1,4.2c-0.8,4.9,3.9,6.6,3.9,6.6c0.1-0.1,3.1-1.3,6.1-3
	c3.2-1.9,4.9-3.4,4.9-7.7c0-1.6-1-4.3-3.1-8h5.3c2.4,0.9,7,2.7,10,4.6l-4.2,8.3c2.2,4.9,7.4,2.8,7.4,2.8l3.6-7.5
	C107.8,327.2,107.1,322.9,104.1,320.8z"/>
<path class="st16" d="M98.8,326.4l-6.1-9.3l-18.8-2c-0.7,0.7-1.2,1.7-1.2,2.8c0,1.2,0.5,2.3,1.4,3c1,1.7,2.9,5,2.9,5
	c4.3-3.5,8.1-1,8.1-1l-1.6-3h0.1h5.2h0.1C91.3,322.8,95.8,324.5,98.8,326.4z"/>
<path class="st1" d="M92.7,317.2l7.4-18.4c-1.4-5.3-8.4-5.9-13.2-5.7c-2.8,0.1-5.3,1.9-6.4,4.5l-7.3,18.4
	C73.1,316.1,83,325.2,92.7,317.2z"/>
<g>
	<path class="st1" d="M95.5,300.7c3.3,1,6.6,1.9,9.9,2.9c2,0.6,4.2-0.7,4.7-2.7c0.6-2,1.2-4.1,1.8-6.1c1.4-4.8-6-6.8-7.4-2.1
		c-0.6,2-1.2,4.1-1.8,6.1c1.6-0.9,3.2-1.8,4.7-2.7c-3.3-1-6.6-1.9-9.9-2.9C92.7,291.8,90.7,299.3,95.5,300.7L95.5,300.7z"/>
</g>
<path class="st12" d="M104.8,291.9c1.7,2.7,9.3,0.6,9.7-4.8c0.1-1.4,0-3.8-2-3.4c-1.5,0.3,0,3.6-1.2,4.3c0,0-0.3-3.9-2.1-3.7
	c-1.8,0.2-1.1,2.5-0.6,3.3l0,1.8C108.6,289.4,103.9,290.5,104.8,291.9z"/>
<ellipse class="st1" cx="90.4" cy="295.9" rx="11.2" ry="4.4"/>
<polygon class="st17" points="87.9,293.6 89.7,307.8 97.3,294.5 "/>
<path class="st18" d="M97,296L97,296c-2.7-1.7-6.1-2-9.4-0.8l-0.1,0L88,299l3.9-2.2l2.9,2.8L97,296z"/>
<polygon class="st19" points="91.3,305.1 89.7,307.8 89.3,304.9 92.6,294 92.6,294 "/>
<path class="st19" d="M91.7,298L91.7,298c0.5,0,1-0.2,1.2-0.7l0.9-1.8c0.3-0.7,0-1.4-0.7-1.5l-1.1-0.1c-0.7-0.1-1.4,0.6-1.3,1.3
	l0.2,1.9C90.9,297.6,91.3,297.9,91.7,298z"/>
<path class="st17" d="M97.3,294.5L97.3,294.5c-2.7-1.7-6.1-2-9.4-0.8l-0.1,0l0.5,3.9l3.9-2l3,2.6L97.3,294.5z"/>
<polygon class="st15" points="89.7,307.8 97.5,293.6 100.6,295.4 97.9,298 96.5,298.4 96.7,300.2 "/>
<polygon class="st15" points="89.7,307.8 88,292.8 84.3,293.8 85.8,296.9 87,297.5 86.1,299.3 "/>
<path class="st20" d="M83.2,287.7c0,0-5.6-13.7,2.4-16c2.8-6.5,11.7-3.4,13.9-2.4c2.2,1,3.7,0,3.7,0c0.6,0.8,0.5,2.2,0.5,2.2l2.1-2
	c2.1,1.8,2.8,5.7-1.2,10.5L83.2,287.7z"/>
<path class="st12" d="M97.7,273.1l-6.2-0.4c-4-0.3-7.5,2.9-7.8,7.1l-0.1,1.8c0,0,0,0,0,0c-0.1,0-0.2,0-0.4-0.1l-0.1,0
	c-1.6-0.1-3,1.1-3.1,2.8l0,0.1c-0.1,1.7,1.1,3.1,2.6,3.2l0.1,0c0.1,0,0.3,0,0.4,0c0,0,0,0,0,0c-0.1,4,2.8,7.5,6.7,7.8l6.2,0.4
	c4,0.3,7.5-2.9,7.8-7.1l0.5-7.5C104.7,277,101.7,273.4,97.7,273.1z"/>
<g>
	<path class="st20" d="M85.8,284.1c0.3-3.6-0.2-8.1,3.1-10.3c1.7-1.1,3.4-1,5.3-0.9c1.5,0.1,3.1,0.2,4.6,0.3
		c1.6,0.1,1.8-2.5,0.2-2.7c-1.7-0.2-3.3-0.2-5-0.4c-2.4-0.2-4.6,0-6.6,1.5c-2.3,1.6-3.5,4.2-3.7,7.1c-0.1,1.7-0.2,3.4-0.4,5.2
		C83.2,285.6,85.7,285.8,85.8,284.1L85.8,284.1z"/>
</g>
<ellipse transform="matrix(7.037953e-02 -0.9975 0.9975 7.037953e-02 -197.3415 357.1504)" class="st16" cx="92.9" cy="284.5" rx="1" ry="0.7"/>
<ellipse transform="matrix(7.038167e-02 -0.9975 0.9975 7.038167e-02 -190.9995 364.2731)" class="st16" cx="99.9" cy="284.6" rx="1" ry="0.7"/>
<path class="st20" d="M105.1,272c0,0-0.2,4-8.2,3.5c-8-0.6-10.9-1.2-11.4,6.1c0,0-0.8-10.9,6.2-11.4C98.8,269.7,101,273.3,105.1,272
	z"/>
<g>
	<path class="st20" d="M94.4,283.5c-1-0.3-1.9-0.7-2.9-1c-0.5-0.2-0.7,0.6-0.2,0.8c1,0.3,1.9,0.7,2.9,1
		C94.7,284.5,94.9,283.7,94.4,283.5L94.4,283.5z"/>
</g>
<g>
	<path class="st20" d="M99,284.6c1-0.3,1.9-0.7,2.9-1c0.5-0.2,0.3-0.9-0.2-0.8c-1,0.3-1.9,0.7-2.9,1C98.4,284,98.6,284.7,99,284.6
		L99,284.6z"/>
</g>
<g>
	<path class="st15" d="M89.5,307.8c-1.4,4.2-2.9,8.4-4.3,12.6c-0.1,0.3,0.4,0.5,0.5,0.1c1.4-4.2,2.9-8.4,4.3-12.6
		C90.1,307.6,89.6,307.4,89.5,307.8L89.5,307.8z"/>
</g>
<g>
	<path class="st20" d="M92.9,291.2c2.1,0,4.3,0,6.4,0c0.3,0,0.3-0.5,0-0.5c-2.1,0-4.3,0-6.4,0C92.6,290.7,92.5,291.2,92.9,291.2
		L92.9,291.2z"/>
</g>
<path class="st27" d="M132.9,181.8l1.3,1.3c0.2,0.2,0.4,0,0.4-0.2c0-1.3-0.2-4.5-1.6-6.2l-11.2-0.5c-1.6,1.6-2.1,4.7-2.2,6
	c0,0.2,0.2,0.4,0.4,0.2l1.4-1.2c-1.4,5.9,3.7,13.6,5.1,13.7C128,195,133.7,187.8,132.9,181.8z"/>
<path class="st28" d="M129.6,179.6c-0.2,4.7-2.7,8.5-2.7,8.5s-2.2-3.9-1.9-8.7c0.2-4.7,1.4-8.5,2.7-8.5
	C128.9,171,129.8,174.9,129.6,179.6z"/>
<path class="st29" d="M136.5,175.6c0.7-0.6,1-0.9,1.7-1.5l0.1-2.3l0.4-9.1l0.2-3.7c0.2-3.4-2.5-6.3-5.9-6.5l-0.1,0
	c-3.4-0.2-6.3,2.5-6.5,5.9l-0.2,3.7l-0.4,9.1l-0.1,2.1c0.7,0.7,1.1,1.2,1.7,1.9L136.5,175.6z"/>
<path class="st30" d="M135.5,175.6c0.7-0.6,1-0.9,1.7-1.5l0.1-2.3l0.4-9.1l0.2-3.7c0.2-3.4-2.5-6.3-5.9-6.5l-0.1,0
	c-3.4-0.2-6.3,2.5-6.5,5.9l-0.2,3.7l-0.4,9.1l-0.1,2.1c0.7,0.7,1.1,1.2,1.7,1.9L135.5,175.6z"/>
<path class="st29" d="M128.3,175.3c0.7-0.6,1-0.9,1.7-1.5l0.1-2.3l0.4-9.1l0.2-3.7c0.2-3.4-2.5-6.3-5.9-6.5l-0.1,0
	c-3.4-0.2-6.3,2.5-6.5,5.9l-0.2,3.7l-0.4,9.1l-0.1,2.1c0.7,0.7,1.1,1.2,1.7,1.9L128.3,175.3z"/>
<path class="st30" d="M127.2,175.2c0.7-0.6,1-0.9,1.7-1.5l0.1-2.3l0.4-9.1l0.2-3.7c0.2-3.4-2.5-6.3-5.9-6.5l-0.1,0
	c-3.4-0.2-6.3,2.5-6.5,5.9l-0.2,3.7l-0.4,9.1l-0.1,2.1c0.7,0.7,1.1,1.2,1.7,1.9L127.2,175.2z"/>
<path class="st31" d="M138.9,167.3l-22.3-1c-0.8,0-1.4-0.8-1.4-1.7l0,0c0-0.9,0.7-1.6,1.5-1.6l22.3,1c0.8,0,1.4,0.8,1.4,1.7l0,0
	C140.4,166.7,139.7,167.4,138.9,167.3z"/>
<path class="st32" d="M138.9,168l-22.3-1c-0.8,0-1.4-0.8-1.4-1.7l0,0c0-0.9,0.7-1.6,1.5-1.6l22.3,1c0.8,0,1.4,0.8,1.4,1.7l0,0
	C140.4,167.3,139.7,168,138.9,168z"/>
<path class="st33" d="M121.2,167.7l-2-0.1c-0.5,0-0.9-0.4-0.8-0.9l0.1-2c0-0.5,0.4-0.9,0.9-0.8l2,0.1c0.5,0,0.9,0.4,0.8,0.9l-0.1,2
	C122.1,167.3,121.7,167.7,121.2,167.7z"/>
<path class="st34" d="M135.2,176.9l-15.8-0.7c-0.7,0-1.2-0.6-1.2-1.3l0,0l18.4,0.8l0,0C136.5,176.3,135.9,176.9,135.2,176.9z"/>
<path class="st3" d="M161.7,216.4l0.3-0.4c1.3-1.6,1.1-4-0.5-5.3l-2.5-2c-0.6-0.5-0.7-1.3-0.2-1.9l0,0c0.5-0.6,0.4-1.4-0.2-1.9
	l-5-4.1c-0.6-0.5-1.4-0.4-1.9,0.2l-3.6,4.4l4.6,3.8l0.4-0.5l0.7,1.5L161.7,216.4z"/>
<path class="st3" d="M128.1,216.6l0.5-0.1c2-0.4,3.4-2.4,3-4.4l-0.6-3.1c-0.1-0.7,0.3-1.4,1.1-1.6l0,0c0.7-0.1,1.2-0.8,1.1-1.6
	l-1.2-6.4c-0.1-0.7-0.8-1.2-1.6-1.1l-5.5,1.1l1.1,5.8l0.7-0.1l-0.4,1.6L128.1,216.6z"/>
<path class="st1" d="M161.1,185.5c-2.5-3.8-5.7-5.7-8.7-6.6c-0.8-1.5-2.4-2.6-4.2-2.6h-12.8c-2.6,0-4.8,2.1-4.8,4.8v0.5
	c0,2.2,1.5,4,3.4,4.6c1.6,1,4.1,3.2,3.8,6.7c-0.4,4.4-6.2,5.7-6.4,5.8l1.6,7.8c4.4-0.9,11.9-4.6,12.7-12.8c0.3-2.8-0.2-5.2-1.2-7.3
	h3.6c0.1,0,0.2,0,0.3,0c0.5,0,1.1,0,1.6,0.2c1.4,0.5,3,1.4,4.3,3.3c2.9,4.5-1.4,10-1.5,10.2l6.1,5.1
	C159.3,204.7,167.2,194.9,161.1,185.5z"/>
<path class="st16" d="M144.7,186.4h3.6c0.1,0,0.2,0,0.3,0c0.5,0,1.1,0,1.6,0.2c1.4,0.5,3,1.4,4.3,3.3c2.9,4.5-1.4,10-1.5,10.2
	l6.1,5.1c0.3-0.4,8.2-10.1,2.1-19.6c-2.5-3.8-5.7-5.7-8.7-6.6c-0.8-1.5-2.4-2.6-4.2-2.6c0,0-18.5-3.5-12.8,0
	C141.1,179.8,144.7,186.4,144.7,186.4z"/>
<path class="st16" d="M148,176.3h-12.8c-2.4,0-4.4,1.8-4.7,4.1l0.1,1.6c0,0,8.2,4.3,21.8-1.5l-0.1-1.7c0,0,0,0-0.1,0
	C151.5,177.3,149.9,176.3,148,176.3z"/>
<g>
	<path class="st1" d="M146,158c0.1,0,0.3,0.1,0.4,0.1c0.6,0.2-0.7-0.3,0.1,0c0.3,0.1,0.6,0.3,0.8,0.4c1.5,0.7,2.9,1.6,4.3,2.5
		c0.8,0.5,1.5,1.1,2.1,1.7c0.5,0.4,0.9,0.9,1.4,1.3c0.1,0.2,0.3,0.3,0.4,0.5c0.5,0.8,0.8,0.6,0.8-0.7c-1.7,1.3-4.1,2.2-6.1,3
		c-3.5,1.3-2,7,1.6,5.6c1.7-0.6,3.4-1.4,5.1-2.2c1.3-0.7,2.8-1.3,3.7-2.5c2.7-3.3,0.2-6.3-2.3-8.7c-3-2.9-6.9-5.3-10.8-6.7
		C144,151.2,142.5,156.8,146,158L146,158z"/>
	<g>
		<path class="st31" d="M150.6,166.5l-0.6-3.5c1-1.7,2-4.8,0.3-9.3c0,0,0,0,0,0c-0.2-0.4,0.3-0.8,0.7-0.6l1.3,0.6
			c0.7,0.3,1.2,0.9,1.3,1.6C155.1,162.5,150.8,166.3,150.6,166.5z"/>
	</g>
	<g>
		<path class="st32" d="M150.2,166.8l-0.3-3.9c0.4-0.7,0.8-1.5,1-2.6l2.7,0.6C152.8,164.5,150.9,166.2,150.2,166.8z"/>
	</g>
	<path class="st1" d="M152.2,179.4c-13.6,5.8-21.8,1.5-21.8,1.5l-1.5-21.6c-0.3-3.8,2.6-7.1,6.4-7.4l8-0.6c3.8-0.3,7.1,2.6,7.4,6.4
		L152.2,179.4z"/>
	<path class="st16" d="M151.4,168c-0.1-0.1-0.2-0.1-0.3-0.2c0,0-1.2-1.8-1.7-0.8c-0.4,0.8-0.1,1.5,0.3,1.9c-0.2,0.1-0.4,0.3-0.6,0.5
		c-1.1,0.2-2.2,0.4-2.3,1.2c-0.1,0.9,0.7,1.2,1.5,1.2c0,0.1,0,0.2,0,0.2c-0.1,0-0.2,0-0.3,0c-2,0.1-0.7,2.3,1.1,2.2
		c-1.3,1.1-0.2,2.8,2.6,0.4L151.4,168z"/>
	<path class="st12" d="M152.5,166.9c-0.2-0.3-0.8-0.5-1.5-0.8c0,0-1.2-1.8-1.7-0.8c-0.4,1,0,1.7,0.6,2.2c-1.4,0.4-3,0.4-3.1,1.4
		c-0.2,1.9,3.6,1,3.6,1s-1.1,0.4-2.3,0.5c-2,0.1-0.7,2.3,1.1,2.2c-1.3,1.1-0.2,2.9,2.8,0.2c1.2-1,1.3-2.5,1.3-3.7
		C153.4,168.3,153.1,167.4,152.5,166.9z"/>
</g>
<path class="st16" d="M138.5,172.9c-0.1-0.7-0.9-0.9-1.8-1.1c-0.2-0.3-0.5-0.6-0.9-0.7c0.3-0.5,0.5-1.1,0.2-1.8
	c-0.4-0.9-1.7,0.8-1.7,0.8c-0.3,0.2-0.6,0.3-0.8,0.4c-1.3-0.3-2.6-0.8-3.9-1.3l0.4,6.4c1.1,0.3,2,0.5,2.8,0.7
	c0.1,0.2,0.3,0.4,0.5,0.5c3,2.7,4.1,0.9,2.8-0.2c1.9,0.1,3.1-2.1,1.1-2.2c-0.1,0-0.3,0-0.4,0c0-0.1,0.1-0.1,0.1-0.2
	C137.8,174.1,138.6,173.8,138.5,172.9z"/>
<g>
	<path class="st1" d="M130.5,153.9c-4.1,2.9-7.9,6.9-10,11.5c-2.6,5.6,8.7,8.8,12.3,9.4c3.7,0.6,5.3-5,1.6-5.6
		c-2-0.3-3.9-0.9-5.8-1.8c-0.8-0.4-1.7-0.8-2.5-1.3c0.1,0-0.9-0.7-0.5-0.4c-0.5-0.4,0.2,0.3,0.2,0.5c0,0.5,0,1,0,1.6
		c0.4-2.1,3.1-4.7,4.8-6.3c0.7-0.7,1.5-1.4,2.3-2.1c0.5-0.4-0.3,0.2,0.3-0.2c0.1-0.1,0.2-0.1,0.2-0.2
		C136.5,156.8,133.6,151.8,130.5,153.9L130.5,153.9z"/>
</g>
<path class="st12" d="M132.2,169.3c0.2-0.3,0.8-0.5,1.5-0.8c0,0,1.2-1.8,1.7-0.8c0.4,1,0,1.7-0.6,2.2c1.4,0.4,3,0.4,3.1,1.4
	c0.2,1.9-3.6,1-3.6,1s1.1,0.4,2.3,0.5c2,0.1,0.7,2.3-1.1,2.2c1.3,1.1,0.2,2.9-2.8,0.2c-1.2-1-1.3-2.5-1.3-3.7
	C131.4,170.8,131.7,169.8,132.2,169.3z"/>
<g>
	<path class="st31" d="M129.7,167.4l-0.6-3.5c1-1.7,2-4.8,0.3-9.3c-0.1-0.3,0-0.7,0.4-0.8l1.3-0.6c0.3-0.1,0.7,0,0.9,0.4
		C135.3,162.5,129.9,167.2,129.7,167.4z"/>
</g>
<g>
	<path class="st32" d="M129.3,167.7l-0.3-3.9c0.4-0.7,0.8-1.5,1-2.6l2.7,0.6C132,165.4,130,167.1,129.3,167.7z"/>
</g>
<polygon class="st17" points="136.1,152.9 141.5,166.4 145.5,152.4 "/>
<path class="st18" d="M145.6,153.9L145.6,153.9c-3.1-1.3-6.5-1.1-9.4,0.5l0,0l1.5,3.7l3.3-2.7l3.6,2.4L145.6,153.9z"/>
<polygon class="st19" points="142.3,163.6 141.5,166.4 140.4,163.7 140.8,152.7 140.8,152.7 "/>
<path class="st19" d="M141,156.6L141,156.6c0.5,0,0.9-0.4,1-0.8l0.4-1.9c0.2-0.7-0.4-1.4-1.1-1.3l-1.1,0.1c-0.7,0-1.2,0.8-1,1.4
	l0.6,1.8C140.1,156.3,140.5,156.6,141,156.6z"/>
<path class="st17" d="M145.5,152.4L145.5,152.4c-3.1-1.3-6.5-1.1-9.4,0.5l0,0l1.5,3.7l3.3-2.4l3.6,2.1L145.5,152.4z"/>
<polygon class="st15" points="141.5,166.4 145.5,151.5 149,152.9 147,155.7 145.7,156.3 146.4,158.1 "/>
<polygon class="st15" points="141.5,166.4 136,152.1 132.6,153.5 134.8,156.4 136.2,156.8 135.8,158.7 "/>
<g>
	<path class="st15" d="M141.3,167.1c0.3,4.8,0.5,9.5,0.8,14.3c0,0.4,0.6,0.4,0.6,0c-0.3-4.8-0.5-9.5-0.8-14.3
		C141.8,166.8,141.3,166.8,141.3,167.1L141.3,167.1z"/>
</g>
<path class="st20" d="M129.6,144.3c0,0-7.8-13.1,0-16.6c1.8-7,11.4-5.3,13.8-4.6c2.3,0.7,3.7-0.5,3.7-0.5c0.8,0.7,0.9,2.2,0.9,2.2
	l1.8-2.4c2.4,1.5,3.7,5.4,0.4,10.9L129.6,144.3z"/>
<path class="st0" d="M143.1,151.7c0,1.2-1,2.2-2.2,2.2h-0.6c-1.2,0-2.2-1-2.2-2.2v-3.8c0-1.2,1-2.2,2.2-2.2h0.6c1.2,0,2.2,1,2.2,2.2
	V151.7z"/>
<path class="st12" d="M142.2,127.1l-6.4,0.5c-4.1,0.3-7.2,4.1-6.8,8.4l0.2,1.9c0,0,0,0,0,0c-0.1,0-0.3,0-0.4,0l-0.1,0
	c-1.6,0.1-2.8,1.6-2.7,3.3l0,0.1c0.1,1.7,1.6,3,3.2,2.8l0.1,0c0.1,0,0.3,0,0.4-0.1c0,0,0,0,0,0c0.5,4.1,4,7.2,8,6.9l6.4-0.5
	c4.1-0.3,7.2-4.1,6.8-8.4l-0.6-7.7C149.9,130,146.3,126.8,142.2,127.1z"/>
<g>
	<path class="st20" d="M131.8,140.2c-0.3-3.7-1.4-8.2,1.6-11c1.5-1.4,3.4-1.5,5.3-1.7c1.6-0.1,3.1-0.3,4.7-0.4
		c1.7-0.1,1.5-2.8-0.2-2.7c-1.7,0.1-3.4,0.3-5.1,0.4c-2.4,0.2-4.7,0.7-6.5,2.5c-2.1,2-2.9,4.9-2.7,7.8c0.1,1.8,0.3,3.5,0.4,5.3
		C129.3,142.2,131.9,142,131.8,140.2L131.8,140.2z"/>
</g>
<ellipse transform="matrix(0.9967 -8.069681e-02 8.069681e-02 0.9967 -10.7803 11.6082)" class="st16" cx="138.2" cy="139.2" rx="0.7" ry="1"/>
<ellipse transform="matrix(0.9967 -8.069919e-02 8.069919e-02 0.9967 -10.7023 12.2518)" class="st16" cx="146.2" cy="138.5" rx="0.7" ry="1"/>
<g>
	<path class="st20" d="M147.6,134.9c-1-1.2-2.7-1.1-3.5,0.2c-0.2,0.3,0.3,0.6,0.5,0.3c0.7-1.1,1.8-1,2.6-0.1
		C147.5,135.6,147.9,135.2,147.6,134.9L147.6,134.9z"/>
</g>
<g>
	<path class="st20" d="M136.6,136.1c0.6-1,1.8-1.2,2.6-0.2c0.2,0.3,0.6-0.1,0.4-0.4c-1.1-1.2-2.7-0.9-3.5,0.4
		C136,136.2,136.4,136.4,136.6,136.1L136.6,136.1z"/>
</g>
<path class="st20" d="M149.5,124.9c0,0,0.5,4.1-7.8,4.8c-8.2,0.7-11.3,0.5-10.7,8c0,0-2.5-11,4.6-12.6
	C142.7,123.5,145.6,126.9,149.5,124.9z"/>
<g>
	<path class="st35" d="M139.9,144.8c1.8,1.5,4.2,1.3,5.7-0.4c0.2-0.2-0.1-0.6-0.3-0.3c-1.4,1.5-3.5,1.6-5,0.4
		C140,144.3,139.7,144.6,139.9,144.8L139.9,144.8z"/>
</g>
<polygon class="st36" points="240.7,233.8 241.6,230 239.8,226.7 "/>
<polygon class="st37" points="241.6,230 228.4,253.2 223.6,251.2 213.4,246.8 189.8,243.1 205.1,217.6 222.6,217.6 222.5,224.2 
	225.4,218.2 239.4,223.8 "/>
<polygon class="st38" points="241.6,230 228.4,253.2 223.6,251.2 239.4,223.8 "/>
<polygon class="st38" points="207.9,245.2 222.6,217.6 224.1,221 211,246.4 "/>
<path class="st12" d="M203.3,199.6l-6.4-0.3c-4.1-0.2-7.7,3.2-7.9,7.5l-0.1,1.9c0,0,0,0,0,0c-0.1,0-0.3,0-0.4-0.1l-0.1,0
	c-1.6-0.1-3,1.2-3.1,2.9l0,0.1c-0.1,1.7,1.2,3.1,2.8,3.2l0.1,0c0.1,0,0.3,0,0.4,0c0,0,0,0,0,0c0,4.2,3.1,7.7,7.1,7.8l6.4,0.3
	c4.1,0.2,7.7-3.2,7.9-7.5l0.4-7.7C210.6,203.4,207.4,199.8,203.3,199.6z"/>
<g>
	<path class="st20" d="M191.5,211.6c0.2-3.7-0.4-8.4,3-10.7c1.7-1.2,3.5-1.1,5.4-1c1.6,0.1,3.1,0.1,4.7,0.2c1.7,0.1,1.8-2.6,0.1-2.7
		c-1.7-0.1-3.4-0.2-5.2-0.2c-2.5-0.1-4.7,0.1-6.8,1.7c-2.3,1.7-3.5,4.4-3.7,7.4c-0.1,1.8-0.2,3.5-0.3,5.3
		C188.8,213.2,191.4,213.3,191.5,211.6L191.5,211.6z"/>
</g>
<path class="st20" d="M211,198.7c0,0-0.1,4.2-8.3,3.8c-8.3-0.4-11.3-1-11.6,6.6c0,0-1.1-11.2,6.1-11.9
	C204.5,196.4,206.9,200.1,211,198.7z"/>
<path class="st20" d="M187.3,214.5c-1.7-5.1-3.4-12.9,1.9-15c2.2-6.9,11.7-4.7,14-3.9c2.3,0.8,3.8-0.4,3.8-0.4
	c0.7,0.7,0.7,2.2,0.7,2.2l1.9-2.3c2.3,1.6,3.5,5.6-0.2,10.9l-0.9,4.5l-5.4,6.4c-1.4,1.7-3.6,2.6-5.8,2.5l-3.6-0.2
	C190.8,219.2,188.3,217.3,187.3,214.5z"/>
<ellipse transform="matrix(0.1279 -0.9918 0.9918 0.1279 -29.9052 390.2468)" class="st12" cx="207" cy="212.1" rx="3.1" ry="3.1"/>
<path class="st3" d="M248.2,258.8l-0.4-0.4c-1.4-1.5-3.8-1.6-5.3-0.2l-2.3,2.2c-0.5,0.5-1.4,0.5-1.9-0.1l0,0
	c-0.5-0.5-1.4-0.6-1.9-0.1l-4.8,4.5c-0.5,0.5-0.6,1.4-0.1,1.9l3.9,4.1l4.3-4.1l-0.5-0.5l1.6-0.5L248.2,258.8z"/>
<path class="st1" d="M239.2,260.8l-14.9-15c-1-1-2.2-1.5-3.6-1.5h-21.2v9.5h18.3c0.6,0,1.2,0.2,1.7,0.7l13,13L239.2,260.8z"/>
<path class="st16" d="M209.3,249.1c0,2.6-2.1,4.7-4.7,4.7h-10.7c-2.6,0-4.7-2.1-4.7-4.7v-1.3c0-2.6,2.1-4.7,4.7-4.7h10.7
	c2.6,0,4.7,2.1,4.7,4.7V249.1z"/>
<polygon class="st16" points="201.2,251.7 217.4,253.8 201,253.6 "/>
<path class="st1" d="M186.8,222.4c0.8-4.8,19.9-3.6,21.5,1.4c2.3,7.2,3.1,25.2,3.1,25.2s-11.3,4.8-23.4,1.4
	C188,250.4,186.3,225.7,186.8,222.4z"/>
<g>
	<g class="st39">
		<ellipse transform="matrix(0.9138 -0.4062 0.4062 0.9138 -67.1463 111.9403)" class="st40" cx="230.1" cy="214.1" rx="6" ry="6"/>
		<g>
			<path class="st1" d="M234.9,211.9c1,2.6,0.3,5.5-2.2,6.9c-2.7,1.5-6.2,0.3-7.4-2.5c-1.2-2.7,0-5.8,2.7-7c2.8-1.2,5.7,0.1,7.1,2.7
				c0.4,0.8,1.7,0.1,1.3-0.7c-1.7-3.3-5.5-4.9-9-3.3c-3.3,1.5-4.9,5.6-3.4,8.9c1.5,3.3,5.5,4.9,8.8,3.5c3.5-1.5,4.9-5.4,3.6-8.9
				C236,210.6,234.6,211,234.9,211.9z"/>
		</g>
	</g>
	<g>
		<path class="st41" d="M234.9,211.9c1,2.6,0.3,5.5-2.2,6.9c-2.7,1.5-6.2,0.3-7.4-2.5c-1.2-2.7,0-5.8,2.7-7c2.8-1.2,5.7,0.1,7.1,2.7
			c0.4,0.8,1.7,0.1,1.3-0.7c-1.7-3.3-5.5-4.9-9-3.3c-3.3,1.5-4.9,5.6-3.4,8.9c1.5,3.3,5.5,4.9,8.8,3.5c3.5-1.5,4.9-5.4,3.6-8.9
			C236,210.6,234.6,211,234.9,211.9z"/>
	</g>
	<g>
		<path class="st42" d="M234.3,211.5c1,2.6,0.3,5.5-2.2,6.9c-2.7,1.5-6.2,0.3-7.4-2.5c-1.2-2.7,0-5.8,2.7-7c2.8-1.2,5.7,0.1,7.1,2.7
			c0.4,0.8,1.7,0.1,1.3-0.7c-1.7-3.3-5.5-4.9-9-3.3c-3.3,1.5-4.9,5.6-3.4,8.9c1.5,3.3,5.5,4.9,8.8,3.5c3.5-1.5,4.9-5.4,3.6-8.9
			C235.4,210.3,234,210.6,234.3,211.5z"/>
	</g>
	<g>
		<path class="st42" d="M226.7,219.9c-0.8,2.6-1.6,5.3-2.4,7.9c-0.3,0.9,1.1,1.3,1.4,0.4c0.8-2.6,1.6-5.3,2.4-7.9
			C228.4,219.4,227,219,226.7,219.9L226.7,219.9z"/>
	</g>
</g>
<path class="st12" d="M224.2,229.4c0,0,4.9,0.6,5.3-2.9c0,0,2.3-3.2,0-3.8c-2.3-0.6-4.9-1.4-5.3,0l-2.5,5.6L224.2,229.4z"/>
<g>
	<path class="st1" d="M202.4,228.4c3.3,3.4,6.8,6.9,10.8,9.4c2.8,1.8,5.8,2.3,8.4,0c1.8-1.6,3.2-3.9,4.5-6.1
		c2.5-4.4-4.2-8.3-6.7-3.9c-0.9,1.5-1.8,2.8-2.7,4c-0.3,0.4-0.3,0.3-0.3,0.3c-0.1-0.2,2-0.3,2.1-0.3c-0.8-0.1,0.1,0.2-0.3-0.1
		c-0.8-0.5-1.8-1.1-2.4-1.6c-2.6-2-5.4-4.7-7.8-7.2C204.4,219.3,198.9,224.8,202.4,228.4L202.4,228.4z"/>
</g>
<g>
	<path class="st1" d="M185.5,225.2c1.4,5.1,2.7,10.3,4.1,15.4c1.3,4.8,8.8,2.8,7.5-2.1c-1.4-5.1-2.7-10.3-4.1-15.4
		C191.7,218.3,184.2,220.3,185.5,225.2L185.5,225.2z"/>
</g>
<g>
	<path class="st43" d="M225.6,210.3c0.6-0.6,1.2-1.1,2-1.4c0.4-0.2,0.4-0.7,0.3-1c-0.2-0.4-0.6-0.4-1-0.3c-0.9,0.4-1.6,1-2.3,1.7
		C223.9,210,225,211,225.6,210.3L225.6,210.3z"/>
</g>
<path class="st3" d="M284.7,128.7l0.1-0.5c0.5-2-0.7-4.1-2.7-4.6l-3.1-0.8c-0.7-0.2-1.2-0.9-1-1.6l0,0c0.2-0.7-0.3-1.4-1-1.6
	l-6.3-1.6c-0.7-0.2-1.4,0.3-1.6,1l-1,4c-0.2,0.8,0.3,1.6,1.1,1.8l4.3,1.1l0.2-0.7l1.3,1L284.7,128.7z"/>
<path class="st12" d="M242.4,83c0.4-0.1,1.1,0.2,1.8,0.4c0,0,2.3-0.6,2,0.5c-0.3,1.1-1.2,1.4-2.1,1.4c0.9,1.3,2.2,2.5,1.6,3.5
	c-1.2,1.8-3.7-1.7-3.7-1.7s0.6,1.1,1.6,2.1c1.6,1.5-1.1,2.5-2.6,1c0.3,1.8-1.9,2.5-2.5-1.9c-0.2-1.7,0.7-3,1.6-4
	C240.7,83.6,241.7,83,242.4,83z"/>
<g>
	<path class="st0" d="M281.6,23.6c0.7,3-1.4,3.9-3.6,3.9c-2.2,0-4-1.6-4-3.7s1.8-3.7,4-3.7C280.1,20.2,281.1,21.6,281.6,23.6z"/>
	<ellipse class="st12" cx="278.7" cy="20.5" rx="1.6" ry="2.2"/>
	<path class="st12" d="M275.5,25.7c-1.9-1.6-1-7,1.5-7.3c2.4-0.3,1.7,4,0,4.2c-1.5,0.2-1.1-1.9-1.1-1.9"/>
	<path class="st12" d="M275,20c-2.5,0.7-1.3,7.5,2.1,7.5c3.4-0.1,2.3-6.3-0.8-4.3C276.3,23.2,276.2,19.7,275,20z"/>
	<ellipse transform="matrix(0.3244 -0.9459 0.9459 0.3244 169.4038 279.4232)" class="st12" cx="280.3" cy="21.1" rx="2" ry="1.4"/>
	
		<ellipse transform="matrix(0.3244 -0.9459 0.9459 0.3244 169.5902 281.0891)" class="st12" cx="281.6" cy="21.8" rx="1.7" ry="1.2"/>
	<polygon class="st17" points="279.7,30.2 273.1,28 274,25 280.7,27.3 	"/>
</g>
<g>
	
		<rect x="236.7" y="82.1" transform="matrix(0.829 -0.5593 0.5593 0.829 -5.7638 148.4355)" class="st17" width="6.3" height="3.1"/>
</g>
<g>
	<path class="st1" d="M236.5,85.7c-0.4-0.5-8.8-12.3-2.5-21.8c6.6-9.9,24.4-5.9,34.3,0.7l-4,4.3c-11-1.3-9.5-2.5-14.3-3.1
		c-2.2-0.3-7.6-0.5-9.5,2.4c-3.3,5,2.2,13,2.3,13.1L236.5,85.7z"/>
</g>
<line class="st44" x1="264.4" y1="63.8" x2="277" y2="27.5"/>
<path class="st3" d="M246.3,132.1c0,0-0.9,3.2,3.9,8.1c4.3,4.4,5.7,0.9,5.4-0.8c-0.3-2.6-2-5.5-1.9-6.1c0,0,0.8-1.1,0.6-1.9
	c-1.5-6.2-5.6-6.9-7.7-5.8C244.2,126.8,244.2,129.6,246.3,132.1z"/>
<g>
	<path class="st1" d="M246.5,90.7C246.5,90.7,246.5,90.7,246.5,90.7L246.5,90.7z"/>
	<path class="st1" d="M281.5,101.3c-0.2-1.9-1-3.2-2.1-4.6c-3.3-4.1-7.6-7.6-11.7-10.9c-0.9-0.9-2.1-1.5-3.4-1.5h-13
		c-2.3,0-4.2,1.7-4.6,3.9c-0.3,0.9-0.2,1.9,0,2.8c0,0.1,0,0.1,0.1,0.2c0.1,0.2,0.1,0.3,0.2,0.5c-0.2-0.5-0.3-0.8-0.4-0.9
		c0.1,0.1,0.2,0.4,0.3,0.6c0.2,0.6,0.4,1.2,0.6,1.8c0.3,1,0.5,1.9,0.7,2.9c0.1,0.7,0.3,1.3,0.4,2c0.1,0.4,0.1,0.7,0.2,1.1
		c0,0.1,0,0.1,0,0.2c0,0.1,0,0.2,0,0.3c1.1,9,0,18-2.3,26.7c-1.4,5.1,6.5,7.3,7.9,2.2c2.5-9.3,3.7-19.2,2.6-28.8
		c-0.2-1.9-0.5-3.8-0.9-5.6h8.9c2.7,2.3,5.3,4.6,7.7,7.2c0.2,0.2,0.4,0.5,0.6,0.7c0,0,0,0,0,0c0,0.3,0,0.7,0,0.9c0,0,0,0.1,0,0.1
		c0,0.1,0,0.2-0.1,0.3c-0.1,0.4-0.2,0.9-0.2,1.3c-0.7,3.8-1.7,7.5-2.8,11.1c-1.5,5.1,6.4,7.2,7.9,2.2c1.2-3.8,2.1-7.7,2.9-11.6
		C281.3,104.8,281.7,103,281.5,101.3z"/>
</g>
<path class="st1" d="M257.6,57.5c-12.8,0-11.2,6.5-11.2,6.5v25.2c5.5,2.8,18.4,3.2,22.3-1.9V62.1C268.7,62.1,270.3,57.5,257.6,57.5z
	"/>
<polygon class="st17" points="252.1,58.9 260.3,72.5 263.5,58.9 "/>
<path class="st18" d="M263.8,60.4L263.8,60.4c-3.9-1.4-8.1-1.4-11.4,0l-0.1,0l2.3,3.7l3.7-2.5l4.6,2.5L263.8,60.4z"/>
<polygon class="st19" points="261,69.7 260.3,72.5 258.6,69.7 257.8,58.9 257.8,58.9 "/>
<path class="st19" d="M258.5,62.7L258.5,62.7c0.6,0,1-0.3,1.1-0.8l0.3-1.8c0.1-0.7-0.6-1.4-1.5-1.4h-1.3c-0.9,0-1.4,0.7-1,1.4l1,1.8
	C257.3,62.4,257.9,62.7,258.5,62.7z"/>
<path class="st17" d="M263.5,58.9L263.5,58.9c-3.9-1.4-8.1-1.4-11.4,0l-0.1,0l2.3,3.7l3.7-2.2l4.6,2.2L263.5,58.9z"/>
<polygon class="st15" points="260.3,72.5 263.3,58 267.7,59.5 265.8,62.2 264.2,62.7 265.2,64.5 "/>
<polygon class="st15" points="260.3,72.5 251.9,58 248,59.3 251,62.2 252.7,62.7 252.4,64.5 "/>
<path class="st20" d="M246.6,51.8c0,0-7.8-13.1,0-16.6c1.8-7,11.4-5.3,13.8-4.6s3.7-0.5,3.7-0.5c0.8,0.7,0.9,2.2,0.9,2.2l1.8-2.4
	c2.4,1.5,3.7,5.4,0.4,10.9L246.6,51.8z"/>
<path class="st0" d="M260,58c0,1.2-1,2.2-2.2,2.2h-0.6c-1.2,0-2.2-1-2.2-2.2v-3.8c0-1.2,1-2.2,2.2-2.2h0.6c1.2,0,2.2,1,2.2,2.2V58z"
	/>
<path class="st12" d="M259.1,34.7l-6.4,0.5c-4.1,0.3-7.2,4.1-6.8,8.4l0.2,1.9c0,0,0,0,0,0c-0.1,0-0.3,0-0.4,0l-0.1,0
	c-1.6,0.1-2.8,1.6-2.7,3.3l0,0.1c0.1,1.7,1.6,3,3.2,2.8l0.1,0c0.1,0,0.3,0,0.4-0.1c0,0,0,0,0,0c0.5,4.1,4,7.2,8,6.9L261,58
	c4.1-0.3,7.2-4.1,6.8-8.4l-0.6-7.7C266.8,37.6,263.2,34.3,259.1,34.7z"/>
<g>
	<path class="st20" d="M248.7,47.8c-0.3-3.7-1.4-8.2,1.6-11c1.5-1.4,3.4-1.5,5.3-1.7c1.6-0.1,3.1-0.3,4.7-0.4
		c1.7-0.1,1.5-2.8-0.2-2.7c-1.7,0.1-3.4,0.3-5.1,0.4c-2.4,0.2-4.7,0.7-6.5,2.5c-2.1,2-2.9,4.9-2.7,7.8c0.1,1.8,0.3,3.5,0.4,5.3
		C246.2,49.7,248.8,49.5,248.7,47.8L248.7,47.8z"/>
</g>
<ellipse transform="matrix(0.9967 -8.069681e-02 8.069681e-02 0.9967 -2.9378 20.7436)" class="st16" cx="255.2" cy="46.7" rx="0.7" ry="1"/>
<ellipse transform="matrix(0.9967 -8.069919e-02 8.069919e-02 0.9967 -2.8596 21.3875)" class="st16" cx="263.2" cy="46.1" rx="0.7" ry="1"/>
<g>
	<path class="st20" d="M264.6,42.4c-1-1.2-2.7-1.1-3.5,0.2c-0.2,0.3,0.3,0.6,0.5,0.3c0.7-1.1,1.8-1,2.6-0.1
		C264.4,43.1,264.8,42.7,264.6,42.4L264.6,42.4z"/>
</g>
<g>
	<path class="st20" d="M253.6,43.7c0.6-1,1.8-1.2,2.6-0.2c0.2,0.3,0.6-0.1,0.4-0.4c-1.1-1.2-2.7-0.9-3.5,0.4
		C252.9,43.7,253.4,44,253.6,43.7L253.6,43.7z"/>
</g>
<path class="st20" d="M266.4,32.5c0,0,0.5,4.1-7.8,4.8c-8.2,0.7-11.3,0.5-10.7,8c0,0-2.5-11,4.6-12.6
	C259.7,31.1,262.5,34.4,266.4,32.5z"/>
<path class="st17" d="M255.8,51.5c0.2,2.1,2,3.6,4,3.4s3.6-2,3.4-4L255.8,51.5z"/>
<g>
	<path class="st22" d="M259.1,13.9c0-1.3,0-2.6,0-3.9c0-1.4-2.1-1.4-2.1,0c0,1.3,0,2.6,0,3.9C257,15.3,259.1,15.3,259.1,13.9
		L259.1,13.9z"/>
</g>
<g>
	<path class="st22" d="M259.1,23.7c0-0.4,0-0.7,0-1.1c0-0.6-0.5-1.1-1.1-1.1c-0.6,0-1.1,0.5-1.1,1.1c0,0.4,0,0.7,0,1.1
		c0,0.6,0.5,1.1,1.1,1.1C258.6,24.7,259.1,24.3,259.1,23.7L259.1,23.7z"/>
</g>
<g>
	<path class="st22" d="M292.2,29.1c1.4,0,1.4-2.1,0-2.1C290.8,27,290.8,29.1,292.2,29.1L292.2,29.1z"/>
</g>
<g>
	<path class="st22" d="M286.3,35c1.4,0,1.4-2.1,0-2.1C284.9,32.9,284.9,35,286.3,35L286.3,35z"/>
</g>
<g>
	<path class="st22" d="M283.6,38.1c1.1-1.1,2.3-2.3,3.4-3.4c1-1-0.5-2.5-1.5-1.5c-1.1,1.1-2.3,2.3-3.4,3.4
		C281.2,37.5,282.7,39,283.6,38.1L283.6,38.1z"/>
</g>
<g>
	<path class="st22" d="M223.2,28.9c1.2,1.2,2.5,2.5,3.7,3.7c1,1,2.5-0.5,1.5-1.5c-1.2-1.2-2.5-2.5-3.7-3.7
		C223.7,26.5,222.2,28,223.2,28.9L223.2,28.9z"/>
</g>
<g>
	<path class="st22" d="M304.2,64c1,0,2.1,0,3.1,0c1.4,0,1.4-2.1,0-2.1c-1,0-2.1,0-3.1,0C302.9,61.9,302.9,64,304.2,64L304.2,64z"/>
</g>
<g>
	<path class="st22" d="M304.2,64c1.4,0,1.4-2.1,0-2.1C302.9,61.9,302.9,64,304.2,64L304.2,64z"/>
</g>
<g>
	<path class="st22" d="M294.3,64c1.4,0,1.4-2.1,0-2.1C293,61.9,293,64,294.3,64L294.3,64z"/>
</g>
<g>
	<path class="st22" d="M288.1,64c2.1,0,4.2,0,6.3,0c1.4,0,1.4-2.1,0-2.1c-2.1,0-4.2,0-6.3,0C286.7,61.9,286.7,64,288.1,64L288.1,64z
		"/>
</g>
<g>
	<path class="st22" d="M276.6,82.5c1.8,1.8,3.7,3.7,5.5,5.5c1,1,2.5-0.5,1.5-1.5c-1.8-1.8-3.7-3.7-5.5-5.5
		C277.1,80,275.6,81.5,276.6,82.5L276.6,82.5z"/>
</g>
<g>
	<path class="st22" d="M210.6,61.9c-1.8,0-3.7,0-5.5,0c-1.4,0-1.4,2.1,0,2.1c1.8,0,3.7,0,5.5,0C211.9,64,211.9,61.9,210.6,61.9
		L210.6,61.9z"/>
</g>
<g>
	<path class="st22" d="M227.8,91.7c-1.5,1.5-3.1,3.1-4.6,4.6c-1,1,0.5,2.5,1.5,1.5c1.5-1.5,3.1-3.1,4.6-4.6
		C230.3,92.2,228.8,90.7,227.8,91.7L227.8,91.7z"/>
</g>
<g>
	<path class="st22" d="M220.3,61.9c-0.4,0-0.9,0-1.3,0c-0.6,0-1.1,0.5-1.1,1.1c0,0.6,0.5,1.1,1.1,1.1c0.4,0,0.9,0,1.3,0
		c0.6,0,1.1-0.5,1.1-1.1C221.3,62.4,220.9,61.9,220.3,61.9L220.3,61.9z"/>
</g>
<path class="st45" d="M286.1,345.2h-33.4c-2.7,0-4.8-2.2-4.8-4.8V154.5c0-2.7,2.2-4.8,4.8-4.8h33.4c2.7,0,4.8,2.2,4.8,4.8v185.8
	C290.9,343,288.7,345.2,286.1,345.2z"/>
<path class="st46" d="M279.1,345.2h-33.4c-2.7,0-4.8-2.2-4.8-4.8V154.5c0-2.7,2.2-4.8,4.8-4.8h33.4c2.7,0,4.8,2.2,4.8,4.8v185.8
	C283.9,343,281.8,345.2,279.1,345.2z"/>
</svg>
