<?xml version="1.0" encoding="iso-8859-1"?>
<!-- Generator: Adobe Illustrator 19.0.0, SVG Export Plug-In . SVG Version: 6.00 Build 0)  -->
<svg version="1.1" id="Layer_1" xmlns="http://www.w3.org/2000/svg" xmlns:xlink="http://www.w3.org/1999/xlink" x="0px" y="0px"
	 viewBox="0 0 512 512" style="enable-background:new 0 0 512 512;" xml:space="preserve">
<polygon style="fill:#002833;" points="389.68,502.08 261.36,393.52 132.96,502.08 112.32,477.68 261.36,351.6 410.32,477.68 "/>
<rect x="21.36" y="30.72" style="fill:#FF5F5F;" width="469.36" height="341.84"/>
<g>
	<rect y="9.92" style="fill:#002833;" width="512" height="21.36"/>
	<rect y="372.56" style="fill:#002833;" width="512" height="21.36"/>
	<rect x="165.36" y="452.56" style="fill:#002833;" width="192" height="10.64"/>
	<path style="fill:#002833;" d="M261.36,328.64l-51.44-111.52c0,0-54,0.72-54,50.4s0,61.2,0,61.2S261.68,328.64,261.36,328.64z"/>
	<path style="fill:#002833;" d="M266.4,328.64l51.44-111.52c0,0,54,0.72,54,50.4s0,61.2,0,61.2S266,328.64,266.4,328.64z"/>
</g>
<g>
	<polygon style="fill:#FFFFFF;" points="263.84,217.04 226.8,217.04 263.84,299.12 300.88,217.04 	"/>
	<circle style="fill:#FFFFFF;" cx="263.52" cy="137.28" r="19.04"/>
	<path style="fill:#FFFFFF;" d="M326.16,146.64v-18.8l-19.12-1.92c-1.12-4-2.8-7.84-4.88-11.28l12.32-15.04L301.2,86.32l-15.68,12.8
		c-3.28-1.76-6.8-3.04-10.48-3.92l-2.08-20.64h-9.36h-0.08h-9.36l-2.08,20.64c-3.68,0.8-7.2,2.16-10.48,3.92l-15.68-12.8
		L212.64,99.6l12.32,15.04c-2.16,3.44-3.84,7.28-4.88,11.28l-19.12,1.92v18.8l19.12,1.92c1.12,4,2.72,7.76,4.88,11.28l-12.32,15.04
		l13.28,13.28l15.68-12.8c3.28,1.76,6.8,3.04,10.48,3.92l2.08,20.64h9.36h0.08h9.36l2.08-20.64c3.68-0.8,7.2-2.16,10.48-3.92
		l15.68,12.8l13.28-13.28l-12.32-15.04c2.16-3.44,3.76-7.28,4.88-11.28L326.16,146.64z M263.52,165.52
		c-15.6,0-28.24-12.64-28.24-28.24s12.64-28.24,28.24-28.24s28.24,12.64,28.24,28.24C291.76,152.88,279.12,165.52,263.52,165.52z"/>
</g>
<g>
</g>
<g>
</g>
<g>
</g>
<g>
</g>
<g>
</g>
<g>
</g>
<g>
</g>
<g>
</g>
<g>
</g>
<g>
</g>
<g>
</g>
<g>
</g>
<g>
</g>
<g>
</g>
<g>
</g>
</svg>
