<?xml version="1.0" encoding="iso-8859-1"?>
<!-- Generator: Adobe Illustrator 19.0.0, SVG Export Plug-In . SVG Version: 6.00 Build 0)  -->
<svg version="1.1" id="Layer_1" xmlns="http://www.w3.org/2000/svg" xmlns:xlink="http://www.w3.org/1999/xlink" x="0px" y="0px"
	 viewBox="0 0 512 512" style="enable-background:new 0 0 512 512;" xml:space="preserve">
<g>
	<rect x="177.52" y="248" style="fill:#CCCCCC;" width="187.144" height="16"/>
	<polygon style="fill:#CCCCCC;" points="364.664,445.472 280.024,445.472 280.024,66.552 364.664,66.552 364.664,82.552 
		296.024,82.552 296.024,429.472 364.664,429.472 	"/>
</g>
<path style="fill:#BBBBBB;" d="M453.728,197.728L453.728,197.728c32.184,0,58.272,26.088,58.272,58.264V256
	c0,32.176-26.088,58.264-58.264,58.264h-0.008c-32.176,0-58.264-26.088-58.264-58.264v-0.008
	C395.464,223.816,421.552,197.728,453.728,197.728z"/>
<path style="fill:#333333;" d="M453.728,0L453.728,0C485.912,0,512,26.088,512,58.264v0.008c0,32.176-26.088,58.264-58.264,58.264
	h-0.008c-32.176,0-58.264-26.088-58.264-58.264v-0.008C395.464,26.088,421.552,0,453.728,0z"/>
<g>
	<path style="fill:#E21B1B;" d="M453.728,395.464L453.728,395.464c32.184,0,58.272,26.088,58.272,58.264v0.008
		C512,485.912,485.912,512,453.736,512h-0.008c-32.176,0-58.264-26.088-58.264-58.264v-0.008
		C395.464,421.552,421.552,395.464,453.728,395.464z"/>
	<circle style="fill:#E21B1B;" cx="108" cy="256" r="108"/>
</g>
<polygon style="fill:#FFFFFF;" points="145.128,206.944 90.184,274.712 67.088,251.92 51.864,268.696 91.968,308.272 
	162.04,221.856 "/>
<g>
</g>
<g>
</g>
<g>
</g>
<g>
</g>
<g>
</g>
<g>
</g>
<g>
</g>
<g>
</g>
<g>
</g>
<g>
</g>
<g>
</g>
<g>
</g>
<g>
</g>
<g>
</g>
<g>
</g>
</svg>
