<?xml version="1.0" encoding="utf-8"?>
<!-- Generator: Adobe Illustrator 21.0.0, SVG Export Plug-In . SVG Version: 6.00 Build 0)  -->
<svg version="1.1" id="Layer_1" xmlns="http://www.w3.org/2000/svg" xmlns:xlink="http://www.w3.org/1999/xlink" x="0px" y="0px"
	 viewBox="0 0 500 500" style="enable-background:new 0 0 500 500;" xml:space="preserve">
<style type="text/css">
	.st0{fill:#919E99;}
	.st1{fill:#454E63;}
	.st2{opacity:0.34;fill:#090909;}
	.st3{fill:#FBFBFB;}
	.st4{fill:#E9F4F6;}
	.st5{opacity:0.61;}
	.st6{fill:#1F1F24;}
	.st7{fill:#42566B;}
</style>
<rect x="94" y="95.4" class="st0" width="0.6" height="41.8"/>
<rect x="121" y="85" class="st0" width="0.6" height="41.8"/>
<rect x="148.1" y="98" class="st0" width="0.6" height="41.8"/>
<rect x="179.9" y="96.1" class="st0" width="0.6" height="41.8"/>
<g>
	<line class="st0" x1="359" y1="328.1" x2="414.2" y2="257.1"/>
	<g>
		<rect x="343.7" y="296" transform="matrix(0.6131 -0.79 0.79 0.6131 -86.0858 417.6913)" class="st0" width="79.4" height="1.5"/>
		<g>
			<polygon class="st0" points="414.2,257.1 409.9,272.5 407.2,266 400.3,265.1 			"/>
		</g>
	</g>
</g>
<g>
	<line class="st0" x1="381" y1="323.9" x2="436.1" y2="252.9"/>
	<g>
		
			<rect x="365.6" y="291.8" transform="matrix(0.6131 -0.79 0.79 0.6131 -74.2795 433.4002)" class="st0" width="79.4" height="1.5"/>
		<g>
			<polygon class="st0" points="436.1,252.9 431.8,268.3 429.2,261.8 422.2,260.9 			"/>
		</g>
	</g>
</g>
<g>
	<line class="st0" x1="401.8" y1="321.2" x2="457" y2="250.1"/>
	<g>
		
			<rect x="386.5" y="289.1" transform="matrix(0.6131 -0.79 0.79 0.6131 -64.0695 448.8296)" class="st0" width="79.4" height="1.5"/>
		<g>
			<polygon class="st0" points="457,250.1 452.7,265.6 450,259.1 443.1,258.1 			"/>
		</g>
	</g>
</g>
<g>
	<polygon class="st0" points="79.7,289.3 24.8,289.3 24.8,236 25.9,236 25.9,288.6 79.7,288.6 	"/>
	<g>
		<path class="st0" d="M25.5,228.3c-1.3,3.4-3.4,7.6-5.7,10.2l5.7-2l5.7,2C28.9,235.8,26.8,231.6,25.5,228.3z"/>
	</g>
	<g>
		<path class="st0" d="M86.5,288.8c-3.4,1.3-7.6,3.4-10.2,5.7l2-5.7l-2-5.7C78.9,285.4,83.1,287.5,86.5,288.8z"/>
	</g>
</g>
<rect x="33" y="260.1" class="st0" width="6.7" height="27.8"/>
<rect x="48.7" y="252.3" class="st0" width="6.7" height="35.6"/>
<rect x="65.1" y="245.4" class="st0" width="6.7" height="42.5"/>
<rect x="30.3" y="376.3" class="st0" width="83" height="2.2"/>
<rect x="30.3" y="384.1" class="st0" width="83" height="2.2"/>
<rect x="30.3" y="391.8" class="st0" width="83" height="2.2"/>
<rect x="30.3" y="399.6" class="st0" width="83" height="2.2"/>
<rect x="30.3" y="407.4" class="st0" width="83" height="2.2"/>
<rect x="238.5" y="331.2" class="st0" width="2.2" height="83"/>
<rect x="246.3" y="331.2" class="st0" width="2.2" height="83"/>
<rect x="254" y="331.2" class="st0" width="2.2" height="83"/>
<rect x="261.8" y="331.2" class="st0" width="2.2" height="83"/>
<rect x="269.6" y="331.2" class="st0" width="2.2" height="83"/>
<path class="st0" d="M124,123.5c0.1,0.5-0.3,1-0.8,1.1l-51.5,19.9c-0.5,0.1-1-0.3-1.1-0.8l0,0c-0.1-0.5,0.3-1,0.8-1.1l51.5-19.9
	C123.5,122.6,123.9,123,124,123.5L124,123.5z"/>
<path class="st0" d="M148.3,139.3c-0.3,0.4-0.7,0.7-1,0.5l-26-16.5c-0.3-0.2-0.2-0.6,0-1.1l0,0c0.3-0.4,0.7-0.7,1-0.5l26,16.5
	C148.6,138.4,148.6,138.9,148.3,139.3L148.3,139.3z"/>
<path class="st0" d="M180.1,134.9c0,0.5-0.2,1-0.5,1l-30.7,2.8c-0.3,0-0.6-0.4-0.6-0.9l0,0c0-0.5,0.2-1,0.5-1l30.7-2.8
	C179.8,134,180.1,134.4,180.1,134.9L180.1,134.9z"/>
<circle class="st0" cx="148.5" cy="137.2" r="6.5"/>
<circle class="st0" cx="121.3" cy="124.5" r="6.5"/>
<circle class="st0" cx="94.5" cy="135.1" r="6.5"/>
<rect x="69.1" y="107.8" class="st0" width="0.6" height="41.8"/>
<circle class="st0" cx="69.5" cy="144.3" r="6.4"/>
<circle class="st0" cx="179.9" cy="135.4" r="6.7"/>
<path class="st1" d="M384.8,256.1h-65c-4.8,0-8.6-3.9-8.6-8.6v-128c0-4.8,3.9-8.6,8.6-8.6h65c4.8,0,8.6,3.9,8.6,8.6v128
	C393.4,252.2,389.6,256.1,384.8,256.1z"/>
<path class="st2" d="M393.5,119.5v128c0,4.8-3.9,8.6-8.7,8.6H376l-29.5-145.2l38.3,0C389.6,110.9,393.5,114.7,393.5,119.5z"/>
<rect x="313.5" y="126.7" class="st3" width="77.6" height="113.1"/>
<path class="st4" d="M363.2,120.3h-21.6c-0.7,0-1.2-0.5-1.2-1.2l0,0c0-0.7,0.5-1.2,1.2-1.2h21.6c0.7,0,1.2,0.5,1.2,1.2l0,0
	C364.4,119.7,363.9,120.3,363.2,120.3z"/>
<path class="st4" d="M360.7,251.1h-16.8c-0.9,0-1.7-0.8-1.7-1.7v-2.7c0-0.9,0.8-1.7,1.7-1.7h16.8c0.9,0,1.7,0.8,1.7,1.7v2.7
	C362.4,250.3,361.6,251.1,360.7,251.1z"/>
<g class="st5">
	<rect x="331.6" y="144.3" class="st1" width="7.7" height="1"/>
</g>
<g class="st5">
	<rect x="341.2" y="144.3" class="st1" width="7.7" height="1"/>
</g>
<g class="st5">
	<rect x="350.9" y="144.3" class="st1" width="7.7" height="1"/>
</g>
<g class="st5">
	<rect x="360.6" y="144.3" class="st1" width="7.7" height="1"/>
</g>
<g class="st5">
	<rect x="331.6" y="148.6" class="st1" width="7.7" height="1"/>
</g>
<g class="st5">
	<rect x="341.2" y="148.6" class="st1" width="7.7" height="1"/>
</g>
<g class="st5">
	<rect x="350.9" y="148.6" class="st1" width="7.7" height="1"/>
</g>
<g class="st5">
	<rect x="360.6" y="148.6" class="st1" width="7.7" height="1"/>
</g>
<g class="st5">
	<rect x="341.2" y="152.4" class="st1" width="7.7" height="1"/>
</g>
<g class="st5">
	<rect x="350.9" y="152.4" class="st1" width="7.7" height="1"/>
</g>
<g class="st5">
	<rect x="360.6" y="152.4" class="st1" width="7.7" height="1"/>
</g>
<g class="st5">
	<rect x="370.3" y="152.4" class="st1" width="7.7" height="1"/>
</g>
<g class="st5">
	<rect x="341.2" y="156.2" class="st1" width="7.7" height="1"/>
</g>
<g class="st5">
	<rect x="350.9" y="156.2" class="st1" width="7.7" height="1"/>
</g>
<g class="st5">
	<rect x="360.6" y="156.2" class="st1" width="7.7" height="1"/>
</g>
<g class="st5">
	<rect x="370.3" y="156.2" class="st1" width="7.7" height="1"/>
</g>
<g class="st5">
	<rect x="341.2" y="160" class="st1" width="7.7" height="1"/>
</g>
<g class="st5">
	<rect x="350.9" y="160" class="st1" width="7.7" height="1"/>
</g>
<g class="st5">
	<rect x="360.6" y="160" class="st1" width="7.7" height="1"/>
</g>
<g class="st5">
	<rect x="370.3" y="160" class="st1" width="7.7" height="1"/>
</g>
<g class="st5">
	<rect x="341.2" y="163.8" class="st1" width="7.7" height="1"/>
</g>
<g class="st5">
	<rect x="350.9" y="163.8" class="st1" width="7.7" height="1"/>
</g>
<g class="st5">
	<rect x="360.6" y="163.8" class="st1" width="7.7" height="1"/>
</g>
<g class="st5">
	<rect x="370.3" y="163.8" class="st1" width="7.7" height="1"/>
</g>
<g class="st5">
	<rect x="331.6" y="167.6" class="st1" width="7.7" height="1"/>
</g>
<g class="st5">
	<rect x="341.3" y="167.6" class="st1" width="7.7" height="1"/>
</g>
<g class="st5">
	<rect x="351" y="167.6" class="st1" width="7.7" height="1"/>
</g>
<g class="st5">
	<rect x="360.7" y="167.6" class="st1" width="7.7" height="1"/>
</g>
<g class="st5">
	<rect x="331.6" y="171.4" class="st1" width="7.7" height="1"/>
</g>
<g class="st5">
	<rect x="341.3" y="171.4" class="st1" width="7.7" height="1"/>
</g>
<g class="st5">
	<rect x="350.9" y="171.4" class="st1" width="7.7" height="1"/>
</g>
<g class="st5">
	<rect x="360.6" y="171.4" class="st1" width="7.7" height="1"/>
</g>
<g class="st5">
	<rect x="331.6" y="175.2" class="st1" width="7.7" height="1"/>
</g>
<g class="st5">
	<rect x="341.2" y="175.2" class="st1" width="7.7" height="1"/>
</g>
<g class="st5">
	<rect x="350.9" y="175.2" class="st1" width="7.7" height="1"/>
</g>
<g class="st5">
	<rect x="360.6" y="175.2" class="st1" width="7.7" height="1"/>
</g>
<g class="st5">
	<rect x="331.5" y="178.9" class="st1" width="7.7" height="1"/>
</g>
<g class="st5">
	<rect x="341.2" y="178.9" class="st1" width="7.7" height="1"/>
</g>
<g class="st5">
	<rect x="350.9" y="178.9" class="st1" width="7.7" height="1"/>
</g>
<g class="st5">
	<rect x="360.6" y="178.9" class="st1" width="7.7" height="1"/>
</g>
<g class="st5">
	<rect x="331.6" y="182.9" class="st1" width="7.7" height="1"/>
</g>
<g class="st5">
	<rect x="341.3" y="182.9" class="st1" width="7.7" height="1"/>
</g>
<g class="st5">
	<rect x="351" y="182.9" class="st1" width="7.7" height="1"/>
</g>
<g class="st5">
	<rect x="360.7" y="182.9" class="st1" width="7.7" height="1"/>
</g>
<g class="st5">
	<rect x="331.6" y="187.2" class="st1" width="7.7" height="1"/>
</g>
<g class="st5">
	<rect x="341.3" y="187.2" class="st1" width="7.7" height="1"/>
</g>
<g class="st5">
	<rect x="351" y="187.2" class="st1" width="7.7" height="1"/>
</g>
<g class="st5">
	<rect x="360.7" y="187.2" class="st1" width="7.7" height="1"/>
</g>
<g class="st5">
	<rect x="341.3" y="191" class="st1" width="7.7" height="1"/>
</g>
<g class="st5">
	<rect x="351" y="191" class="st1" width="7.7" height="1"/>
</g>
<g class="st5">
	<rect x="360.7" y="191" class="st1" width="7.7" height="1"/>
</g>
<g class="st5">
	<rect x="370.4" y="191" class="st1" width="7.7" height="1"/>
</g>
<g class="st5">
	<rect x="341.3" y="194.8" class="st1" width="7.7" height="1"/>
</g>
<g class="st5">
	<rect x="351" y="194.8" class="st1" width="7.7" height="1"/>
</g>
<g class="st5">
	<rect x="360.7" y="194.8" class="st1" width="7.7" height="1"/>
</g>
<g class="st5">
	<rect x="370.4" y="194.8" class="st1" width="7.7" height="1"/>
</g>
<g class="st5">
	<rect x="341.3" y="198.6" class="st1" width="7.7" height="1"/>
</g>
<g class="st5">
	<rect x="351" y="198.6" class="st1" width="7.7" height="1"/>
</g>
<g class="st5">
	<rect x="360.7" y="198.6" class="st1" width="7.7" height="1"/>
</g>
<g class="st5">
	<rect x="370.4" y="198.6" class="st1" width="7.7" height="1"/>
</g>
<g class="st5">
	<rect x="341.3" y="202.4" class="st1" width="7.7" height="1"/>
</g>
<g class="st5">
	<rect x="351" y="202.4" class="st1" width="7.7" height="1"/>
</g>
<g class="st5">
	<rect x="360.7" y="202.4" class="st1" width="7.7" height="1"/>
</g>
<g class="st5">
	<rect x="370.4" y="202.4" class="st1" width="7.7" height="1"/>
</g>
<g class="st5">
	<rect x="331.7" y="206.2" class="st1" width="7.7" height="1"/>
</g>
<g class="st5">
	<rect x="341.4" y="206.2" class="st1" width="7.7" height="1"/>
</g>
<g class="st5">
	<rect x="351" y="206.2" class="st1" width="7.7" height="1"/>
</g>
<g class="st5">
	<rect x="360.7" y="206.2" class="st1" width="7.7" height="1"/>
</g>
<g class="st5">
	<rect x="331.6" y="210" class="st1" width="7.7" height="1"/>
</g>
<g class="st5">
	<rect x="341.3" y="210" class="st1" width="7.7" height="1"/>
</g>
<g class="st5">
	<rect x="351" y="210" class="st1" width="7.7" height="1"/>
</g>
<g class="st5">
	<rect x="360.7" y="210" class="st1" width="7.7" height="1"/>
</g>
<g class="st5">
	<rect x="331.6" y="213.8" class="st1" width="7.7" height="1"/>
</g>
<g class="st5">
	<rect x="341.3" y="213.8" class="st1" width="7.7" height="1"/>
</g>
<g class="st5">
	<rect x="351" y="213.8" class="st1" width="7.7" height="1"/>
</g>
<g class="st5">
	<rect x="360.7" y="213.8" class="st1" width="7.7" height="1"/>
</g>
<g class="st5">
	<rect x="331.6" y="217.6" class="st1" width="7.7" height="1"/>
</g>
<g class="st5">
	<rect x="341.3" y="217.6" class="st1" width="7.7" height="1"/>
</g>
<g class="st5">
	<rect x="351" y="217.6" class="st1" width="7.7" height="1"/>
</g>
<g class="st5">
	<rect x="360.7" y="217.6" class="st1" width="7.7" height="1"/>
</g>
<path class="st6" d="M380.6,392.6H66.8c-3.5,0-7.2-1.8-7.5-6.9v-4.7l34.3-63.5c1.8-3.7,5.6-6.1,9.8-6.1h240.1
	c4.5,0,14.4,8.8,16.4,12.8l28.3,57.8v2.1C388.3,390.2,384.4,392.6,380.6,392.6z"/>
<path class="st3" d="M380.6,386H66.9c-3.5,0-9.2-3.1-7.1-6.8L93.7,311c1.8-3.7,5.6-6.1,9.8-6.1h240.1c4.5,0,8.6,2.5,10.6,6.5
	l33.5,67.1C390,382.8,384.4,386,380.6,386z"/>
<rect x="101" y="151.1" class="st6" width="243.6" height="154"/>
<rect x="105.7" y="156.7" class="st3" width="234.2" height="139"/>
<path class="st7" d="M269.2,383h-92.4c-1,0-1.8-0.9-1.6-1.9l3.9-24.3c0.2-1.3,1.3-2.3,2.7-2.3h83.4c1.2,0,2.2,0.9,2.4,2L271,381
	C271.1,382.1,270.3,383,269.2,383z"/>
<path class="st7" d="M117.4,319.5h-10c-1.4,0-2.4-0.4-2.2-0.9l0.6-1.5c0.2-0.5,1.5-0.9,2.9-0.9h9.9c1.4,0,2.4,0.4,2.2,0.9l-0.5,1.5
	C120.1,319.1,118.8,319.5,117.4,319.5z"/>
<path class="st7" d="M134.3,319.5h-10c-1.4,0-2.4-0.4-2.2-0.9l0.5-1.5c0.2-0.5,1.4-0.9,2.8-0.9h9.9c1.4,0,2.4,0.4,2.2,0.9l-0.4,1.5
	C137,319.1,135.7,319.5,134.3,319.5z"/>
<path class="st7" d="M151.2,319.5h-10c-1.4,0-2.4-0.4-2.3-0.9l0.4-1.5c0.1-0.5,1.4-0.9,2.8-0.9h9.9c1.4,0,2.4,0.4,2.3,0.9l-0.4,1.5
	C153.9,319.1,152.6,319.5,151.2,319.5z"/>
<path class="st7" d="M168.1,319.5h-10c-1.4,0-2.4-0.4-2.3-0.9l0.3-1.5c0.1-0.5,1.3-0.9,2.7-0.9h9.9c1.4,0,2.4,0.4,2.3,0.9l-0.3,1.5
	C170.8,319.1,169.5,319.5,168.1,319.5z"/>
<path class="st7" d="M185.1,319.5h-10c-1.4,0-2.5-0.4-2.4-0.9l0.3-1.5c0.1-0.5,1.3-0.9,2.7-0.9h9.9c1.4,0,2.5,0.4,2.4,0.9l-0.2,1.5
	C187.6,319.1,186.5,319.5,185.1,319.5z"/>
<path class="st7" d="M202,319.5h-10c-1.4,0-2.5-0.4-2.4-0.9l0.2-1.5c0.1-0.5,1.2-0.9,2.6-0.9h9.9c1.4,0,2.5,0.4,2.4,0.9l-0.1,1.5
	C204.5,319.1,203.4,319.5,202,319.5z"/>
<path class="st7" d="M218.9,319.5h-10c-1.4,0-2.5-0.4-2.5-0.9l0.1-1.5c0-0.5,1.2-0.9,2.6-0.9h9.9c1.4,0,2.5,0.4,2.5,0.9l0,1.5
	C221.4,319.1,220.3,319.5,218.9,319.5z"/>
<path class="st7" d="M235.8,319.5h-10c-1.4,0-2.5-0.4-2.5-0.9l0-1.5c0-0.5,1.1-0.9,2.5-0.9h9.9c1.4,0,2.5,0.4,2.6,0.9l0.1,1.5
	C238.3,319.1,237.2,319.5,235.8,319.5z"/>
<path class="st7" d="M252.7,319.5h-10c-1.4,0-2.6-0.4-2.6-0.9l-0.1-1.5c0-0.5,1.1-0.9,2.4-0.9h9.9c1.4,0,2.6,0.4,2.6,0.9l0.2,1.5
	C255.2,319.1,254.1,319.5,252.7,319.5z"/>
<path class="st7" d="M269.6,319.5h-10c-1.4,0-2.6-0.4-2.6-0.9l-0.2-1.5c-0.1-0.5,1-0.9,2.4-0.9h9.9c1.4,0,2.6,0.4,2.7,0.9l0.3,1.5
	C272.1,319.1,271,319.5,269.6,319.5z"/>
<path class="st7" d="M286.6,319.5h-10c-1.4,0-2.6-0.4-2.7-0.9l-0.3-1.5c-0.1-0.5,1-0.9,2.3-0.9h9.9c1.4,0,2.6,0.4,2.7,0.9l0.4,1.5
	C289,319.1,287.9,319.5,286.6,319.5z"/>
<path class="st7" d="M303.5,319.5h-10c-1.4,0-2.6-0.4-2.8-0.9l-0.4-1.5c-0.1-0.5,0.9-0.9,2.3-0.9h9.9c1.4,0,2.6,0.4,2.8,0.9l0.4,1.5
	C305.9,319.1,304.9,319.5,303.5,319.5z"/>
<path class="st7" d="M320.4,319.5h-10c-1.4,0-2.7-0.4-2.8-0.9l-0.4-1.5c-0.1-0.5,0.8-0.9,2.2-0.9h9.9c1.4,0,2.6,0.4,2.8,0.9l0.5,1.5
	C322.8,319.1,321.8,319.5,320.4,319.5z"/>
<path class="st7" d="M337.3,319.5h-10c-1.4,0-2.7-0.4-2.9-0.9l-0.5-1.5c-0.2-0.5,0.8-0.9,2.2-0.9h9.9c1.4,0,2.7,0.4,2.9,0.9l0.6,1.5
	C339.7,319.1,338.7,319.5,337.3,319.5z"/>
<path class="st7" d="M116.5,325.1h-12.8c-0.3,0-0.5-0.1-0.5-0.2l1.9-4.7c0-0.1,0.3-0.2,0.7-0.2h12.6c0.3,0,0.5,0.1,0.5,0.2l-1.7,4.7
	C117.1,325,116.8,325.1,116.5,325.1z"/>
<path class="st7" d="M140.1,331.2H127c-0.3,0-0.6-0.1-0.5-0.2l1.6-4.9c0-0.1,0.3-0.2,0.6-0.2h12.8c0.3,0,0.6,0.1,0.5,0.2l-1.3,4.9
	C140.7,331.1,140.4,331.2,140.1,331.2z"/>
<path class="st7" d="M142.2,337.6h-13.3c-0.3,0-0.6-0.1-0.5-0.2l1.6-5.1c0-0.1,0.3-0.2,0.7-0.2h13.1c0.3,0,0.6,0.1,0.5,0.2l-1.3,5.1
	C142.9,337.5,142.6,337.6,142.2,337.6z"/>
<path class="st7" d="M149.8,344.3h-13.6c-0.3,0-0.6-0.1-0.5-0.2l1.5-5.3c0-0.1,0.3-0.2,0.7-0.2h13.4c0.3,0,0.6,0.1,0.5,0.2l-1.2,5.3
	C150.4,344.2,150.1,344.3,149.8,344.3z"/>
<path class="st7" d="M106.7,352.1H92.8c-0.4,0-0.6-0.1-0.6-0.3l2.6-6.3c0.1-0.1,0.4-0.3,0.8-0.3h13.6c0.4,0,0.6,0.1,0.6,0.3
	l-2.3,6.3C107.4,352,107.1,352.1,106.7,352.1z"/>
<path class="st7" d="M125.3,352.1h-13.9c-0.4,0-0.6-0.1-0.6-0.3l2.2-6.3c0.1-0.1,0.4-0.3,0.7-0.3h13.6c0.4,0,0.6,0.1,0.6,0.3
	l-1.9,6.3C126,352,125.7,352.1,125.3,352.1z"/>
<path class="st7" d="M143.3,352.1h-13.9c-0.4,0-0.6-0.1-0.6-0.3l1.8-6.3c0-0.1,0.4-0.3,0.7-0.3H145c0.4,0,0.6,0.1,0.6,0.3l-1.5,6.3
	C144,352,143.7,352.1,143.3,352.1z"/>
<path class="st7" d="M166,352.1h-18.3c-0.4,0-0.7-0.1-0.7-0.3l1.5-6.2c0-0.2,0.4-0.3,0.8-0.3h17.9c0.4,0,0.7,0.1,0.7,0.3l-1.1,6.2
	C166.8,352,166.4,352.1,166,352.1z"/>
<path class="st7" d="M278.8,352.1h-18.3c-0.4,0-0.8-0.1-0.8-0.3l-0.7-6.2c0-0.2,0.3-0.3,0.7-0.3h17.9c0.4,0,0.8,0.1,0.8,0.3l1.1,6.2
	C279.6,352,279.2,352.1,278.8,352.1z"/>
<path class="st7" d="M297.4,352.1h-13.7c-0.4,0-0.7-0.1-0.7-0.3l-1.2-6.3c0-0.1,0.2-0.3,0.6-0.3h13.4c0.4,0,0.7,0.1,0.7,0.3l1.5,6.3
	C298,352,297.8,352.1,297.4,352.1z"/>
<path class="st7" d="M255.9,352.1h-84.6c-0.9,0-1.6-0.3-1.5-0.7l0.9-5.6c0.1-0.3,0.8-0.6,1.7-0.6h82.8c0.9,0,1.6,0.3,1.6,0.6
	l0.6,5.6C257.5,351.8,256.8,352.1,255.9,352.1z"/>
<path class="st7" d="M167.5,344.3h-13.6c-0.3,0-0.6-0.1-0.6-0.2l1.2-5.3c0-0.1,0.3-0.2,0.7-0.2h13.4c0.3,0,0.6,0.1,0.6,0.2l-0.9,5.3
	C168.1,344.2,167.8,344.3,167.5,344.3z"/>
<path class="st7" d="M185.2,344.3h-13.6c-0.3,0-0.6-0.1-0.6-0.2l0.9-5.3c0-0.1,0.3-0.2,0.6-0.2h13.4c0.3,0,0.6,0.1,0.6,0.2l-0.6,5.3
	C185.8,344.2,185.5,344.3,185.2,344.3z"/>
<path class="st7" d="M202.9,344.3h-13.6c-0.3,0-0.6-0.1-0.6-0.2l0.6-5.3c0-0.1,0.3-0.2,0.6-0.2h13.4c0.3,0,0.6,0.1,0.6,0.2l-0.3,5.3
	C203.5,344.2,203.2,344.3,202.9,344.3z"/>
<path class="st7" d="M220.6,344.3H207c-0.3,0-0.6-0.1-0.6-0.2l0.3-5.3c0-0.1,0.3-0.2,0.6-0.2h13.4c0.3,0,0.6,0.1,0.6,0.2l0,5.3
	C221.2,344.2,220.9,344.3,220.6,344.3z"/>
<path class="st7" d="M238.3,344.3h-13.6c-0.3,0-0.6-0.1-0.6-0.2l0-5.3c0-0.1,0.3-0.2,0.6-0.2H238c0.3,0,0.6,0.1,0.6,0.2l0.3,5.3
	C238.9,344.2,238.7,344.3,238.3,344.3z"/>
<path class="st7" d="M256,344.3h-13.6c-0.3,0-0.6-0.1-0.6-0.2l-0.3-5.3c0-0.1,0.3-0.2,0.6-0.2h13.4c0.3,0,0.6,0.1,0.6,0.2l0.6,5.3
	C256.6,344.2,256.4,344.3,256,344.3z"/>
<path class="st7" d="M273.7,344.3h-13.6c-0.3,0-0.6-0.1-0.6-0.2l-0.6-5.3c0-0.1,0.2-0.2,0.6-0.2h13.4c0.3,0,0.6,0.1,0.6,0.2l0.9,5.3
	C274.3,344.2,274.1,344.3,273.7,344.3z"/>
<path class="st7" d="M291.4,344.3h-13.6c-0.3,0-0.6-0.1-0.7-0.2l-0.9-5.3c0-0.1,0.2-0.2,0.6-0.2h13.4c0.3,0,0.6,0.1,0.7,0.2l1.2,5.3
	C292,344.2,291.8,344.3,291.4,344.3z"/>
<path class="st7" d="M313.8,352.2h-10.6c-1.4,0-2.6-0.4-2.7-1l-0.4-1.6c-0.1-0.5,0.8-1,2.2-1h10.5c1.3,0,2.5,0.4,2.7,1l0.5,1.6
	C316.1,351.8,315.2,352.2,313.8,352.2z"/>
<path class="st7" d="M332,352.2h-10.6c-1.4,0-2.6-0.4-2.7-1l-0.5-1.6c-0.2-0.5,0.8-1,2.1-1h10.5c1.3,0,2.6,0.4,2.8,1l0.6,1.6
	C334.3,351.8,333.4,352.2,332,352.2z"/>
<path class="st7" d="M330.6,348.2h-10.5c-1.3,0-2.5-0.4-2.7-1l-0.5-1.6c-0.2-0.5,0.8-1,2.1-1h10.4c1.3,0,2.5,0.4,2.7,1l0.5,1.6
	C332.9,347.8,332,348.2,330.6,348.2z"/>
<path class="st7" d="M350.2,352.2h-10.6c-1.4,0-2.6-0.4-2.8-1l-0.6-1.6c-0.2-0.5,0.7-1,2.1-1h10.5c1.3,0,2.6,0.4,2.8,1l0.7,1.6
	C352.5,351.8,351.6,352.2,350.2,352.2z"/>
<path class="st7" d="M159.7,337.6h-13.3c-0.3,0-0.6-0.1-0.5-0.2l1.3-5.1c0-0.1,0.3-0.2,0.6-0.2h13.1c0.3,0,0.6,0.1,0.5,0.2l-1,5.1
	C160.4,337.5,160.1,337.6,159.7,337.6z"/>
<path class="st7" d="M177.2,337.6h-13.3c-0.3,0-0.6-0.1-0.6-0.2l1-5.1c0-0.1,0.3-0.2,0.6-0.2H178c0.3,0,0.6,0.1,0.6,0.2l-0.7,5.1
	C177.8,337.5,177.6,337.6,177.2,337.6z"/>
<path class="st7" d="M194.7,337.6h-13.3c-0.3,0-0.6-0.1-0.6-0.2l0.7-5.1c0-0.1,0.3-0.2,0.6-0.2h13.1c0.3,0,0.6,0.1,0.6,0.2l-0.4,5.1
	C195.3,337.5,195.1,337.6,194.7,337.6z"/>
<path class="st7" d="M212.1,337.6h-13.3c-0.3,0-0.6-0.1-0.6-0.2l0.4-5.1c0-0.1,0.3-0.2,0.6-0.2h13.1c0.3,0,0.6,0.1,0.6,0.2l-0.2,5.1
	C212.7,337.5,212.4,337.6,212.1,337.6z"/>
<path class="st7" d="M229.6,337.6h-13.3c-0.3,0-0.6-0.1-0.6-0.2l0.1-5.1c0-0.1,0.3-0.2,0.6-0.2h13.1c0.3,0,0.6,0.1,0.6,0.2l0.1,5.1
	C230.2,337.5,229.9,337.6,229.6,337.6z"/>
<path class="st7" d="M246.3,337.6H233c-0.3,0-0.6-0.1-0.6-0.2l-0.2-5.1c0-0.1,0.3-0.2,0.6-0.2h13.1c0.3,0,0.6,0.1,0.6,0.2l0.4,5.1
	C246.9,337.5,246.7,337.6,246.3,337.6z"/>
<path class="st7" d="M263.7,337.6h-13.3c-0.3,0-0.6-0.1-0.6-0.2l-0.5-5.1c0-0.1,0.2-0.2,0.6-0.2h13.1c0.3,0,0.6,0.1,0.6,0.2l0.7,5.1
	C264.3,337.5,264,337.6,263.7,337.6z"/>
<path class="st7" d="M281,337.6h-13.3c-0.3,0-0.6-0.1-0.6-0.2l-0.8-5.1c0-0.1,0.2-0.2,0.6-0.2h13.1c0.3,0,0.6,0.1,0.6,0.2l1,5.1
	C281.6,337.5,281.3,337.6,281,337.6z"/>
<path class="st7" d="M298.2,337.6h-13.3c-0.3,0-0.6-0.1-0.6-0.2l-1-5.1c0-0.1,0.2-0.2,0.5-0.2h13.1c0.3,0,0.6,0.1,0.6,0.2l1.3,5.1
	C298.8,337.5,298.6,337.6,298.2,337.6z"/>
<path class="st7" d="M315.5,337.6h-13.3c-0.3,0-0.6-0.1-0.7-0.2l-1.3-5.1c0-0.1,0.2-0.2,0.5-0.2h13.1c0.3,0,0.6,0.1,0.7,0.2l1.6,5.1
	C316,337.5,315.8,337.6,315.5,337.6z"/>
<path class="st7" d="M309,344.3h-13.6c-0.3,0-0.6-0.1-0.7-0.2l-1.2-5.3c0-0.1,0.2-0.2,0.5-0.2h13.4c0.3,0,0.6,0.1,0.7,0.2l1.5,5.3
	C309.6,344.2,309.3,344.3,309,344.3z"/>
<path class="st7" d="M346,337.6h-25.8c-0.5,0-0.9-0.1-0.9-0.3l-1.6-4.9c-0.1-0.2,0.3-0.3,0.7-0.3h25.3c0.4,0,0.9,0.1,0.9,0.3l2,4.9
	C346.7,337.5,346.4,337.6,346,337.6z"/>
<path class="st7" d="M348.6,344.3h-35.3c-0.5,0-1-0.2-1.1-0.4l-1.5-5c-0.1-0.2,0.3-0.4,0.8-0.4h34.7c0.5,0,1,0.2,1.1,0.4l2.1,5
	C349.5,344.2,349.1,344.3,348.6,344.3z"/>
<path class="st7" d="M124.9,337.6h-26c-0.5,0-0.8-0.1-0.7-0.3l2-4.9c0.1-0.2,0.5-0.3,0.9-0.3h25.6c0.5,0,0.8,0.1,0.7,0.3l-1.5,4.9
	C125.8,337.5,125.4,337.6,124.9,337.6z"/>
<path class="st7" d="M131.8,344.3H96c-0.5,0-0.9-0.2-0.8-0.4l2-5c0.1-0.2,0.6-0.4,1.1-0.4h35.2c0.5,0,0.9,0.2,0.9,0.4l-1.4,5
	C132.9,344.2,132.4,344.3,131.8,344.3z"/>
<path class="st7" d="M157.1,331.2h-13.1c-0.3,0-0.6-0.1-0.5-0.2l1.3-4.9c0-0.1,0.3-0.2,0.6-0.2h12.8c0.3,0,0.6,0.1,0.5,0.2l-1,4.9
	C157.8,331.1,157.5,331.2,157.1,331.2z"/>
<path class="st7" d="M174.1,331.2H161c-0.3,0-0.6-0.1-0.5-0.2l1-4.9c0-0.1,0.3-0.2,0.6-0.2h12.8c0.3,0,0.6,0.1,0.5,0.2l-0.8,4.9
	C174.7,331.1,174.4,331.2,174.1,331.2z"/>
<path class="st7" d="M191.1,331.2h-13.1c-0.3,0-0.6-0.1-0.6-0.2l0.7-4.9c0-0.1,0.3-0.2,0.6-0.2h12.8c0.3,0,0.6,0.1,0.6,0.2l-0.5,4.9
	C191.7,331.1,191.4,331.2,191.1,331.2z"/>
<path class="st7" d="M208.2,331.2h-13.1c-0.3,0-0.6-0.1-0.6-0.2l0.4-4.9c0-0.1,0.3-0.2,0.6-0.2h12.8c0.3,0,0.6,0.1,0.6,0.2l-0.2,4.9
	C208.8,331.1,208.5,331.2,208.2,331.2z"/>
<path class="st7" d="M225.1,331.2H212c-0.3,0-0.6-0.1-0.6-0.2l0.2-4.9c0-0.1,0.3-0.2,0.6-0.2H225c0.3,0,0.6,0.1,0.6,0.2l0.1,4.9
	C225.7,331.1,225.4,331.2,225.1,331.2z"/>
<path class="st7" d="M241.6,331.2h-13.1c-0.3,0-0.6-0.1-0.6-0.2l-0.1-4.9c0-0.1,0.3-0.2,0.6-0.2h12.8c0.3,0,0.6,0.1,0.6,0.2l0.3,4.9
	C242.2,331.1,242,331.2,241.6,331.2z"/>
<path class="st7" d="M258.8,331.2h-13.1c-0.3,0-0.6-0.1-0.6-0.2l-0.4-4.9c0-0.1,0.2-0.2,0.6-0.2h12.8c0.3,0,0.6,0.1,0.6,0.2l0.6,4.9
	C259.4,331.1,259.1,331.2,258.8,331.2z"/>
<path class="st7" d="M275.8,331.2h-13.1c-0.3,0-0.6-0.1-0.6-0.2l-0.7-4.9c0-0.1,0.2-0.2,0.5-0.2h12.8c0.3,0,0.6,0.1,0.6,0.2l0.9,4.9
	C276.4,331.1,276.1,331.2,275.8,331.2z"/>
<path class="st7" d="M292.5,331.2h-13.1c-0.3,0-0.6-0.1-0.6-0.2l-0.9-4.9c0-0.1,0.2-0.2,0.5-0.2h12.8c0.3,0,0.6,0.1,0.6,0.2l1.2,4.9
	C293,331.1,292.8,331.2,292.5,331.2z"/>
<path class="st7" d="M309.9,331.2h-13.1c-0.3,0-0.6-0.1-0.6-0.2l-1.2-4.9c0-0.1,0.2-0.2,0.5-0.2h12.8c0.3,0,0.6,0.1,0.6,0.2l1.4,4.9
	C310.4,331.1,310.2,331.2,309.9,331.2z"/>
<path class="st7" d="M326.5,331.2h-13.1c-0.3,0-0.6-0.1-0.7-0.2l-1.5-4.9c0-0.1,0.2-0.2,0.5-0.2h12.8c0.3,0,0.6,0.1,0.7,0.2l1.7,4.9
	C327,331.1,326.8,331.2,326.5,331.2z"/>
<path class="st7" d="M343.6,331.2h-13.1c-0.3,0-0.6-0.1-0.7-0.2l-1.8-4.9c0-0.1,0.2-0.2,0.5-0.2h12.8c0.3,0,0.6,0.1,0.7,0.2l2,4.9
	C344.1,331.1,343.9,331.2,343.6,331.2z"/>
<path class="st7" d="M133.4,325.1h-12.8c-0.3,0-0.5-0.1-0.5-0.2l1.6-4.7c0-0.1,0.3-0.2,0.6-0.2H135c0.3,0,0.5,0.1,0.5,0.2l-1.4,4.7
	C134,325,133.7,325.1,133.4,325.1z"/>
<path class="st7" d="M149.8,325.1H137c-0.3,0-0.5-0.1-0.5-0.2l1.4-4.7c0-0.1,0.3-0.2,0.6-0.2h12.6c0.3,0,0.5,0.1,0.5,0.2l-1.1,4.7
	C150.4,325,150.1,325.1,149.8,325.1z"/>
<path class="st7" d="M166.7,325.1h-12.8c-0.3,0-0.6-0.1-0.5-0.2l1.1-4.7c0-0.1,0.3-0.2,0.6-0.2h12.6c0.3,0,0.5,0.1,0.5,0.2l-0.9,4.7
	C167.2,325,167,325.1,166.7,325.1z"/>
<path class="st7" d="M183.1,325.1h-12.8c-0.3,0-0.6-0.1-0.5-0.2l0.8-4.7c0-0.1,0.3-0.2,0.6-0.2h12.6c0.3,0,0.6,0.1,0.5,0.2l-0.6,4.7
	C183.6,325,183.4,325.1,183.1,325.1z"/>
<path class="st7" d="M200,325.1h-12.8c-0.3,0-0.6-0.1-0.6-0.2l0.6-4.7c0-0.1,0.3-0.2,0.6-0.2h12.6c0.3,0,0.6,0.1,0.6,0.2l-0.3,4.7
	C200.6,325,200.3,325.1,200,325.1z"/>
<path class="st7" d="M216.2,325.1h-12.8c-0.3,0-0.6-0.1-0.6-0.2l0.3-4.7c0-0.1,0.3-0.2,0.6-0.2h12.6c0.3,0,0.6,0.1,0.6,0.2l-0.1,4.7
	C216.8,325,216.6,325.1,216.2,325.1z"/>
<path class="st7" d="M233.1,325.1h-12.8c-0.3,0-0.6-0.1-0.6-0.2l0-4.7c0-0.1,0.3-0.2,0.6-0.2h12.6c0.3,0,0.6,0.1,0.6,0.2l0.2,4.7
	C233.7,325,233.5,325.1,233.1,325.1z"/>
<path class="st7" d="M249.5,325.1h-12.8c-0.3,0-0.6-0.1-0.6-0.2l-0.2-4.7c0-0.1,0.2-0.2,0.6-0.2h12.6c0.3,0,0.6,0.1,0.6,0.2l0.5,4.7
	C250.1,325,249.9,325.1,249.5,325.1z"/>
<path class="st7" d="M266.4,325.1h-12.8c-0.3,0-0.6-0.1-0.6-0.2l-0.5-4.7c0-0.1,0.2-0.2,0.5-0.2h12.6c0.3,0,0.6,0.1,0.6,0.2l0.7,4.7
	C267,325,266.7,325.1,266.4,325.1z"/>
<path class="st7" d="M283.2,325.1h-12.8c-0.3,0-0.6-0.1-0.6-0.2l-0.8-4.7c0-0.1,0.2-0.2,0.5-0.2h12.6c0.3,0,0.6,0.1,0.6,0.2l1,4.7
	C283.8,325,283.6,325.1,283.2,325.1z"/>
<path class="st7" d="M299.9,325.1h-12.8c-0.3,0-0.6-0.1-0.6-0.2l-1-4.7c0-0.1,0.2-0.2,0.5-0.2h12.6c0.3,0,0.6,0.1,0.6,0.2l1.3,4.7
	C300.4,325,300.2,325.1,299.9,325.1z"/>
<path class="st7" d="M315.9,325.1h-12.8c-0.3,0-0.6-0.1-0.6-0.2l-1.3-4.7c0-0.1,0.2-0.2,0.5-0.2h12.6c0.3,0,0.6,0.1,0.6,0.2l1.5,4.7
	C316.4,325,316.2,325.1,315.9,325.1z"/>
<path class="st7" d="M339.9,325.1h-19.1c-0.9,0-1.7-0.3-1.8-0.6l-1.3-3.9c-0.1-0.3,0.5-0.6,1.4-0.6h18.8c0.9,0,1.7,0.3,1.8,0.6
	l1.6,3.9C341.4,324.8,340.8,325.1,339.9,325.1z"/>
<path class="st7" d="M121.8,331.2h-19.5c-0.9,0-1.5-0.3-1.4-0.6l1.7-4.1c0.1-0.3,1-0.6,1.9-0.6h19.2c0.9,0,1.5,0.3,1.4,0.6l-1.3,4.1
	C123.5,331,122.7,331.2,121.8,331.2z"/>
<g>
	<g>
		<rect x="117.7" y="183.5" class="st1" width="104.8" height="2.9"/>
	</g>
	<g>
		<rect x="225" y="183.5" class="st1" width="101.8" height="2.9"/>
	</g>
	<g class="st5">
		<rect x="117.3" y="189.7" class="st1" width="32.1" height="19.6"/>
	</g>
	<g>
		<rect x="153" y="189.7" class="st1" width="32.1" height="19.6"/>
	</g>
	<g class="st5">
		<rect x="188.6" y="189.7" class="st1" width="32.1" height="19.6"/>
	</g>
	<g class="st5">
		<rect x="294.7" y="189.5" class="st1" width="32.1" height="19.6"/>
	</g>
	<g class="st5">
		<rect x="223.6" y="189.7" class="st1" width="32.1" height="19.6"/>
	</g>
	<g>
		<rect x="259.2" y="189.7" class="st1" width="32.1" height="19.6"/>
	</g>
	<g>
		<circle class="st1" cx="118.7" cy="169.8" r="3.6"/>
	</g>
	<g class="st5">
		<circle class="st1" cx="128.4" cy="169.8" r="3.6"/>
	</g>
	<g class="st5">
		<circle class="st1" cx="138.1" cy="169.8" r="3.6"/>
	</g>
	<g class="st5">
		<rect x="117.7" y="214.1" class="st1" width="43.6" height="1.8"/>
	</g>
	<g class="st5">
		<rect x="117.7" y="218.3" class="st1" width="104.3" height="1.6"/>
	</g>
	<g class="st5">
		<rect x="117.7" y="222" class="st1" width="104.3" height="1.6"/>
	</g>
	<g class="st5">
		<rect x="117.7" y="225.7" class="st1" width="104.3" height="1.6"/>
	</g>
	<g class="st5">
		<rect x="229" y="213.3" class="st1" width="36.9" height="1.8"/>
	</g>
	<g class="st5">
		<rect x="229" y="218.3" class="st1" width="97.8" height="1.6"/>
	</g>
	<g class="st5">
		<rect x="229" y="222" class="st1" width="97.8" height="1.6"/>
	</g>
	<g class="st5">
		<rect x="229" y="228.2" class="st1" width="97.8" height="1.6"/>
	</g>
	<g class="st5">
		<rect x="229" y="234.5" class="st1" width="88.4" height="1.6"/>
	</g>
	<g class="st5">
		<rect x="229" y="238.8" class="st1" width="88.4" height="1.6"/>
	</g>
	<g class="st5">
		<rect x="229" y="243.1" class="st1" width="88.4" height="1.6"/>
	</g>
	<g class="st5">
		<rect x="229" y="247.5" class="st1" width="88.4" height="1.6"/>
	</g>
	<g class="st5">
		<rect x="229" y="251.8" class="st1" width="88.4" height="1.6"/>
	</g>
	<g>
		<rect x="117.7" y="231.1" class="st1" width="104.3" height="1.6"/>
	</g>
	<g>
		<rect x="117.7" y="234.5" class="st1" width="104.3" height="1.6"/>
	</g>
	<g class="st5">
		<rect x="118" y="261.4" class="st1" width="104.3" height="1.6"/>
	</g>
	<g class="st5">
		<rect x="118" y="266.8" class="st1" width="104.3" height="1.6"/>
	</g>
	<g class="st5">
		<rect x="118" y="272.3" class="st1" width="104.3" height="1.6"/>
	</g>
	<g class="st5">
		<rect x="118" y="276.1" class="st1" width="208.8" height="1.6"/>
	</g>
	<g class="st5">
		<rect x="118" y="279.9" class="st1" width="208.8" height="1.6"/>
	</g>
	<g class="st5">
		<rect x="118" y="283.9" class="st1" width="208.8" height="1.6"/>
	</g>
	<g>
		<rect x="118" y="238.8" class="st1" width="104.3" height="1.6"/>
	</g>
	<g>
		<rect x="118.2" y="242.7" class="st1" width="32" height="1.6"/>
	</g>
	<g>
		<rect x="118.2" y="245.5" class="st1" width="32" height="1.6"/>
	</g>
	<g>
		<rect x="118.2" y="250.1" class="st1" width="32.6" height="7.9"/>
	</g>
	<g>
		<rect x="156.4" y="250.1" class="st1" width="32.6" height="7.9"/>
	</g>
	<g class="st5">
		<rect x="229" y="256.8" class="st1" width="32.6" height="12.6"/>
	</g>
	<g class="st5">
		<rect x="265.1" y="256.8" class="st1" width="32.6" height="12.6"/>
	</g>
	<g>
		<rect x="301.1" y="256.8" class="st1" width="16.3" height="12.6"/>
	</g>
	<g class="st5">
		<path class="st1" d="M323.9,173.4H151.7c-1.8,0-3.2-1.4-3.2-3.2l0,0c0-1.8,1.5-3.2,3.2-3.2h172.2c1.8,0,3.2,1.4,3.2,3.2l0,0
			C327.1,172,325.6,173.4,323.9,173.4z"/>
	</g>
</g>
<path class="st6" d="M466.7,415.2H297.4c-7.3,0-13.2-5.9-13.2-13.2v-99.6c0-7.3,5.9-13.2,13.2-13.2h169.3c7.3,0,13.2,5.9,13.2,13.2
	V402C479.9,409.2,474,415.2,466.7,415.2z"/>
<rect x="299.7" y="292.2" class="st3" width="161.9" height="119.1"/>
<circle class="st3" cx="471.1" cy="353.3" r="5"/>
<g class="st5">
	<rect x="307.5" y="381" class="st1" width="4.1" height="21.1"/>
</g>
<g class="st5">
	<rect x="314.5" y="378.8" class="st1" width="4.1" height="23.3"/>
</g>
<g class="st5">
	<rect x="321.5" y="377.4" class="st1" width="4.1" height="24.7"/>
</g>
<g class="st5">
	<rect x="328.6" y="382" class="st1" width="4.1" height="20.1"/>
</g>
<g class="st5">
	<rect x="335.6" y="374.8" class="st1" width="4.1" height="27.4"/>
</g>
<g class="st5">
	<rect x="342.7" y="383" class="st1" width="4.1" height="19.1"/>
</g>
<g class="st5">
	<rect x="349.7" y="385.3" class="st1" width="4.1" height="16.8"/>
</g>
<g class="st5">
	<rect x="356.8" y="378.8" class="st1" width="4.1" height="23.3"/>
</g>
<g class="st5">
	<rect x="363.8" y="370.6" class="st1" width="4.1" height="31.5"/>
</g>
<g class="st5">
	<rect x="370.8" y="382" class="st1" width="4.1" height="20.1"/>
</g>
<g class="st5">
	<rect x="377.9" y="383.7" class="st1" width="4.1" height="18.4"/>
</g>
<g class="st5">
	<rect x="420.4" y="370.6" class="st1" width="4.1" height="31.5"/>
</g>
<g class="st5">
	<rect x="427.4" y="382" class="st1" width="4.1" height="20.1"/>
</g>
<g class="st5">
	<rect x="434.5" y="383.7" class="st1" width="4.1" height="18.4"/>
</g>
<g class="st5">
	<rect x="441.4" y="383.7" class="st1" width="4.1" height="18.4"/>
</g>
<g class="st5">
	<rect x="448.3" y="383.7" class="st1" width="4.1" height="18.4"/>
</g>
<g class="st5">
	<rect x="384.9" y="386" class="st1" width="4.1" height="16.1"/>
</g>
<g class="st5">
	<rect x="392" y="379.6" class="st1" width="4.1" height="22.5"/>
</g>
<g class="st5">
	<rect x="399" y="382" class="st1" width="4.1" height="20.1"/>
</g>
<g class="st5">
	<rect x="406.1" y="381" class="st1" width="4.1" height="21.1"/>
</g>
<g class="st5">
	<rect x="413.1" y="377.4" class="st1" width="4.1" height="24.7"/>
</g>
<g>
	<g class="st5">
		<path class="st1" d="M322.9,335.2V351h15.7c-0.1,8.5-7,15.5-15.7,15.5c-8.6,0-15.7-7-15.7-15.7
			C307.3,342.2,314.3,335.2,322.9,335.2z"/>
	</g>
	<g class="st5">
		<path class="st1" d="M325,333.2c8.5,0,15.3,7,15.3,15.6c0,0,0,0.1,0,0.1H325V333.2z"/>
	</g>
</g>
<g>
	<g class="st5">
		<path class="st1" d="M329,305.8l4.4-2.8c-0.4-0.5-0.7-0.9-1.2-1.4c-1.1-1.1-2.5-2-3.9-2.7c-1.4-0.6-2.8-0.9-4.3-1v5.2
			C325.9,303.3,327.8,304.3,329,305.8z"/>
	</g>
	<g class="st5">
		<path class="st1" d="M321.5,305.5v-5.2c-1.5,0.1-2.9,0.4-4.3,1c-1.5,0.6-2.8,1.5-3.9,2.7c-0.4,0.4-0.8,0.9-1.2,1.4l4.4,2.8
			C317.7,306.7,319.5,305.7,321.5,305.5z"/>
	</g>
	<g class="st5">
		<path class="st1" d="M329.3,312.7c0,1.1-0.3,2.2-0.7,3.1l4.4,2.8c0.2-0.4,0.4-0.7,0.5-1.1c0.6-1.5,1-3.2,1-4.8
			c0-1.7-0.3-3.3-1-4.8c-0.2-0.6-0.5-1.1-0.9-1.7l-4.4,2.8C328.9,310.1,329.3,311.4,329.3,312.7z"/>
	</g>
	<g class="st5">
		<path class="st1" d="M322.6,320v5.2c1.5-0.1,2.9-0.4,4.3-1c1.5-0.6,2.8-1.5,3.9-2.7c0.6-0.6,1.1-1.2,1.6-1.9l-4.3-2.8
			C326.8,318.6,324.9,319.8,322.6,320z"/>
	</g>
	<g class="st5">
		<path class="st1" d="M314.8,312.7c0-1.4,0.4-2.6,1-3.7l-4.4-2.8c-0.3,0.5-0.6,1.1-0.9,1.7c-0.6,1.5-1,3.2-1,4.8
			c0,1.7,0.3,3.3,1,4.8c0.2,0.4,0.3,0.7,0.5,1.1l4.4-2.8C315.1,314.9,314.8,313.9,314.8,312.7z"/>
	</g>
	<g class="st5">
		<path class="st1" d="M316.1,316.8l-4.4,2.8c0.5,0.7,1,1.3,1.6,1.9c1.1,1.1,2.5,2,3.9,2.7c1.4,0.6,2.8,0.9,4.3,1V320
			C319.2,319.8,317.3,318.6,316.1,316.8z"/>
	</g>
</g>
<g class="st5">
	<polygon class="st1" points="431.8,362.3 376.9,362.3 376.9,309 378,309 378,361.6 431.8,361.6 	"/>
	<g>
		<path class="st1" d="M377.7,301.3c-1.3,3.4-3.4,7.6-5.7,10.2l5.7-2l5.7,2C381.1,308.8,378.9,304.6,377.7,301.3z"/>
	</g>
	<g>
		<path class="st1" d="M438.6,361.8c-3.4,1.3-7.6,3.4-10.2,5.7l2-5.7l-2-5.7C431,358.4,435.2,360.5,438.6,361.8z"/>
	</g>
</g>
<g class="st5">
	<rect x="385.1" y="333.1" class="st1" width="6.7" height="27.8"/>
</g>
<g class="st5">
	<rect x="400.8" y="325.3" class="st1" width="6.7" height="35.6"/>
</g>
<g class="st5">
	<rect x="417.2" y="318.4" class="st1" width="6.7" height="42.5"/>
</g>
</svg>
