<?xml version="1.0" encoding="utf-8"?>
<!-- Generator: Adobe Illustrator 21.0.0, SVG Export Plug-In . SVG Version: 6.00 Build 0)  -->
<svg version="1.1" id="Layer_1" xmlns="http://www.w3.org/2000/svg" xmlns:xlink="http://www.w3.org/1999/xlink" x="0px" y="0px"
	 viewBox="0 0 500 500" style="enable-background:new 0 0 500 500;" xml:space="preserve">
<style type="text/css">
	.st0{fill:#FFFFFF;}
	.st1{fill:#F76031;}
	.st2{fill:#FFD11D;}
	.st3{fill:#161D21;}
	.st4{fill:#B0B0B0;}
	.st5{fill:url(#SVGID_1_);}
	.st6{fill-rule:evenodd;clip-rule:evenodd;fill:#FFD11D;}
	.st7{fill-rule:evenodd;clip-rule:evenodd;fill:#FFFFFF;}
</style>
<g>
	<g>
		<g>
			<path class="st0" d="M35.9,257.3c-0.7-59.5,22.8-119.1,69.8-162.6c47-43.5,108.2-62.4,167.5-57.1l1.6-1.5
				c-4.1-0.4-8.3-0.7-12.5-0.8C203.6,33,147.7,53.7,104.6,93.5c-43,39.9-68,94.1-70.2,152.7c-0.2,4.2-0.2,8.3-0.1,12.5L35.9,257.3z"
				/>
			<path class="st0" d="M442.1,144.5l1.2-1.1c-8-13.5-17.4-26.3-28.3-38c-15.5-16.8-33.2-30.7-52.5-41.7l-1.2,1.1
				c19.1,10.8,36.9,24.7,52.6,41.6C424.9,118.3,434.3,131.1,442.1,144.5z"/>
			<path class="st0" d="M470.2,227.5c8.4,67.3-14.6,137.6-68.1,187.2c-88.2,81.7-226.5,76.4-308.2-11.8
				c-15.7-17-28.2-35.8-37.5-55.6l-1.2,1.1c9.5,20.1,22.1,38.8,37.6,55.5c39.9,43,94.1,68,152.7,70.2
				c58.6,2.2,114.6-18.5,157.6-58.3c43-39.9,68-94.1,70.2-152.7c0.5-12.5-0.1-24.8-1.7-36.9L470.2,227.5z"/>
		</g>
		<g>
			<path class="st0" d="M95.3,167.8c6.7-12.2,14.8-23.7,24.5-34.5c65.5-72.4,176.8-79.3,250.8-16.6l1-1.1
				c-35.4-30-80.2-45.2-126.7-42.9c-48.6,2.4-93.4,23.6-126.1,59.7c-9.9,10.9-18.3,22.8-25.2,35.4H95.3z"/>
			<path class="st0" d="M73.5,244.2h-1.5c-0.4,6.4-0.4,12.9-0.1,19.4c2.3,46.6,21.9,89.6,55.2,121.9l1-1.1
				C89,346.7,70.6,295,73.5,244.2z"/>
			<path class="st0" d="M414.1,167.8c-1.8-3.4-3.8-6.7-5.8-9.9l-1.1,1.2c1.8,2.9,3.5,5.8,5.1,8.8H414.1z"/>
			<path class="st0" d="M435.8,244.2h-1.5c2.7,46.7-12.6,94.4-46.4,131.8c-55.4,61.2-143.5,75.6-214.1,40.7l-1.1,1.2
				c27.6,13.8,58.5,20.3,90.1,18.8c48.6-2.4,93.4-23.6,126.1-59.7c32.7-36.1,49.3-82.7,46.9-131.3
				C435.8,245.2,435.8,244.7,435.8,244.2z"/>
		</g>
		<g>
			<path class="st0" d="M327.6,435.8c2.7-1.1,5.3-2.3,7.9-3.5l-0.6-1.3c-2.6,1.2-5.2,2.4-7.9,3.5L327.6,435.8z"/>
			<path class="st0" d="M95.7,371l-1.2,0.9c1.7,2.3,3.5,4.6,5.3,6.8l1.1-0.9C99.2,375.6,97.4,373.3,95.7,371z"/>
			<path class="st0" d="M86,356.8l-1.2,0.8c1.5,2.4,3.1,4.9,4.7,7.3l1.2-0.8C89.1,361.6,87.5,359.2,86,356.8z"/>
			<path class="st0" d="M65.1,309.7l-1.4,0.4c0.8,2.8,1.7,5.6,2.6,8.3l1.4-0.5C66.8,315.2,65.9,312.5,65.1,309.7z"/>
			<path class="st0" d="M118.6,396.6l-1,1.1c2.1,2,4.3,3.9,6.5,5.8l0.9-1.1C122.8,400.5,120.7,398.6,118.6,396.6z"/>
			<path class="st0" d="M77.7,341.7l-1.3,0.6c1.3,2.6,2.6,5.2,4,7.7l1.3-0.7C80.3,346.9,78.9,344.3,77.7,341.7z"/>
			<path class="st0" d="M70.7,326l-1.3,0.5c1.1,2.7,2.2,5.4,3.3,8L74,334C72.8,331.3,71.7,328.7,70.7,326z"/>
			<path class="st0" d="M311.3,441.7c2.7-0.9,5.5-1.8,8.2-2.8l-0.5-1.4c-2.7,1-5.4,1.9-8.2,2.8L311.3,441.7z"/>
			<path class="st0" d="M277.3,447.8l0.2,1.4c2.9-0.4,5.7-0.8,8.6-1.3l-0.2-1.4C283,447,280.2,447.4,277.3,447.8z"/>
			<path class="st0" d="M294.3,444.8l0.3,1.4c2.8-0.6,5.6-1.3,8.4-2.1l-0.4-1.4C299.9,443.5,297.1,444.2,294.3,444.8z"/>
			<path class="st0" d="M131.6,407.9l-0.9,1.1c2.3,1.8,4.6,3.5,6.9,5.2l0.8-1.2C136.2,411.4,133.9,409.6,131.6,407.9z"/>
			<path class="st0" d="M145.6,417.9l-0.8,1.2c2.4,1.6,4.9,3.1,7.4,4.6l0.7-1.2C150.5,421,148,419.5,145.6,417.9z"/>
			<path class="st0" d="M181.4,436.3c-1.8-0.7-3.6-1.4-5.4-2.2l-0.6,1.3c2,0.9,4.1,1.7,6.2,2.5L181.4,436.3z"/>
			<path class="st0" d="M160.5,426.7l-0.7,1.3c2.5,1.4,5.2,2.7,7.8,3.9l0.6-1.3C165.6,429.3,163,428,160.5,426.7z"/>
			<path class="st0" d="M106.6,384.3l-1.1,1c1.9,2.1,3.9,4.3,5.9,6.3l1-1C110.4,388.6,108.5,386.4,106.6,384.3z"/>
			<path class="st0" d="M101.5,131.2l-1.1-0.9c-1.8,2.2-3.6,4.5-5.4,6.8l1.2,0.9C97.8,135.7,99.6,133.4,101.5,131.2z"/>
			<path class="st0" d="M124.6,105.5c-2.2,1.9-4.4,3.8-6.5,5.8l1,1.1c2.1-2,4.2-3.9,6.4-5.7L124.6,105.5z"/>
			<path class="st0" d="M111.9,117.4c-2,2.1-4,4.2-5.9,6.3l1.1,1c1.9-2.1,3.9-4.2,5.9-6.3L111.9,117.4z"/>
			<path class="st0" d="M137,95.8c-1.9,1.4-3.8,2.8-5.7,4.3l0.9,1.1c1.6-1.3,3.3-2.6,5-3.8L137,95.8z"/>
			<path class="st0" d="M217.8,63l-0.3-1.4c-2.6,0.5-5.1,1-7.7,1.5l0.2,1.4C212.6,64,215.2,63.5,217.8,63z"/>
			<path class="st0" d="M260.2,449.3l0.2,1.4c2.8-0.1,5.7-0.3,8.5-0.6l-0.1-1.4C265.9,449,263.1,449.2,260.2,449.3z"/>
			<path class="st0" d="M89.9,144.1c-1.6,2.4-3.2,4.8-4.7,7.3l1.2,0.8c1.5-2.4,3.1-4.9,4.7-7.2L89.9,144.1z"/>
			<path class="st0" d="M80.8,158.9c-1.4,2.5-2.8,5.1-4.1,7.7l1.3,0.6c1.3-2.6,2.7-5.1,4-7.6L80.8,158.9z"/>
			<path class="st0" d="M61.6,207.2c-0.7,2.8-1.3,5.7-1.9,8.5l1.4,0.3c0.6-2.8,1.2-5.6,1.9-8.4L61.6,207.2z"/>
			<path class="st0" d="M73,174.4c-1.2,2.6-2.3,5.3-3.4,8l1.3,0.5c1.1-2.7,2.2-5.3,3.4-7.9L73,174.4z"/>
			<path class="st0" d="M66.5,190.5c-0.9,2.7-1.8,5.5-2.7,8.3l1.4,0.4c0.8-2.7,1.7-5.5,2.6-8.2L66.5,190.5z"/>
			<path class="st0" d="M439.9,310.9c0.8-2.8,1.6-5.6,2.3-8.4l-1.4-0.4c-0.7,2.8-1.5,5.6-2.3,8.3L439.9,310.9z"/>
			<path class="st0" d="M429.9,175.7l1.3-0.6c-1.2-2.6-2.4-5.3-3.7-7.9l-1.3,0.6C427.5,170.5,428.8,173.1,429.9,175.7z"/>
			<path class="st0" d="M403,131.9l1.1-0.9c-1.8-2.2-3.7-4.5-5.6-6.6l-1.1,1C399.3,127.5,401.2,129.7,403,131.9z"/>
			<path class="st0" d="M343.3,428.4c2.5-1.3,5.1-2.8,7.6-4.2l-0.7-1.2c-2.5,1.4-5,2.8-7.5,4.2L343.3,428.4z"/>
			<path class="st0" d="M413.3,145.7l1.2-0.8c-1.6-2.4-3.3-4.8-5-7.1l-1.2,0.9C410,141,411.7,143.3,413.3,145.7z"/>
			<path class="st0" d="M252.5,60l0-1.4c-2.9,0-5.8,0.1-8.7,0.2l0.1,1.4C246.8,60.1,249.7,60,252.5,60z"/>
			<path class="st0" d="M226.3,61.7l0.4-0.1c2.8-0.4,5.7-0.7,8.6-0.9l-0.1-1.4c-2.9,0.2-5.8,0.6-8.6,0.9l-0.4,0.1L226.3,61.7z"/>
			<path class="st0" d="M269.7,60.8l0.1-1.4c-2.9-0.3-5.8-0.5-8.7-0.6l-0.1,1.4C264,60.4,266.9,60.6,269.7,60.8z"/>
			<path class="st0" d="M320,72.3l0.5-1.4c-2.7-1-5.5-2-8.2-2.9l-0.4,1.4C314.6,70.3,317.3,71.3,320,72.3z"/>
			<path class="st0" d="M303.6,67l0.4-1.4c-2.8-0.8-5.6-1.5-8.4-2.1l-0.3,1.4C298,65.5,300.8,66.2,303.6,67z"/>
			<path class="st0" d="M286.8,63.1l0.3-1.4c-2.8-0.5-5.7-1-8.6-1.4l-0.2,1.4C281.1,62.2,284,62.6,286.8,63.1z"/>
			<path class="st0" d="M422.3,160.3l1.3-0.7c-1.4-2.5-2.9-5-4.4-7.5l-1.2,0.8C419.4,155.3,420.9,157.8,422.3,160.3z"/>
			<path class="st0" d="M397.7,386c1.9-2.1,3.8-4.4,5.7-6.6l-1.1-0.9c-1.8,2.2-3.7,4.4-5.6,6.5L397.7,386z"/>
			<path class="st0" d="M408.7,372.6c1.7-2.3,3.4-4.7,5.1-7l-1.2-0.8c-1.6,2.4-3.3,4.7-5,7L408.7,372.6z"/>
			<path class="st0" d="M418.5,358.3c1.5-2.4,3-5,4.4-7.5l-1.3-0.7c-1.4,2.5-2.9,5-4.4,7.4L418.5,358.3z"/>
			<path class="st0" d="M358.3,419.6c2.4-1.6,4.8-3.2,7.2-4.9l-0.8-1.2c-2.3,1.7-4.7,3.3-7.1,4.8L358.3,419.6z"/>
			<path class="st0" d="M427.1,343.1c1.3-2.6,2.6-5.2,3.8-7.8l-1.3-0.6c-1.2,2.6-2.4,5.2-3.7,7.8L427.1,343.1z"/>
			<path class="st0" d="M372.4,409.6c2.3-1.8,4.5-3.6,6.7-5.5l-0.9-1.1c-2.2,1.9-4.4,3.7-6.7,5.4L372.4,409.6z"/>
			<path class="st0" d="M385.6,398.3c2.1-2,4.2-4,6.2-6.1l-1-1c-2,2-4.1,4.1-6.2,6L385.6,398.3z"/>
			<path class="st0" d="M444.4,225.2l1.4-0.2c-0.4-2.9-0.9-5.7-1.5-8.5l-1.4,0.3C443.4,219.5,443.9,222.4,444.4,225.2z"/>
			<path class="st0" d="M434.2,327.3c1.1-2.7,2.1-5.4,3-8.1l-1.4-0.5c-0.9,2.7-2,5.4-3,8.1L434.2,327.3z"/>
			<path class="st0" d="M436.2,191.8l1.4-0.5c-0.9-2.7-1.9-5.5-3-8.1l-1.3,0.5C434.3,186.4,435.3,189.1,436.2,191.8z"/>
			<path class="st0" d="M441,208.3l1.4-0.3c-0.7-2.8-1.4-5.6-2.2-8.4l-1.4,0.4C439.6,202.7,440.4,205.5,441,208.3z"/>
			<path class="st0" d="M447.7,242.2c-0.2-2.9-0.4-5.8-0.8-8.6l-1.4,0.2c0.3,2.9,0.6,5.7,0.7,8.6L447.7,242.2z"/>
			<path class="st0" d="M444.2,294c0.6-2.8,1.1-5.7,1.5-8.5l-1.4-0.2c-0.4,2.8-1,5.7-1.5,8.5L444.2,294z"/>
			<path class="st0" d="M446.9,276.9c0.3-2.9,0.6-5.8,0.8-8.6l-1.4-0.1c-0.2,2.9-0.5,5.7-0.8,8.6L446.9,276.9z"/>
			<path class="st0" d="M448,259.6c0.1-2.9,0.1-5.8,0-8.7l-1.4,0c0.1,2.9,0.1,5.8,0,8.6L448,259.6z"/>
		</g>
	</g>
	<circle class="st0" cx="253.9" cy="254.7" r="168.1"/>
	<g>
		<g>
			<path class="st1" d="M76,353.9c0.3,0,0.5,0.2,0.5,0.5v7.8c0,0.3-0.2,0.5-0.5,0.5H60.6c-0.3,0-0.5-0.2-0.5-0.5v-7.8
				c0-0.3,0.2-0.5,0.5-0.5H76z"/>
			<path class="st0" d="M60.1,351.6v2.8h16.5v-2.8c0-0.3-0.2-0.5-0.5-0.5H60.6C60.3,351.1,60.1,351.3,60.1,351.6z"/>
			<polygon class="st2" points="60.1,228 60.1,234.2 60.1,316.3 60.1,329.9 60.1,351.3 76.5,351.3 76.5,329.9 76.5,316.3 
				76.5,234.2 76.5,228 76.5,200.8 60.1,200.8 			"/>
			<polygon class="st3" points="66.1,228 66.1,234.2 66.1,316.3 66.1,329.9 66.1,351.3 70.5,351.3 70.5,329.9 70.5,316.3 
				70.5,234.2 70.5,228 70.5,200.8 66.1,200.8 			"/>
			<polygon class="st0" points="76.6,200.8 68.3,205.1 60,200.8 68.3,181.6 			"/>
			<polygon class="st3" points="64.9,189.6 71.8,189.6 68.3,181.6 			"/>
		</g>
		<g>
			<g>
				<rect x="22.4" y="142.6" class="st2" width="20" height="220.1"/>
				<circle class="st0" cx="32.4" cy="349.4" r="5"/>
			</g>
			<g>
				<g>
					<g>
						<g>
							<rect x="30.2" y="248.8" class="st0" width="10.2" height="2.4"/>
							<rect x="34.6" y="256.5" class="st0" width="5.8" height="2.4"/>
							<rect x="34.6" y="264.1" class="st0" width="5.8" height="2.4"/>
							<rect x="34.6" y="271.8" class="st0" width="5.8" height="2.4"/>
						</g>
					</g>
					<g>
						<g>
							<rect x="30.2" y="279" class="st0" width="10.2" height="2.4"/>
							<rect x="34.6" y="286.7" class="st0" width="5.8" height="2.4"/>
							<rect x="34.6" y="294.3" class="st0" width="5.8" height="2.4"/>
							<rect x="34.6" y="302" class="st0" width="5.8" height="2.4"/>
						</g>
					</g>
					<g>
						<g>
							<rect x="30.2" y="309.2" class="st0" width="10.2" height="2.4"/>
							<rect x="34.6" y="316.8" class="st0" width="5.8" height="2.4"/>
							<rect x="34.6" y="324.5" class="st0" width="5.8" height="2.4"/>
							<rect x="34.6" y="332.2" class="st0" width="5.8" height="2.4"/>
						</g>
					</g>
				</g>
				<g>
					<g>
						<g>
							<rect x="30.2" y="157.6" class="st0" width="10.2" height="2.4"/>
							<rect x="34.6" y="165.3" class="st0" width="5.8" height="2.4"/>
							<rect x="34.6" y="172.9" class="st0" width="5.8" height="2.4"/>
							<rect x="34.6" y="180.6" class="st0" width="5.8" height="2.4"/>
						</g>
					</g>
					<g>
						<g>
							<rect x="30.2" y="187.8" class="st0" width="10.2" height="2.4"/>
							<rect x="34.6" y="195.5" class="st0" width="5.8" height="2.4"/>
							<rect x="34.6" y="203.1" class="st0" width="5.8" height="2.4"/>
							<rect x="34.6" y="210.8" class="st0" width="5.8" height="2.4"/>
						</g>
					</g>
					<g>
						<g>
							<rect x="30.2" y="218" class="st0" width="10.2" height="2.4"/>
							<rect x="34.6" y="225.7" class="st0" width="5.8" height="2.4"/>
							<rect x="34.6" y="233.3" class="st0" width="5.8" height="2.4"/>
							<rect x="34.6" y="241" class="st0" width="5.8" height="2.4"/>
						</g>
					</g>
				</g>
			</g>
		</g>
	</g>
	<g>
		<rect x="329.7" y="135" class="st2" width="101.8" height="136.4"/>
		<rect x="329.7" y="141.1" class="st0" width="101.8" height="11.6"/>
		<rect x="329.7" y="135" class="st4" width="101.8" height="10.1"/>
		<g>
			<g>
				<rect x="338.7" y="168.5" class="st0" width="38.6" height="2.4"/>
				<rect x="355.4" y="176.2" class="st0" width="21.9" height="2.4"/>
				<rect x="355.4" y="183.8" class="st0" width="21.9" height="2.4"/>
				<rect x="355.4" y="191.5" class="st0" width="21.9" height="2.4"/>
			</g>
			<g>
				<rect x="382.6" y="191.5" class="st0" width="38.6" height="2.4"/>
				<rect x="382.6" y="183.8" class="st0" width="21.9" height="2.4"/>
				<rect x="382.6" y="176.2" class="st0" width="21.9" height="2.4"/>
			</g>
		</g>
		<g>
			<g>
				<rect x="354.1" y="139.1" class="st0" width="21.9" height="2.4"/>
			</g>
			<g>
				<rect x="381.4" y="139.1" class="st0" width="21.9" height="2.4"/>
			</g>
		</g>
		<g>
			<g>
				<rect x="354.1" y="148" class="st4" width="21.9" height="2.4"/>
			</g>
			<g>
				<rect x="381.4" y="148" class="st4" width="21.9" height="2.4"/>
			</g>
		</g>
		<g>
			<g>
				<rect x="338.7" y="201.6" class="st0" width="38.6" height="2.4"/>
				<rect x="355.4" y="209.3" class="st0" width="21.9" height="2.4"/>
				<rect x="355.4" y="216.9" class="st0" width="21.9" height="2.4"/>
				<rect x="355.4" y="224.6" class="st0" width="21.9" height="2.4"/>
			</g>
			<g>
				<rect x="382.6" y="224.6" class="st0" width="38.6" height="2.4"/>
				<rect x="382.6" y="216.9" class="st0" width="21.9" height="2.4"/>
				<rect x="382.6" y="209.3" class="st0" width="21.9" height="2.4"/>
			</g>
		</g>
		<g>
			<g>
				<rect x="338.7" y="234.7" class="st0" width="38.6" height="2.4"/>
				<rect x="355.4" y="242.4" class="st0" width="21.9" height="2.4"/>
				<rect x="355.4" y="250" class="st0" width="21.9" height="2.4"/>
				<rect x="355.4" y="257.7" class="st0" width="21.9" height="2.4"/>
			</g>
			<g>
				<rect x="382.6" y="257.7" class="st0" width="38.6" height="2.4"/>
				<rect x="382.6" y="250" class="st0" width="21.9" height="2.4"/>
				<rect x="382.6" y="242.4" class="st0" width="21.9" height="2.4"/>
			</g>
		</g>
	</g>
	<g>
		<g>
			<g>
				<g>
					<path class="st4" d="M66.8,380.4c0,0-2.3,4.3,14.2,7.9h345.3c0,0,11.6-0.7,14.6-6.2l0-3L66.8,380.4z"/>
					<path class="st0" d="M66.9,371.7H441v9.6c0,0,0.6,1.3-3.8,1H70.4c0,0-3.4,1-3.8-1.3L66.9,371.7z"/>
					<path class="st4" d="M423.7,377.3c0,0.4-0.2,0.7-0.6,0.7h-12.7c-0.3,0-0.6-0.3-0.6-0.7l0,0c0-0.4,0.2-0.7,0.6-0.7h12.7
						C423.4,376.6,423.7,376.9,423.7,377.3L423.7,377.3z"/>
				</g>
				<path class="st4" d="M228.6,371.8c0,0-1.4,4.8,3.4,5.3h43.4c0,0,4.6,0.6,4-5.1L228.6,371.8z"/>
				<g>
					<linearGradient id="SVGID_1_" gradientUnits="userSpaceOnUse" x1="279.1134" y1="372.045" x2="279.1134" y2="371.9313">
						<stop  offset="2.439020e-02" style="stop-color:#5F6767"/>
						<stop  offset="0.4756" style="stop-color:#676B6C"/>
						<stop  offset="0.5137" style="stop-color:#717576"/>
						<stop  offset="0.6192" style="stop-color:#878A8B"/>
						<stop  offset="0.7202" style="stop-color:#949899"/>
						<stop  offset="0.811" style="stop-color:#999C9D"/>
					</linearGradient>
					<path class="st5" d="M279.1,372v-0.1h0C279.1,372,279.1,372,279.1,372z"/>
				</g>
			</g>
		</g>
		<path class="st3" d="M404.3,371.7V201.1c0-7.7-6.3-14.1-14.1-14.1H117.6c-7.7,0-14.1,6.3-14.1,14.1v170.5H404.3z"/>
		<rect x="113.2" y="197.6" class="st1" width="281.4" height="163.6"/>
	</g>
	<g>
		<path class="st6" d="M253.9,308.8c-29.1,0-54.3-21.6-54.3-52.7c0.1-39.4,33-49.4,29.3-76.9c2.9-6.9,52.3-6.9,50.5,1.3
			c-6.1,28.3,28.7,35.6,28.7,75.6C308.1,285.2,283,308.8,253.9,308.8z"/>
		<path class="st2" d="M254.2,173.6c9.8,0,22.4,1.3,25.2,4.8c0.6,0.7,0.8,1.5,0.6,2.2c-2.9,13.6,3.7,22.2,11.4,32.2
			c8.1,10.6,17.4,22.6,17.4,43.3c0,14.1-5.8,27.5-16.4,37.7c-10.3,9.9-24.3,15.6-38.5,15.6c-15.1,0-29.6-5.9-39.8-16.1
			c-9.7-9.8-15.1-23-15.1-37.2c0-20.8,9.2-33.5,17.2-44.8c7.4-10.3,13.8-19.2,12-32l0-0.2l0.1-0.2
			C230.1,174.7,245.4,173.6,254.2,173.6z"/>
	</g>
	<g>
		<rect x="239.6" y="155.2" class="st7" width="28.6" height="7.2"/>
		<path class="st4" d="M239,154.6h29.8v8.4H239V154.6z M267.6,155.8h-27.4v6h27.4V155.8z"/>
	</g>
	<g>
		<polygon class="st7" points="228.1,174.7 227.7,183 280,183 279.6,174.7 		"/>
		<path class="st4" d="M227.6,174.1h52.6l0.4,9.5h-53.5L227.6,174.1z M279,175.3h-50.3l-0.3,7.1h51L279,175.3z"/>
	</g>
	<g>
		<polygon class="st7" points="228.1,167.7 227.7,174.7 280,174.7 279.6,167.7 		"/>
		<path class="st4" d="M227.6,167.1h52.6l0.5,8.2h-53.5L227.6,167.1z M279,168.3h-50.3l-0.3,5.8h51L279,168.3z"/>
	</g>
	<g>
		<polygon class="st7" points="228.1,161.6 227.7,168.6 280,168.6 279.6,161.6 		"/>
		<path class="st4" d="M227.6,161h52.6l0.5,8.2h-53.5L227.6,161z M279,162.2h-50.3l-0.3,5.8h51L279,162.2z"/>
	</g>
	<rect x="253.4" y="86.7" class="st4" width="1" height="68.3"/>
	<g>
		
			<rect x="246.7" y="330.7" transform="matrix(4.017079e-02 -0.9992 0.9992 4.017079e-02 -86.9251 573.9503)" class="st0" width="17.2" height="3"/>
		
			<rect x="280.9" y="318.4" transform="matrix(0.9525 -0.3045 0.3045 0.9525 -86.1405 101.5117)" class="st0" width="3" height="17.2"/>
		
			<rect x="304.6" y="304.1" transform="matrix(0.7908 -0.612 0.612 0.7908 -127.3657 252.7346)" class="st0" width="3" height="17.2"/>
		
			<rect x="322" y="282.6" transform="matrix(0.5343 -0.8453 0.8453 0.5343 -95.5506 409.0192)" class="st0" width="3" height="17.2"/>
		
			<rect x="330.9" y="256.5" transform="matrix(0.2129 -0.9771 0.9771 0.2129 2.6406 533.4982)" class="st0" width="3" height="17.2"/>
		<rect x="323.4" y="236" transform="matrix(0.9909 -0.1348 0.1348 0.9909 -28.982 46.912)" class="st0" width="17.2" height="3"/>
		
			<rect x="313.5" y="210.2" transform="matrix(0.8852 -0.4653 0.4653 0.8852 -61.516 174.1473)" class="st0" width="17.2" height="3"/>
		
			<rect x="182.8" y="205.5" transform="matrix(0.5341 -0.8454 0.8454 0.5341 -95.1744 255.582)" class="st0" width="3" height="17.2"/>
		
			<rect x="173.8" y="231.7" transform="matrix(0.2128 -0.9771 0.9771 0.2128 -96.7584 360.4254)" class="st0" width="3" height="17.2"/>
		
			<rect x="167.2" y="266.4" transform="matrix(0.9909 -0.1344 0.1344 0.9909 -34.4167 26.064)" class="st0" width="17.2" height="3"/>
		
			<rect x="177.1" y="292.2" transform="matrix(0.8851 -0.4654 0.4654 0.8851 -115.3303 120.1531)" class="st0" width="17.2" height="3"/>
		
			<rect x="195.2" y="313" transform="matrix(0.6728 -0.7398 0.7398 0.6728 -165.9924 253.6923)" class="st0" width="17.2" height="3"/>
		
			<rect x="219.4" y="326.4" transform="matrix(0.3793 -0.9253 0.9253 0.3793 -161.8833 414.4981)" class="st0" width="17.2" height="3"/>
	</g>
	<g>
		<g>
			<g>
				<path class="st2" d="M137.6,149.5c-0.6-2.6-1.7-5.1-3.2-7.2l2.3-2.4l-5-4.8l-2.3,2.4c-2.2-1.4-4.7-2.4-7.4-2.8l-0.1-3.3
					l-6.9,0.2l0.1,3.3c-0.7,0.1-1.4,0.3-2,0.6c-1.9,0.6-3.6,1.5-5.2,2.6l-2.4-2.3l-4.8,5l2.4,2.3c-1.4,2.2-2.4,4.7-2.8,7.4l-3.3,0.1
					l0.2,6.9l3.3-0.1c0.6,2.7,1.7,5.1,3.2,7.2l-2.3,2.4l5,4.8l2.3-2.4c2.2,1.4,4.7,2.4,7.4,2.8l0.1,3.3l6.9-0.2L123,172
					c0.7-0.1,1.4-0.3,2-0.5c1.9-0.6,3.6-1.5,5.2-2.6l2.4,2.3l4.8-5l-2.4-2.3c1.4-2.2,2.4-4.7,2.8-7.4l3.3-0.1l-0.2-6.9L137.6,149.5z
					 M131,153.1c0.1,5.4-3.3,10.1-8.2,11.7c-1.1,0.4-2.3,0.6-3.5,0.6c-6.6,0.2-12.1-5.1-12.3-11.7c-0.1-5.4,3.3-10.1,8.2-11.7
					c1.1-0.4,2.3-0.6,3.5-0.6C125.4,141.2,130.8,146.5,131,153.1z"/>
				<polygon class="st2" points="114.9,160.5 110.8,153.4 114.9,146.3 123.1,146.3 127.3,153.4 123.1,160.5 				"/>
			</g>
		</g>
	</g>
	<g>
		<path class="st0" d="M482.4,178.6c0.3,0.8,0.6,1.7,0.8,2.6l0.2,1l3.1-0.1l0,1.7l2.5-0.1l-0.1-4.2l-3.5,0.1c-0.2-0.7-0.4-1.3-0.6-2
			L482.4,178.6z"/>
		<path class="st0" d="M481.6,171.5l-2.1,2.2l0.6,0.8c0.5,0.7,1,1.5,1.4,2.3l2.2-1.1c-0.3-0.6-0.7-1.2-1-1.8l2.4-2.6l-3-2.9
			l-1.7,1.8L481.6,171.5z"/>
		<path class="st0" d="M476.3,170.6l2.1-2.2l1.2,1.2l1.7-1.8l-3-2.9l-2.4,2.6c-0.6-0.3-1.2-0.7-1.8-0.9l-1,2.3
			c0.8,0.4,1.6,0.8,2.4,1.3L476.3,170.6z"/>
		<path class="st0" d="M467.5,167.2l1,0.2c0.9,0.1,1.8,0.4,2.6,0.6l0.8-2.4c-0.7-0.2-1.3-0.4-2-0.5l-0.1-3.5l-4.2,0.1l0.1,2.5l1.7,0
			L467.5,167.2z"/>
		<path class="st0" d="M460.2,168.1c0.6-0.2,1.3-0.4,1.9-0.5l1-0.2l-0.1-3.1l1.7,0l-0.1-2.5l-4.2,0.1l0.1,3.5
			c-0.4,0.1-0.8,0.2-1.2,0.3c-0.3,0.1-0.5,0.2-0.8,0.3l0.9,2.3C459.7,168.2,459.9,168.2,460.2,168.1z"/>
		<path class="st0" d="M452.3,169l2.2,2.1l0.8-0.6c0.7-0.5,1.5-1,2.3-1.4l-1.1-2.2c-0.6,0.3-1.2,0.7-1.8,1l-2.6-2.4l-2.9,3l1.8,1.7
			L452.3,169z"/>
		<path class="st0" d="M447.3,176.6l2.3,1c0.4-0.8,0.8-1.6,1.3-2.4l0.6-0.9l-2.2-2.1l1.2-1.2l-1.8-1.7l-2.9,3l2.6,2.4
			C447.9,175.4,447.6,176,447.3,176.6z"/>
		<path class="st0" d="M445,183.2l3.1-0.1l0.2-1c0.1-0.9,0.4-1.8,0.6-2.6l-2.4-0.8c-0.2,0.7-0.4,1.3-0.5,2l-3.5,0.1l0.1,4.2l2.5-0.1
			L445,183.2z"/>
		<path class="st0" d="M449.2,191.2c-0.3-0.8-0.6-1.7-0.8-2.6l-0.2-1l-3.1,0.1l0-1.7l-2.5,0.1l0.1,4.2l3.5-0.1
			c0.2,0.7,0.4,1.3,0.6,2L449.2,191.2z"/>
		<path class="st0" d="M449.9,198.4l2.1-2.2l-0.6-0.8c-0.5-0.7-1-1.5-1.4-2.3l-2.2,1.1c0.3,0.6,0.7,1.2,1,1.8l-2.4,2.6l3,2.9
			l1.7-1.8L449.9,198.4z"/>
		<path class="st0" d="M455.2,199.2l-2.1,2.2l-1.2-1.2l-1.7,1.8l3,2.9l2.4-2.6c0.6,0.3,1.2,0.7,1.8,0.9l1-2.3
			c-0.8-0.4-1.6-0.8-2.4-1.3L455.2,199.2z"/>
		<path class="st0" d="M464,205.7l-0.1-3.1l-1-0.2c-0.9-0.1-1.8-0.4-2.6-0.6l-0.8,2.4c0.7,0.2,1.3,0.4,2,0.5l0.1,3.5l4.2-0.1
			l-0.1-2.5L464,205.7z"/>
		<path class="st0" d="M471.3,201.8c-0.6,0.2-1.3,0.4-1.9,0.5l-1,0.2l0.1,3.1l-1.7,0l0.1,2.5l4.2-0.1l-0.1-3.5
			c0.4-0.1,0.8-0.2,1.2-0.3c0.3-0.1,0.5-0.2,0.8-0.3l-0.9-2.3C471.8,201.6,471.6,201.7,471.3,201.8z"/>
		<path class="st0" d="M479.2,200.8l-2.2-2.1l-0.8,0.6c-0.7,0.5-1.5,1-2.3,1.4l1.1,2.2c0.6-0.3,1.2-0.7,1.8-1l2.6,2.4l2.9-3
			l-1.8-1.7L479.2,200.8z"/>
		<path class="st0" d="M484.2,193.2l-2.3-1c-0.4,0.8-0.8,1.6-1.3,2.4l-0.6,0.9l2.2,2.1l-1.1,1.2l1.8,1.7l2.9-3l-2.5-2.4
			C483.6,194.5,483.9,193.9,484.2,193.2z"/>
		<path class="st0" d="M486.5,186.6l-3.1,0.1l-0.2,1c-0.1,0.9-0.4,1.8-0.6,2.6l2.4,0.8c0.2-0.7,0.4-1.3,0.5-2l3.5-0.1l-0.1-4.2
			l-2.5,0.1L486.5,186.6z"/>
		<polygon class="st0" points="464.6,193.3 464.6,190.8 462.4,190.8 461.3,188.9 459.1,190.2 460.9,193.3 		"/>
		<polygon class="st0" points="457.9,188.1 460.1,186.8 459,184.9 460.1,183 457.9,181.8 456.1,184.9 		"/>
		<polygon class="st0" points="459.1,179.7 461.3,180.9 462.4,179 464.6,179 464.6,176.5 460.9,176.5 		"/>
		<polygon class="st0" points="470.6,176.5 467,176.5 467,179 469.1,179 470.2,180.9 472.4,179.7 		"/>
		<polygon class="st0" points="473.6,181.8 471.4,183 472.5,184.9 471.4,186.8 473.6,188.1 475.4,184.9 		"/>
		<polygon class="st0" points="467,190.8 467,193.3 470.6,193.3 472.4,190.2 470.2,188.9 469.1,190.8 		"/>
	</g>
	<g>
		<circle class="st0" cx="311.3" cy="104.7" r="8.5"/>
		<g>
			<g>
				<path class="st1" d="M331.2,100.4c-0.6-2.8-1.8-5.5-3.4-7.7l2.4-2.6l-5.4-5.1l-2.4,2.6c-2.3-1.5-5-2.6-7.9-3l-0.1-3.5l-7.4,0.2
					l0.1,3.5c-0.8,0.2-1.5,0.4-2.2,0.6c-2,0.7-3.9,1.6-5.5,2.8l-2.6-2.4l-5.1,5.4l2.6,2.4c-1.5,2.3-2.6,5-3,7.9l-3.5,0.1l0.2,7.4
					l3.5-0.1c0.6,2.8,1.8,5.5,3.4,7.7l-2.4,2.6l5.4,5.1l2.4-2.6c2.3,1.5,5,2.6,7.9,3l0.1,3.5l7.4-0.2l-0.1-3.5
					c0.7-0.2,1.5-0.4,2.2-0.6c2-0.7,3.9-1.6,5.5-2.8l2.6,2.4l5.1-5.4l-2.6-2.4c1.5-2.3,2.6-5,3-7.9l3.5-0.1l-0.2-7.4L331.2,100.4z
					 M318.7,104.5c0.1,3.3-2.1,6.2-5.1,7.2c-0.7,0.2-1.4,0.4-2.1,0.4c-4.1,0.1-7.5-3.1-7.6-7.2c-0.1-3.3,2.1-6.2,5.1-7.2
					c0.7-0.2,1.4-0.4,2.1-0.4C315.2,97.2,318.6,100.4,318.7,104.5z"/>
				<polygon class="st3" points="309,108.5 306.8,104.7 309,100.8 313.5,100.8 315.7,104.7 313.5,108.5 				"/>
			</g>
		</g>
	</g>
	<path class="st0" d="M217.9,22.9c0-3.5-2.5-6.4-5.9-6.9c-1.3-4.3-5.3-7.5-10-7.5c-4.3,0-7.9,2.5-9.6,6.2c0,0-0.1,0-0.1,0
		c-4.7,0-8.5,3.8-8.5,8.5c0,0.1,0,0.2,0,0.3c0,0.1,0,0.1,0,0.2c0,3.5,2.2,6.4,5.6,6.9c8.9,0,20,0.1,20,0.1c4.7,0,8.5-2.6,8.5-7.3
		c0-0.1,0-0.2,0-0.3C217.9,23,217.9,23,217.9,22.9z"/>
	<path class="st0" d="M437.7,83.6c0-3.5-2.5-6.4-5.9-6.9c-1.3-4.3-5.3-7.5-10-7.5c-4.3,0-7.9,2.6-9.6,6.2c0,0-0.1,0-0.1,0
		c-4.7,0-8.5,3.8-8.5,8.5c0,0.1,0,0.2,0,0.3c0,0.1,0,0.1,0,0.2c0,3.5,2.2,6.4,5.6,6.9c8.9,0,20,0.1,20,0.1c4.7,0,8.5-2.6,8.5-7.3
		c0-0.1,0-0.2,0-0.3C437.7,83.7,437.7,83.6,437.7,83.6z"/>
	<path class="st0" d="M179.6,63.1c0-5.5-4-10.1-9.3-10.9c-2.1-6.8-8.4-11.8-15.9-11.8c-6.8,0-12.6,4-15.2,9.8c-0.1,0-0.1,0-0.2,0
		c-7.5,0-13.5,6.1-13.5,13.5c0,0.1,0,0.3,0,0.4c0,0.1,0,0.2,0,0.3c0,5.5,5.1,10.9,10.5,10.9c14.1,0,30,0.1,30.1,0.1
		c7.5,0,13.5-4.2,13.5-11.6c0-0.1,0-0.3,0-0.4C179.6,63.3,179.6,63.2,179.6,63.1z"/>
	<g>
		<path class="st0" d="M278.4,245.7c0.5,1.3,0.9,2.6,1.1,3.9l0.3,1.5l4.6-0.1l0.1,2.5l3.7-0.1l-0.2-6.2l-5.2,0.1
			c-0.3-1-0.6-2-0.9-2.9L278.4,245.7z"/>
		<path class="st0" d="M277.4,235l-3.1,3.3l0.9,1.2c0.8,1.1,1.5,2.2,2.1,3.4l3.3-1.7c-0.5-0.9-1-1.8-1.5-2.6l3.6-3.8l-4.5-4.3
			l-2.6,2.7L277.4,235z"/>
		<path class="st0" d="M269.5,233.8l3.1-3.3l1.8,1.7l2.6-2.7l-4.5-4.3l-3.6,3.8c-0.9-0.5-1.8-1-2.7-1.4l-1.5,3.4
			c1.2,0.6,2.4,1.2,3.5,1.9L269.5,233.8z"/>
		<path class="st0" d="M256.5,228.8l1.5,0.2c1.3,0.2,2.6,0.5,3.9,0.9l1.1-3.5c-1-0.3-2-0.6-3-0.8l-0.1-5.2l-6.2,0.1l0.1,3.7l2.5-0.1
			L256.5,228.8z"/>
		<path class="st0" d="M245.6,230c0.9-0.3,1.9-0.6,2.8-0.8l1.5-0.3l-0.1-4.6l2.5-0.1l-0.1-3.7l-6.2,0.2l0.1,5.2
			c-0.6,0.2-1.2,0.3-1.7,0.5c-0.4,0.1-0.8,0.3-1.2,0.4l1.3,3.5C244.9,230.3,245.3,230.1,245.6,230z"/>
		<path class="st0" d="M233.9,231.5l3.3,3.1l1.2-0.9c1.1-0.8,2.2-1.5,3.4-2.1l-1.7-3.3c-0.9,0.5-1.8,1-2.6,1.5l-3.8-3.6l-4.3,4.5
			l2.7,2.6L233.9,231.5z"/>
		<path class="st0" d="M226.6,242.6l3.4,1.5c0.6-1.2,1.2-2.4,1.9-3.5l0.8-1.3l-3.3-3.1l1.7-1.8l-2.7-2.6l-4.3,4.5l3.8,3.6
			C227.5,240.8,227,241.7,226.6,242.6z"/>
		<path class="st0" d="M223.2,252.4l4.6-0.1l0.2-1.5c0.2-1.3,0.5-2.6,0.9-3.9l-3.5-1.1c-0.3,1-0.6,2-0.8,3l-5.2,0.1l0.2,6.2l3.7-0.1
			L223.2,252.4z"/>
		<path class="st0" d="M229.3,264.2c-0.5-1.3-0.9-2.6-1.1-3.9l-0.3-1.5l-4.6,0.1l-0.1-2.5l-3.7,0.1l0.2,6.2l5.2-0.1
			c0.3,1,0.6,2,0.9,2.9L229.3,264.2z"/>
		<path class="st0" d="M230.4,274.9l3.1-3.3l-0.9-1.2c-0.8-1.1-1.5-2.2-2.1-3.4l-3.3,1.7c0.5,0.9,1,1.8,1.5,2.6l-3.6,3.8l4.5,4.3
			l2.6-2.7L230.4,274.9z"/>
		<path class="st0" d="M238.3,276.1l-3.1,3.3l-1.8-1.7l-2.6,2.7l4.5,4.3l3.6-3.8c0.9,0.5,1.8,1,2.7,1.4l1.5-3.4
			c-1.2-0.6-2.4-1.2-3.5-1.9L238.3,276.1z"/>
		<path class="st0" d="M251.3,285.7l-0.1-4.6l-1.5-0.2c-1.3-0.2-2.6-0.5-3.9-0.9l-1.1,3.5c1,0.3,2,0.6,3,0.8l0.1,5.2l6.2-0.2
			l-0.1-3.7L251.3,285.7z"/>
		<path class="st0" d="M262.1,279.9c-0.9,0.3-1.9,0.6-2.8,0.8l-1.5,0.3l0.1,4.5l-2.5,0.1l0.1,3.7l6.2-0.2l-0.1-5.2
			c0.6-0.2,1.2-0.3,1.7-0.5c0.4-0.1,0.8-0.3,1.2-0.4l-1.3-3.5C262.8,279.6,262.5,279.8,262.1,279.9z"/>
		<path class="st0" d="M273.8,278.5l-3.3-3.1l-1.2,0.9c-1.1,0.8-2.2,1.5-3.4,2.1l1.7,3.3c0.9-0.5,1.8-1,2.6-1.5l3.8,3.6l4.3-4.5
			l-2.7-2.6L273.8,278.5z"/>
		<path class="st0" d="M281.2,267.3l-3.4-1.5c-0.5,1.2-1.2,2.4-1.9,3.5l-0.8,1.3l3.3,3.1l-1.7,1.8l2.7,2.6l4.3-4.5l-3.8-3.6
			C280.3,269.1,280.8,268.2,281.2,267.3z"/>
		<path class="st0" d="M284.6,257.5l-4.5,0.1l-0.2,1.5c-0.2,1.3-0.5,2.6-0.9,3.9l3.5,1.1c0.3-1,0.6-2,0.8-3l5.2-0.1l-0.1-6.2
			l-3.7,0.1L284.6,257.5z"/>
		<polygon class="st0" points="252.1,267.4 252.1,263.7 248.9,263.7 247.2,260.8 244,262.7 246.7,267.4 		"/>
		<polygon class="st0" points="242.3,259.6 245.5,257.8 243.8,255 245.5,252.1 242.3,250.3 239.6,255 		"/>
		<polygon class="st0" points="244,247.2 247.2,249.1 248.9,246.3 252.1,246.3 252.1,242.6 246.7,242.6 		"/>
		<polygon class="st0" points="261,242.6 255.6,242.6 255.6,246.3 258.9,246.3 260.5,249.1 263.7,247.2 		"/>
		<polygon class="st0" points="265.5,250.3 262.3,252.1 263.9,255 262.3,257.8 265.5,259.6 268.2,255 		"/>
		<polygon class="st0" points="255.6,263.7 255.6,267.4 261,267.4 263.7,262.7 260.5,260.8 258.9,263.7 		"/>
	</g>
	<g>
		<g>
			<g>
				<g>
					<path class="st1" d="M81.3,82.8c-0.4-1.8-1.2-3.6-2.2-5l1.6-1.7l-3.5-3.3l-1.6,1.7c-1.5-1-3.3-1.7-5.1-2l-0.1-2.3l-4.8,0.1
						l0.1,2.3c-0.5,0.1-1,0.2-1.4,0.4c-1.3,0.4-2.5,1.1-3.6,1.8l-1.7-1.6l-3.3,3.5l1.7,1.6c-1,1.5-1.7,3.3-2,5.1l-2.3,0.1l0.1,4.8
						l2.3-0.1c0.4,1.9,1.2,3.6,2.2,5l-1.6,1.7l3.5,3.3l1.6-1.7c1.5,1,3.3,1.7,5.1,2l0.1,2.3l4.8-0.1L71,98.5c0.5-0.1,1-0.2,1.4-0.4
						c1.3-0.4,2.5-1.1,3.6-1.8l1.7,1.6l3.3-3.5l-1.7-1.6c1-1.5,1.7-3.3,2-5.1l2.3-0.1l-0.1-4.8L81.3,82.8z M76.6,85.3
						c0.1,3.8-2.3,7-5.7,8.2c-0.8,0.3-1.6,0.4-2.4,0.4c-4.6,0.1-8.5-3.5-8.6-8.2c-0.1-3.8,2.3-7,5.7-8.2c0.8-0.3,1.6-0.4,2.4-0.4
						C72.7,77,76.5,80.7,76.6,85.3z"/>
				</g>
			</g>
		</g>
		<g>
			<g>
				<path class="st0" d="M68.2,108.6l0-1.4c1.8,0,3.5-0.2,5.2-0.6l0.3,1.3C72,108.4,70.1,108.6,68.2,108.6z M62.7,108
					c-1.8-0.4-3.6-1.1-5.2-2l0.6-1.2c1.6,0.8,3.2,1.4,4.9,1.8L62.7,108z M79,105.9l-0.6-1.2c1.5-0.8,3-1.8,4.3-3l0.9,1
					C82.2,104,80.6,105.1,79,105.9z M52.9,102.8c-1.4-1.2-2.6-2.6-3.7-4.2l1.1-0.8c1,1.4,2.2,2.8,3.5,3.9L52.9,102.8z M87.2,98.6
					l-1.1-0.8c1-1.4,1.8-3,2.4-4.6l1.3,0.5C89.2,95.4,88.3,97.1,87.2,98.6z M46.6,93.8c-0.7-1.7-1.1-3.6-1.3-5.4l1.3-0.2
					c0.2,1.7,0.6,3.5,1.3,5.1L46.6,93.8z M91.1,88.3l-1.3-0.2c0.1-0.9,0.2-1.7,0.2-2.6c0-0.9-0.1-1.8-0.2-2.6l1.3-0.2
					c0.1,0.9,0.2,1.9,0.2,2.8C91.3,86.4,91.2,87.3,91.1,88.3z M46.6,82.9l-1.3-0.2c0.2-1.9,0.7-3.7,1.3-5.4l1.3,0.5
					C47.2,79.5,46.8,81.2,46.6,82.9z M88.5,77.8c-0.6-1.6-1.4-3.2-2.4-4.6l1.1-0.8c1.1,1.5,1.9,3.2,2.6,4.9L88.5,77.8z M50.3,73.2
					l-1.1-0.8c1.1-1.5,2.3-2.9,3.7-4.2l0.9,1C52.4,70.4,51.2,71.8,50.3,73.2z M82.6,69.2c-1.3-1.2-2.8-2.2-4.3-3l0.6-1.2
					c1.6,0.9,3.2,1.9,4.6,3.2L82.6,69.2z M58,66.3l-0.6-1.2c1.6-0.9,3.4-1.5,5.2-2l0.3,1.3C61.2,64.8,59.6,65.5,58,66.3z M73.4,64.4
					c-1.7-0.4-3.4-0.6-5.2-0.6h-0.1l0-1.4l0.1,0c1.9,0,3.7,0.2,5.5,0.7L73.4,64.4z"/>
				<path class="st1" d="M67.4,109.4l0-3l0.8,0c1.7,0,3.4-0.2,5-0.6l0.8-0.2l0.7,2.9l-0.8,0.2c-1.9,0.5-3.8,0.7-5.7,0.7L67.4,109.4z
					 M63.3,109l-0.8-0.2c-1.9-0.5-3.7-1.1-5.4-2l-0.7-0.4l1.4-2.7l0.7,0.4c1.5,0.8,3.1,1.4,4.7,1.8L64,106L63.3,109z M78.6,107.1
					l-1.4-2.7l0.7-0.4c1.5-0.8,2.9-1.8,4.1-2.9l0.6-0.6l2,2.3l-0.6,0.6c-1.4,1.3-3,2.4-4.7,3.3L78.6,107.1z M53,104l-0.6-0.6
					c-1.4-1.3-2.7-2.7-3.8-4.3l-0.5-0.7l2.5-1.7l0.5,0.7c1,1.4,2.1,2.6,3.4,3.8l0.6,0.6L53,104z M87.4,99.8L85,98l0.5-0.7
					c1-1.4,1.7-2.9,2.3-4.5l0.3-0.8l2.8,1.1L90.6,94c-0.7,1.8-1.6,3.5-2.7,5.1L87.4,99.8z M46.1,94.8l-0.3-0.8
					c-0.7-1.8-1.2-3.7-1.4-5.6l-0.1-0.8l3-0.4l0.1,0.8c0.2,1.7,0.6,3.3,1.2,4.9l0.3,0.8L46.1,94.8z M91.9,89.2l-3-0.4L89,88
					c0.1-0.8,0.1-1.7,0.1-2.5c0-0.9-0.1-1.7-0.2-2.5l-0.1-0.8l3-0.4l0.1,0.8c0.1,1,0.2,1.9,0.2,2.9c0,1-0.1,1.9-0.2,2.9L91.9,89.2z
					 M47.3,83.9l-3-0.4l0.1-0.8c0.2-1.9,0.7-3.8,1.4-5.6l0.3-0.8l2.8,1.1l-0.3,0.8c-0.6,1.6-1,3.2-1.2,4.9L47.3,83.9z M88,78.8
					l-0.3-0.8c-0.6-1.6-1.4-3.1-2.3-4.5l-0.5-0.7l2.5-1.7l0.5,0.7c1.1,1.6,2,3.3,2.7,5.1l0.3,0.8L88,78.8z M50.5,74.4L48,72.7
					l0.5-0.7c1.1-1.6,2.4-3,3.8-4.3l0.6-0.6l2,2.3l-0.6,0.6c-1.3,1.1-2.4,2.4-3.3,3.8L50.5,74.4z M82.7,70.4l-0.6-0.6
					c-1.3-1.1-2.7-2.1-4.1-2.9l-0.7-0.4l1.4-2.7l0.7,0.4c1.7,0.9,3.3,2,4.7,3.3l0.6,0.6L82.7,70.4z M57.7,67.4l-1.4-2.7l0.7-0.4
					c1.7-0.9,3.5-1.6,5.4-2.1l0.8-0.2l0.7,2.9l-0.8,0.2c-1.6,0.4-3.2,1-4.7,1.8L57.7,67.4z M74,65.4l-0.8-0.2
					c-1.6-0.4-3.3-0.6-5-0.6h-0.9l0-3l0.9,0c1.9,0,3.9,0.2,5.7,0.7l0.8,0.2L74,65.4z"/>
			</g>
		</g>
	</g>
</g>
</svg>
