<?xml version="1.0" encoding="utf-8"?>
<!-- Generator: Adobe Illustrator 21.0.0, SVG Export Plug-In . SVG Version: 6.00 Build 0)  -->
<svg version="1.1" id="Layer_1" xmlns="http://www.w3.org/2000/svg" xmlns:xlink="http://www.w3.org/1999/xlink" x="0px" y="0px"
	 viewBox="0 0 500 500" style="enable-background:new 0 0 500 500;" xml:space="preserve">
<style type="text/css">
	.st0{fill:#C3E0D4;}
	.st1{fill:#5D7EBD;}
	.st2{fill:#4E70B3;}
	.st3{opacity:0.1;}
	.st4{fill:#3D3C43;}
	.st5{fill:#313233;}
	.st6{fill:#3A3A3D;}
	.st7{fill:#44434B;}
	.st8{fill:#4D738E;}
	.st9{fill:#3F6175;}
	.st10{fill:#57839D;}
	.st11{fill:#D49C61;}
	.st12{fill:#EDBA7D;}
	.st13{fill:#E7B170;}
	.st14{fill:#E0E0E2;}
	.st15{fill:#D8D7DA;}
	.st16{fill:#3D519E;}
	.st17{fill:#2E3663;}
	.st18{fill:#EFFBFF;}
	.st19{fill:#D14427;}
	.st20{fill:#752A15;}
	.st21{fill:#8090A9;}
	.st22{opacity:0.14;}
	.st23{fill:#E1A866;}
	.st24{fill:#E9BA7D;}
	.st25{fill:#F1CEA1;}
	.st26{fill:#4F4D57;}
	.st27{fill:none;stroke:#44434B;stroke-width:1.2786;stroke-miterlimit:10;}
	.st28{opacity:7.000000e-02;}
	.st29{fill:#D3E7F1;}
	.st30{fill:none;stroke:#D3E7F1;stroke-width:2.5573;stroke-linecap:round;stroke-miterlimit:10;}
	.st31{fill:#73A564;}
	.st32{fill:#FFFFFF;}
	.st33{fill:#D59630;}
	.st34{fill:#8AC3D0;}
	.st35{fill:#EFDB5A;}
	.st36{fill:#C76EA4;}
	.st37{fill:#384A93;}
	.st38{fill:#E7E9F4;}
</style>
<path class="st0" d="M404.5,445h-309C60.6,445,32,416.4,32,381.5v-239C32,107.6,60.6,79,95.5,79h309c34.9,0,63.5,28.6,63.5,63.5v239
	C468,416.4,439.4,445,404.5,445z"/>
<g>
	<g>
		<circle class="st1" cx="247.7" cy="268.2" r="151.5"/>
		<circle class="st2" cx="247.7" cy="268.2" r="128.4"/>
		<g class="st3">
			<path d="M356.3,205.8c-0.5-0.7-1.1-1.3-1.9-1.6c-0.5-0.2-1.1-0.3-1.7-0.3l0,0h-103H147.5c-2.4,0-4.4,2-4.4,4.4v115.4
				c0,2.4,2,4.4,4.4,4.4h88.6v8.7v18h-19c-4.3,0-7.8,3.5-7.8,7.8v8.6H291v-8.6c0-4.3-3.5-7.8-7.8-7.8h-19v-18V328h88.6l0,0
				c1.5,0,2.8-0.8,3.6-1.9c0.5-0.7,0.7-1.5,0.7-2.4V208.2C357.1,207.3,356.8,206.5,356.3,205.8z"/>
			<path d="M345.8,383.1c-0.2-0.2-0.4-0.3-0.6-0.5c-0.6-0.4-1.3-0.6-2.1-0.6l0,0h-69H158.7c-1,0-1.9,0.4-2.6,1.1
				c-0.7,0.7-1.1,1.7-1.1,2.6l0.2,55.2c0,2.1,1.7,3.7,3.7,3.7h73.5h111c0.5,0,1-0.1,1.4-0.3c0.4-0.2,0.9-0.5,1.2-0.8
				c0.2-0.2,0.3-0.4,0.5-0.6c0.4-0.6,0.6-1.3,0.6-2.1l-0.2-55.2C346.9,384.7,346.5,383.7,345.8,383.1z"/>
		</g>
		<g>
			<path class="st4" d="M235.2,318.1v35.5c0,2.1,6.3,3.7,14,3.7c7.7,0,14-1.7,14-3.7v-35.5H235.2z"/>
			<rect x="235.2" y="318.1" class="st5" width="28" height="13.5"/>
			<path class="st6" d="M356.2,318.6c0,2.4-2,4.4-4.4,4.4H146.6c-2.4,0-4.4-2-4.4-4.4V203.2c0-2.4,2-4.4,4.4-4.4h205.2
				c2.4,0,4.4,2,4.4,4.4V318.6z"/>
			<path class="st5" d="M356.2,203.2c0-2.4-2-4.4-4.4-4.4h-103v124.2h103c2.4,0,4.4-2,4.4-4.4V203.2z"/>
			<path class="st7" d="M290.1,366.1h-81.7v-8.6c0-4.3,3.5-7.8,7.8-7.8h66c4.3,0,7.8,3.5,7.8,7.8V366.1z"/>
			<rect x="153.3" y="209.5" class="st8" width="190.9" height="102.8"/>
			<rect x="153.3" y="209.5" class="st9" width="190.9" height="3.5"/>
			<circle class="st10" cx="248.8" cy="260.9" r="45.3"/>
		</g>
		<g>
			<g>
				<path class="st11" d="M269.4,252.5l7.8,18c0.9,2.1,0.2,4.5-1.6,5.8l-7.1,22l-28-27.6L269.4,252.5z"/>
			</g>
			<g>
				<path class="st11" d="M269.4,252.5c-0.8-1.3-1.6-3-2.3-5.1c-4.4-13.2-4.4-13.2-4.4-13.2l-54.9-3.1l2.1,20.8l-12.3,4.5l14.1,14.3
					l57.7,5.3V252.5z"/>
			</g>
			<g>
				<path class="st12" d="M240.5,269.5c3.6,0,6.5,2.9,6.5,6.5c0,0,0,0,0,0c0,3.6-2.9,6.5-6.5,6.5l-30.6,0c-1.3,0-2.7-0.4-3.8-1.2
					l-21.7-15.3c-3-2.1-3.7-6.2-1.6-9.1c2.1-3,6.2-3.7,9.1-1.6l20,14.1L240.5,269.5z"/>
			</g>
			<g>
				<path class="st13" d="M258.3,292.8c0.3-10.3-8.5-20.3-12.1-22.5c-3.4-2.2-5.8-2.2-9.6-2.3c-10.4-0.3-24-0.9-30-9.9
					c-10-2-21.1-6-21.1-6c-9,2.1,11.1,18.6,17.7,26c14.6,16.4,42.4,18,55.6,17.9C258.4,295,258.2,294,258.3,292.8z"/>
			</g>
			<g>
				<path class="st13" d="M271.6,294.9l-20.2-20.2l-31.7,14.7l20.8,11.8l13.9,7.9l17.7-13.5C272,295.3,271.8,295.1,271.6,294.9z"/>
			</g>
			<g>
				<polygon class="st14" points="276,312.2 297.7,292.9 278.5,269.9 240.5,304.2 247.8,312.2 				"/>
			</g>
			<g>
				<polygon class="st15" points="279.8,312.2 282.8,310.1 259.7,286.9 239.4,305.4 246.3,312.2 				"/>
			</g>
			<g>
				<polygon class="st16" points="324.6,312.2 292.3,278.7 256.9,312.2 				"/>
			</g>
			<g>
				<polygon class="st17" points="273.2,312.2 265.5,304.1 256.9,312.2 				"/>
			</g>
			<g>
				<path class="st18" d="M237.3,273.8c-29.3,0-53.2-23.9-53.2-53.2v-40h27v40c0,14.5,11.8,26.2,26.2,26.2
					c14.5,0,26.2-11.8,26.2-26.2v-40h27v40C290.4,249.9,266.6,273.8,237.3,273.8z"/>
			</g>
			<g>
				<rect x="184.1" y="155.8" class="st19" width="27" height="24.7"/>
				<rect x="263.5" y="155.8" class="st20" width="27" height="24.7"/>
			</g>
			<path class="st21" d="M263.5,180.6v40c0,14.5-11.8,26.2-26.2,26.2v27c29.3,0,53.2-23.9,53.2-53.2v-40H263.5z"/>
			<path class="st22" d="M263.8,234.7c-0.1-3.9-3.3-7-7.2-7l-0.5,0c-2.1,0-3.9,1-5.2,2.4l-0.1-4.1c-0.1-3.9-3.3-7-7.2-7l-0.5,0
				c-3.1,0-5.7,2.1-6.6,4.8l-0.1-4c-0.1-3.9-3.3-7-7.2-7l-0.5,0c-2.8,0-5.2,1.7-6.3,4.1c-1.1-2.4-3.6-4.1-6.5-4.1l-0.5,0
				c-3.9,0.1-7,3.3-7,7.2l0.4,24.2c0.1,3.9,3.3,7,7.2,7l0.5,0c2.4,0,4.4-1.2,5.7-3c0.3,3.7,3.4,6.6,7.1,6.5l0.5,0
				c3.1,0,5.7-2.1,6.6-4.8l0,0.6c0.1,3.9,3.3,7,7.2,7l0.5,0c2.1,0,3.9-1,5.2-2.4l0,0.6c0.1,3.9,3.3,7,7.2,7l0.5,0
				c3.9-0.1,7-3.3,7-7.2L263.8,234.7z"/>
			<g>
				<path class="st12" d="M256.9,257.8L256.9,257.8c-4,0.1-7.4-3.2-7.4-7.2l-0.3-20.3c-0.1-4,3.2-7.4,7.2-7.4l0,0
					c4-0.1,7.4,3.2,7.4,7.2l0.3,20.3C264.2,254.4,260.9,257.8,256.9,257.8z"/>
			</g>
			<g>
				<path class="st23" d="M263.8,230.1c-0.1-4-3.4-7.3-7.4-7.2c-0.6,0-1.2,0.1-1.7,0.2c2.6,1.1,4.4,3.6,4.4,6.6l0.3,20.3
					c0.1,3.4-2.3,6.3-5.5,7.2c0.9,0.4,1.9,0.6,3,0.6c4-0.1,7.3-3.4,7.2-7.4L263.8,230.1z"/>
			</g>
			<g>
				<path class="st12" d="M244,252.7L244,252.7c-4,0.1-7.4-3.2-7.4-7.2l-0.4-23.7c-0.1-4,3.2-7.4,7.2-7.4l0,0c4-0.1,7.4,3.2,7.4,7.2
					l0.4,23.7C251.3,249.3,248.1,252.6,244,252.7z"/>
			</g>
			<g>
				<path class="st23" d="M250.9,221.5c-0.1-4-3.4-7.3-7.4-7.2c-0.6,0-1.2,0.1-1.7,0.2c2.6,1.1,4.4,3.6,4.4,6.6l0.4,23.7
					c0.1,3.4-2.3,6.3-5.5,7.2c0.9,0.4,1.9,0.6,3,0.6c4-0.1,7.3-3.4,7.2-7.4L250.9,221.5z"/>
			</g>
			<g>
				<path class="st12" d="M216.5,246.5L216.5,246.5c-4,0.1-7.4-3.2-7.4-7.2l-0.4-23.7c-0.1-4,3.2-7.4,7.2-7.4h0
					c4-0.1,7.4,3.2,7.4,7.2l0.4,23.7C223.7,243.1,220.5,246.4,216.5,246.5z"/>
			</g>
			<g>
				<path class="st23" d="M223.3,215.4c-0.1-4-3.4-7.3-7.4-7.2c-0.6,0-1.2,0.1-1.7,0.2c2.6,1.1,4.4,3.6,4.4,6.6l0.4,23.7
					c0.1,3.4-2.3,6.3-5.5,7.2c0.9,0.4,1.9,0.6,3,0.6c4-0.1,7.3-3.4,7.2-7.4L223.3,215.4z"/>
			</g>
			<g>
				<path class="st12" d="M229.8,249.9L229.8,249.9c-4,0.1-7.4-3.2-7.4-7.2l-0.4-27.1c-0.1-4,3.2-7.4,7.2-7.4l0,0
					c4-0.1,7.4,3.2,7.4,7.2l0.4,27.1C237.1,246.5,233.8,249.9,229.8,249.9z"/>
			</g>
			<path class="st22" d="M197.4,239.4c-0.7-5.7-5.1-10-10.6-10.7c-0.5-0.7-1.4-1.1-2.3-1l-2.5,0.3c-1.2,0.1-2.1,1.2-2,2.4l1.2,10.6
				c0,0.4,0.4,0.6,0.7,0.6l1.8,18c0,3.8,15,8.9,15,8.9L197.4,239.4z"/>
			<g>
				<path class="st23" d="M236.6,215.4c-0.1-4-3.4-7.3-7.4-7.2c-0.6,0-1.2,0.1-1.7,0.2c2.6,1.1,4.4,3.6,4.4,6.6l0.4,27.1
					c0.1,3.4-2.3,6.3-5.5,7.2c0.9,0.4,1.9,0.6,3,0.6c4-0.1,7.3-3.4,7.2-7.4L236.6,215.4z"/>
			</g>
			<g>
				<path class="st24" d="M178.9,231.5l3.1,30.8c0,3.8,17.5,12.7,17.5,12.7l-3.8-32.9c-0.7-6.4-6.3-11.1-12.8-10.8L178.9,231.5z"/>
			</g>
			<g>
				<path class="st25" d="M182.8,230.4c1.4-0.2,2.6,0.8,2.8,2.2l0.6,5.6c0.3,3-1.8,5.6-4.8,5.9l-1.2,0.1c-0.4,0-0.7-0.2-0.8-0.6
					l-1.2-10.6c-0.1-1.2,0.7-2.3,2-2.4L182.8,230.4z"/>
			</g>
		</g>
		<g>
			<path class="st6" d="M346.2,435.8c0,1-0.4,1.9-1.1,2.6c-0.7,0.7-1.6,1.1-2.6,1.1H158c-2.1,0-3.7-1.7-3.7-3.7l-0.2-55.2
				c0-1,0.4-1.9,1.1-2.6c0.7-0.7,1.6-1.1,2.6-1.1h184.4c2.1,0,3.7,1.7,3.7,3.7L346.2,435.8z"/>
			<path class="st26" d="M237.9,434.7c0,0.2-0.2,0.4-0.4,0.4l-37.9,0c-0.2,0-0.4-0.2-0.4-0.4l0-9.1c0-0.2,0.2-0.4,0.4-0.4l37.9,0
				c0.2,0,0.4,0.2,0.4,0.4L237.9,434.7z"/>
			<path class="st26" d="M184.8,434.7c0,0.2,0.2,0.4,0.4,0.4l11.5,0c0.2,0,0.4-0.2,0.4-0.4l0-9.1c0-0.2-0.2-0.4-0.4-0.4l-11.5,0
				c-0.2,0-0.4,0.2-0.4,0.4L184.8,434.7z"/>
			<path class="st26" d="M239.9,434.7c0,0.2,0.2,0.4,0.4,0.4l11.5,0c0.2,0,0.4-0.2,0.4-0.4l0-9.1c0-0.2-0.2-0.4-0.4-0.4l-11.5,0
				c-0.2,0-0.4,0.2-0.4,0.4L239.9,434.7z"/>
			<path class="st26" d="M288,421.5c0,0.2-0.2,0.4-0.4,0.4l-26.5,0c-0.2,0-0.4-0.2-0.4-0.4l0-9.1c0-0.2,0.2-0.4,0.4-0.4l26.5,0
				c0.2,0,0.4,0.2,0.4,0.4L288,421.5z"/>
			<path class="st26" d="M160.8,421.5c0,0.2,0.2,0.4,0.4,0.4l21.9,0c0.2,0,0.4-0.2,0.4-0.4l0-9.1c0-0.2-0.2-0.4-0.4-0.4l-21.9,0
				c-0.2,0-0.4,0.2-0.4,0.4L160.8,421.5z"/>
			<path class="st26" d="M195.9,421.3c0,0.2-0.2,0.4-0.4,0.4l-9.1,0c-0.2,0-0.4-0.2-0.4-0.4l0-9.1c0-0.2,0.2-0.4,0.4-0.4l9.1,0
				c0.2,0,0.4,0.2,0.4,0.4L195.9,421.3z"/>
			<path class="st26" d="M208.4,421.5c0,0.2-0.2,0.4-0.4,0.4l-9.1,0c-0.2,0-0.4-0.2-0.4-0.4l0-9.1c0-0.2,0.2-0.4,0.4-0.4l9.1,0
				c0.2,0,0.4,0.2,0.4,0.4L208.4,421.5z"/>
			<path class="st26" d="M220.8,421.5c0,0.2-0.2,0.4-0.4,0.4l-9.1,0c-0.2,0-0.4-0.2-0.4-0.4l0-9.1c0-0.2,0.2-0.4,0.4-0.4l9.1,0
				c0.2,0,0.4,0.2,0.4,0.4L220.8,421.5z"/>
			<path class="st26" d="M233.3,421.5c0,0.2-0.2,0.4-0.4,0.4l-9.1,0c-0.2,0-0.4-0.2-0.4-0.4l0-9.1c0-0.2,0.2-0.4,0.4-0.4l9.1,0
				c0.2,0,0.4,0.2,0.4,0.4L233.3,421.5z"/>
			<path class="st26" d="M245.7,421.5c0,0.2-0.2,0.4-0.4,0.4l-9.1,0c-0.2,0-0.4-0.2-0.4-0.4l0-9.1c0-0.2,0.2-0.4,0.4-0.4l9.1,0
				c0.2,0,0.4,0.2,0.4,0.4L245.7,421.5z"/>
			<path class="st26" d="M258.1,421.5c0,0.2-0.2,0.4-0.4,0.4l-9.1,0c-0.2,0-0.4-0.2-0.4-0.4l0-9.1c0-0.2,0.2-0.4,0.4-0.4l9.1,0
				c0.2,0,0.4,0.2,0.4,0.4L258.1,421.5z"/>
			<path class="st26" d="M288,409.8c0,0.2-0.2,0.4-0.4,0.4l-17.4,0c-0.2,0-0.4-0.2-0.4-0.4l0-9.1c0-0.2,0.2-0.4,0.4-0.4l17.4,0
				c0.2,0,0.4,0.2,0.4,0.4L288,409.8z"/>
			<path class="st26" d="M160.8,409.8c0,0.2,0.2,0.4,0.4,0.4l15.7,0c0.2,0,0.4-0.2,0.4-0.4l0-9.1c0-0.2-0.2-0.4-0.4-0.4l-15.7,0
				c-0.2,0-0.4,0.2-0.4,0.4L160.8,409.8z"/>
			<path class="st26" d="M189.8,409.8c0,0.2-0.2,0.4-0.4,0.4l-9.1,0c-0.2,0-0.4-0.2-0.4-0.4l0-9.1c0-0.2,0.2-0.4,0.4-0.4l9.1,0
				c0.2,0,0.4,0.2,0.4,0.4L189.8,409.8z"/>
			<path class="st26" d="M202.6,409.8c0,0.2-0.2,0.4-0.4,0.4l-9.1,0c-0.2,0-0.4-0.2-0.4-0.4l0-9.1c0-0.2,0.2-0.4,0.4-0.4l9.1,0
				c0.2,0,0.4,0.2,0.4,0.4L202.6,409.8z"/>
			<path class="st26" d="M215.5,409.8c0,0.2-0.2,0.4-0.4,0.4l-9.1,0c-0.2,0-0.4-0.2-0.4-0.4l0-9.1c0-0.2,0.2-0.4,0.4-0.4l9.1,0
				c0.2,0,0.4,0.2,0.4,0.4L215.5,409.8z"/>
			<path class="st26" d="M228.4,409.8c0,0.2-0.2,0.4-0.4,0.4l-9.1,0c-0.2,0-0.4-0.2-0.4-0.4l0-9.1c0-0.2,0.2-0.4,0.4-0.4l9.1,0
				c0.2,0,0.4,0.2,0.4,0.4L228.4,409.8z"/>
			<path class="st26" d="M241.3,409.8c0,0.2-0.2,0.4-0.4,0.4l-9.1,0c-0.2,0-0.4-0.2-0.4-0.4l0-9.1c0-0.2,0.2-0.4,0.4-0.4l9.1,0
				c0.2,0,0.4,0.2,0.4,0.4L241.3,409.8z"/>
			<path class="st26" d="M254.1,409.8c0,0.2-0.2,0.4-0.4,0.4l-9.1,0c-0.2,0-0.4-0.2-0.4-0.4l0-9.1c0-0.2,0.2-0.4,0.4-0.4l9.1,0
				c0.2,0,0.4,0.2,0.4,0.4L254.1,409.8z"/>
			<path class="st26" d="M267,409.8c0,0.2-0.2,0.4-0.4,0.4l-9.1,0c-0.2,0-0.4-0.2-0.4-0.4l0-9.1c0-0.2,0.2-0.4,0.4-0.4l9.1,0
				c0.2,0,0.4,0.2,0.4,0.4L267,409.8z"/>
			<path class="st26" d="M276.6,434.7c0,0.2-0.2,0.4-0.4,0.4l-9.1,0c-0.2,0-0.4-0.2-0.4-0.4l0-4.1c0-0.2,0.2-0.4,0.4-0.4l9.1,0
				c0.2,0,0.4,0.2,0.4,0.4L276.6,434.7z"/>
			<path class="st26" d="M276.6,428.3c0,0.2-0.2,0.4-0.4,0.4l-9.1,0c-0.2,0-0.4-0.2-0.4-0.4l0-4.1c0-0.2,0.2-0.4,0.4-0.4l9.1,0
				c0.2,0,0.4,0.2,0.4,0.4L276.6,428.3z"/>
			<path class="st26" d="M264.8,434.7c0,0.2-0.2,0.4-0.4,0.4l-9.1,0c-0.2,0-0.4-0.2-0.4-0.4l0-4.1c0-0.2,0.2-0.4,0.4-0.4l9.1,0
				c0.2,0,0.4,0.2,0.4,0.4L264.8,434.7z"/>
			<path class="st26" d="M288.3,434.7c0,0.2-0.2,0.4-0.4,0.4l-9.1,0c-0.2,0-0.4-0.2-0.4-0.4l0-4.1c0-0.2,0.2-0.4,0.4-0.4l9.1,0
				c0.2,0,0.4,0.2,0.4,0.4L288.3,434.7z"/>
			<path class="st26" d="M170.7,385.5c0,0.2-0.2,0.4-0.4,0.4l-9.1,0c-0.2,0-0.4-0.2-0.4-0.4l0-4.1c0-0.2,0.2-0.4,0.4-0.4l9.1,0
				c0.2,0,0.4,0.2,0.4,0.4L170.7,385.5z"/>
			<path class="st26" d="M182.4,385.5c0,0.2-0.2,0.4-0.4,0.4l-9.1,0c-0.2,0-0.4-0.2-0.4-0.4l0-4.1c0-0.2,0.2-0.4,0.4-0.4l9.1,0
				c0.2,0,0.4,0.2,0.4,0.4L182.4,385.5z"/>
			<path class="st26" d="M194,385.5c0,0.2-0.2,0.4-0.4,0.4l-9.1,0c-0.2,0-0.4-0.2-0.4-0.4l0-4.1c0-0.2,0.2-0.4,0.4-0.4l9.1,0
				c0.2,0,0.4,0.2,0.4,0.4L194,385.5z"/>
			<path class="st26" d="M205.7,385.5c0,0.2-0.2,0.4-0.4,0.4l-9.1,0c-0.2,0-0.4-0.2-0.4-0.4l0-4.1c0-0.2,0.2-0.4,0.4-0.4l9.1,0
				c0.2,0,0.4,0.2,0.4,0.4L205.7,385.5z"/>
			<path class="st26" d="M217.4,385.5c0,0.2-0.2,0.4-0.4,0.4l-9.1,0c-0.2,0-0.4-0.2-0.4-0.4l0-4.1c0-0.2,0.2-0.4,0.4-0.4l9.1,0
				c0.2,0,0.4,0.2,0.4,0.4L217.4,385.5z"/>
			<path class="st26" d="M229.1,385.5c0,0.2-0.2,0.4-0.4,0.4l-9.1,0c-0.2,0-0.4-0.2-0.4-0.4l0-4.1c0-0.2,0.2-0.4,0.4-0.4l9.1,0
				c0.2,0,0.4,0.2,0.4,0.4L229.1,385.5z"/>
			<path class="st26" d="M240.7,385.5c0,0.2-0.2,0.4-0.4,0.4l-9.1,0c-0.2,0-0.4-0.2-0.4-0.4l0-4.1c0-0.2,0.2-0.4,0.4-0.4l9.1,0
				c0.2,0,0.4,0.2,0.4,0.4L240.7,385.5z"/>
			<path class="st26" d="M252.4,385.5c0,0.2-0.2,0.4-0.4,0.4l-9.1,0c-0.2,0-0.4-0.2-0.4-0.4l0-4.1c0-0.2,0.2-0.4,0.4-0.4l9.1,0
				c0.2,0,0.4,0.2,0.4,0.4L252.4,385.5z"/>
			<path class="st26" d="M264.1,385.5c0,0.2-0.2,0.4-0.4,0.4l-9.1,0c-0.2,0-0.4-0.2-0.4-0.4l0-4.1c0-0.2,0.2-0.4,0.4-0.4l9.1,0
				c0.2,0,0.4,0.2,0.4,0.4L264.1,385.5z"/>
			<path class="st26" d="M275.8,385.5c0,0.2-0.2,0.4-0.4,0.4l-9.1,0c-0.2,0-0.4-0.2-0.4-0.4l0-4.1c0-0.2,0.2-0.4,0.4-0.4l9.1,0
				c0.2,0,0.4,0.2,0.4,0.4L275.8,385.5z"/>
			<path class="st26" d="M287.4,385.5c0,0.2-0.2,0.4-0.4,0.4l-9.1,0c-0.2,0-0.4-0.2-0.4-0.4l0-4.1c0-0.2,0.2-0.4,0.4-0.4l9.1,0
				c0.2,0,0.4,0.2,0.4,0.4L287.4,385.5z"/>
			<path class="st26" d="M306.9,385.5c0,0.2-0.2,0.4-0.4,0.4l-9.1,0c-0.2,0-0.4-0.2-0.4-0.4l0-4.1c0-0.2,0.2-0.4,0.4-0.4l9.1,0
				c0.2,0,0.4,0.2,0.4,0.4L306.9,385.5z"/>
			<path class="st26" d="M321.9,385.5c0,0.2-0.2,0.4-0.4,0.4l-9.1,0c-0.2,0-0.4-0.2-0.4-0.4l0-4.1c0-0.2,0.2-0.4,0.4-0.4l9.1,0
				c0.2,0,0.4,0.2,0.4,0.4L321.9,385.5z"/>
			<path class="st26" d="M336.9,385.5c0,0.2-0.2,0.4-0.4,0.4l-9.1,0c-0.2,0-0.4-0.2-0.4-0.4l0-4.1c0-0.2,0.2-0.4,0.4-0.4l9.1,0
				c0.2,0,0.4,0.2,0.4,0.4L336.9,385.5z"/>
			<g>
				<path class="st26" d="M160.8,397.6c0,0.2,0.2,0.4,0.4,0.4l11.5,0c0.2,0,0.4-0.2,0.4-0.4l0-9.1c0-0.2-0.2-0.4-0.4-0.4l-11.5,0
					c-0.2,0-0.4,0.2-0.4,0.4L160.8,397.6z"/>
				<path class="st26" d="M185.7,397.6c0,0.2-0.2,0.4-0.4,0.4l-9.1,0c-0.2,0-0.4-0.2-0.4-0.4l0-9.1c0-0.2,0.2-0.4,0.4-0.4l9.1,0
					c0.2,0,0.4,0.2,0.4,0.4L185.7,397.6z"/>
				<path class="st26" d="M198.4,397.6c0,0.2-0.2,0.4-0.4,0.4l-9.1,0c-0.2,0-0.4-0.2-0.4-0.4l0-9.1c0-0.2,0.2-0.4,0.4-0.4l9.1,0
					c0.2,0,0.4,0.2,0.4,0.4L198.4,397.6z"/>
				<path class="st26" d="M211.2,397.6c0,0.2-0.2,0.4-0.4,0.4l-9.1,0c-0.2,0-0.4-0.2-0.4-0.4l0-9.1c0-0.2,0.2-0.4,0.4-0.4l9.1,0
					c0.2,0,0.4,0.2,0.4,0.4L211.2,397.6z"/>
				<path class="st26" d="M223.9,397.6c0,0.2-0.2,0.4-0.4,0.4l-9.1,0c-0.2,0-0.4-0.2-0.4-0.4l0-9.1c0-0.2,0.2-0.4,0.4-0.4l9.1,0
					c0.2,0,0.4,0.2,0.4,0.4L223.9,397.6z"/>
				<path class="st26" d="M236.6,397.6c0,0.2-0.2,0.4-0.4,0.4l-9.1,0c-0.2,0-0.4-0.2-0.4-0.4l0-9.1c0-0.2,0.2-0.4,0.4-0.4l9.1,0
					c0.2,0,0.4,0.2,0.4,0.4L236.6,397.6z"/>
				<path class="st26" d="M249.3,397.6c0,0.2-0.2,0.4-0.4,0.4l-9.1,0c-0.2,0-0.4-0.2-0.4-0.4l0-9.1c0-0.2,0.2-0.4,0.4-0.4l9.1,0
					c0.2,0,0.4,0.2,0.4,0.4L249.3,397.6z"/>
				<path class="st26" d="M262,397.6c0,0.2-0.2,0.4-0.4,0.4l-9.1,0c-0.2,0-0.4-0.2-0.4-0.4l0-9.1c0-0.2,0.2-0.4,0.4-0.4l9.1,0
					c0.2,0,0.4,0.2,0.4,0.4L262,397.6z"/>
				<path class="st26" d="M274.7,397.6c0,0.2-0.2,0.4-0.4,0.4l-9.1,0c-0.2,0-0.4-0.2-0.4-0.4l0-9.1c0-0.2,0.2-0.4,0.4-0.4l9.1,0
					c0.2,0,0.4,0.2,0.4,0.4L274.7,397.6z"/>
				<path class="st26" d="M287.5,397.6c0,0.2-0.2,0.4-0.4,0.4l-9.1,0c-0.2,0-0.4-0.2-0.4-0.4l0-9.1c0-0.2,0.2-0.4,0.4-0.4l9.1,0
					c0.2,0,0.4,0.2,0.4,0.4L287.5,397.6z"/>
			</g>
			<path class="st26" d="M182.8,434.7c0,0.2-0.2,0.4-0.4,0.4l-9.1,0c-0.2,0-0.4-0.2-0.4-0.4l0-9.1c0-0.2,0.2-0.4,0.4-0.4l9.1,0
				c0.2,0,0.4,0.2,0.4,0.4L182.8,434.7z"/>
			<path class="st26" d="M171.1,434.7c0,0.2-0.2,0.4-0.4,0.4l-9.1,0c-0.2,0-0.4-0.2-0.4-0.4l0-9.1c0-0.2,0.2-0.4,0.4-0.4l9.1,0
				c0.2,0,0.4,0.2,0.4,0.4L171.1,434.7z"/>
			<path class="st26" d="M333.1,433.6h-32.3c-2.1,0-3.8-1.7-3.8-3.8V395c0-2.1,1.7-3.8,3.8-3.8h32.3c2.1,0,3.8,1.7,3.8,3.8v34.8
				C336.9,431.8,335.2,433.6,333.1,433.6z"/>
			<line class="st27" x1="316.9" y1="435.1" x2="316.9" y2="418.7"/>
		</g>
		<path class="st28" d="M346,380.6c0-2.1-1.7-3.7-3.7-3.7h-69c0.1,1.6-41.8,62.7-41.8,62.7h111c1,0,1.9-0.4,2.6-1.1
			c0.7-0.7,1.1-1.7,1.1-2.6L346,380.6z"/>
		<path class="st29" d="M360.9,151.7l0.6,1.8c0.1,0.3,0.3,0.5,0.6,0.6l1.8,0.6c0.9,0.3,0.9,1.5,0,1.8l-1.8,0.6
			c-0.3,0.1-0.5,0.3-0.6,0.6l-0.6,1.8c-0.3,0.9-1.5,0.9-1.8,0l-0.6-1.8c-0.1-0.3-0.3-0.5-0.6-0.6l-1.8-0.6c-0.9-0.3-0.9-1.5,0-1.8
			l1.8-0.6c0.3-0.1,0.5-0.3,0.6-0.6l0.6-1.8C359.4,150.8,360.7,150.8,360.9,151.7z"/>
		<path class="st29" d="M84.7,329.4l0.6,1.8c0.1,0.3,0.3,0.5,0.6,0.6l1.8,0.6c0.9,0.3,0.9,1.5,0,1.8l-1.8,0.6
			c-0.3,0.1-0.5,0.3-0.6,0.6l-0.6,1.8c-0.3,0.9-1.5,0.9-1.8,0l-0.6-1.8c-0.1-0.3-0.3-0.5-0.6-0.6l-1.8-0.6c-0.9-0.3-0.9-1.5,0-1.8
			l1.8-0.6c0.3-0.1,0.5-0.3,0.6-0.6l0.6-1.8C83.1,328.5,84.4,328.5,84.7,329.4z"/>
		<path class="st29" d="M62.8,157.4l0.6,1.8c0.1,0.3,0.3,0.5,0.6,0.6l1.8,0.6c0.9,0.3,0.9,1.5,0,1.8l-1.8,0.6
			c-0.3,0.1-0.5,0.3-0.6,0.6l-0.6,1.8c-0.3,0.9-1.5,0.9-1.8,0l-0.6-1.8c-0.1-0.3-0.3-0.5-0.6-0.6l-1.8-0.6c-0.9-0.3-0.9-1.5,0-1.8
			l1.8-0.6c0.3-0.1,0.5-0.3,0.6-0.6l0.6-1.8C61.3,156.5,62.6,156.5,62.8,157.4z"/>
		<path class="st29" d="M387.5,171.5l-0.5,0.8c-0.1,0.1-0.1,0.3,0,0.5l0.4,0.9c0.2,0.5-0.3,0.9-0.8,0.6l-0.8-0.5
			c-0.1-0.1-0.3-0.1-0.5,0l-0.9,0.4c-0.5,0.2-0.9-0.3-0.6-0.8l0.5-0.8c0.1-0.1,0.1-0.3,0-0.5l-0.4-0.9c-0.2-0.5,0.3-0.9,0.8-0.6
			l0.8,0.5c0.1,0.1,0.3,0.1,0.5,0l0.9-0.4C387.3,170.6,387.7,171.1,387.5,171.5z"/>
		<path class="st29" d="M121.1,310.5l-0.5,0.8c-0.1,0.1-0.1,0.3,0,0.5l0.4,0.9c0.2,0.5-0.3,0.9-0.8,0.6l-0.8-0.5
			c-0.1-0.1-0.3-0.1-0.5,0l-0.9,0.4c-0.5,0.2-0.9-0.3-0.6-0.8l0.5-0.8c0.1-0.1,0.1-0.3,0-0.5l-0.4-0.9c-0.2-0.5,0.3-0.9,0.8-0.6
			l0.8,0.5c0.1,0.1,0.3,0.1,0.5,0l0.9-0.4C120.9,309.5,121.4,310.1,121.1,310.5z"/>
		<path class="st29" d="M388.4,150.9l0,1c0,0.2,0.1,0.3,0.2,0.4l0.8,0.6c0.4,0.3,0.2,1-0.3,0.9l-1,0c-0.2,0-0.3,0.1-0.4,0.2
			l-0.6,0.8c-0.3,0.4-1,0.2-0.9-0.3l0-1c0-0.2-0.1-0.3-0.2-0.4l-0.8-0.6c-0.4-0.3-0.2-1,0.3-0.9l1,0c0.2,0,0.3-0.1,0.4-0.2l0.6-0.8
			C387.8,150.1,388.4,150.4,388.4,150.9z"/>
		<path class="st29" d="M95,294.1l0,1c0,0.2,0.1,0.3,0.2,0.4l0.8,0.6c0.4,0.3,0.2,1-0.3,0.9l-1,0c-0.2,0-0.3,0.1-0.4,0.2l-0.6,0.8
			c-0.3,0.4-1,0.2-0.9-0.3l0-1c0-0.2-0.1-0.3-0.2-0.4l-0.8-0.6c-0.4-0.3-0.2-1,0.3-0.9l1,0c0.2,0,0.3-0.1,0.4-0.2l0.6-0.8
			C94.4,293.3,95.1,293.6,95,294.1z"/>
		<path class="st29" d="M373.9,411.5l0.6,1.8c0.1,0.3,0.3,0.5,0.6,0.6l1.8,0.6c0.9,0.3,0.9,1.5,0,1.8l-1.8,0.6
			c-0.3,0.1-0.5,0.3-0.6,0.6l-0.6,1.8c-0.3,0.9-1.5,0.9-1.8,0l-0.6-1.8c-0.1-0.3-0.3-0.5-0.6-0.6l-1.8-0.6c-0.9-0.3-0.9-1.5,0-1.8
			l1.8-0.6c0.3-0.1,0.5-0.3,0.6-0.6l0.6-1.8C372.4,410.6,373.7,410.6,373.9,411.5z"/>
		<path class="st29" d="M410.4,392.6l-0.5,0.8c-0.1,0.1-0.1,0.3,0,0.5l0.4,0.9c0.2,0.5-0.3,0.9-0.8,0.6l-0.8-0.5
			c-0.1-0.1-0.3-0.1-0.5,0l-0.9,0.4c-0.5,0.2-0.9-0.3-0.6-0.8l0.5-0.8c0.1-0.1,0.1-0.3,0-0.5l-0.4-0.9c-0.2-0.5,0.3-0.9,0.8-0.6
			l0.8,0.5c0.1,0.1,0.3,0.1,0.5,0l0.9-0.4C410.2,391.6,410.6,392.2,410.4,392.6z"/>
		<path class="st29" d="M384.3,376.2l0,1c0,0.2,0.1,0.3,0.2,0.4l0.8,0.6c0.4,0.3,0.2,1-0.3,0.9l-1,0c-0.2,0-0.3,0.1-0.4,0.2
			l-0.6,0.8c-0.3,0.4-1,0.2-0.9-0.3l0-1c0-0.2-0.1-0.3-0.2-0.4l-0.8-0.6c-0.4-0.3-0.2-1,0.3-0.9l1,0c0.2,0,0.3-0.1,0.4-0.2l0.6-0.8
			C383.7,375.4,384.3,375.7,384.3,376.2z"/>
		<line class="st30" x1="344.2" y1="357.4" x2="399.3" y2="357.4"/>
		<line class="st30" x1="392.9" y1="333.2" x2="436.7" y2="333.2"/>
		<line class="st30" x1="312.9" y1="128.4" x2="383.5" y2="128.4"/>
		<line class="st30" x1="274.7" y1="109.4" x2="317.6" y2="109.4"/>
		<line class="st30" x1="93.9" y1="183.5" x2="136.7" y2="183.5"/>
		<line class="st30" x1="103.1" y1="361.7" x2="157" y2="361.7"/>
		<line class="st30" x1="71.4" y1="209.5" x2="108" y2="209.5"/>
		<g>
			<circle class="st31" cx="149.2" cy="149.2" r="29.3"/>
			<path class="st32" d="M166.8,140c0.1-0.1,0.1-0.2,0-0.3c-0.1-0.1-0.2-0.1-0.3-0.1c-1,0.3-2.4,0.5-2.4,0.5c1.3-0.9,1.8-2.2,2-3
				c0-0.1,0-0.2-0.1-0.3s-0.2-0.1-0.3,0c-0.8,0.6-2.1,1.1-3.3,1.4c-1.2-1.4-3-2.3-5-2.3c-3.7,0-6.6,3-6.6,6.6c0,0.5,0.1,1,0.2,1.4
				c-3.1-0.2-8.7-1.4-13.5-6.9c-0.1-0.1-0.2-0.1-0.3-0.1c-0.1,0-0.2,0.1-0.2,0.2c-0.4,1.5-1.3,6.1,2.1,8.4c0,0,0.1,0.1,0,0.1
				c0,0,0,0.1-0.1,0.1c-0.5,0.1-1.4,0.1-2.1-0.3c-0.1,0-0.2,0-0.3,0c-0.1,0.1-0.1,0.1-0.1,0.2c0.1,1.3,0.8,4.5,4.8,5.5
				c0,0,0.1,0.1,0.1,0.1c0,0,0,0.1-0.1,0.1c-0.4,0.2-1.1,0.4-1.9,0.3c-0.1,0-0.2,0-0.2,0.1c-0.1,0.1-0.1,0.2,0,0.2
				c0.3,1,1.4,3.5,5.5,4.1c0,0,0.1,0,0.1,0.1c0,0,0,0.1,0,0.1c-0.8,0.6-3.7,2.8-8,2.6c-0.1,0-0.2,0.1-0.2,0.2c0,0.1,0,0.2,0.1,0.3
				c2.5,1.5,10.4,5.1,20.2-1.5c7.7-5.1,8.1-11.6,7.4-15.4C165.4,142,166.3,140.8,166.8,140z"/>
		</g>
		<g>
			<circle class="st33" cx="93.7" cy="128.9" r="18.5"/>
			<g>
				<path class="st32" d="M89.2,124.9c1.2-1.2,2.8-1.9,4.5-1.9c1.8,0,3.4,0.7,4.5,1.9h7.1v-3.4c0-2.1-1.7-3.9-3.9-3.9H85.9
					c-2.1,0-3.9,1.7-3.9,3.9v3.4H89.2z M97.8,120.1c0-0.5,0.4-0.9,0.9-0.9h2.7c0.5,0,0.9,0.4,0.9,0.9v2.7c0,0.5-0.4,0.9-0.9,0.9
					h-2.7c-0.5,0-0.9-0.4-0.9-0.9V120.1z"/>
				<path class="st32" d="M99.4,126.4c0.5,0.9,0.8,1.9,0.8,3.1c0,3.5-2.9,6.4-6.4,6.4s-6.4-2.9-6.4-6.4c0-1.1,0.3-2.1,0.8-3.1h-6
					v10.8c0,2.1,1.7,3.9,3.9,3.9h15.6c2.1,0,3.9-1.7,3.9-3.9v-10.8H99.4z"/>
				<circle class="st32" cx="93.7" cy="129.4" r="4.6"/>
			</g>
		</g>
		<g>
			<circle class="st34" cx="140.6" cy="82.6" r="26.8"/>
			<path class="st32" d="M149.2,70.1v-6.3c-2.5,0-4.6,0-6.7,0c-3.6,0-6.6,2.9-6.6,6.6v5.5H132V82h3.9v19h7.4V82h4.9l0.9-6.3h-5.9
				v-4.1c0-0.9,0.7-1.6,1.6-1.6H149.2z"/>
		</g>
		<g>
			<circle class="st35" cx="321.9" cy="168.2" r="23.5"/>
			<path class="st32" d="M336.1,160.8c0-0.1,0-0.2,0-0.2c-0.1-0.1-0.1-0.1-0.2-0.1c-0.8,0.3-1.9,0.4-1.9,0.4c1-0.7,1.5-1.8,1.6-2.4
				c0-0.1,0-0.2-0.1-0.2c-0.1,0-0.2,0-0.2,0c-0.7,0.5-1.7,0.9-2.6,1.1c-1-1.1-2.4-1.8-4-1.8c-2.9,0-5.3,2.4-5.3,5.3
				c0,0.4,0,0.8,0.1,1.1c-2.5-0.2-7-1.2-10.8-5.5c-0.1-0.1-0.1-0.1-0.2-0.1c-0.1,0-0.1,0.1-0.2,0.1c-0.3,1.2-1.1,4.9,1.7,6.8
				c0,0,0,0.1,0,0.1c0,0,0,0.1-0.1,0.1c-0.4,0-1.1,0.1-1.7-0.2c-0.1,0-0.1,0-0.2,0c-0.1,0-0.1,0.1-0.1,0.2c0.1,1,0.7,3.6,3.8,4.4
				c0,0,0.1,0,0.1,0.1c0,0,0,0.1-0.1,0.1c-0.3,0.1-0.9,0.3-1.6,0.3c-0.1,0-0.1,0-0.2,0.1c0,0.1-0.1,0.1,0,0.2
				c0.2,0.8,1.1,2.8,4.4,3.3c0,0,0.1,0,0.1,0.1c0,0,0,0.1,0,0.1c-0.6,0.5-3,2.2-6.4,2.1c-0.1,0-0.2,0.1-0.2,0.1c0,0.1,0,0.2,0.1,0.2
				c2,1.2,8.4,4.1,16.2-1.2c6.2-4.1,6.5-9.3,5.9-12.4C334.9,162.4,335.6,161.4,336.1,160.8z"/>
		</g>
		<g>
			<circle class="st36" cx="307.6" cy="82.2" r="22.1"/>
			<g>
				<path class="st32" d="M302.1,77.4c1.4-1.4,3.3-2.3,5.4-2.3s4,0.9,5.4,2.3h8.5v-4c0-2.6-2.1-4.6-4.6-4.6h-18.7
					c-2.6,0-4.6,2.1-4.6,4.6v4H302.1z M312.5,71.7c0-0.6,0.5-1,1-1h3.2c0.6,0,1,0.5,1,1v3.2c0,0.6-0.5,1-1,1h-3.2c-0.6,0-1-0.5-1-1
					V71.7z"/>
				<path class="st32" d="M314.3,79.1c0.6,1.1,0.9,2.3,0.9,3.7c0,4.2-3.4,7.7-7.7,7.7s-7.7-3.4-7.7-7.7c0-1.3,0.3-2.6,0.9-3.7h-7.2
					V92c0,2.6,2.1,4.6,4.6,4.6h18.7c2.6,0,4.6-2.1,4.6-4.6V79.1H314.3z"/>
				<circle class="st32" cx="307.6" cy="82.8" r="5.2"/>
			</g>
		</g>
		<g>
			<circle class="st37" cx="242.3" cy="144.7" r="19.1"/>
			<path class="st32" d="M248.5,135.7v-4.5c-1.8,0-3.3,0-4.8,0c-2.6,0-4.7,2.1-4.7,4.7v3.9h-2.8v4.5h2.8v13.6h5.3v-13.6h3.5l0.7-4.5
				h-4.2v-2.9c0-0.6,0.5-1.2,1.2-1.2H248.5z"/>
		</g>
		<g>
			<rect x="179.3" y="97.4" class="st16" width="11.8" height="17.2"/>
			<rect x="179.3" y="109.7" class="st37" width="11.8" height="4.9"/>
			<path class="st32" d="M217.8,98.4c0-1.3-1.1-2.4-2.4-2.4H204l1.4-6c0.3-1.1,0.2-2.3-0.1-3.4c-0.4-1.4-1.1-3.1-2.1-3.9
				c-0.6-0.5-1.4-0.6-2.1-0.3c-0.7,0.3-1.1,1.1-1.1,1.8l0.1,1.5c0.1,1.8-0.4,3.6-1.4,5.1l-2.8,4.4c-1.2,1.8-2.8,3.4-4.7,4.5l0,0v13
				h0.1c0.9,0,1.8,0.3,2.5,0.7c0.6,0.4,1.4,0.6,2.1,0.6h16.6c1.2,0,2.1-1,2.1-2.1s-1-2.1-2.1-2.1h1.2c1.2,0,2.2-1,2.2-2.2
				c0-1.2-1-2.2-2.2-2.2h0.6c1.3,0,2.3-1,2.3-2.3c0-1.3-1-2.3-2.3-2.3h1.1C216.7,100.8,217.8,99.7,217.8,98.4z"/>
			<g>
				<path class="st38" d="M201.2,86.6c0.3,1.1,0.4,2.3,0.1,3.4l-1,4.3c-0.1,0.4,0,0.9,0.3,1.2c0.3,0.3,0.7,0.5,1.1,0.5h2.2l1.4-6
					c0.3-1.1,0.2-2.3-0.1-3.4c-0.4-1.4-1.1-3.1-2.1-3.9c0,0,0,0,0,0c-0.6-0.5-1.4-0.6-2.1-0.3c-0.5,0.3-0.9,0.8-1,1.3
					C200.5,84.6,200.9,85.7,201.2,86.6z"/>
				<path class="st38" d="M217.8,98.4c0-1.3-1.1-2.4-2.4-2.4h-4c1.3,0,2.4,1.1,2.4,2.4c0,1.3-1.1,2.4-2.4,2.4h-1.1
					c1.3,0,2.3,1,2.3,2.3c0,1.3-1,2.3-2.3,2.3h-0.6c1.2,0,2.2,1,2.2,2.2c0,1.2-1,2.2-2.2,2.2h-1.2c1.2,0,2.1,1,2.1,2.1
					s-1,2.1-2.1,2.1h4c1.2,0,2.1-1,2.1-2.1s-1-2.1-2.1-2.1h1.2c1.2,0,2.2-1,2.2-2.2c0-1.2-1-2.2-2.2-2.2h0.6c1.3,0,2.3-1,2.3-2.3
					c0-1.3-1-2.3-2.3-2.3h1.1C216.7,100.8,217.8,99.7,217.8,98.4z"/>
			</g>
		</g>
		<g>
			<rect x="56" y="251" class="st16" width="11.8" height="17.2"/>
			<rect x="56" y="263.3" class="st37" width="11.8" height="4.9"/>
			<path class="st32" d="M94.5,252c0-1.3-1.1-2.4-2.4-2.4H80.7l1.4-6c0.3-1.1,0.2-2.3-0.1-3.4c-0.4-1.4-1.1-3.1-2.1-3.9
				c-0.6-0.5-1.4-0.6-2.1-0.3c-0.7,0.3-1.1,1.1-1.1,1.8l0.1,1.5c0.1,1.8-0.4,3.6-1.4,5.1l-2.8,4.4c-1.2,1.8-2.8,3.4-4.7,4.5l0,0v13
				H68c0.9,0,1.8,0.3,2.5,0.7c0.6,0.4,1.4,0.6,2.1,0.6h16.6c1.2,0,2.1-1,2.1-2.1c0-1.2-1-2.1-2.1-2.1h1.2c1.2,0,2.2-1,2.2-2.2
				s-1-2.2-2.2-2.2H91c1.3,0,2.3-1,2.3-2.3c0-1.3-1-2.3-2.3-2.3h1.1C93.4,254.4,94.5,253.3,94.5,252z"/>
			<g>
				<path class="st38" d="M77.9,240.2c0.3,1.1,0.4,2.3,0.1,3.4l-1,4.3c-0.1,0.4,0,0.9,0.3,1.2c0.3,0.3,0.7,0.5,1.1,0.5h2.2l1.4-6
					c0.3-1.1,0.2-2.3-0.1-3.4c-0.4-1.4-1.1-3.1-2.1-3.9c0,0,0,0,0,0c-0.6-0.5-1.4-0.6-2.1-0.3c-0.5,0.3-0.9,0.8-1,1.3
					C77.2,238.2,77.6,239.3,77.9,240.2z"/>
				<path class="st38" d="M94.5,252c0-1.3-1.1-2.4-2.4-2.4h-4c1.3,0,2.4,1.1,2.4,2.4c0,1.3-1.1,2.4-2.4,2.4H87c1.3,0,2.3,1,2.3,2.3
					c0,1.3-1,2.3-2.3,2.3h-0.6c1.2,0,2.2,1,2.2,2.2s-1,2.2-2.2,2.2h-1.2c1.2,0,2.1,1,2.1,2.1c0,1.2-1,2.1-2.1,2.1h4
					c1.2,0,2.1-1,2.1-2.1c0-1.2-1-2.1-2.1-2.1h1.2c1.2,0,2.2-1,2.2-2.2s-1-2.2-2.2-2.2H91c1.3,0,2.3-1,2.3-2.3c0-1.3-1-2.3-2.3-2.3
					h1.1C93.4,254.4,94.5,253.3,94.5,252z"/>
			</g>
		</g>
		<g>
			<rect x="376.9" y="274.3" class="st16" width="20.7" height="30"/>
			<rect x="376.9" y="295.7" class="st37" width="20.7" height="8.6"/>
			<path class="st32" d="M444,276.1c0-2.3-1.9-4.2-4.2-4.2h-19.9l2.4-10.5c0.4-1.9,0.4-4-0.2-5.9c-0.8-2.4-2-5.4-3.7-6.9
				c0,0,0,0,0,0c-1-0.9-2.5-1-3.7-0.5c-1.2,0.6-1.9,1.8-1.9,3.2l0.1,2.5c0.2,3.2-0.7,6.3-2.4,9l-4.9,7.6c-2.1,3.2-4.9,5.9-8.2,7.8
				l0,0v22.6h0.2c1.6,0,3.1,0.4,4.4,1.3c1.1,0.7,2.4,1.1,3.7,1.1h28.9c2,0,3.7-1.7,3.7-3.7c0-2-1.7-3.7-3.7-3.7h2.2
				c2.1,0,3.8-1.7,3.8-3.8s-1.7-3.8-3.8-3.8h1c2.2,0,4-1.8,4-4c0-2.2-1.8-4-4-4h1.9C442.1,280.2,444,278.4,444,276.1z"/>
			<g>
				<path class="st38" d="M415.1,255.5c0.6,1.9,0.7,3.9,0.2,5.9l-1.7,7.5c-0.2,0.7,0,1.5,0.5,2.1c0.5,0.6,1.2,0.9,1.9,0.9h3.9
					l2.4-10.5c0.4-1.9,0.4-4-0.2-5.9c-0.8-2.4-2-5.4-3.7-6.9c0,0,0,0,0,0c-1-0.9-2.5-1-3.7-0.5c-0.9,0.5-1.6,1.3-1.8,2.3
					C413.9,252.1,414.6,253.9,415.1,255.5z"/>
				<path class="st38" d="M444,276.1c0-2.3-1.9-4.2-4.2-4.2h-7c2.3,0,4.2,1.9,4.2,4.2c0,2.3-1.9,4.2-4.2,4.2H431c2.2,0,4,1.8,4,4
					c0,2.2-1.8,4-4,4h-1c2.1,0,3.8,1.7,3.8,3.8s-1.7,3.8-3.8,3.8h-2.2c2,0,3.7,1.7,3.7,3.7c0,2-1.7,3.7-3.7,3.7h7
					c2,0,3.7-1.7,3.7-3.7c0-2-1.7-3.7-3.7-3.7h2.2c2.1,0,3.8-1.7,3.8-3.8s-1.7-3.8-3.8-3.8h1c2.2,0,4-1.8,4-4c0-2.2-1.8-4-4-4h1.9
					C442.1,280.2,444,278.4,444,276.1z"/>
			</g>
		</g>
		<g>
			<path class="st32" d="M390.5,193.9c-10.2,0-18.4,6.5-18.4,14.6c0,4.4,2.5,8.4,6.4,11c-2.1,2.2-4.9,3.9-8.2,4.7
				c1.7,0.4,3.5,0.7,5.3,0.7c3.6,0,6.9-0.9,9.7-2.5c1.7,0.4,3.4,0.6,5.3,0.6c10.2,0,18.4-6.5,18.4-14.6
				C408.9,200.5,400.7,193.9,390.5,193.9z"/>
			<g>
				<path class="st38" d="M390.5,193.9c-1,0-1.9,0.1-2.9,0.2c8.8,1.1,15.6,7.1,15.6,14.4c0,7.3-6.8,13.4-15.6,14.4
					c0.9,0.1,1.9,0.2,2.9,0.2c10.2,0,18.4-6.5,18.4-14.6C408.9,200.5,400.7,193.9,390.5,193.9z"/>
				<path class="st38" d="M379.5,222.6c-2,1.1-4.3,1.9-6.8,2.3c0.9,0.1,1.9,0.2,2.9,0.2c3.1,0,6-0.7,8.6-1.9
					C382.5,223.1,381,222.9,379.5,222.6z"/>
			</g>
		</g>
		<g>
			<path class="st32" d="M97.1,367.9c-10.2,0-18.4,6.5-18.4,14.6c0,4.4,2.5,8.4,6.4,11c-2.1,2.2-4.9,3.9-8.2,4.7
				c1.7,0.4,3.5,0.7,5.3,0.7c3.6,0,6.9-0.9,9.7-2.5c1.7,0.4,3.4,0.6,5.3,0.6c10.2,0,18.4-6.5,18.4-14.6
				C115.6,374.4,107.3,367.9,97.1,367.9z"/>
			<g>
				<path class="st38" d="M97.1,367.9c-1,0-1.9,0.1-2.9,0.2c8.8,1.1,15.6,7.1,15.6,14.4c0,7.3-6.8,13.4-15.6,14.4
					c0.9,0.1,1.9,0.2,2.9,0.2c10.2,0,18.4-6.5,18.4-14.6C115.6,374.4,107.3,367.9,97.1,367.9z"/>
				<path class="st38" d="M86.2,396.5c-2,1.1-4.3,1.9-6.8,2.3c0.9,0.1,1.9,0.2,2.9,0.2c3.1,0,6-0.7,8.6-1.9
					C89.2,397.1,87.6,396.9,86.2,396.5z"/>
			</g>
		</g>
	</g>
</g>
</svg>
