<?xml version="1.0" encoding="utf-8"?>
<!-- Generator: Adobe Illustrator 21.0.0, SVG Export Plug-In . SVG Version: 6.00 Build 0)  -->
<svg version="1.1" id="Layer_1" xmlns="http://www.w3.org/2000/svg" xmlns:xlink="http://www.w3.org/1999/xlink" x="0px" y="0px"
	 viewBox="0 0 547 373" style="enable-background:new 0 0 547 373;" xml:space="preserve">
<style type="text/css">
	.st0{fill:#2D3038;}
	.st1{fill:#424550;}
	.st2{fill:#F0F1F1;}
	.st3{fill:#E5E5E6;}
	.st4{fill:#E1E2E2;}
	.st5{fill:#CFD1D2;}
	.st6{fill:#3D404A;}
	.st7{fill:#4F898D;}
	.st8{fill:#FFFFFF;}
	.st9{fill:#3C586C;}
	.st10{fill:#405D73;}
	.st11{fill:#45647B;}
	.st12{fill:#424146;}
	.st13{fill:#38373B;}
	.st14{fill:#403F44;}
	.st15{fill:#FAFAFA;}
	.st16{fill:#BABCBE;}
	.st17{fill:#E3856D;}
	.st18{fill:#D7786A;}
	.st19{fill:#D67268;}
	.st20{fill:#D7D8D9;}
	.st21{fill:#C0C2C3;}
	.st22{fill:#D1EAF2;}
	.st23{opacity:0.3;fill:#A5A6A9;}
	.st24{opacity:0.3;fill:#E3856D;}
	.st25{opacity:0.2;fill:#E3856D;}
	.st26{opacity:0.2;fill:#AF5B56;}
	.st27{fill:#383C44;}
	.st28{fill:#2C2E36;}
	.st29{fill:#252830;}
</style>
<g>
	<g>
		<g>
			<path class="st0" d="M409.8,66c0-5.3-3.8-9.6-8.4-9.6H135.7c-4.7,0-8.4,4.3-8.4,9.6v155.8h282.5V66z"/>
			<path class="st1" d="M391.2,80.7c0-4.4-3.3-8-7.3-8H153.2c-4,0-7.3,3.6-7.3,8v129h245.3V80.7z"/>
			<path class="st2" d="M127.3,221.8v52.8c0,5.3,3.8,9.7,8.4,9.7h265.6c4.7,0,8.4-4.3,8.4-9.7v-52.8H127.3z"/>
			<polygon class="st3" points="306.3,284.2 299.3,284.2 239.2,284.2 232.2,284.2 228.5,324.4 239.2,324.4 299.3,324.4 310.1,324.4 
							"/>
			<polygon class="st4" points="306.7,288.9 231.8,288.9 232.2,284.2 306.3,284.2 			"/>
			<g>
				<path class="st5" d="M320.3,331.3c0.3-0.6,0.4-1.4,0.4-2.1c0-2.9-2.4-5.3-5.3-5.3h-93.9c-2.9,0-5.3,2.4-5.3,5.3
					c0,0.8,0.2,1.5,0.4,2.1H320.3z"/>
			</g>
			<ellipse class="st3" cx="269.3" cy="250.3" rx="11.3" ry="11.3"/>
		</g>
		<g>
			<path class="st6" d="M391.2,82.7v-2c0-4.4-3.3-8-7.3-8H153.2c-4,0-7.3,3.6-7.3,8v127.4C178.4,147.2,272.1,99.2,391.2,82.7z"/>
		</g>
	</g>
	<g>
		<path class="st7" d="M29.9,104.1c0,7.1,5.8,12.9,12.9,12.9h43.7c7.1,0,12.9-5.8,12.9-12.9v-7.9c0-7.1-5.8-12.9-12.9-12.9H42.8
			c-7.1,0-12.9,5.8-12.9,12.9V104.1z"/>
		<g>
			<path class="st8" d="M50.1,105.4v-4.3h-5.3v4.3h-2V94.7h2v4.5h5.3v-4.5h2v10.7H50.1z"/>
			<path class="st8" d="M57.9,96.6h-3.4v-1.8c3.1,0,5.7,0,8.8,0v1.8h-3.4v8.9h-2V96.6z"/>
			<path class="st8" d="M75,97.7l-3.5,4.6h-0.4l-3.4-4.7v7.8h-2V94.7H68l3.3,4.6l3.3-4.6H77v10.7h-2V97.7z"/>
			<path class="st8" d="M82,94.7v8.8h5.5v1.9H80V94.7H82z"/>
		</g>
	</g>
	<g>
		<path class="st7" d="M462.2,156.5c0,7.1,5.8,12.9,12.9,12.9h43.7c7.1,0,12.9-5.8,12.9-12.9v-7.9c0-7.1-5.8-12.9-12.9-12.9h-43.7
			c-7.1,0-12.9,5.8-12.9,12.9V156.5z"/>
		<g>
			<path class="st8" d="M488,157.1c-1.3,1.3-3,1.9-4.8,1.9c-4.6,0-6.6-3.2-6.6-6.5c0-3.3,2.1-6.6,6.6-6.6c1.7,0,3.3,0.6,4.6,1.9
				l-1.6,1.5c-0.8-0.8-1.9-1.2-3-1.2c-3,0-4.3,2.3-4.3,4.3c0,2.1,1.2,4.2,4.3,4.2c1.1,0,2.3-0.4,3.1-1.3L488,157.1z"/>
			<path class="st8" d="M498.6,149.2c-0.4-0.7-1.6-1.4-3-1.4c-1.8,0-2.6,0.7-2.6,1.7c0,1.1,1.3,1.4,2.8,1.6c2.6,0.3,5,1,5,4
				c0,2.8-2.5,4-5.3,4c-2.6,0-4.5-0.8-5.5-3.1l2-1c0.6,1.4,2,2,3.5,2c1.5,0,2.9-0.5,2.9-1.9c0-1.2-1.2-1.7-2.9-1.8
				c-2.6-0.3-4.9-1-4.9-3.8c0-2.6,2.5-3.6,4.8-3.6c1.9,0,4,0.6,4.9,2.5L498.6,149.2z"/>
			<path class="st8" d="M511.7,149.2c-0.4-0.7-1.6-1.4-3-1.4c-1.8,0-2.6,0.7-2.6,1.7c0,1.1,1.3,1.4,2.8,1.6c2.6,0.3,5,1,5,4
				c0,2.8-2.5,4-5.3,4c-2.6,0-4.5-0.8-5.5-3.1l2-1c0.6,1.4,2,2,3.5,2c1.5,0,2.9-0.5,2.9-1.9c0-1.2-1.2-1.7-2.9-1.8
				c-2.6-0.3-4.9-1-4.9-3.8c0-2.6,2.5-3.6,4.8-3.6c1.9,0,4,0.6,4.9,2.5L511.7,149.2z"/>
		</g>
	</g>
	<g>
		<path class="st7" d="M426.6,60.3c0,7.1,5.8,12.9,12.9,12.9h43.7c7.1,0,12.9-5.8,12.9-12.9v-7.9c0-7.1-5.8-12.9-12.9-12.9h-43.7
			c-7.1,0-12.9,5.8-12.9,12.9V60.3z"/>
		<g>
			<path class="st8" d="M447.4,56.8c0,2.8-1.8,4.8-4.7,4.8c-2.7,0-4.7-1.6-4.7-4.7h2c0,1.8,0.9,2.8,2.7,2.8c1.8,0,2.7-1.3,2.7-2.9
				v-4.2h-3.2v-1.9c1.7,0,3.5,0,5.2,0V56.8z"/>
			<path class="st8" d="M458.1,59.4h-5.6l-0.9,2h-2.2l4.8-10.7h2.2l4.8,10.7H459L458.1,59.4z M455.3,52.9l-2,4.6h4L455.3,52.9z"/>
			<path class="st8" d="M467.3,61.4h-2.1l-4.4-10.7h2.3l3.2,8.3l3.2-8.3h2.3L467.3,61.4z"/>
			<path class="st8" d="M481.7,59.4h-5.6l-0.9,2H473l4.8-10.7h2.2l4.8,10.7h-2.2L481.7,59.4z M478.9,52.9l-2,4.6h4L478.9,52.9z"/>
		</g>
	</g>
	<g>
		<g>
			<g>
				<g>
					<g>
						<polygon class="st9" points="489,246.6 502.8,323.5 500.6,323.8 486.8,246.9 						"/>
						<polygon class="st10" points="486.8,246.9 500.6,323.8 498.3,324.1 484.5,247.2 						"/>
						<polygon class="st11" points="482.3,247.5 484.5,247.2 498.3,324.1 496.1,324.4 						"/>
					</g>
					<g>
						<path class="st12" d="M482.7,238.6l0.3-5.7l2.3,5.3C484.6,238.7,483.7,238.9,482.7,238.6z"/>
						<path class="st8" d="M485.4,238.2l3.6,8.3l-6.7,0.9l0.5-8.9C483.7,238.9,484.6,238.7,485.4,238.2z"/>
					</g>
					<polygon class="st8" points="496.5,326.5 503.2,325.6 502.8,323.5 496.1,324.4 					"/>
					<polygon class="st13" points="497.9,334.3 504.6,333.4 503.2,325.6 496.5,326.5 					"/>
				</g>
				<polygon class="st14" points="504.6,333.4 503.2,325.6 501.1,325.8 502.5,333.7 				"/>
				<polygon class="st15" points="502.8,323.5 503.2,325.6 501.1,325.8 500.7,323.7 				"/>
			</g>
			<g>
				<g>
					<g>
						<polygon class="st3" points="502.1,246.4 495.4,324.1 493.2,323.9 499.9,246.3 						"/>
						<polygon class="st5" points="499.9,246.3 493.2,323.9 490.9,323.8 497.6,246.1 						"/>
						<polygon class="st16" points="495.3,246 497.6,246.1 490.9,323.8 488.7,323.6 						"/>
					</g>
					<g>
						<path class="st12" d="M498.2,237.4l1.8-5.5l0.8,5.7C499.9,237.9,499,237.9,498.2,237.4z"/>
						<path class="st8" d="M500.8,237.6l1.3,8.8l-6.8-0.5l2.8-8.6C499,237.9,499.9,237.9,500.8,237.6z"/>
					</g>
					<polygon class="st8" points="488.5,325.7 495.3,326.2 495.4,324.1 488.7,323.6 					"/>
					<polygon class="st13" points="487.8,333.6 494.6,334.1 495.3,326.2 488.5,325.7 					"/>
				</g>
				<polygon class="st14" points="494.6,334.1 495.3,326.2 493.2,326.1 492.5,333.9 				"/>
				<polygon class="st15" points="495.4,324.1 495.3,326.2 493.2,326.1 493.4,323.9 				"/>
			</g>
			<g>
				<g>
					<g>
						<polygon class="st17" points="479.3,245.1 495,321.7 492.8,322.1 477.1,245.5 						"/>
						<polygon class="st18" points="477.1,245.5 492.8,322.1 490.5,322.5 474.8,245.9 						"/>
						<polygon class="st19" points="472.6,246.2 474.8,245.9 490.5,322.5 488.3,322.8 						"/>
					</g>
					<g>
						<path class="st12" d="M472.9,237.3l0.2-5.7l2.4,5.3C474.7,237.4,473.8,237.5,472.9,237.3z"/>
						<path class="st8" d="M475.5,236.9l3.8,8.3l-6.7,1.1l0.3-8.9C473.8,237.5,474.7,237.4,475.5,236.9z"/>
					</g>
					<polygon class="st8" points="488.8,324.9 495.4,323.8 495,321.7 488.3,322.8 					"/>
					<polygon class="st13" points="490.4,332.7 497,331.6 495.4,323.8 488.8,324.9 					"/>
				</g>
				<polygon class="st14" points="497,331.6 495.4,323.8 493.4,324.2 495,332 				"/>
				<polygon class="st15" points="495,321.7 495.4,323.8 493.4,324.2 493,322.1 				"/>
			</g>
		</g>
		<g>
			<rect x="461.4" y="284.6" class="st2" width="57.5" height="7.5"/>
			<rect x="466.5" y="292.1" class="st4" width="47.4" height="46.8"/>
			<rect x="466.5" y="292.1" class="st20" width="47.4" height="2.2"/>
		</g>
	</g>
	<g>
		<g>
			<g>
				<g>
					<g>
						<rect x="170.9" y="47.2" class="st8" width="192.4" height="162.4"/>
						<path class="st5" d="M363.3,33.7c0-5.3-4.3-9.7-9.7-9.7H180.6c-5.3,0-9.7,4.3-9.7,9.7V34h192.4V33.7z"/>
						<rect x="170.9" y="34" class="st3" width="192.4" height="13.2"/>
					</g>
					<path class="st8" d="M192.7,42.9c0,0.5,0.5,0.9,1.1,0.9h146.2c0.6,0,1.1-0.4,1.1-0.9v-4.6c0-0.5-0.5-0.9-1.1-0.9H193.8
						c-0.6,0-1.1,0.4-1.1,0.9V42.9z"/>
					<circle class="st21" cx="178.1" cy="29" r="1.4"/>
					<circle class="st21" cx="182" cy="29" r="1.4"/>
					<circle class="st21" cx="186" cy="29" r="1.4"/>
					<path class="st5" d="M175.2,41.7c0,0.8,0.6,1.4,1.4,1.4h2.8c0.8,0,1.4-0.6,1.4-1.4v-2.2c0-0.8-0.6-1.4-1.4-1.4h-2.8
						c-0.8,0-1.4,0.6-1.4,1.4V41.7z"/>
					<path class="st5" d="M183.6,41.6c0,0.8,0.6,1.4,1.4,1.4h2.8c0.8,0,1.4-0.6,1.4-1.4v-2.2c0-0.8-0.6-1.4-1.4-1.4H185
						c-0.8,0-1.4,0.6-1.4,1.4V41.6z"/>
					<path class="st5" d="M344.9,41.7c0,0.8,0.6,1.4,1.4,1.4h2.8c0.8,0,1.4-0.6,1.4-1.4v-2.2c0-0.8-0.6-1.4-1.4-1.4h-2.8
						c-0.8,0-1.4,0.6-1.4,1.4V41.7z"/>
					<path class="st5" d="M353.1,41.7c0,0.8,0.6,1.4,1.4,1.4h2.8c0.8,0,1.4-0.6,1.4-1.4v-2.2c0-0.8-0.6-1.4-1.4-1.4h-2.8
						c-0.8,0-1.4,0.6-1.4,1.4V41.7z"/>
				</g>
			</g>
		</g>
		<rect x="178" y="53.3" class="st22" width="122.7" height="40.9"/>
		<rect x="304.3" y="53.3" class="st23" width="51.5" height="40.9"/>
		<rect x="170.9" y="98.7" class="st24" width="192.4" height="34.3"/>
		<rect x="179.5" y="139.1" class="st22" width="55.1" height="36.5"/>
		<rect x="239.9" y="139.1" class="st22" width="55.1" height="36.5"/>
		<rect x="300.8" y="139.1" class="st22" width="55.1" height="36.5"/>
		<g>
			<rect x="179.5" y="180.9" class="st23" width="41.4" height="6.1"/>
			<rect x="179.5" y="190" class="st2" width="48.7" height="3.1"/>
			<rect x="179.5" y="196.8" class="st2" width="29.9" height="3.2"/>
			<rect x="211.8" y="196.8" class="st2" width="13.4" height="3.2"/>
		</g>
		<g>
			<rect x="179.8" y="110.6" class="st25" width="29.5" height="3.4"/>
			<rect x="179.8" y="115.6" class="st26" width="34.7" height="1.7"/>
			<rect x="179.8" y="119.4" class="st26" width="21.3" height="1.8"/>
			<rect x="202.8" y="119.4" class="st26" width="9.5" height="1.8"/>
		</g>
		<g>
			<rect x="239.9" y="180.5" class="st23" width="41.4" height="6.1"/>
			<rect x="239.9" y="189.5" class="st2" width="48.7" height="3.1"/>
			<rect x="239.9" y="196.3" class="st2" width="29.9" height="3.2"/>
			<rect x="272.2" y="196.3" class="st2" width="13.4" height="3.2"/>
		</g>
		<g>
			<rect x="300.8" y="180.5" class="st23" width="41.4" height="6.1"/>
			<rect x="300.8" y="189.5" class="st2" width="48.7" height="3.1"/>
			<rect x="300.8" y="196.3" class="st2" width="29.9" height="3.2"/>
			<rect x="333.1" y="196.3" class="st2" width="13.4" height="3.2"/>
		</g>
		<rect x="347.6" y="112.6" class="st25" width="8.2" height="7.2"/>
	</g>
	<g>
		<g>
			<g>
				<g>
					<g>
						<path class="st27" d="M467.3,190.4c0-2.2-1.8-3.9-3.9-3.9h-82c-2.2,0-3.9,1.8-3.9,3.9v21.4h89.8V190.4z"/>
						<path class="st27" d="M377.5,336.1c0,2.2,1.8,3.9,3.9,3.9h82c2.2,0,3.9-1.8,3.9-3.9v-27.9h-89.8V336.1z"/>
						<rect x="377.5" y="211.8" class="st8" width="89.8" height="96.4"/>
					</g>
					<path class="st28" d="M429.8,324.7c0,3.6-2.9,6.5-6.5,6.5c-3.6,0-6.5-2.9-6.5-6.5c0-3.6,2.9-6.5,6.5-6.5
						C426.9,318.2,429.8,321.1,429.8,324.7z"/>
					<path class="st28" d="M440.2,198.1c0,1.3-1.1,2.4-2.4,2.4H406c-1.3,0-2.4-1.1-2.4-2.4l0,0c0-1.3,1.1-2.4,2.4-2.4h31.8
						C439.2,195.7,440.2,196.7,440.2,198.1L440.2,198.1z"/>
				</g>
			</g>
		</g>
		<rect x="381.5" y="215.3" class="st22" width="81.1" height="27.7"/>
		<rect x="377.5" y="246.5" class="st24" width="89.8" height="33.6"/>
		<rect x="381.5" y="283.2" class="st23" width="38.2" height="21.4"/>
		<rect x="424.5" y="283.2" class="st23" width="38.2" height="21.4"/>
		<g>
			<rect x="382.6" y="258" class="st25" width="23.3" height="2.7"/>
			<rect x="382.6" y="262" class="st26" width="27.4" height="1.4"/>
			<rect x="382.6" y="265" class="st26" width="16.9" height="1.4"/>
			<rect x="400.9" y="265" class="st26" width="7.5" height="1.4"/>
		</g>
		<rect x="454.5" y="259.7" class="st25" width="8.2" height="7.2"/>
	</g>
	<g>
		<g>
			<g>
				<path class="st27" d="M23,324.4c0,4.6,3.7,8.3,8.3,8.3h112.4c4.6,0,8.3-3.7,8.3-8.3v-21.2H23V324.4z"/>
				<rect x="23" y="168.1" class="st8" width="129" height="135"/>
				<path class="st27" d="M152,154.5c0-4.6-3.7-8.3-8.3-8.3H31.3c-4.6,0-8.3,3.7-8.3,8.3v13.6h129V154.5z"/>
			</g>
			<g>
				<path class="st28" d="M98.1,158.8H76.9c-0.9,0-1.7-0.8-1.7-1.7c0-0.9,0.8-1.7,1.7-1.7h21.2c0.9,0,1.7,0.8,1.7,1.7
					C99.8,158.1,99,158.8,98.1,158.8z"/>
			</g>
			<circle class="st28" cx="87.5" cy="316.6" r="5.8"/>
		</g>
		<rect x="28.9" y="172.1" class="st22" width="116.8" height="39.8"/>
		<rect x="23" y="217" class="st24" width="129" height="48.3"/>
		<rect x="28.9" y="269.8" class="st23" width="55" height="30.8"/>
		<rect x="90.7" y="269.8" class="st23" width="55" height="30.8"/>
		<g>
			<rect x="30.5" y="233.6" class="st25" width="33.5" height="3.9"/>
			<rect x="30.5" y="239.3" class="st26" width="39.5" height="2"/>
			<rect x="30.5" y="243.6" class="st26" width="24.3" height="2"/>
			<rect x="56.7" y="243.6" class="st26" width="10.9" height="2"/>
		</g>
		<rect x="133.9" y="236.1" class="st25" width="11.8" height="10.3"/>
	</g>
	<g>
		<rect x="152" y="209.6" class="st29" width="4.1" height="12.1"/>
		<rect x="152" y="221.8" class="st4" width="4.1" height="62.5"/>
	</g>
	<g>
		<rect x="373.4" y="209.6" class="st29" width="4.1" height="12.1"/>
		<rect x="373.4" y="221.7" class="st4" width="4.1" height="62.5"/>
	</g>
</g>
</svg>
