<?xml version="1.0" encoding="utf-8"?>
<!-- Generator: Adobe Illustrator 21.0.0, SVG Export Plug-In . SVG Version: 6.00 Build 0)  -->
<svg version="1.1" id="Layer_1" xmlns="http://www.w3.org/2000/svg" xmlns:xlink="http://www.w3.org/1999/xlink" x="0px" y="0px"
	 viewBox="0 0 500 500" style="enable-background:new 0 0 500 500;" xml:space="preserve">
<style type="text/css">
	.st0{fill-rule:evenodd;clip-rule:evenodd;fill:#F2D282;}
	.st1{fill-rule:evenodd;clip-rule:evenodd;fill:#4E4E4E;}
	.st2{fill-rule:evenodd;clip-rule:evenodd;fill:#577398;}
	.st3{fill-rule:evenodd;clip-rule:evenodd;fill:#F4F4F4;}
	.st4{fill-rule:evenodd;clip-rule:evenodd;fill:#FFFFFF;}
	.st5{fill-rule:evenodd;clip-rule:evenodd;fill:#9DBBE0;}
	.st6{fill-rule:evenodd;clip-rule:evenodd;fill:#D27A5E;}
	.st7{fill-rule:evenodd;clip-rule:evenodd;fill:#6E94C8;}
	.st8{fill-rule:evenodd;clip-rule:evenodd;fill:#D26359;}
	.st9{fill-rule:evenodd;clip-rule:evenodd;fill:#73853C;}
	.st10{fill-rule:evenodd;clip-rule:evenodd;fill:#E4A530;}
	.st11{fill-rule:evenodd;clip-rule:evenodd;fill:#ACC7E8;}
	.st12{fill:#FFFFFF;}
	.st13{fill-rule:evenodd;clip-rule:evenodd;fill:#CACACA;}
	.st14{fill-rule:evenodd;clip-rule:evenodd;fill:#E2968F;}
</style>
<path class="st0" d="M120.5,71h270.3c28.4,0,51.6,23.2,51.6,51.6v270.3c0,28.4-23.2,51.6-51.6,51.6H120.5
	c-28.4,0-51.6-23.2-51.6-51.6V122.6C68.9,94.2,92.1,71,120.5,71z"/>
<g>
	<polygon class="st1" points="226.3,364.1 285.1,364.1 312.6,414 198.7,414 	"/>
	<path class="st2" d="M117.1,169.3h277.1c7.8,0,14.2,6.4,14.2,14.2v179.1c0,7.8-6.4,14.2-14.2,14.2H117.1c-7.8,0-14.2-6.4-14.2-14.2
		V183.4C103,175.6,109.3,169.3,117.1,169.3z"/>
	<g>
		<circle class="st3" cx="391.2" cy="364.2" r="1.8"/>
		<circle class="st3" cx="384" cy="364.2" r="1.8"/>
		<circle class="st3" cx="376.8" cy="364.2" r="1.8"/>
	</g>
	<path class="st2" d="M86.6,398.9h338.2c4.1,0,7.5,3.4,7.5,7.5v0c0,4.1-3.4,7.5-7.5,7.5H86.6c-4.1,0-7.5-3.4-7.5-7.5v0
		C79,402.3,82.4,398.9,86.6,398.9z"/>
	<path class="st1" d="M432.3,406.5c0,4.1-3.4,7.5-7.5,7.5H86.6c-4.2,0-7.5-3.4-7.5-7.5H432.3z"/>
</g>
<g>
	<rect x="112.4" y="177.5" class="st4" width="286.6" height="173.9"/>
	<rect x="131.4" y="177.5" class="st5" width="248.6" height="15.1"/>
	<rect x="197.8" y="201.8" class="st6" width="115.7" height="22.9"/>
	<rect x="131.4" y="251.6" class="st7" width="248.6" height="63.2"/>
	<rect x="179.1" y="233.7" class="st5" width="153.1" height="9.6"/>
	<rect x="146.5" y="327.5" class="st0" width="62.4" height="24"/>
	<rect x="224.5" y="327.5" class="st8" width="62.4" height="24"/>
	<rect x="302.5" y="327.5" class="st9" width="62.4" height="24"/>
</g>
<g>
	<g>
		
			<rect x="46.9" y="331.6" transform="matrix(0.9087 -0.4174 0.4174 0.9087 -153.588 54.8783)" class="st7" width="3.6" height="94"/>
		<polygon class="st1" points="27.4,336.7 30.7,335.1 26.6,330.7 		"/>
	</g>
	<g>
		
			<rect x="36.8" y="378.5" transform="matrix(0.504 -0.8637 0.8637 0.504 -286.8826 260.9623)" class="st10" width="94" height="3.6"/>
		<polygon class="st1" points="109,340.6 105.9,338.8 110.4,334.7 		"/>
	</g>
	<g>
		
			<rect x="57.3" y="328.6" transform="matrix(0.9802 -0.1979 0.1979 0.9802 -73.1583 19.1273)" class="st11" width="3.6" height="94"/>
		<polygon class="st1" points="48,329.9 51.6,329.2 48.7,323.9 		"/>
	</g>
	<g>
		
			<rect x="32.4" y="375" transform="matrix(0.2331 -0.9725 0.9725 0.2331 -305.5206 366.1911)" class="st8" width="94" height="3.6"/>
		<polygon class="st1" points="88.6,330.7 92.1,331.5 91.7,325.5 		"/>
	</g>
	<g>
		<rect x="37.3" y="364.2" class="st7" width="60.6" height="4.5"/>
		<rect x="52.9" y="421.9" class="st7" width="29.5" height="4.5"/>
		<polygon class="st7" points="41.8,368.7 57.4,426.4 52.9,426.4 37.3,368.7 		"/>
		<polygon class="st7" points="93.4,368.7 77.8,426.4 82.4,426.4 97.9,368.7 		"/>
		<g>
			<g>
				<polygon class="st7" points="45.5,367.8 60.4,422.8 57.9,422.8 43.1,367.8 				"/>
				<polygon class="st7" points="50.9,367.8 65.7,422.8 63.3,422.8 48.5,367.8 				"/>
				<polygon class="st7" points="56.3,367.8 71.1,422.8 68.6,422.8 53.8,367.8 				"/>
				<polygon class="st7" points="61.6,367.8 76.4,422.8 74,422.8 59.2,367.8 				"/>
				<polygon class="st7" points="67,367.8 80.6,418.4 79.4,422.8 79.4,422.8 64.5,367.8 				"/>
				<polygon class="st7" points="72.3,367.8 83.3,408.5 82.1,413 69.9,367.8 				"/>
				<polygon class="st7" points="77.7,367.8 86,398.6 84.7,403.1 75.3,367.8 				"/>
				<polygon class="st7" points="83,367.8 88.6,388.6 87.4,393.1 80.6,367.8 				"/>
				<polygon class="st7" points="88.4,367.8 91.3,378.7 90.1,383.2 86,367.8 				"/>
				<polygon class="st7" points="93.7,367.8 94,368.8 92.8,373.3 91.3,367.8 				"/>
			</g>
			<g>
				<polygon class="st7" points="88.9,367.8 74.1,422.8 76.5,422.8 91.3,367.8 				"/>
				<polygon class="st7" points="83.5,367.8 68.7,422.8 71.1,422.8 86,367.8 				"/>
				<polygon class="st7" points="78.2,367.8 63.4,422.8 65.8,422.8 80.6,367.8 				"/>
				<polygon class="st7" points="72.8,367.8 58,422.8 60.4,422.8 75.3,367.8 				"/>
				<polygon class="st7" points="67.5,367.8 54.2,416.9 55.4,421.4 69.9,367.8 				"/>
				<polygon class="st7" points="62.1,367.8 51.6,407 52.8,411.5 64.5,367.8 				"/>
				<polygon class="st7" points="56.8,367.8 48.9,397.1 50.1,401.6 59.2,367.8 				"/>
				<polygon class="st7" points="51.4,367.8 46.2,387.2 47.4,391.7 53.8,367.8 				"/>
				<polygon class="st7" points="46.1,367.8 43.5,377.2 44.7,381.7 48.5,367.8 				"/>
				<polygon class="st7" points="42.1,371.8 43.1,367.8 41,367.8 				"/>
			</g>
		</g>
	</g>
</g>
<g>
	<polygon class="st1" points="195.3,99.3 188.5,88.6 68.9,165.1 68.9,170.8 191.1,92.7 192.7,95.2 68.9,174.3 68.9,180 	"/>
	<path class="st1" d="M185.4,59.2c4.2-1.8,8.6-3,13.1-3.6L212,77.8c16.3,1.6,32.6,13.9,41.1,32.7c-12.6,4.3-25.8,9.4-39.1,15.1
		c-13.3,5.7-26,11.8-37.9,18c-7.8-19.1-5.5-39.4,4.5-52.4l-6.8-25.1C177.3,63.4,181.2,61,185.4,59.2z"/>
</g>
<g>
	<path class="st12" d="M369.8,278.6c-0.3-0.3-0.2-0.8,0.1-1.1c0.3-0.3,0.8-0.2,1.1,0.1l2,2.5c0,0,0,0,0,0.1l0,0l0,0l0,0l0,0l0,0l0,0
		c0,0,0,0.1,0,0.1l0,0c0,0,0,0.1,0,0.1v0c0,0,0,0.1,0,0.1l0,0v0l0,0c0,0,0,0.1,0,0.1v0c0,0,0,0.1,0,0.1l0,0c0,0,0,0.1,0,0.1l0,0l0,0
		l0,0l0,0l0,0l0,0c0,0,0,0,0,0.1l-2,2.5c-0.3,0.3-0.8,0.4-1.1,0.1c-0.3-0.3-0.4-0.8-0.1-1.1l1.6-2L369.8,278.6z"/>
	<path class="st12" d="M142.3,278.6c0.3-0.3,0.2-0.8-0.1-1.1c-0.3-0.3-0.8-0.2-1.1,0.1l-2,2.5c0,0,0,0-0.1,0.1l0,0l0,0l0,0l0,0l0,0
		l0,0c0,0,0,0.1,0,0.1l0,0c0,0,0,0.1,0,0.1l0,0c0,0,0,0.1,0,0.1l0,0v0l0,0c0,0,0,0.1,0,0.1l0,0c0,0,0,0.1,0,0.1l0,0c0,0,0,0.1,0,0.1
		l0,0l0,0l0,0l0,0l0,0l0,0c0,0,0,0,0.1,0.1l2,2.5c0.3,0.3,0.8,0.4,1.1,0.1c0.3-0.3,0.4-0.8,0.1-1.1l-1.6-2L142.3,278.6z"/>
</g>
<g>
	<g>
		<path class="st1" d="M456.2,303.8h-50.5c-9.8,0-17.8,8-17.8,17.8v87.1c0,9.8,8,17.8,17.8,17.8h50.5c9.8,0,17.8-8,17.8-17.8v-87.1
			C474,311.7,466,303.8,456.2,303.8z"/>
		<path class="st4" d="M467.6,314h-73.3c-0.1,0-0.3,0.1-0.3,0.3v100.6c0,0.1,0.1,0.3,0.3,0.3h73.3c0.1,0,0.3-0.1,0.3-0.3V314.3
			C467.9,314.2,467.8,314,467.6,314z"/>
		<path class="st13" d="M440.4,306.8h-18.9c-0.5,0-0.9,0.4-0.9,0.9l0,0c0,0.5,0.4,0.9,0.9,0.9h18.9c0.5,0,0.9-0.4,0.9-0.9l0,0
			C441.4,307.2,440.9,306.8,440.4,306.8z"/>
		<circle class="st13" cx="431" cy="420.6" r="3.1"/>
	</g>
	<g>
		<rect x="394.1" y="314" class="st4" width="73.8" height="101.1"/>
		<rect x="394.1" y="314" class="st5" width="73.8" height="4.9"/>
		<rect x="413.8" y="321.9" class="st6" width="34.3" height="7.5"/>
		<rect x="394.1" y="338.2" class="st7" width="73.8" height="20.6"/>
		<rect x="408.3" y="332.3" class="st5" width="45.5" height="3.1"/>
		<rect x="398.6" y="362.9" class="st0" width="18.5" height="16.7"/>
		<rect x="421.7" y="362.9" class="st14" width="18.5" height="16.7"/>
		<rect x="444.9" y="362.9" class="st11" width="18.5" height="16.7"/>
		<rect x="394.1" y="406.1" class="st5" width="73.8" height="9"/>
		<g>
			<rect x="398.6" y="381.8" class="st13" width="18.5" height="3.1"/>
			<rect x="398.6" y="387.2" class="st13" width="18.5" height="3.1"/>
			<rect x="398.6" y="392.6" class="st13" width="18.5" height="3.1"/>
			<rect x="398.6" y="398" class="st13" width="11.7" height="3.1"/>
			<rect x="421.7" y="381.8" class="st13" width="18.5" height="3.1"/>
			<rect x="421.7" y="387.2" class="st13" width="18.5" height="3.1"/>
			<rect x="421.7" y="392.6" class="st13" width="18.5" height="3.1"/>
			<rect x="421.7" y="398" class="st13" width="11.7" height="3.1"/>
			<rect x="444.9" y="381.8" class="st13" width="18.5" height="3.1"/>
			<rect x="444.9" y="387.2" class="st13" width="18.5" height="3.1"/>
			<rect x="444.9" y="392.6" class="st13" width="18.5" height="3.1"/>
			<rect x="444.9" y="398" class="st13" width="11.7" height="3.1"/>
		</g>
		<path class="st12" d="M463,345.3c-0.2-0.3-0.2-0.7,0.1-0.9c0.3-0.2,0.7-0.2,0.9,0.1l1.6,2c0,0,0,0,0,0.1v0l0,0l0,0l0,0l0,0l0,0
			c0,0,0,0,0,0.1l0,0c0,0,0,0.1,0,0.1v0c0,0,0,0,0,0.1v0v0v0c0,0,0,0,0,0.1v0c0,0,0,0.1,0,0.1l0,0c0,0,0,0,0,0.1l0,0l0,0l0,0l0,0
			l0,0v0c0,0,0,0,0,0.1l-1.6,2c-0.2,0.3-0.6,0.3-0.9,0.1c-0.3-0.2-0.3-0.6-0.1-0.9l1.3-1.6L463,345.3z"/>
		<path class="st12" d="M398,344.6c0.2-0.3,0.6-0.3,0.9-0.1c0.3,0.2,0.3,0.6,0.1,0.9l-1.3,1.6l1.3,1.6c0.2,0.3,0.2,0.7-0.1,0.9
			c-0.3,0.2-0.7,0.2-0.9-0.1l-1.6-2c0,0,0,0,0-0.1l0,0l0,0l0,0l0,0l0,0l0,0c0,0,0,0,0-0.1l0,0c0,0,0-0.1,0-0.1v0c0,0,0,0,0-0.1v0v0
			v0c0,0,0,0,0-0.1v0c0,0,0-0.1,0-0.1l0,0c0,0,0,0,0-0.1l0,0l0,0l0,0l0,0l0,0l0,0c0,0,0,0,0-0.1L398,344.6z"/>
	</g>
</g>
</svg>
