<?xml version="1.0" encoding="utf-8"?>
<!-- Generator: Adobe Illustrator 21.0.0, SVG Export Plug-In . SVG Version: 6.00 Build 0)  -->
<svg version="1.1" xmlns="http://www.w3.org/2000/svg" xmlns:xlink="http://www.w3.org/1999/xlink" x="0px" y="0px"
	 viewBox="0 0 500 500" style="enable-background:new 0 0 500 500;" xml:space="preserve">
<style type="text/css">
	.st0{fill:#FFFFFF;}
	.st1{display:none;fill:none;}
	.st2{fill:none;stroke:#21507A;stroke-width:4;stroke-miterlimit:10;stroke-dasharray:1,6;}
	.st3{fill:#FE5A40;}
	.st4{fill:none;stroke:#FE5A40;stroke-width:3;stroke-miterlimit:10;}
	.st5{fill:#FCFCFC;}
	.st6{fill:#21507A;}
	.st7{fill:none;stroke:#21507A;stroke-width:4;stroke-miterlimit:10;}
	.st8{fill:none;stroke:#21507A;stroke-width:2;stroke-miterlimit:10;}
	.st9{fill:none;stroke:#21507A;stroke-width:3;stroke-linecap:round;stroke-linejoin:round;stroke-miterlimit:10;}
	.st10{fill:none;stroke:#FCFCFC;stroke-miterlimit:10;}
	.st11{fill:#6A8AA6;}
	.st12{fill:#70BACB;}
	.st13{fill:#5E9BB4;}
	.st14{fill:#456D90;}
	.st15{fill:#FBFDFF;}
	.st16{fill:#30425C;}
	.st17{fill:#F29A80;}
	.st18{fill:#E97865;}
	.st19{fill:#E45C45;}
	.st20{fill:#F5ECE4;}
	.st21{fill:#DAD9CB;}
	.st22{opacity:0.2;fill:#FCFCFC;}
	.st23{fill:none;stroke:#BC5858;stroke-width:2;stroke-miterlimit:10;stroke-dasharray:1,6;}
	.st24{fill:none;stroke:#D16161;stroke-width:2;stroke-miterlimit:10;stroke-dasharray:1,3;}
	.st25{fill:none;stroke:#2B415B;stroke-width:2;stroke-miterlimit:10;stroke-dasharray:1,6;}
	.st26{fill:none;stroke:#FCFCFC;stroke-width:2;stroke-miterlimit:10;stroke-dasharray:1,3;}
	.st27{fill:#767676;}
	.st28{opacity:0.2;fill:none;stroke:#767676;stroke-miterlimit:10;}
	.st29{fill:#21507A;stroke:#21507A;stroke-linejoin:round;stroke-miterlimit:10;}
	.st30{fill:none;stroke:#21507A;stroke-linejoin:round;stroke-miterlimit:10;}
	.st31{fill:#9ADEE6;}
</style>
<symbol  id="New_Symbol" viewBox="-8 -16 16 31.6">
	<g>
		<circle class="st0" cx="0.5" cy="11.8" r="3.8"/>
	</g>
	<path class="st0" d="M3.8,7C3.7,7,3.4,7,3.4,7H-4l0,0c-2.1,0-4-2-4-4.1V-6h3v8.9C-5,3.5-5,4-4,4.2v-11l0,0V-16h3v10h3v-10h2v6.4
		l0,0V4.2C5,4,5,3.5,5,2.9V-6h3v8.9C8,5.2,6.2,7,3.8,7z"/>
	<rect x="-8" y="-16" class="st1" width="16" height="31"/>
</symbol>
<g id="Background">
</g>
<g id="Objects">
	<path class="st2" d="M163.4,290.7c-8.8-20.5-13.4-43.3-12.8-67.1c2.4-87.9,75.6-157.2,163.5-154.8c87.9,2.4,157.2,75.6,154.8,163.5
		c-2.2,79.3-61.9,143.4-138.2,153.5"/>
	<polygon class="st3" points="342.3,169.5 332.1,173.5 340.7,180.4 342.3,169.5 332.1,173.5 340.7,180.4 	"/>
	<g>
		<polyline class="st4" points="83.7,439.8 103.5,371.5 136.1,371.5 136.5,321.5 170.5,321.5 170.5,296.5 207.5,296.5 207.5,267.5 
			246.5,267.5 246.5,244.5 291.5,244.5 291.5,223.1 336.8,175.5 		"/>
		<g>
			<rect x="110" y="381" class="st5" width="24" height="57"/>
			<rect x="148" y="332" class="st6" width="24" height="106"/>
			<rect x="187" y="307" class="st3" width="23" height="131"/>
			<rect x="225" y="275" class="st5" width="23" height="163"/>
			<rect x="264" y="252" class="st6" width="23" height="186"/>
			<rect x="302" y="227" class="st3" width="23" height="211"/>
			<g>
				<line class="st7" x1="74" y1="440" x2="342" y2="440"/>
				<line class="st7" x1="84" y1="450" x2="84" y2="239"/>
			</g>
		</g>
		<line class="st8" x1="74.5" y1="397.5" x2="83.6" y2="406.7"/>
		<line class="st8" x1="93" y1="346.4" x2="83.9" y2="355.6"/>
		<line class="st8" x1="93" y1="308.1" x2="83.9" y2="317.3"/>
		<line class="st8" x1="74.5" y1="257.1" x2="83.6" y2="266.2"/>
		<path class="st0" d="M98.3,345.3c-2.6,2.6-6.9,2.4-6.9,2.4s-0.1-4.3,2.4-6.9c2.6-2.6,6.9-2.4,6.9-2.4S100.8,342.8,98.3,345.3z"/>
		<path class="st0" d="M98.3,307c-2.6,2.6-6.9,2.4-6.9,2.4s-0.1-4.3,2.4-6.9c2.6-2.6,6.9-2.4,6.9-2.4S100.8,304.5,98.3,307z"/>
		<path class="st0" d="M69.4,256c-2.6-2.6-2.4-6.9-2.4-6.9s4.3-0.1,6.9,2.4c2.6,2.6,2.4,6.9,2.4,6.9S72,258.6,69.4,256z"/>
		<path class="st0" d="M69.4,397.6c-2.6-2.6-2.4-6.9-2.4-6.9s4.3-0.1,6.9,2.4c2.6,2.6,2.4,6.9,2.4,6.9S72,400.1,69.4,397.6z"/>
	</g>
	<g>
		<g>
			<line class="st9" x1="84.2" y1="170" x2="96.3" y2="182.1"/>
			<line class="st9" x1="84.2" y1="170" x2="72.1" y2="182.1"/>
		</g>
		<g>
			<line class="st9" x1="84.2" y1="154.9" x2="96.3" y2="167"/>
			<line class="st9" x1="84.2" y1="154.9" x2="72.1" y2="167"/>
		</g>
	</g>
	<g>
		<g>
			<line class="st9" x1="382.1" y1="437.7" x2="370" y2="449.8"/>
			<line class="st9" x1="382.1" y1="437.7" x2="370" y2="425.6"/>
		</g>
		<g>
			<line class="st9" x1="397.2" y1="437.7" x2="385.1" y2="449.8"/>
			<line class="st9" x1="397.2" y1="437.7" x2="385.1" y2="425.6"/>
		</g>
	</g>
	<g>
		<circle class="st6" cx="152" cy="212.6" r="38.2"/>
		<g>
			<g>
				<path class="st5" d="M150,236.9c-0.2-0.2-5.1-4.4-10.2-10.1c-7.1-8-10.8-14.7-11.1-20l-0.2-2.9l3,0c1.7,0,2.9-0.7,3.6-2.2
					c0.8-1.7,0.2-4-0.6-5.6c-0.6-1.1-1.2-5-1.2-5h36.2c0,0-0.9,3.7-1.4,4.7c-0.7,1.5-1,3.8-0.2,5.3c0.7,1.3,1.9,2,3.6,2
					c0.2,0,0.4,0,0.5,0l3.1-0.2v3v0.1c0,12.2-19.2,29-21.3,30.9l-1.9,1.6L150,236.9z"/>
				<path class="st3" d="M171.4,206c-6.6,0-8.5-7.2-5.8-11.4h-29.1c3.5,4,1.8,12-5.1,12c0.6,11.2,20.3,28.2,20.3,28.2
					s20.3-17.5,20.3-28.7c0,0,0-0.1,0-0.1C171.9,206,171.7,206,171.4,206z"/>
			</g>
			<g>
				<path class="st5" d="M162.5,211.9c0,0-4.7,5.6-10.6,5.6c-5.8,0-10.6-5.6-10.6-5.6s4.7-5.6,10.6-5.6
					C157.8,206.3,162.5,211.9,162.5,211.9z"/>
				<path class="st10" d="M166.6,211.9c0,0-6.6,7.8-14.7,7.8c-8.1,0-14.7-7.8-14.7-7.8s6.6-7.8,14.7-7.8
					C160.1,204.1,166.6,211.9,166.6,211.9z"/>
				<circle class="st6" cx="151.9" cy="211.9" r="4.3"/>
				<circle class="st5" cx="153.5" cy="210.4" r="1.2"/>
				<circle class="st5" cx="151.9" cy="211.9" r="1.2"/>
			</g>
		</g>
	</g>
	<g>
		<circle class="st5" cx="357.4" cy="305.3" r="47"/>
		<g>
			<g>
				<path class="st11" d="M384.7,300.5c-0.5-0.5-1.1-0.8-1.8-1l-45-10.1c-0.9-0.2-1.8,0-2.6,0.4l18.9,22.6l0.1,0l-0.1,0l1.7,2
					l2.4-1.2l-0.1-0.1l0.1,0L384.7,300.5z"/>
				<path class="st11" d="M335.3,289.8c0,0,26.6-16.2,29.8-15.5c3.2,0.7,19.6,26.2,19.6,26.2L335.3,289.8z"/>
				<g>
					
						<rect x="338.7" y="291.8" transform="matrix(0.2195 -0.9756 0.9756 0.2195 -21.3379 589.3542)" class="st0" width="37.9" height="32.5"/>
					
						<rect x="360.1" y="279.6" transform="matrix(0.2194 -0.9756 0.9756 0.2194 -4.676 581.2487)" class="st3" width="1.7" height="27.9"/>
					
						<rect x="358.4" y="287.2" transform="matrix(0.2194 -0.9756 0.9756 0.2194 -13.4041 585.5042)" class="st3" width="1.7" height="27.9"/>
					
						<rect x="359.2" y="283.4" transform="matrix(0.2195 -0.9756 0.9756 0.2195 -9.0463 583.369)" class="st3" width="1.7" height="27.9"/>
					
						<rect x="357.5" y="291" transform="matrix(0.2195 -0.9756 0.9756 0.2195 -17.7824 587.6121)" class="st3" width="1.7" height="27.9"/>
					
						<rect x="356.7" y="294.5" transform="matrix(0.2194 -0.9756 0.9756 0.2194 -21.8441 589.6262)" class="st3" width="1.7" height="27.9"/>
					
						<rect x="355.9" y="298.3" transform="matrix(0.2195 -0.9756 0.9756 0.2195 -26.2316 591.7222)" class="st3" width="1.7" height="27.9"/>
				</g>
				<g>
					<polygon class="st12" points="353.1,311.1 352.5,310.5 353.1,311.1 					"/>
					<polygon class="st13" points="347.2,304.1 347.2,304.1 352.5,310.5 					"/>
					<path class="st6" d="M353.1,311.1L353.1,311.1l-0.6-0.7l-5.3-6.3l-12-14.3c-1.2,0.6-2.1,1.8-2.5,3.3l-5.6,25
						c-0.3,1.3-0.1,2.6,0.5,3.6l20.5-7.2l6-2.1L353.1,311.1z"/>
					<path class="st6" d="M384.7,300.5l-19.8,9.5l0,0l-4.2,2l-2.1,1l-0.4,0.2l5.5,5.5l14.4,14.5c1.1-0.6,1.9-1.8,2.2-3.2l5.6-25
						C386.3,303.3,385.8,301.6,384.7,300.5z"/>
					<path class="st14" d="M363.7,318.7l-5.5-5.5l0.4-0.2c0,0-1.9,0.7-2.7,0.5c-0.8-0.2-2.7-2.4-2.7-2.4l1.1,1.3l-6,2.1l-20.5,7.2
						c0.5,0.9,1.4,1.7,2.5,1.9l45,10.1c1,0.2,2,0,2.8-0.5L363.7,318.7z"/>
				</g>
			</g>
		</g>
	</g>
	<g>
		
			<ellipse transform="matrix(0.9997 -2.307184e-02 2.307184e-02 0.9997 -6.008 9.8398)" class="st6" cx="423.4" cy="265.3" rx="19.2" ry="19.2"/>
		<g>
			<path class="st15" d="M431.9,262l-2.2-6.3c-0.2-0.7-1-1-1.8-0.8l-6.9,2.4l2.6,7.5L431.9,262z"/>
			<path class="st15" d="M415,268.6l2.2,6.3c0.2,0.7,1,1,1.8,0.8l6.9-2.4l-2.6-7.5L415,268.6z"/>
			<g>
				<path class="st15" d="M420.4,257.5l-6.9,2.4c-0.7,0.3-1.2,1-0.9,1.7l2.2,6.3l8.2-2.8L420.4,257.5z"/>
				<path class="st16" d="M417.2,260.1l0.7,2l1.9-0.7l0.3,0.9l-1.9,0.7l0.7,2l-0.9,0.3l-0.7-2l-1.9,0.7l-0.3-0.9l1.9-0.7l-0.7-2
					L417.2,260.1z"/>
			</g>
			<path class="st16" d="M427.9,258.6l0.3,0.9l-3.2,1.1l-0.3-0.9L427.9,258.6z"/>
			<path class="st16" d="M421.9,268.8l-0.9,1.9l1.8,0.9l-0.4,0.8l-1.8-0.9l-0.9,1.9l-0.9-0.4l0.9-1.9l-1.8-0.9l0.4-0.8l1.8,0.9
				l0.9-1.9L421.9,268.8z"/>
			<g>
				<path class="st15" d="M423.9,265.5l2.6,7.5l6.9-2.4c0.7-0.3,1.2-1,0.9-1.7l-2.2-6.3L423.9,265.5z"/>
				<g>
					<path class="st16" d="M426.8,268.2l-0.3-0.8l4.7-1.6l0.3,0.8L426.8,268.2z M427.4,270l-0.3-0.8l4.7-1.6l0.3,0.8L427.4,270z"/>
				</g>
			</g>
		</g>
	</g>
	<g>
		<g>
			<g>
				<polygon class="st17" points="422.1,305.4 463.2,301.4 429.6,310.6 				"/>
				<polyline class="st18" points="429.6,310.6 433.6,323.1 463.2,301.4 				"/>
				<polygon class="st19" points="433.6,323.1 433.6,313 463.2,301.4 				"/>
				<polygon class="st17" points="463.2,301.4 445.8,321.9 433.6,313 				"/>
			</g>
		</g>
	</g>
	<g>
		<g>
			<g>
				<polygon class="st0" points="310.1,70.1 266.6,62.2 301.6,75 				"/>
				<polyline class="st20" points="301.6,75 296.2,88 266.6,62.2 				"/>
				<polygon class="st21" points="296.2,88 297.1,77.3 266.6,62.2 				"/>
				<polygon class="st0" points="266.6,62.2 283.4,85.6 297.1,77.3 				"/>
			</g>
		</g>
	</g>
	<g>
		<path class="st22" d="M234,213.6c11.5,0.8,13.1-5.1,13.5-8.6l6.6-80.3c0.4-3.5-2.1-6.7-5.6-7.1l-0.1,0c-3.5-0.4-6.7,2.1-7,5.6
			l-19.2,76C221.8,202.7,221.2,211.5,234,213.6L234,213.6z"/>
		<g>
			<path class="st22" d="M429.2,216.7C415.1,239,402,234,395,230l-156.9-94.9c-7-4-9.5-12.8-5.5-19.8l0.1-0.2c4-7,12.8-9.5,19.8-5.5
				l166,65.9C425.6,179.6,442.6,190.3,429.2,216.7L429.2,216.7z"/>
			<path class="st22" d="M433.2,204.6c-3.7,26.1-17.7,26.9-25.7,26.2l-182-22.2c-8-0.7-13.9-7.8-13.2-15.8l0-0.2
				c0.7-8,7.8-13.9,15.8-13.1l178.4-7.9C414.7,172.3,434.6,175.1,433.2,204.6L433.2,204.6z"/>
			<g>
				
					<ellipse transform="matrix(3.419665e-02 -0.9994 0.9994 3.419665e-02 188.2687 597.2251)" class="st23" cx="403.1" cy="201.2" rx="34.4" ry="34.4"/>
				<g>
					<path class="st6" d="M404,177.1c-13.3-0.5-24.4,10-24.9,23.3c-0.5,13.3,10,24.4,23.3,24.9c13.3,0.5,24.4-10,24.9-23.3
						C427.7,188.7,417.3,177.6,404,177.1z M402.7,214.4c-7.3-0.3-13-6.4-12.8-13.7c0.3-7.3,6.4-13,13.7-12.8
						c7.3,0.2,13,6.4,12.8,13.7C416.1,209,410,214.7,402.7,214.4z"/>
					<path class="st6" d="M402.2,229.3c-0.6,0-1.3-0.1-1.9-0.1l0.8-8c1.2,0.1,2.5,0.1,3.7,0l0.6,8
						C404.3,229.3,403.2,229.3,402.2,229.3z M395.2,228.2c-1.6-0.5-3.2-1.1-4.8-1.9l3.6-7.2c1.1,0.5,2.2,1,3.4,1.3L395.2,228.2z
						 M410.4,228.4l-2.1-7.8c1.2-0.3,2.3-0.7,3.4-1.3l3.5,7.3C413.6,227.3,412,227.9,410.4,228.4z M386.1,223.6
						c-1.4-1-2.6-2.2-3.8-3.5l6-5.4c0.8,0.9,1.7,1.7,2.7,2.5L386.1,223.6z M419.6,224l-4.7-6.5c1-0.7,1.9-1.5,2.8-2.4l5.8,5.6
						C422.3,221.9,421,223,419.6,224z M379.2,216c-0.9-1.5-1.7-3-2.3-4.6l7.5-2.9c0.4,1.1,1,2.2,1.6,3.3L379.2,216z M426.6,216.6
						l-6.7-4.4c0.7-1,1.2-2.1,1.7-3.2l7.4,3.1C428.4,213.7,427.6,215.2,426.6,216.6z M375.5,206.5c-0.3-1.7-0.5-3.4-0.5-5.1l8.1-0.1
						c0,1.2,0.1,2.4,0.4,3.6L375.5,206.5z M430.6,207.2l-7.9-1.7c0.3-1.2,0.4-2.4,0.5-3.6c0-0.6,0-1.2,0-1.7l8-0.4
						c0,0.8,0,1.6,0,2.4C431.2,203.9,431,205.6,430.6,207.2z M383.4,197.7l-7.9-1.4c0.3-1.7,0.7-3.3,1.3-4.9l7.5,2.8
						C383.9,195.3,383.6,196.5,383.4,197.7z M422.7,196.5c-0.3-1.2-0.7-2.3-1.2-3.5l7.4-3.3c0.7,1.6,1.2,3.2,1.6,4.9L422.7,196.5z
						 M385.9,190.9l-6.9-4.1c0.9-1.5,1.9-2.9,3-4.1l6.1,5.3C387.2,188.9,386.5,189.9,385.9,190.9z M419.7,189.9
						c-0.7-1-1.5-2-2.3-2.8l5.7-5.7c1.2,1.2,2.3,2.5,3.3,3.9L419.7,189.9z M390.7,185.4l-5-6.3c1.3-1.1,2.8-2,4.3-2.8l3.8,7.1
						C392.7,184,391.6,184.7,390.7,185.4z M414.6,184.7c-1-0.7-2.1-1.3-3.2-1.8l3.3-7.3c1.5,0.7,3,1.6,4.5,2.5L414.6,184.7z
						 M397.1,182l-2.4-7.7c1.6-0.5,3.3-0.9,5-1.1l1,8C399.5,181.4,398.3,181.7,397.1,182z M408,181.7c-1.2-0.3-2.4-0.5-3.6-0.5
						l0.5-8c1.7,0.1,3.4,0.4,5.1,0.8L408,181.7z"/>
				</g>
			</g>
			<g>
				
					<ellipse transform="matrix(3.420732e-02 -0.9994 0.9994 3.420732e-02 115.8001 362.9606)" class="st24" cx="245.7" cy="121.6" rx="17.4" ry="17.4"/>
				<g>
					<path class="st6" d="M246.1,109.3c-6.8-0.2-12.4,5.1-12.7,11.8c-0.2,6.8,5.1,12.4,11.8,12.7c6.8,0.2,12.4-5.1,12.7-11.8
						C258.2,115.2,252.9,109.5,246.1,109.3z M245.5,128.3c-3.7-0.1-6.6-3.2-6.5-7c0.1-3.7,3.2-6.6,7-6.5c3.7,0.1,6.6,3.2,6.5,7
						C252.3,125.5,249.2,128.4,245.5,128.3z"/>
					<path class="st6" d="M245.2,135.9c-0.3,0-0.7,0-1-0.1l0.4-4.1c0.6,0.1,1.2,0.1,1.9,0l0.3,4.1
						C246.3,135.9,245.7,135.9,245.2,135.9z M241.7,135.3c-0.8-0.2-1.6-0.6-2.4-1l1.9-3.7c0.6,0.3,1.1,0.5,1.7,0.7L241.7,135.3z
						 M249.4,135.4l-1.1-4c0.6-0.2,1.2-0.4,1.7-0.6l1.8,3.7C251,134.9,250.2,135.2,249.4,135.4z M237,132.9
						c-0.7-0.5-1.3-1.1-1.9-1.8l3-2.8c0.4,0.5,0.9,0.9,1.4,1.3L237,132.9z M254.1,133.2l-2.4-3.3c0.5-0.4,1-0.8,1.4-1.2l3,2.8
						C255.4,132.1,254.8,132.7,254.1,133.2z M233.5,129.1c-0.5-0.7-0.9-1.5-1.2-2.3l3.8-1.5c0.2,0.6,0.5,1.1,0.8,1.7L233.5,129.1z
						 M257.6,129.4l-3.4-2.3c0.3-0.5,0.6-1.1,0.9-1.6l3.8,1.6C258.5,127.9,258.1,128.7,257.6,129.4z M231.6,124.3
						c-0.2-0.9-0.3-1.7-0.3-2.6l4.1,0c0,0.6,0.1,1.2,0.2,1.8L231.6,124.3z M259.7,124.6l-4-0.9c0.1-0.6,0.2-1.2,0.2-1.8
						c0-0.3,0-0.6,0-0.9l4.1-0.2c0,0.4,0,0.8,0,1.2C260,122.9,259.8,123.8,259.7,124.6z M235.6,119.8l-4-0.7
						c0.1-0.9,0.4-1.7,0.7-2.5l3.8,1.4C235.9,118.6,235.7,119.2,235.6,119.8z M255.6,119.2c-0.1-0.6-0.3-1.2-0.6-1.8l3.7-1.7
						c0.4,0.8,0.6,1.6,0.8,2.5L255.6,119.2z M236.9,116.3l-3.5-2.1c0.4-0.7,1-1.5,1.5-2.1l3.1,2.7
						C237.6,115.3,237.2,115.8,236.9,116.3z M254.1,115.8c-0.3-0.5-0.7-1-1.2-1.4l2.9-2.9c0.6,0.6,1.2,1.3,1.7,2L254.1,115.8z
						 M239.4,113.6l-2.5-3.2c0.7-0.5,1.4-1,2.2-1.4l1.9,3.6C240.4,112.8,239.9,113.2,239.4,113.6z M251.5,113.2
						c-0.5-0.4-1.1-0.7-1.6-0.9l1.7-3.7c0.8,0.4,1.6,0.8,2.3,1.3L251.5,113.2z M242.6,111.8l-1.2-3.9c0.8-0.3,1.7-0.4,2.5-0.5
						l0.5,4.1C243.8,111.5,243.2,111.6,242.6,111.8z M248.1,111.7c-0.6-0.1-1.2-0.2-1.8-0.3l0.2-4.1c0.9,0.1,1.7,0.2,2.6,0.4
						L248.1,111.7z"/>
				</g>
			</g>
			<g>
				
					<ellipse transform="matrix(3.420789e-02 -0.9994 0.9994 3.420789e-02 27.7882 419.2095)" class="st25" cx="230.8" cy="195.2" rx="23.8" ry="23.8"/>
				<g>
					<path class="st3" d="M231.4,177.5c-9.8-0.3-18,7.3-18.4,17.1c-0.3,9.8,7.3,18,17.1,18.4c9.8,0.3,18-7.3,18.4-17.1
						C248.9,186,241.2,177.8,231.4,177.5z M230.5,205c-5.4-0.2-9.6-4.7-9.4-10.1c0.2-5.4,4.7-9.6,10.1-9.4c5.4,0.2,9.6,4.7,9.4,10.1
						C240.4,200.9,235.8,205.2,230.5,205z"/>
					<path class="st3" d="M230.1,215.9c-0.5,0-1,0-1.4-0.1l0.6-5.9c0.9,0.1,1.8,0.1,2.7,0l0.5,5.9C231.6,216,230.9,216,230.1,215.9z
						 M224.9,215.1c-1.2-0.4-2.4-0.8-3.5-1.4l2.7-5.3c0.8,0.4,1.6,0.7,2.5,1L224.9,215.1z M236.1,215.3l-1.5-5.7
						c0.9-0.2,1.7-0.5,2.5-0.9l2.6,5.4C238.5,214.5,237.3,214.9,236.1,215.3z M218.2,211.7c-1-0.8-1.9-1.6-2.8-2.5l4.4-4
						c0.6,0.7,1.3,1.3,2,1.8L218.2,211.7z M242.9,212l-3.5-4.8c0.7-0.5,1.4-1.1,2-1.8l4.3,4.1C244.9,210.5,243.9,211.3,242.9,212z
						 M213.2,206.2c-0.7-1.1-1.2-2.2-1.7-3.4l5.5-2.2c0.3,0.8,0.7,1.6,1.2,2.4L213.2,206.2z M248.1,206.6l-5-3.3
						c0.5-0.8,0.9-1.5,1.3-2.4l5.5,2.3C249.4,204.4,248.8,205.6,248.1,206.6z M210.4,199.2c-0.2-1.2-0.4-2.5-0.4-3.8l5.9,0
						c0,0.9,0.1,1.8,0.3,2.7L210.4,199.2z M251,199.7l-5.8-1.3c0.2-0.9,0.3-1.8,0.3-2.7c0-0.4,0-0.9,0-1.3l5.9-0.3
						c0,0.6,0,1.2,0,1.8C251.5,197.2,251.3,198.5,251,199.7z M216.2,192.7l-5.9-1c0.2-1.2,0.6-2.5,1-3.6l5.6,2.1
						C216.6,190.9,216.4,191.8,216.2,192.7z M245.2,191.8c-0.2-0.9-0.5-1.7-0.9-2.5l5.4-2.4c0.5,1.2,0.9,2.4,1.2,3.6L245.2,191.8z
						 M218.1,187.6l-5.1-3c0.6-1.1,1.4-2.1,2.2-3l4.5,3.9C219.1,186.1,218.5,186.9,218.1,187.6z M243,186.9
						c-0.5-0.7-1.1-1.4-1.7-2.1l4.2-4.2c0.9,0.9,1.7,1.9,2.4,2.9L243,186.9z M221.6,183.6l-3.7-4.7c1-0.8,2-1.5,3.2-2.1l2.8,5.2
						C223.1,182.6,222.3,183.1,221.6,183.6z M239.2,183.1c-0.7-0.5-1.5-1-2.3-1.3l2.5-5.4c1.1,0.5,2.2,1.1,3.3,1.9L239.2,183.1z
						 M226.4,181.1l-1.8-5.7c1.2-0.4,2.4-0.6,3.7-0.8l0.7,5.9C228.1,180.6,227.2,180.8,226.4,181.1z M234.3,180.9
						c-0.9-0.2-1.8-0.3-2.7-0.4l0.4-5.9c1.3,0.1,2.5,0.3,3.7,0.6L234.3,180.9z"/>
				</g>
			</g>
		</g>
	</g>
	<g>
		<circle class="st3" cx="366.9" cy="128.7" r="28"/>
		<g>
			<path class="st26" d="M357.3,142.2c-4.6-3.1-7.6-8.3-7.6-14.2c0-9.5,7.7-17.2,17.2-17.2c9.5,0,17.2,7.7,17.2,17.2
				c0,5.9-3,11.1-7.6,14.2"/>
			<g>
				<g>
					<path class="st27" d="M374,145.5c0,2.5-2,4.5-4.5,4.5h-5.1c-2.5,0-4.5-2-4.5-4.5v-10.1c0-2.5,2-4.5,4.5-4.5h5.1
						c2.5,0,4.5,2,4.5,4.5V145.5z"/>
					<circle class="st5" cx="366.9" cy="128.4" r="12.4"/>
				</g>
				<rect x="360" y="138" class="st5" width="14" height="5"/>
				<path class="st28" d="M363.9,144.3c0,0,5.4-14.1,5.4-19.1c0-1-0.5-2.7-3.2-2.7c-2.7,0-3.2,1.4-3.2,2.6c0,2.7-0.5,0.5,6.3,19.2"
					/>
			</g>
		</g>
	</g>
	<g>
		<g>
			<g>
				<circle class="st6" cx="296.7" cy="162.8" r="22.8"/>
				<circle class="st5" cx="296.7" cy="162.8" r="16.7"/>
				<line class="st29" x1="296.5" y1="148" x2="296.5" y2="152"/>
				<line class="st29" x1="307" y1="152" x2="303.8" y2="155.2"/>
				<line class="st29" x1="311" y1="162.5" x2="307" y2="162.5"/>
				<line class="st29" x1="307.8" y1="173" x2="304.6" y2="169.8"/>
				<line class="st29" x1="297.5" y1="178" x2="297.5" y2="173"/>
				<line class="st29" x1="286.7" y1="173.9" x2="290" y2="170.6"/>
				<line class="st29" x1="282" y1="163.5" x2="286" y2="163.5"/>
				<line class="st29" x1="285.9" y1="152.8" x2="289.2" y2="156"/>
			</g>
			<line class="st30" x1="296.5" y1="155" x2="296.5" y2="166"/>
			<line class="st30" x1="301.3" y1="159.3" x2="296.3" y2="165.7"/>
			<circle class="st31" cx="296.3" cy="165.7" r="1.3"/>
		</g>
		<path class="st6" d="M303,139.6c0,1.9-1.5,3.4-3.4,3.4h-8.1c-1.9,0-3.4-1.5-3.4-3.4v-0.1c0-1.9,1.5-3.4,3.4-3.4h8.1
			c1.9,0,3.4,1.5,3.4,3.4V139.6z"/>
		<circle class="st8" cx="296.3" cy="131.6" r="9.7"/>
	</g>
</g>
<g id="Designed_by_Freepik">
	<g>
		<g>
			<path class="st5" d="M186.3,465.4c-0.1-0.2-0.3-0.2-0.6-0.2c-0.3,0-0.4,0.1-0.6,0.2c-0.1,0.2-0.2,0.4-0.2,0.8l0,2.4
				c-0.3-0.3-0.6-0.6-0.9-0.8c-0.3-0.2-0.7-0.2-1.2-0.3c-0.8,0-1.5,0.3-2,0.8c-0.5,0.6-0.8,1.4-0.8,2.4c0,0.5,0.1,0.9,0.2,1.3
				c0.1,0.4,0.3,0.8,0.5,1.1c0.2,0.3,0.5,0.5,0.9,0.7c0.3,0.2,0.7,0.3,1.1,0.3c0.3,0,0.6,0,0.8-0.1c0.3-0.1,0.5-0.2,0.7-0.3
				c0.2-0.2,0.4-0.4,0.7-0.6v0.2c0,0.3,0.1,0.5,0.2,0.7c0.1,0.2,0.3,0.2,0.6,0.2c0.2,0,0.4-0.1,0.6-0.2c0.1-0.2,0.2-0.4,0.2-0.7
				l0-7.2C186.5,465.8,186.5,465.5,186.3,465.4z M184.7,472c-0.1,0.3-0.3,0.5-0.6,0.7c-0.2,0.1-0.5,0.2-0.8,0.2
				c-0.3,0-0.5-0.1-0.8-0.2c-0.2-0.2-0.4-0.4-0.6-0.7c-0.1-0.3-0.2-0.7-0.2-1.1c0-0.4,0.1-0.8,0.2-1.1c0.1-0.3,0.3-0.6,0.6-0.7
				c0.2-0.2,0.5-0.3,0.8-0.3c0.3,0,0.6,0.1,0.8,0.3c0.2,0.2,0.4,0.4,0.6,0.7c0.1,0.3,0.2,0.7,0.2,1.1
				C184.9,471.3,184.8,471.7,184.7,472z"/>
			<path class="st5" d="M192.8,472c-0.2,0-0.3,0-0.4,0.1c-0.2,0.2-0.4,0.3-0.5,0.5c-0.1,0.1-0.3,0.2-0.4,0.3
				c-0.2,0.1-0.3,0.2-0.5,0.2c-0.2,0-0.3,0.1-0.5,0.1c-0.3,0-0.6-0.1-0.8-0.2c-0.2-0.1-0.4-0.4-0.6-0.6c-0.1-0.3-0.2-0.6-0.2-1
				l3.2,0c0.4,0,0.8-0.1,1-0.2c0.2-0.1,0.4-0.4,0.4-0.8c0-0.4-0.1-0.9-0.3-1.3c-0.2-0.4-0.6-0.8-1-1.1c-0.5-0.3-1-0.4-1.6-0.4
				c-0.5,0-0.9,0.1-1.3,0.2c-0.4,0.2-0.7,0.4-1,0.7c-0.3,0.3-0.5,0.6-0.6,1.1c-0.2,0.4-0.2,0.9-0.2,1.3c0,1,0.3,1.8,0.9,2.4
				c0.6,0.6,1.4,0.9,2.4,0.9c0.5,0,0.9-0.1,1.2-0.2c0.4-0.1,0.6-0.3,0.9-0.4c0.2-0.2,0.4-0.4,0.5-0.6c0.1-0.2,0.2-0.4,0.2-0.5
				c0-0.2,0-0.3-0.1-0.4C193.1,472,193,472,192.8,472z M189.4,469.1c0.3-0.3,0.6-0.4,1-0.4c0.4,0,0.8,0.1,1,0.4
				c0.3,0.3,0.4,0.7,0.4,1.3l-3,0C189,469.8,189.2,469.4,189.4,469.1z"/>
			<path class="st5" d="M199.3,471.3c-0.2-0.2-0.4-0.4-0.7-0.6c-0.3-0.2-0.7-0.3-1.2-0.5c-0.4-0.1-0.8-0.2-1-0.3
				c-0.3-0.1-0.4-0.2-0.6-0.3c-0.1-0.1-0.2-0.3-0.2-0.4c0-0.2,0.1-0.3,0.3-0.5c0.2-0.1,0.4-0.2,0.7-0.2c0.3,0,0.5,0.1,0.7,0.2
				c0.2,0.1,0.3,0.2,0.4,0.4c0.1,0.2,0.3,0.3,0.4,0.4c0.1,0.1,0.3,0.2,0.4,0.2c0.2,0,0.4-0.1,0.5-0.2c0.1-0.1,0.2-0.3,0.2-0.5
				c0-0.2-0.1-0.4-0.2-0.5c-0.1-0.2-0.3-0.3-0.5-0.5c-0.2-0.1-0.5-0.3-0.8-0.4c-0.3-0.1-0.7-0.1-1.1-0.1c-0.5,0-1,0.1-1.4,0.3
				c-0.4,0.2-0.7,0.4-0.9,0.7c-0.2,0.3-0.3,0.6-0.3,0.9c0,0.4,0.1,0.7,0.3,0.9c0.2,0.3,0.5,0.5,0.8,0.6c0.4,0.2,0.8,0.3,1.4,0.4
				c0.5,0.1,0.8,0.3,1.1,0.4c0.2,0.1,0.3,0.3,0.3,0.6c0,0.2-0.1,0.4-0.3,0.5c-0.2,0.1-0.5,0.2-0.8,0.2c-0.4,0-0.7-0.1-1-0.2
				c-0.2-0.1-0.4-0.4-0.6-0.7c-0.1-0.2-0.2-0.3-0.3-0.4c-0.1-0.1-0.2-0.1-0.4-0.1c-0.2,0-0.4,0.1-0.5,0.2c-0.1,0.1-0.2,0.3-0.2,0.5
				c0,0.3,0.1,0.5,0.3,0.8c0.2,0.3,0.5,0.5,0.9,0.7c0.4,0.2,0.9,0.3,1.5,0.3c0.6,0,1.1-0.1,1.6-0.2c0.4-0.2,0.8-0.4,1-0.7
				c0.2-0.3,0.3-0.7,0.3-1.1C199.6,471.8,199.5,471.6,199.3,471.3z"/>
			<path class="st5" d="M201.8,467.9c-0.2-0.2-0.3-0.3-0.6-0.3c-0.2,0-0.4,0.1-0.6,0.2c-0.1,0.2-0.2,0.4-0.2,0.7l0,4.7
				c0,0.3,0.1,0.6,0.2,0.7c0.1,0.2,0.3,0.3,0.6,0.3c0.2,0,0.4-0.1,0.6-0.2c0.2-0.2,0.2-0.4,0.2-0.7l0-4.7
				C202.1,468.3,202,468.1,201.8,467.9z M201.8,465.5c-0.2-0.1-0.3-0.2-0.6-0.2c-0.2,0-0.4,0.1-0.6,0.2c-0.2,0.1-0.3,0.3-0.3,0.6
				c0,0.3,0.1,0.5,0.2,0.6c0.2,0.1,0.4,0.2,0.6,0.2c0.2,0,0.4-0.1,0.6-0.2c0.2-0.1,0.2-0.3,0.2-0.6
				C202.1,465.8,202,465.6,201.8,465.5z"/>
			<path class="st5" d="M209,468c-0.1-0.2-0.3-0.3-0.6-0.3c-0.2,0-0.4,0.1-0.5,0.2c-0.1,0.2-0.2,0.4-0.2,0.7v0.2
				c-0.3-0.4-0.6-0.7-0.9-0.8c-0.3-0.2-0.7-0.3-1.2-0.3c-0.4,0-0.7,0.1-1.1,0.2c-0.3,0.1-0.6,0.3-0.9,0.6c-0.2,0.3-0.4,0.6-0.6,1
				c-0.1,0.4-0.2,0.8-0.2,1.3c0,0.7,0.1,1.2,0.3,1.7c0.2,0.5,0.5,0.9,0.9,1.2c0.4,0.3,0.9,0.4,1.4,0.4c0.5,0,0.8-0.1,1.2-0.3
				c0.3-0.2,0.6-0.4,0.9-0.8c0,0.5,0,0.9,0,1.2c0,0.2-0.1,0.5-0.2,0.7c-0.1,0.2-0.3,0.4-0.5,0.5c-0.2,0.1-0.6,0.2-1,0.2
				c-0.2,0-0.4,0-0.5-0.1c-0.2,0-0.3-0.1-0.4-0.2c-0.1-0.1-0.2-0.2-0.3-0.3c-0.1-0.1-0.2-0.2-0.3-0.3c-0.2-0.2-0.4-0.3-0.6-0.3
				c-0.2,0-0.4,0.1-0.5,0.2c-0.1,0.1-0.2,0.3-0.2,0.5c0,0.3,0.1,0.5,0.3,0.8c0.2,0.3,0.6,0.5,1,0.6c0.4,0.2,0.9,0.2,1.5,0.2
				c0.6,0,1.1,0,1.5-0.2c0.4-0.1,0.8-0.3,1-0.6c0.3-0.2,0.4-0.6,0.6-1c0.1-0.4,0.2-0.9,0.2-1.4l0-4.7
				C209.2,468.5,209.1,468.2,209,468z M207.4,472.1c-0.2,0.3-0.3,0.5-0.6,0.6c-0.2,0.1-0.5,0.2-0.8,0.2c-0.5,0-0.8-0.2-1.1-0.5
				c-0.3-0.3-0.4-0.8-0.4-1.5c0-0.7,0.1-1.2,0.4-1.5c0.3-0.3,0.7-0.5,1.1-0.5c0.5,0,0.9,0.2,1.1,0.6c0.3,0.4,0.4,0.9,0.4,1.6
				C207.6,471.4,207.5,471.8,207.4,472.1z"/>
			<path class="st5" d="M216,469.5c0-0.2-0.1-0.4-0.2-0.6c-0.2-0.3-0.4-0.6-0.8-0.8c-0.3-0.2-0.7-0.3-1.1-0.3
				c-0.4,0-0.8,0.1-1.2,0.3c-0.1,0-0.2,0.1-0.3,0.2c-0.2,0.2-0.5,0.4-0.7,0.7v-0.2c0-0.2,0-0.4-0.1-0.5c-0.1-0.1-0.2-0.2-0.3-0.3
				c-0.1-0.1-0.3-0.1-0.4-0.1c-0.2,0-0.4,0.1-0.6,0.2c-0.1,0.1-0.2,0.4-0.2,0.7l0,4.7c0,0.3,0.1,0.6,0.2,0.7
				c0.1,0.2,0.3,0.3,0.6,0.3c0.2,0,0.4-0.1,0.6-0.2c0.2-0.2,0.2-0.4,0.2-0.7l0-2c0-0.7,0-1.1,0.1-1.4c0.1-0.3,0.3-0.5,0.5-0.7
				c0.2-0.2,0.5-0.3,0.8-0.3c0.4,0,0.7,0.1,0.9,0.4c0.1,0.3,0.2,0.7,0.2,1.2l0,2.7c0,0.3,0.1,0.6,0.2,0.7c0.1,0.2,0.3,0.3,0.6,0.3
				c0.2,0,0.4-0.1,0.6-0.2c0.2-0.2,0.2-0.4,0.2-0.7l0-3C216,470,216,469.7,216,469.5z"/>
			<path class="st5" d="M222.3,472.2c-0.2,0-0.3,0-0.4,0.1c-0.2,0.2-0.4,0.3-0.5,0.5c-0.1,0.1-0.3,0.2-0.4,0.3
				c-0.1,0.1-0.3,0.2-0.5,0.2c-0.2,0-0.3,0.1-0.5,0.1h0c0,0,0,0,0,0c-0.3,0-0.6-0.1-0.8-0.2c-0.2-0.1-0.4-0.4-0.6-0.6
				c0-0.1-0.1-0.1-0.1-0.2v0c-0.1-0.2-0.1-0.5-0.2-0.8l3.2,0c0.4,0,0.8-0.1,1-0.2c0.2-0.1,0.4-0.4,0.4-0.8c0-0.4-0.1-0.9-0.3-1.3
				c-0.2-0.4-0.6-0.8-1-1.1c-0.5-0.3-1-0.4-1.6-0.4c-0.5,0-0.9,0.1-1.3,0.2c-0.4,0.2-0.7,0.4-1,0.7c-0.3,0.3-0.5,0.6-0.6,1.1
				c-0.1,0.4-0.2,0.9-0.2,1.3c0,1,0.3,1.8,0.9,2.4c0.6,0.6,1.4,0.9,2.4,0.9c0.5,0,0.9-0.1,1.2-0.2c0,0,0,0,0,0
				c0.3-0.1,0.6-0.3,0.8-0.4c0.2-0.2,0.4-0.4,0.5-0.6c0.1-0.2,0.2-0.4,0.2-0.5c0-0.2-0.1-0.3-0.2-0.4
				C222.7,472.2,222.5,472.2,222.3,472.2z M219,469.3c0.3-0.3,0.6-0.4,1-0.4c0.4,0,0.8,0.1,1,0.4c0.3,0.3,0.4,0.7,0.4,1.3l-3,0
				C218.5,470,218.7,469.6,219,469.3z"/>
			<path class="st5" d="M229.7,465.6c-0.1-0.2-0.3-0.2-0.6-0.2c-0.3,0-0.4,0.1-0.6,0.2c-0.1,0.2-0.2,0.4-0.2,0.8l0,2.4
				c-0.3-0.3-0.6-0.6-0.9-0.8c-0.3-0.2-0.7-0.2-1.2-0.2c-0.8,0-1.5,0.3-2,0.8c-0.5,0.6-0.8,1.4-0.8,2.4c0,0.5,0.1,0.9,0.2,1.3
				c0.1,0.4,0.3,0.8,0.5,1.1c0.2,0.3,0.5,0.5,0.9,0.7c0.3,0.2,0.7,0.3,1.1,0.3c0.3,0,0.6,0,0.8-0.1c0.3-0.1,0.5-0.2,0.7-0.3
				c0.2-0.2,0.4-0.4,0.6-0.6v0.2c0,0.3,0.1,0.5,0.2,0.7c0.1,0.2,0.3,0.2,0.6,0.2c0.2,0,0.4-0.1,0.5-0.2c0.2-0.2,0.2-0.4,0.2-0.7
				l0-7.2C229.9,466,229.8,465.8,229.7,465.6z M228,472.3c-0.1,0.3-0.3,0.5-0.6,0.7c-0.2,0.1-0.5,0.2-0.8,0.2
				c-0.3,0-0.5-0.1-0.8-0.2c-0.2-0.2-0.4-0.4-0.6-0.7c-0.1-0.3-0.2-0.7-0.2-1.1c0-0.4,0.1-0.8,0.2-1.1c0.1-0.3,0.3-0.6,0.6-0.7
				c0.2-0.2,0.5-0.3,0.8-0.3c0.3,0,0.5,0.1,0.8,0.3c0.2,0.2,0.4,0.4,0.6,0.7c0.1,0.3,0.2,0.7,0.2,1.1
				C228.2,471.6,228.1,472,228,472.3z"/>
			<path class="st5" d="M239.5,469.4c-0.2-0.5-0.5-0.9-0.9-1.1c-0.4-0.3-0.9-0.4-1.4-0.4c-0.5,0-0.9,0.1-1.2,0.3
				c-0.3,0.2-0.6,0.4-0.9,0.7l0-2.5c0-0.3-0.1-0.5-0.2-0.7c-0.1-0.2-0.3-0.2-0.6-0.2c-0.2,0-0.4,0.1-0.6,0.2
				c-0.1,0.2-0.2,0.4-0.2,0.8l0,7.1c0,0.3,0.1,0.5,0.2,0.7c0.1,0.2,0.3,0.2,0.5,0.2c0.2,0,0.4-0.1,0.6-0.2c0.2-0.2,0.2-0.4,0.2-0.7
				l0-0.2c0.2,0.2,0.3,0.4,0.4,0.5c0.1,0.1,0.2,0.2,0.4,0.3c0.2,0.1,0.3,0.2,0.6,0.2c0.2,0.1,0.5,0.1,0.7,0.1c0.4,0,0.8-0.1,1.1-0.2
				c0.3-0.2,0.6-0.4,0.9-0.7c0.2-0.3,0.4-0.7,0.6-1.1c0.1-0.4,0.2-0.9,0.2-1.4C239.8,470.5,239.7,469.9,239.5,469.4z M237.7,472.7
				c-0.3,0.4-0.7,0.5-1.1,0.5c-0.5,0-0.9-0.2-1.2-0.5c-0.3-0.3-0.4-0.8-0.4-1.5c0-0.4,0.1-0.8,0.2-1.1c0.1-0.3,0.3-0.6,0.6-0.7
				c0.3-0.2,0.5-0.3,0.8-0.3c0.3,0,0.6,0.1,0.8,0.3c0.2,0.2,0.4,0.4,0.5,0.7c0.1,0.3,0.2,0.7,0.2,1.1
				C238.1,471.9,238,472.4,237.7,472.7z"/>
			<path class="st5" d="M245.8,468.3c-0.1-0.1-0.1-0.2-0.3-0.3c-0.1-0.1-0.2-0.1-0.4-0.1c-0.2,0-0.3,0-0.4,0.1
				c-0.1,0.1-0.2,0.2-0.3,0.3c-0.1,0.2-0.2,0.4-0.3,0.7l-1.3,3.7l-1.4-4c-0.1-0.3-0.2-0.5-0.3-0.6c-0.1-0.1-0.3-0.2-0.5-0.2
				c-0.1,0-0.3,0-0.4,0.1c-0.1,0.1-0.2,0.2-0.3,0.3c-0.1,0.1-0.1,0.2-0.1,0.4c0,0.1,0.1,0.3,0.2,0.6l2,5.1l-0.2,0.4
				c-0.1,0.3-0.2,0.5-0.3,0.6c-0.1,0.1-0.2,0.2-0.3,0.3c-0.1,0.1-0.3,0.1-0.4,0.1c-0.1,0-0.2,0-0.3,0c-0.1,0-0.2,0-0.3,0
				c-0.2,0-0.4,0.1-0.5,0.2c-0.1,0.1-0.2,0.2-0.2,0.4c0,0.3,0.1,0.5,0.4,0.6c0.2,0.1,0.6,0.2,1.1,0.2c0.5,0,0.9-0.1,1.2-0.2
				c0.3-0.1,0.5-0.4,0.7-0.6c0.2-0.3,0.4-0.7,0.5-1.1l2.2-5.5c0-0.1,0.1-0.3,0.1-0.4c0-0.1,0.1-0.2,0.1-0.3
				C245.9,468.5,245.8,468.4,245.8,468.3z"/>
		</g>
		<g>
			<path class="st5" d="M265.5,468.2l0.4,0l0-0.5c0-0.5,0.1-0.9,0.2-1.2c0.1-0.3,0.4-0.5,0.7-0.7c0.3-0.1,0.7-0.2,1.3-0.2
				c1,0,1.4,0.2,1.4,0.7c0,0.2-0.1,0.3-0.2,0.4c-0.1,0.1-0.2,0.2-0.4,0.2c-0.1,0-0.2,0-0.3,0c-0.1,0-0.3,0-0.4,0
				c-0.3,0-0.5,0.1-0.6,0.3c-0.1,0.2-0.1,0.4-0.1,0.7l0,0.4l0.4,0c0.6,0,0.9,0.2,0.9,0.6c0,0.3-0.1,0.4-0.3,0.5
				c-0.2,0.1-0.4,0.1-0.7,0.1l-0.4,0l0,4.3c0,0.3-0.1,0.6-0.2,0.7c-0.2,0.2-0.3,0.3-0.6,0.3c-0.2,0-0.4-0.1-0.6-0.3
				c-0.2-0.2-0.2-0.4-0.2-0.7l0-4.3l-0.4,0c-0.2,0-0.4-0.1-0.6-0.2c-0.1-0.1-0.2-0.3-0.2-0.4C264.7,468.4,265,468.2,265.5,468.2
				L265.5,468.2z"/>
			<path class="st5" d="M270.8,472.4l0,1.4c0,0.3-0.1,0.6-0.2,0.7c-0.2,0.2-0.4,0.2-0.6,0.2c-0.2,0-0.4-0.1-0.6-0.3
				c-0.1-0.2-0.2-0.4-0.2-0.7l0-4.5c0-0.7,0.3-1.1,0.8-1.1c0.3,0,0.5,0.1,0.6,0.3c0.1,0.2,0.2,0.4,0.2,0.8c0.2-0.3,0.4-0.6,0.6-0.8
				c0.2-0.2,0.5-0.3,0.8-0.3c0.3,0,0.7,0.1,1,0.3c0.3,0.2,0.5,0.4,0.5,0.7c0,0.2-0.1,0.4-0.2,0.5c-0.1,0.1-0.3,0.2-0.4,0.2
				c-0.1,0-0.2,0-0.4-0.1c-0.2-0.1-0.4-0.1-0.6-0.1c-0.2,0-0.4,0.1-0.6,0.2c-0.2,0.1-0.3,0.3-0.4,0.6c-0.1,0.2-0.1,0.5-0.2,0.9
				C270.8,471.5,270.8,471.9,270.8,472.4L270.8,472.4z"/>
			<path class="st5" d="M279,472.5c-0.1,0-0.3,0-0.3,0.1c-0.2,0.2-0.4,0.3-0.5,0.4c-0.1,0.1-0.3,0.2-0.4,0.3
				c-0.1,0.1-0.3,0.2-0.5,0.2c-0.2,0.1-0.3,0.1-0.5,0.1c-0.3,0-0.6-0.1-0.8-0.2c-0.2-0.2-0.4-0.4-0.6-0.6c-0.1-0.3-0.2-0.6-0.2-1
				l3.2,0c0.4,0,0.8-0.1,1-0.2c0.2-0.1,0.4-0.4,0.4-0.8c0-0.4-0.1-0.9-0.3-1.3c-0.2-0.4-0.6-0.8-1-1c-0.5-0.3-1-0.4-1.6-0.4
				c-0.5,0-0.9,0.1-1.3,0.2c-0.4,0.2-0.7,0.4-1,0.7c-0.3,0.3-0.5,0.6-0.6,1.1c-0.2,0.4-0.2,0.9-0.2,1.3c0,1,0.3,1.8,0.9,2.4
				c0.6,0.6,1.4,0.9,2.4,0.9c0.5,0,0.9-0.1,1.2-0.2c0.4-0.1,0.7-0.3,0.9-0.4c0.2-0.2,0.4-0.4,0.5-0.6c0.1-0.2,0.2-0.4,0.2-0.5
				c0-0.2-0.1-0.3-0.2-0.4C279.3,472.6,279.1,472.5,279,472.5z M275.6,469.7c0.3-0.3,0.6-0.4,1-0.4c0.4,0,0.8,0.1,1,0.4
				c0.3,0.3,0.4,0.7,0.4,1.2l-3,0C275.2,470.4,275.3,470,275.6,469.7z"/>
			<path class="st5" d="M285.8,472.6c-0.1,0-0.3,0-0.4,0.1c-0.2,0.2-0.4,0.3-0.5,0.4c-0.1,0.1-0.3,0.2-0.4,0.3
				c-0.1,0.1-0.3,0.2-0.5,0.2c-0.2,0.1-0.3,0.1-0.5,0.1c-0.3,0-0.6-0.1-0.8-0.2c-0.2-0.2-0.4-0.4-0.6-0.6c-0.1-0.3-0.2-0.6-0.2-1
				l3.2,0c0.4,0,0.8-0.1,1-0.2c0.2-0.1,0.4-0.4,0.4-0.8c0-0.4-0.1-0.9-0.3-1.3c-0.2-0.4-0.6-0.8-1-1c-0.5-0.3-1-0.4-1.6-0.4
				c-0.5,0-0.9,0.1-1.3,0.2c-0.4,0.2-0.7,0.4-1,0.7c-0.3,0.3-0.5,0.6-0.6,1.1c-0.2,0.4-0.2,0.9-0.2,1.3c0,1,0.3,1.8,0.9,2.4
				c0.6,0.6,1.4,0.9,2.4,0.9c0.5,0,0.9-0.1,1.2-0.2c0.4-0.1,0.7-0.3,0.9-0.4c0.2-0.2,0.4-0.4,0.5-0.6c0.1-0.2,0.2-0.4,0.2-0.5
				c0-0.2,0-0.3-0.1-0.4C286.1,472.6,285.9,472.6,285.8,472.6z M282.4,469.7c0.3-0.3,0.6-0.4,1-0.4c0.4,0,0.8,0.1,1,0.4
				c0.3,0.3,0.4,0.7,0.4,1.2l-3,0C282,470.4,282.1,470,282.4,469.7z"/>
			<path class="st5" d="M293.5,471.3c0-0.6-0.1-1.1-0.3-1.6c-0.2-0.5-0.6-0.9-1-1.1c-0.4-0.3-0.9-0.4-1.4-0.4
				c-0.4,0-0.8,0.1-1.1,0.3c-0.3,0.2-0.7,0.5-1,0.8v-0.2c0-0.3-0.1-0.5-0.2-0.7c-0.1-0.2-0.3-0.2-0.6-0.2c-0.2,0-0.4,0.1-0.6,0.2
				c-0.1,0.2-0.2,0.4-0.2,0.7l0,7c0,0.4,0.1,0.6,0.1,0.8c0.1,0.2,0.3,0.3,0.6,0.3c0.5,0,0.8-0.4,0.8-1.1l0-2.4
				c0.2,0.2,0.3,0.4,0.5,0.5c0.1,0.1,0.3,0.2,0.4,0.3c0.3,0.2,0.7,0.3,1.2,0.3c0.4,0,0.8-0.1,1.1-0.2c0.3-0.2,0.6-0.4,0.9-0.7
				c0.2-0.3,0.4-0.6,0.6-1c0.1-0.4,0.2-0.9,0.2-1.4C293.5,471.5,293.5,471.4,293.5,471.3z M291.6,472.6c-0.1,0.3-0.3,0.5-0.6,0.7
				c-0.2,0.2-0.5,0.2-0.8,0.2c-0.1,0-0.1,0-0.2,0c-0.4,0-0.7-0.2-1-0.5c-0.3-0.4-0.4-0.9-0.4-1.5c0-0.7,0.2-1.2,0.5-1.6
				c0.3-0.4,0.7-0.5,1.1-0.5c0.3,0,0.5,0.1,0.8,0.3c0.2,0.2,0.4,0.4,0.5,0.7c0.1,0.3,0.2,0.7,0.2,1.1c0,0.4-0.1,0.7-0.2,1
				C291.6,472.6,291.6,472.6,291.6,472.6z"/>
			<path class="st5" d="M295.7,468.5c-0.2-0.2-0.4-0.2-0.6-0.2c-0.2,0-0.4,0.1-0.6,0.2c-0.1,0.2-0.2,0.4-0.2,0.7l0,4.7
				c0,0.3,0.1,0.6,0.2,0.7c0.1,0.2,0.3,0.3,0.6,0.3c0.2,0,0.4-0.1,0.6-0.2c0.2-0.2,0.2-0.4,0.2-0.7l0-4.7
				C295.9,468.9,295.9,468.7,295.7,468.5z M295.7,466.1c-0.2-0.1-0.4-0.2-0.6-0.2c-0.2,0-0.4,0.1-0.6,0.2c-0.2,0.1-0.3,0.3-0.3,0.6
				c0,0.3,0.1,0.4,0.2,0.6c0.2,0.1,0.4,0.2,0.6,0.2c0.2,0,0.4-0.1,0.6-0.2c0.2-0.1,0.2-0.3,0.2-0.6
				C296,466.4,295.9,466.2,295.7,466.1z"/>
			<path class="st5" d="M301.2,474.2l-1.4-2.4l-0.9,0.8l0,1.3c0,0.3-0.1,0.6-0.3,0.7c-0.2,0.2-0.4,0.3-0.6,0.3
				c-0.3,0-0.4-0.1-0.6-0.3c-0.1-0.2-0.2-0.4-0.2-0.7l0-6.9c0-0.4,0.1-0.6,0.2-0.8c0.1-0.2,0.3-0.3,0.6-0.3c0.3,0,0.4,0.1,0.6,0.3
				c0.1,0.2,0.2,0.4,0.2,0.8l0,4l1.8-1.9c0.2-0.2,0.4-0.4,0.5-0.5c0.1-0.1,0.3-0.1,0.4-0.1c0.2,0,0.4,0.1,0.5,0.2
				c0.1,0.1,0.2,0.3,0.2,0.5c0,0.2-0.2,0.6-0.7,1l-0.9,0.8l1.7,2.6c0.1,0.2,0.2,0.3,0.3,0.4c0.1,0.1,0.1,0.2,0.1,0.3
				c0,0.3-0.1,0.5-0.2,0.6c-0.1,0.1-0.3,0.2-0.6,0.2c-0.2,0-0.4-0.1-0.5-0.2C301.5,474.6,301.3,474.4,301.2,474.2L301.2,474.2z"/>
			<path class="st5" d="M304.7,474.9c-0.2,0-0.5-0.1-0.6-0.2c-0.2-0.2-0.3-0.4-0.3-0.7c0-0.2,0.1-0.5,0.3-0.6
				c0.2-0.2,0.4-0.3,0.6-0.3c0.3,0,0.5,0.1,0.6,0.3c0.2,0.2,0.3,0.4,0.3,0.6c0,0.3-0.1,0.5-0.3,0.7
				C305.1,474.9,304.9,474.9,304.7,474.9L304.7,474.9z"/>
			<path class="st5" d="M312.8,473c0,0.2-0.1,0.4-0.2,0.6c-0.1,0.2-0.3,0.4-0.6,0.7c-0.3,0.2-0.6,0.4-0.9,0.5
				c-0.4,0.1-0.8,0.2-1.3,0.2c-1,0-1.8-0.3-2.4-0.9c-0.6-0.6-0.8-1.4-0.8-2.4c0-0.7,0.1-1.3,0.4-1.8c0.3-0.5,0.6-0.9,1.1-1.2
				c0.5-0.3,1.1-0.4,1.8-0.4c0.4,0,0.8,0.1,1.2,0.2c0.4,0.1,0.6,0.3,0.9,0.5c0.2,0.2,0.4,0.4,0.6,0.6c0.1,0.2,0.2,0.4,0.2,0.6
				c0,0.2-0.1,0.4-0.2,0.5c-0.1,0.1-0.3,0.2-0.5,0.2c-0.1,0-0.3,0-0.3-0.1c-0.1-0.1-0.2-0.2-0.3-0.3c-0.2-0.3-0.4-0.5-0.6-0.7
				c-0.2-0.2-0.5-0.2-0.8-0.2c-0.5,0-0.9,0.2-1.2,0.6c-0.3,0.4-0.4,0.9-0.5,1.5c0,0.3,0,0.6,0.1,0.8c0.1,0.3,0.2,0.5,0.3,0.7
				c0.1,0.2,0.3,0.3,0.5,0.4c0.2,0.1,0.4,0.1,0.7,0.1c0.3,0,0.6-0.1,0.8-0.2c0.2-0.1,0.4-0.4,0.6-0.7c0.1-0.2,0.2-0.3,0.3-0.4
				c0.1-0.1,0.3-0.2,0.4-0.2c0.2,0,0.4,0.1,0.5,0.2C312.7,472.6,312.8,472.8,312.8,473L312.8,473z"/>
			<path class="st5" d="M319.6,470.4c-0.1-0.4-0.4-0.8-0.6-1.1c-0.3-0.3-0.6-0.5-1-0.7c-0.4-0.2-0.8-0.2-1.3-0.3
				c-0.5,0-0.9,0.1-1.3,0.2c-0.4,0.2-0.7,0.4-1,0.7c-0.3,0.3-0.5,0.6-0.7,1c-0.2,0.4-0.2,0.9-0.2,1.3c0,0.5,0.1,0.9,0.2,1.3
				c0.2,0.4,0.4,0.8,0.7,1c0.3,0.3,0.6,0.5,1,0.7c0.4,0.2,0.8,0.2,1.3,0.3c0.5,0,0.9-0.1,1.3-0.2c0.4-0.2,0.7-0.4,1-0.7
				c0.3-0.3,0.5-0.6,0.7-1.1c0.2-0.4,0.2-0.9,0.2-1.3C319.8,471.2,319.8,470.8,319.6,470.4z M317.8,473.2c-0.3,0.4-0.7,0.6-1.2,0.6
				c-0.3,0-0.6-0.1-0.9-0.3c-0.2-0.2-0.4-0.4-0.5-0.7c-0.1-0.3-0.2-0.7-0.2-1.1c0-0.4,0.1-0.8,0.2-1.1c0.1-0.3,0.3-0.6,0.6-0.7
				c0.2-0.2,0.5-0.2,0.8-0.2c0.5,0,0.9,0.2,1.2,0.6c0.3,0.4,0.4,0.9,0.4,1.5S318,472.9,317.8,473.2z"/>
			<path class="st5" d="M326.1,471.9l0,2.2c0,0.3-0.1,0.6-0.2,0.8c-0.2,0.2-0.4,0.3-0.6,0.3c-0.2,0-0.4-0.1-0.6-0.3
				c-0.2-0.2-0.2-0.4-0.2-0.8l0-2.6c0-0.4,0-0.7,0-1c0-0.2-0.1-0.4-0.2-0.6c-0.1-0.1-0.3-0.2-0.6-0.2c-0.5,0-0.9,0.2-1.1,0.5
				c-0.2,0.4-0.3,0.9-0.3,1.6l0,2.2c0,0.3-0.1,0.6-0.2,0.8c-0.2,0.2-0.4,0.3-0.6,0.3c-0.2,0-0.4-0.1-0.6-0.3
				c-0.2-0.2-0.2-0.4-0.2-0.8l0-4.7c0-0.3,0.1-0.5,0.2-0.7c0.1-0.2,0.3-0.2,0.6-0.2c0.2,0,0.4,0.1,0.6,0.2c0.1,0.2,0.2,0.4,0.2,0.6
				v0.2c0.3-0.3,0.6-0.6,0.9-0.7c0.3-0.2,0.7-0.2,1.1-0.2c0.4,0,0.8,0.1,1.1,0.3c0.3,0.2,0.5,0.4,0.7,0.7c0.3-0.3,0.6-0.6,0.9-0.7
				c0.3-0.2,0.7-0.2,1-0.2c0.4,0,0.8,0.1,1.1,0.3c0.3,0.2,0.6,0.4,0.7,0.8c0.1,0.3,0.2,0.8,0.2,1.4l0,3.2c0,0.3-0.1,0.6-0.2,0.8
				c-0.2,0.2-0.4,0.3-0.6,0.3c-0.2,0-0.4-0.1-0.6-0.3c-0.2-0.2-0.2-0.4-0.2-0.8l0-2.7c0-0.3,0-0.6,0-0.8c0-0.2-0.1-0.4-0.2-0.5
				c-0.1-0.1-0.3-0.2-0.6-0.2c-0.2,0-0.4,0.1-0.6,0.2c-0.2,0.1-0.3,0.3-0.5,0.5C326.1,470.7,326.1,471.2,326.1,471.9L326.1,471.9z"
				/>
		</g>
		<g>
			<path class="st5" d="M256.6,464.7c0.3,0,0.5,0,0.8,0.1l0.1-0.5c0,0-0.7-0.2-1.7-0.2l-0.1-0.3c0.3-0.1,0.5-0.3,0.5-0.6
				c0-0.4-0.3-0.7-0.7-0.7c-0.4,0-0.7,0.3-0.7,0.7c0,0.3,0.2,0.6,0.5,0.7l0.1,0.3c-1,0.1-1.8,0.5-1.8,0.5l0.1,0.4
				c0.6-0.2,1.2-0.3,1.6-0.4C255.9,464.7,256.3,464.7,256.6,464.7z"/>
			<path class="st5" d="M250.9,467.1L250.9,467.1C250.9,467,250.9,467,250.9,467.1l-0.1-0.2l-0.3-0.2c0,0-0.5,0.5-0.9,1.3
				c0,0,0-0.1-0.1-0.1c-0.1-0.1-0.3-0.2-0.5-0.2c0,0,0,0,0,0c-0.1,0-0.2,0-0.3-0.1c0.1-0.1,0.1-0.2,0.1-0.3c0-0.2-0.2-0.4-0.4-0.4
				c-0.2,0-0.4,0.2-0.4,0.4c0,0.2,0.2,0.4,0.4,0.4c0,0,0.1,0,0.1,0c0.1,0.1,0.3,0.2,0.5,0.2c0.1,0,0.2,0,0.3,0.1
				c0.1,0.1,0.1,0.2,0.1,0.3c0,0,0,0,0,0c-0.3,0.7-0.2,1.7-0.2,1.7l0.7,0c0-0.3,0.1-0.9,0.2-1.4
				C250.4,467.7,250.9,467.1,250.9,467.1z"/>
			<path class="st5" d="M262.4,465.3c-0.2,0-0.4,0.2-0.4,0.4c0,0,0,0.1,0,0.1c-0.1,0.1-0.2,0.3-0.2,0.5c0,0.1,0,0.2-0.1,0.3
				c-0.1,0-0.1,0.1-0.2,0.1c-0.5-0.7-1.1-1.1-1.1-1.1l-0.5,0.5c0.4,0.3,0.7,0.7,1.1,1.3c0.2,0.4,0.5,0.8,0.7,1.3l0.6-0.3
				c0,0-0.3-0.7-0.7-1.4c0.1,0,0.1-0.1,0.2-0.1c0.1-0.1,0.2-0.3,0.2-0.5c0-0.1,0-0.2,0.1-0.3c0.1,0.1,0.2,0.1,0.3,0.1
				c0.2,0,0.4-0.2,0.4-0.4C262.8,465.5,262.6,465.3,262.4,465.3z"/>
			<path class="st5" d="M260.7,471c-0.9,0.4-2.3,1-4.3,1.2c-0.8,0.1-1.5,0.1-2.2,0.1c-0.9,0-1.6-0.1-2.2-0.2
				c-0.7-0.1-1.2-0.2-1.5-0.3c0.1,0.2,0.2,0.5,0.3,0.7c0,0,0,0,0,0c0,0,0,0.1,0,0.1c0,0,0,0.1,0,0.1c0,0,0,0,0,0
				c0.2,0.4,0.4,0.7,0.7,1c0.9,1,1.8,1.2,1.8,1.2l0,0l0,0c0,0,0.8,0.3,2.1,0.3c1.2,0,2.4-0.2,3.6-0.7c0.8-0.4,1.7-1.1,2.1-1.7
				c0.3-0.5,0.5-0.9,0.7-1.4c0.1-0.3,0.1-0.7,0.1-1.1C261.6,470.6,261.2,470.8,260.7,471z"/>
			<path class="st5" d="M260.7,467.5c-1.2-1.8-2.6-2.3-3.3-2.4c-0.3,0-0.5-0.1-0.8-0.1c-0.3,0-0.6,0-1.1,0.1c-0.5,0-1,0.2-1.6,0.4
				c-0.9,0.3-1.6,0.7-2.2,1.3l0,0c-0.1,0.1-0.3,0.3-0.5,0.5c0,0-0.4,0.6-0.7,1.4c-0.2,0.6-0.2,1.5-0.2,1.5c0,0.2,0,0.4,0,0.6
				c0,0,0,0,0,0c0,0,0,0,0,0.1c0,0.1,0,0.3,0.1,0.4c0.4,0.1,3.1,0.7,6,0.4c1.8-0.2,3.2-0.8,4.1-1.2c0.7-0.3,1.2-0.6,1.3-0.8
				C261.6,469.2,261.1,468.1,260.7,467.5z M253.7,470.4c-1,0-1.8-0.8-1.8-1.8c0-1,0.8-1.8,1.8-1.7c1,0,1.8,0.8,1.8,1.8
				C255.5,469.6,254.7,470.4,253.7,470.4z M258.9,469.1c-0.6,0-1.1-0.5-1.1-1.1c0-0.6,0.5-1.1,1.1-1.1c0.6,0,1.1,0.5,1.1,1.1
				C260,468.6,259.5,469.1,258.9,469.1z"/>
		</g>
	</g>
</g>
</svg>
