<?xml version="1.0" encoding="iso-8859-1"?>
<!-- Generator: Adobe Illustrator 19.0.0, SVG Export Plug-In . SVG Version: 6.00 Build 0)  -->
<svg xmlns="http://www.w3.org/2000/svg" xmlns:xlink="http://www.w3.org/1999/xlink" version="1.1" id="Layer_1" x="0px" y="0px" viewBox="0 0 201.526 201.526" style="enable-background:new 0 0 201.526 201.526;" xml:space="preserve" width="512px" height="512px">
<g>
	<g>
		<g>
			<path d="M184.136,34.746H17.39C7.801,34.746,0,42.525,0,52.085v97.356c0,9.56,7.801,17.339,17.39,17.339h166.746     c9.589,0,17.39-7.779,17.39-17.339V52.085C201.525,42.525,193.725,34.746,184.136,34.746z M194.577,149.441h-0.001     c0,5.729-4.684,10.39-10.441,10.39H17.39c-5.757,0-10.441-4.66-10.441-10.39V52.085c0-5.729,4.684-10.39,10.441-10.39h166.746     c5.757,0,10.441,4.66,10.441,10.39V149.441z" fill="#dedede"/>
			<rect x="17.373" y="100.763" width="34.746" height="6.949" fill="#dedede"/>
			<rect x="17.373" y="118.136" width="52.119" height="6.949" fill="#dedede"/>
			<rect x="76.441" y="118.136" width="13.898" height="6.949" fill="#dedede"/>
			<rect x="59.068" y="100.763" width="34.746" height="6.949" fill="#dedede"/>
			<rect x="100.763" y="100.763" width="34.746" height="6.949" fill="#dedede"/>
			<rect x="142.458" y="100.763" width="34.746" height="6.949" fill="#dedede"/>
			<path d="M180.678,52.119H121.61c-1.919,0-3.475,1.556-3.475,3.475v24.322c0,1.919,1.556,3.475,3.475,3.475h59.068     c1.919,0,3.475-1.556,3.475-3.475V55.593C184.153,53.675,182.597,52.119,180.678,52.119z M177.203,76.441h-52.119V59.068h52.119     V76.441z" fill="#dedede"/>
		</g>
	</g>
</g>
<g>
</g>
<g>
</g>
<g>
</g>
<g>
</g>
<g>
</g>
<g>
</g>
<g>
</g>
<g>
</g>
<g>
</g>
<g>
</g>
<g>
</g>
<g>
</g>
<g>
</g>
<g>
</g>
<g>
</g>
</svg>
