<?xml version="1.0" encoding="iso-8859-1"?>
<!-- Generator: Adobe Illustrator 19.0.0, SVG Export Plug-In . SVG Version: 6.00 Build 0)  -->
<svg version="1.1" id="Capa_1" xmlns="http://www.w3.org/2000/svg" xmlns:xlink="http://www.w3.org/1999/xlink" x="0px" y="0px"
	 viewBox="0 0 491.52 491.52" style="enable-background:new 0 0 491.52 491.52;" xml:space="preserve">
<circle style="fill:#EA8953;" cx="245.76" cy="245.76" r="245.76"/>
<path style="opacity:0.1;enable-background:new    ;" d="M384.256,110.357c-0.87-1.229-1.894-2.253-3.072-3.072
	c-2.048-1.434-4.557-2.304-7.27-2.304H117.606c-6.963,0-12.646,5.632-12.646,12.646v256.307c0,3.328,1.331,6.298,3.43,8.602
	l1.178,1.178l105.879,105.879c9.94,1.224,20.042,1.928,30.313,1.928c135.73,0,245.76-110.03,245.76-245.76
	c0-10.154-0.688-20.142-1.884-29.972L384.41,110.562L384.256,110.357z"/>
<path style="fill:#64798A;" d="M373.918,104.96H117.602c-6.982,0-12.642,5.66-12.642,12.642v256.315
	c0,6.983,5.66,12.643,12.642,12.643h256.315c6.981,0,12.642-5.66,12.642-12.643V117.602
	C386.56,110.62,380.899,104.96,373.918,104.96z"/>
<g>
	<rect x="125.44" y="157.302" style="fill:#FFFFFF;" width="240.64" height="208.778"/>
	<rect x="125.44" y="123.136" style="fill:#FFFFFF;" width="172.068" height="14.556"/>
</g>
<rect x="125.44" y="358.385" style="fill:#EBF0F3;" width="240.64" height="7.695"/>
<circle style="fill:#FCD462;" cx="313.395" cy="130.401" r="7.276"/>
<circle style="fill:#44C4A1;" cx="336.128" cy="130.401" r="7.276"/>
<circle style="fill:#E56353;" cx="358.81" cy="130.401" r="7.276"/>
<rect x="138.291" y="170.394" style="fill:#FCD462;" width="64.328" height="58.865"/>
<rect x="138.291" y="220.774" style="fill:#F6C358;" width="64.328" height="8.494"/>
<g>
	<rect x="225.06" y="170.701" style="fill:#E1E6E9;" width="126.464" height="10.24"/>
	<rect x="225.06" y="196.92" style="fill:#E1E6E9;" width="126.464" height="10.24"/>
	<rect x="225.06" y="223.114" style="fill:#E1E6E9;" width="126.464" height="10.24"/>
	<rect x="138.291" y="249.313" style="fill:#E1E6E9;" width="213.243" height="10.24"/>
	<rect x="138.291" y="275.512" style="fill:#E1E6E9;" width="213.243" height="10.24"/>
	<rect x="138.291" y="301.706" style="fill:#E1E6E9;" width="213.243" height="10.24"/>
	<rect x="138.291" y="327.885" style="fill:#E1E6E9;" width="146.862" height="10.24"/>
</g>
<rect x="280.021" y="214.302" transform="matrix(-0.7071 -0.7071 0.7071 -0.7071 295.4517 669.6661)" style="fill:#44C4A1;" width="12.795" height="118.682"/>
<rect x="289.028" y="223.334" transform="matrix(-0.7071 -0.7071 0.7071 -0.7071 304.4408 691.4539)" style="fill:#3EA69B;" width="12.795" height="118.682"/>
<rect x="298.086" y="232.402" transform="matrix(-0.7071 -0.7071 0.7071 -0.7071 313.4917 713.3384)" style="fill:#31978C;" width="12.795" height="118.682"/>
<path style="fill:#64798A;" d="M231.19,350.897l14.789-5.229c-0.685-3.21-2.262-6.267-4.755-8.761
	c-2.493-2.493-5.551-4.07-8.76-4.755l-5.229,14.79C226.366,349.398,228.732,351.765,231.19,350.897z"/>
<path style="fill:#FCD462;" d="M239.916,311.074l-7.452,21.078c2.024,0.432,3.986,1.221,5.787,2.368l10.712-14.398L239.916,311.074z
	"/>
<path style="fill:#DC8744;" d="M267.056,338.215l-9.047-9.047l-14.398,10.712c1.147,1.8,1.936,3.763,2.368,5.787L267.056,338.215z"
	/>
<path style="fill:#F6C358;" d="M248.962,320.121L238.25,334.52c1.054,0.672,2.053,1.466,2.974,2.387
	c0.921,0.921,1.715,1.92,2.387,2.974l14.398-10.712L248.962,320.121z"/>
<rect x="316.234" y="239.505" transform="matrix(-0.7071 -0.7071 0.7071 -0.7071 400.9987 651.4918)" style="fill:#FCD462;" width="38.385" height="6.385"/>
<path style="fill:#E56353;" d="M349.896,255.375l-27.141-27.141l17.689-17.688c3.793-3.793,30.934,23.347,27.141,27.141
	L349.896,255.375z"/>
<g>
</g>
<g>
</g>
<g>
</g>
<g>
</g>
<g>
</g>
<g>
</g>
<g>
</g>
<g>
</g>
<g>
</g>
<g>
</g>
<g>
</g>
<g>
</g>
<g>
</g>
<g>
</g>
<g>
</g>
</svg>
