<?xml version="1.0" encoding="utf-8"?>
<!-- Generator: Adobe Illustrator 21.0.0, SVG Export Plug-In . SVG Version: 6.00 Build 0)  -->
<svg version="1.1" id="Layer_1" xmlns="http://www.w3.org/2000/svg" xmlns:xlink="http://www.w3.org/1999/xlink" x="0px" y="0px"
	 viewBox="0 0 5000 5000" style="enable-background:new 0 0 5000 5000;" xml:space="preserve">
<style type="text/css">
	.st0{fill:#192533;}
	.st1{fill:#2FA58D;}
	.st2{opacity:0.18;fill:#020202;enable-background:new    ;}
	.st3{fill:#141D26;}
	.st4{fill:#EFD4B7;}
	.st5{fill:#CCA992;}
	.st6{fill:#1E4C56;}
	.st7{fill:#FFFDFE;}
	.st8{fill:#EFA543;}
	.st9{fill:#B7B7B7;}
	.st10{fill:#DBB89C;}
	.st11{fill:#174652;}
	.st12{fill:#E69621;}
	.st13{fill:#EE5438;}
	.st14{fill:#FFFFFF;}
	.st15{fill:#B3B2B3;}
	.st16{fill:#71CCAD;}
	.st17{fill:#E17B38;}
	.st18{fill:#51A888;}
	.st19{fill:#D56648;}
	.st20{fill:#CC5A28;}
	.st21{fill:#F6F4F4;}
	.st22{fill:#73BCC4;}
	.st23{fill:#5E9BA3;}
	.st24{opacity:0.22;fill:#5AC0ED;enable-background:new    ;}
	.st25{opacity:0.36;fill:#FFFFFF;enable-background:new    ;}
	.st26{fill:#CDE9F9;}
	.st27{opacity:0.3;fill:#5AC0ED;enable-background:new    ;}
</style>
<g id="Layer_1_1_">
</g>
<g id="Layer_2">
	<path class="st0" d="M4145.7,4373.3H1431.6c-73.1,0-132.4-59.3-132.4-132.4V2676.1c0-73.1,59.3-132.4,132.4-132.4h2714.1
		c73.1,0,132.4,59.3,132.4,132.4v1564.8C4278.2,4314,4218.9,4373.3,4145.7,4373.3z"/>
	<path class="st1" d="M4071.1,4288.2H1506.2c-67.6,0-122.5-54.8-122.5-122.5V2751.3c0-67.6,54.8-122.5,122.5-122.5h2564.9
		c67.6,0,122.5,54.8,122.5,122.5v1414.4C4193.6,4233.4,4138.8,4288.2,4071.1,4288.2z"/>
	<rect x="2497.4" y="4373.3" class="st0" width="582.6" height="244.6"/>
	<rect x="2497.4" y="4373.3" class="st2" width="582.6" height="60.8"/>
	<path class="st3" d="M3201.3,4594.2h-825.5c-23,0-44.4,11.9-56.5,31.5l-46.4,75.3h1030.8l-45.8-75.1
		C3245.9,4606.3,3224.4,4594.2,3201.3,4594.2z"/>
</g>
<g id="Layer_3">
	<path class="st4" d="M1440.7,1194.7c3.9-7,8.8-17.1,14.9-31.6c8.7-20.9,10.1-44.1,4.1-65.9c-7.1-25.5-17.9-60.3-30-84.6
		c0,0-12.1-66.5,10.9-134.5c0,0,147.8-184,323.7-41c0,0,171,134.4,38.4,344.2l-14.7,14.9l85.1-7.6l26.8,61.4L1715,1428.3
		l-50.3-115.1c0,0-98.9,50.4-118.7,22.2c0,0-11.1-12.2-2.2-31c0,0-0.3-3.2-0.8-8.4c-4.1-4.3-7.9-9-11.3-13.9
		c-12.7-18.5-32-46-37.1-49.9s-13.3-7.4-30.4-12.5C1452,1216,1434.6,1205.8,1440.7,1194.7z"/>
	<path class="st0" d="M1441.1,1005.5c-4.5,9.1-17,10.1-22.8,1.8c-9.7-13.8-31.5-54.5-6.9-150.4c6.5-25.2,36.7-56,67.7-68.5
		c29.4-11.9,75.9-25.7,122-18.8c8.8,1.3,17.4,3.8,25.7,7.1c9.6,3.7,30.5,9.7,62.7,7.3c31.2-2.3,62.5,2.5,91.2,14.9
		c43.3,18.7,85.9,60.2,105.5,114.4c0,0,33.4,105.2,18.5,143.1c-0.4,1-0.6,2-0.7,3c-0.9,15.3-50.9,97.9-4.6,185.9
		c1.5,2.9-1.2,6.4-3.9,8.3c-11.4,8-43.8,25.6-81.2,0.7c0,0-21-12.3-38.6-53c-9.8-22.5-13.5-47.1-11.8-71.6
		c1.2-17.4-1.2-42.3-18.8-63.7c-0.2-0.2-0.4-0.5-0.6-0.7c-4.2-4.2-45.4-44.8-63.7-8.9c-0.2,0.4-0.4,0.8-0.7,1.2
		c-2.5,3.5-16.5,22-36.2,31.4c-13.9,6.7-30.7,1.9-39.3-10.8c-7.8-11.5-38.8-51.3-43.5-67c-1.1-3.6-0.5-10.7-1-19
		c-2.8-48.1-64.3-66.9-93.5-28.5C1458.4,974.2,1449.8,987.9,1441.1,1005.5z"/>
	<path class="st5" d="M925.8,3034.2c0,0-7.3,101-37.1,150.6l185.9,4.9c0,0-21.9-58.2,17.2-134.5L925.8,3034.2z"/>
	<path class="st6" d="M923.4,3122c-12.9-2.7-23.7-7.6-30.7-13.3c-6.1,4.5-13.6,9.7-22,15.3c-0.3,0.3-0.7,0.5-1.1,0.8
		c-5.7,3.8-12,7.8-18.6,12c-0.2,0.2-0.4,0.2-0.7,0.4c-2.5,1.6-5.1,3.2-7.8,4.8c-0.5,0.2-1.1,0.7-1.7,1c-5.8,3.5-11.8,7-18.1,10.4
		c-1.3,0.7-2.7,1.5-4,2.2c-2.4,1.3-4.8,2.6-7.3,3.9c-1.8,1-3.6,2-5.5,2.9c-5.1,2.7-10.4,5.4-15.8,7.8c-2.6,1.4-5.3,2.6-8,3.9
		c-20.7,9.7-42.8,18.3-65.7,24.7c-4,1.2-8,2.3-12.1,3.3c-79.7,19.5-91.8,61-92.2,83c-0.2,8.9,1.6,14.6,1.6,14.6s28.7,19.7,68.7,25.7
		c146.6,21.9,386.1-28.1,386.1-28.1s18.9-17.5,19.1-63.4c0-2.2,0-4.3-0.1-6.6c-0.1-3.1-10.3-91.3-15.3-116.6
		c-19.8,4.1-51.1,9.7-107,13.8c-5,0.4-9.6,0.6-13.7,0.6c-2.8,0-5.5-0.1-7.9-0.1c-4.9-0.2-9.3-0.7-13-1.5l-0.4-0.1l-1.5-0.2
		c-0.2-0.1-0.3-0.2-0.5-0.2L923.4,3122z"/>
	<path class="st7" d="M683.5,3297.3c-33.3-4.9-59.4-18.9-69.8-25c-1,4.6-1.5,9.1-1.5,12.8c-0.2,8.9,1.6,14.6,1.6,14.6
		s28.9,19.7,69,25.7c146.6,21.8,386.1-28.2,386.1-28.2s8.5-7.9,14.1-26.9C1020.7,3282.1,816.7,3317.1,683.5,3297.3z"/>
	<path class="st7" d="M926.1,3162.6c-2.1,4.6-9.1,6.1-15.5,3.1l-63.4-29.4c6.7-4.2,12.9-8.2,18.6-12l52.6,24.4
		C924.8,3151.7,928.4,3157.9,926.1,3162.6z"/>
	<path class="st7" d="M892.9,3177.1c-2.1,4.7-9.1,6.2-15.5,3.2L819,3153c6.3-3.4,12.3-7,18.1-10.4c0.6-0.3,1.1-0.8,1.7-1l46.5,21.7
		C891.7,3166.3,895.2,3172.5,892.9,3177.1z"/>
	<path class="st7" d="M858.4,3192.9c-2.1,4.7-9,6.2-15.5,3.2l-56.4-26.3c5.4-2.4,10.6-5.1,15.8-7.8c1.9-1,3.7-1.9,5.5-2.9l43.2,20.1
		C857.3,3182.2,860.7,3188.3,858.4,3192.9z"/>
	<path class="st8" d="M987.8,3098.1l-83.1-7.5c0,0,37.3-837.2,220.3-821.4c123.1,10.7,9.3,390.3,9.3,390.3L987.8,3098.1z"/>
	<path class="st9" d="M1057.3,2155.4h630.3c8.5,0,15.4,6.9,15.4,15.4v47.2c0,8.5-6.9,15.4-15.4,15.4h-630.3
		c-8.5,0-15.4-6.9-15.4-15.4v-47.2C1041.9,2162.2,1048.8,2155.4,1057.3,2155.4z"/>
	<path class="st9" d="M748.3,1648.5l342.8,537.6c3.5,5.4,1.9,12.7-3.6,16.2l-10,6.4c-5.4,3.5-12.7,1.9-16.2-3.6l-342.8-537.6
		c-3.5-5.4-1.9-12.7,3.6-16.2l10-6.4C737.5,1641.5,744.8,1643.1,748.3,1648.5z"/>
	<path class="st10" d="M1026.7,3062.2c0,0-7.3,101-37.1,150.6l185.9,4.9c0,0-21.9-58.2,17.2-134.5L1026.7,3062.2z"/>
	<path class="st11" d="M1024.2,3150c-12.9-2.7-23.7-7.6-30.7-13.3c-6.1,4.5-13.6,9.7-22,15.3c-0.3,0.3-0.7,0.5-1.1,0.8
		c-5.7,3.8-12,7.8-18.6,12c-0.2,0.2-0.4,0.2-0.7,0.4c-2.5,1.6-5.1,3.2-7.8,4.8c-0.5,0.2-1.1,0.7-1.7,1c-5.8,3.5-11.8,7-18.1,10.4
		c-1.3,0.7-2.7,1.5-4,2.2c-2.4,1.3-4.8,2.6-7.3,3.9c-1.8,1-3.6,2-5.5,2.9c-5.1,2.7-10.4,5.4-15.8,7.8c-2.6,1.4-5.3,2.6-8,3.9
		c-20.7,9.7-42.8,18.3-65.7,24.7c-4,1.2-8,2.3-12.1,3.3c-79.7,19.5-91.8,61-92.2,83c-0.2,8.9,1.6,14.6,1.6,14.6s28.7,19.7,68.7,25.7
		c146.6,21.9,386.1-28.1,386.1-28.1s18.9-17.5,19.1-63.4c0-2.2,0-4.3-0.1-6.6c-0.1-3.1-10.3-91.3-15.3-116.6
		c-19.8,4.1-51.1,9.7-107,13.8c-5,0.4-9.6,0.6-13.7,0.6c-2.8,0-5.5-0.1-7.9-0.1c-4.9-0.2-9.3-0.7-13-1.5l-0.4-0.1l-1.5-0.2
		c-0.2-0.1-0.3-0.2-0.5-0.2L1024.2,3150z"/>
	<path class="st7" d="M784.3,3325.3c-33.3-4.9-59.4-18.9-69.8-25c-1,4.6-1.5,9.1-1.5,12.8c-0.2,8.9,1.6,14.6,1.6,14.6
		s28.9,19.7,69,25.7c146.6,21.8,386.1-28.2,386.1-28.2s8.5-7.9,14.1-26.9C1121.5,3310.1,917.5,3345.1,784.3,3325.3z"/>
	<path class="st7" d="M1026.9,3190.6c-2.1,4.6-9.1,6.1-15.5,3.1l-63.4-29.4c6.7-4.2,12.9-8.2,18.6-12l52.6,24.4
		C1025.6,3179.7,1029.2,3185.9,1026.9,3190.6z"/>
	<path class="st7" d="M993.7,3205.1c-2.1,4.7-9.1,6.2-15.5,3.2l-58.4-27.2c6.3-3.4,12.3-7,18.1-10.4c0.6-0.3,1.1-0.8,1.7-1
		l46.5,21.7C992.5,3194.3,996,3200.5,993.7,3205.1z"/>
	<path class="st7" d="M959.2,3220.9c-2.1,4.7-9,6.2-15.5,3.2l-56.4-26.3c5.4-2.4,10.6-5.1,15.8-7.8c1.9-1,3.7-1.9,5.5-2.9l43.2,20.1
		C958.1,3210.2,961.5,3216.3,959.2,3220.9z"/>
	<path class="st12" d="M1047.8,2434.5c15.6-103.6,37.6-193,132.8-197.4c135.6-6.3,218.3-5.3,369.6-2.8c15,0.3,121.6,8.4,161.6-8.7
		c220.9,106.1,349.9,140.2,417.6,150.5c-2.2,14.2-4.8,28.1-7.9,41.6c-12.9,56.6-100.5,120.6-159.7,124.1c-100.9,6-228.8,0-329,0
		c-117.5,0.5-263.7,0-333.8-2.8c0,22.7,0,39.9,0,57c0.2,158-53.2,509.2-56.1,525.6c-128.1,7-160.3-9.4-266.2-12.3
		c-17-0.5,14.9-250.5,16.8-263.2C1014,2706.1,1020.5,2579.1,1047.8,2434.5z"/>
	<g>
		<polygon class="st4" points="1299.6,2005 1249.8,2056 1179.2,1988.3 1231.7,1933 		"/>
		<path class="st4" d="M1190.1,1977.4l60.2,76.6c0,0-10.9,71.8-26.8,88.6c0,0-26.2,53.1-71.1,57.8c0,0-41.2,8-36.1-14
			c0,0-53.2-3.9-34.7-39.5c0,0-57.4-4.6-28-50.5c0,0-40.3-12.1-3.9-43.7c0,0,8.7-7,21.2-34.6c0,0,15.8-31,55.2-27.1
			C1126,1991.1,1153,2000.9,1190.1,1977.4z"/>
	</g>
	<path class="st13" d="M2051.9,1603.8c-31.3-107.8-42.6-127.6-103.6-263.2c-32.3-64.6-22.4-50-58.3-114.8
		c-38.6,32.4-70.5,61.5-122,106.2c-68.2,66.3-68.2,66.3-78.5,78.7c-60.5,73.5-70.4,161-101.3,237.5c-29.6,36.3-84.9,82.8-84.9,82.8
		l-321,235.9l102.1,150.1l369.8-247.8c0,0,13.9-8.7,29.4-24.7l37.5,375.9c-2.4,2-5.6,3.8-9.2,5.3
		c220.9,106.1,349.9,140.2,417.6,150.5c4.5-28.5,7.6-58,9.6-87.7c3.1-44.3,4.1-88.8,4.9-129.7
		C2147.5,1968,2105,1786.9,2051.9,1603.8z"/>
	<path class="st14" d="M1225.8,1935.8l99.6,138.8c6.9,9.6,4.7,23-4.9,29.9l-31.4,22.5c-9.6,6.9-23,4.7-29.9-4.9l-99.6-138.8
		c-6.9-9.6-4.7-23,4.9-29.9l31.4-22.5C1205.5,1924,1219,1926.2,1225.8,1935.8z"/>
	<path class="st15" d="M2624.3,1890v-201.4c59.4,0,100.8,45.1,100.8,100.7C2725.1,1844.9,2673.8,1890,2624.3,1890z"/>
	<path class="st16" d="M2932.3,643.3H2704h-228c-99.9,277.2-84.8,648.9-84.8,648.9c11.3,582.6,180,643.2,180,643.2h132.9h133
		c0,0,168.7-60.7,180-643.2C3017.2,1292.1,3032.3,920.5,2932.3,643.3z"/>
	<path class="st17" d="M2392.5,1343.1c0,0-309.2,226.9-78.7,740.2c0,0,64.2-180.8,241.4-159.8
		C2555.2,1923.5,2410,1831.7,2392.5,1343.1z"/>
	<path class="st17" d="M3015.1,1343.1c0,0,309.2,226.9,78.7,740.2c0,0-63.2-181-240.4-160.1
		C2853.4,1923.3,2997.7,1831.7,3015.1,1343.1z"/>
	<path class="st18" d="M3017.3,1281.3c-9.7,597.3-181.1,652.3-181.1,652.3l-132.1-1.5l0.9-1288.9h229.6
		C3032,915.5,3017.3,1281.3,3017.3,1281.3z"/>
	<path class="st19" d="M2705,344.9c0,0-1,0.1-1.4,0.1c-0.8,0-2.2-1.9-2.2-1.9c-20.4,4.1-144.2,37.8-203.8,255.6h203.7h2.8h9.3v-251
		C2708.5,346.7,2706.8,345.2,2705,344.9z"/>
	<path class="st20" d="M2702.4,342.6l1.7,256.1h203.7C2853.6,400.7,2734.2,352.7,2702.4,342.6z"/>
	<g>
		<path class="st21" d="M2711.9,1147.1c-43.9,0-79.6,35.7-79.6,79.6s35.7,79.6,79.6,79.6c43.9,0,79.6-35.7,79.6-79.6
			C2791.5,1182.8,2755.8,1147.1,2711.9,1147.1z M2765.1,1255.6c-0.9,1.7-1.9,3.4-3,5c-0.5,0.8-1.1,1.6-1.7,2.4
			c-1.2,1.6-2.4,3-3.7,4.5c-3.3,3.6-6.9,6.8-11,9.5c-2.4,1.6-5,3.1-7.6,4.4c-7.9,3.8-16.8,6-26.2,6s-18.3-2.1-26.2-6
			c-2.6-1.3-5.2-2.7-7.6-4.4c-2.4-1.6-4.7-3.4-6.9-5.4c-1.4-1.3-2.8-2.7-4.1-4.1s-2.5-2.9-3.7-4.5c-0.6-0.8-1.1-1.6-1.7-2.4
			c-1.1-1.6-2.1-3.3-3-5c-4.7-8.6-7.3-18.4-7.3-28.8c0-12.5,3.8-24.2,10.3-33.8c0.5-0.8,1.1-1.6,1.7-2.4c1.2-1.6,2.4-3,3.7-4.5
			c1.3-1.4,2.7-2.8,4.1-4.1c2.1-2,4.4-3.8,6.9-5.4c2.4-1.6,5-3.1,7.6-4.4c1.8-0.8,3.6-1.6,5.4-2.3c1.9-0.7,3.8-1.3,5.7-1.8
			c4.8-1.2,9.9-1.9,15.1-1.9c5.2,0,10.3,0.7,15.1,1.9c1.9,0.5,3.8,1.1,5.7,1.8c1.9,0.7,3.7,1.4,5.4,2.3c2.6,1.3,5.2,2.7,7.6,4.4
			c4,2.7,7.7,5.9,11,9.5c1.3,1.4,2.5,2.9,3.7,4.5c0.6,0.8,1.1,1.6,1.7,2.4c6.5,9.7,10.3,21.3,10.3,33.8
			C2772.4,1237.2,2769.8,1247,2765.1,1255.6z"/>
	</g>
	<g>
		<path class="st21" d="M2711.1,853.8c-34.1,0-61.9,27.7-61.9,61.9c0,34.1,27.7,61.9,61.9,61.9c34.1,0,61.9-27.7,61.9-61.9
			S2745.2,853.8,2711.1,853.8z M2752.5,938c-0.7,1.3-1.5,2.6-2.4,3.9c-0.4,0.6-0.9,1.2-1.3,1.8c-0.9,1.2-1.9,2.4-2.9,3.5
			c-2.5,2.8-5.4,5.3-8.5,7.4c-1.9,1.3-3.8,2.4-5.9,3.4c-6.2,3-13.1,4.6-20.4,4.6c-7.3,0-14.2-1.7-20.4-4.6c-2.1-1-4-2.1-5.9-3.4
			c-1.9-1.3-3.7-2.7-5.3-4.2c-1.1-1-2.2-2.1-3.2-3.2c-1-1.1-2-2.3-2.9-3.5c-0.5-0.6-0.9-1.2-1.3-1.8c-0.8-1.3-1.6-2.5-2.4-3.9
			c-3.6-6.7-5.7-14.3-5.7-22.4c0-9.7,3-18.8,8-26.3c0.4-0.6,0.9-1.2,1.3-1.8c0.9-1.2,1.9-2.4,2.9-3.5s2.1-2.2,3.2-3.2
			c1.7-1.5,3.4-2.9,5.3-4.2c1.9-1.3,3.8-2.4,5.9-3.4c1.4-0.7,2.8-1.3,4.2-1.8s2.9-1,4.4-1.4c3.8-1,7.7-1.5,11.7-1.5
			c4.1,0,8,0.5,11.7,1.5c1.5,0.4,3,0.8,4.4,1.4c1.4,0.5,2.8,1.1,4.2,1.8c2.1,1,4,2.1,5.9,3.4c3.1,2.1,6,4.6,8.5,7.4
			c1,1.1,2,2.3,2.9,3.5c0.5,0.6,0.9,1.2,1.3,1.8c5.1,7.5,8,16.5,8,26.3C2758.1,923.7,2756.1,931.4,2752.5,938z"/>
	</g>
	<g>
		<path class="st22" d="M2705.6,1935.3h-134c0,0,17.9,97.4,134,119.3c116.1-21.9,132.7-119.3,132.7-119.3H2705.6z"/>
	</g>
	<g>
		<path class="st23" d="M2838.3,1935.3h-132.7h-2.1v117.4c0,0,1.2,0.9,1.4,1C2821,2031.9,2838.3,1935.3,2838.3,1935.3z"/>
	</g>
</g>
<g id="Layer_4">
	<path class="st14" d="M4171.8,4011.4c0,107.8-43.5,204.9-113.9,275.4H1620c-99.1-56.5-165.5-158.1-165.5-275.4
		c0-122.2,71.9-228.1,177.8-282.4c20.3-159.1,163-282.1,336.2-282.1c91.2,0,174,34.3,234.9,89.9c3.4-160.2,93.2-300.3,226.2-376.8
		L2603,2083.4h235.3l184.8,1182.7c63,76.6,100.9,174.1,100.9,280c0,10.3-0.5,20.6-1.2,30.7c58.4-67.6,147.1-110.6,246.4-110.6
		c127.5,0,237.3,71,288.3,173.5c38.5-12.6,79.6-19.9,122.3-19.9C3996.3,3619.8,4171.8,3795,4171.8,4011.4z"/>
	<path class="st24" d="M2533.7,4112.8c0,62.3-26.2,120.1-71.2,168.3c-2.2,2.4-4.5,4.7-6.8,7.1h-691.1
		c-49.1-49.5-78.1-110.1-78.1-175.4c0-167.5,189.7-303.3,423.6-303.3c82.3,0,159.1,16.8,224.1,45.9
		c75.9,33.9,135.5,84.5,169.2,144.6C2523,4034.8,2533.7,4072.9,2533.7,4112.8z"/>
	<path class="st24" d="M3718.9,4160c0,46.7-17.7,90.5-48.7,128.2H3042c-31-37.7-48.7-81.5-48.7-128.2
		c0-116.7,110.5-215.1,261.6-246.1c32.1-6.6,66-10.1,101.1-10.1C3556.5,3903.8,3718.9,4018.5,3718.9,4160z"/>
	<path class="st25" d="M2881.7,4288.2h-784.3c10.8-70.3,66.8-125.6,137.3-135.6c9.6-52.2,48.8-94.1,99.5-107.7
		c11.4-3.1,23.4-4.7,35.8-4.7c22.4,0,43.6,5.4,62.3,14.9c19-23.5,43.3-42.4,71.1-55.1c24.6-11.1,51.9-17.3,80.5-17.3
		c92,0,169.1,63.8,189.5,149.5c27.9,3.4,49.7,26.7,50.4,55.4C2854.3,4212.2,2875.5,4247.7,2881.7,4288.2z"/>
	
		<rect x="2314.5" y="2714.6" transform="matrix(4.733728e-02 -0.9989 0.9989 4.733728e-02 -213.0942 5269.0859)" class="st26" width="682.6" height="63.3"/>
	
		<rect x="2767.4" y="2411.6" transform="matrix(0.9989 -4.733593e-02 4.733593e-02 0.9989 -127.172 135.5811)" class="st26" width="63.3" height="682.6"/>
	<path class="st27" d="M3256.4,3950.1c0,133.1-55.8,253.2-145.3,338.1h-641.2c-2.5-2.3-5-4.7-7.4-7.1
		c-63.8-63.3-109.4-144.8-128.3-236.2c-6.3-30.6-9.6-62.3-9.6-94.7c0-32.5,3.3-64.1,9.6-94.7c43.8-211.8,231.4-371.1,456.3-371.1
		c245.1,0,446,189.3,464.4,429.6C3255.9,3925.9,3256.4,3937.9,3256.4,3950.1z"/>
</g>
</svg>
