<?xml version="1.0" encoding="utf-8"?>
<!-- Generator: Adobe Illustrator 21.0.0, SVG Export Plug-In . SVG Version: 6.00 Build 0)  -->
<svg version="1.1" id="Layer_1" xmlns="http://www.w3.org/2000/svg" xmlns:xlink="http://www.w3.org/1999/xlink" x="0px" y="0px"
	 viewBox="0 0 5000 5000" style="enable-background:new 0 0 5000 5000;" xml:space="preserve">
<style type="text/css">
	.st0{fill:#D6D6D6;}
	.st1{fill:#FFFFFF;}
	.st2{fill:#E1E7C2;}
	.st3{fill:#B99F7C;}
	.st4{fill:#DBE3B1;}
	.st5{fill:#C9D39A;}
	.st6{fill:#AE4354;}
	.st7{fill:#BF5265;}
	.st8{fill-rule:evenodd;clip-rule:evenodd;fill:#AE4354;}
	.st9{fill:#F8E981;}
	.st10{fill:#FEFDEF;}
	.st11{fill:#AC5A42;}
	.st12{fill:#C9B395;}
	.st13{fill:#EDDDC1;}
	.st14{fill:#516A77;}
	.st15{fill:#5D6F82;}
	.st16{fill:#CDD2C3;}
	.st17{fill:#595956;}
	.st18{fill:#DAC3A4;}
	.st19{fill:none;}
	.st20{fill:#755A3F;}
	.st21{fill:#A0513B;}
	.st22{fill:#F5F6F5;}
	.st23{fill:#D68B7E;}
	.st24{fill:#CCCACA;}
	.st25{fill:#39494E;}
	.st26{fill:#CF807C;}
	.st27{fill:#211D10;}
</style>
<g>
	<g>
		<path class="st0" d="M4948.7,3963.7V3901h22.9v-37.5h-22.9v-62.7h22.9v-37.5h-22.9v-62.7h22.9v-32.2h-22.9v-62.7h22.9v-185.4
			h-22.9v-62.7h22.9v-37.5h-22.9v-62.7h22.9v-37.5h-22.9v-62.7h22.9v-153.8h-382.4v-52.2h-109.2v52.2h-61.9v405.7h-325.9v-13.9
			h-183.2v49.2l-100.5,151.6v-832.7h-0.3h-64.4v-0.3v-62.9h-5.6h-80.9v-0.6v-148h-30.6v-297.3h-21.1V2551h-28.5v148v0.6h-28.2h-57.3
			v62.9v0.3h-1.2h-47.8H3417v606.2l-0.1-0.1l-219.5-241.8v-276h-308v278.6l-223.8,246.5v984.1h223.8h2.5h305.4h0.1H3417h6.6h3h19.7
			h7.2h37h253.3h39.7h0.4h16.8h7.8h274h130.5h4.7h200.4h5.8h27.5h198.5h57.9v-334.3h188.9v334.3h74.7v-396.8H4948.7z M2705.7,4230.3
			h-28.2v-87.8h28.2V4230.3z M2705.7,4117.9h-28.2v-87.8h28.2V4117.9z M2705.7,4005.6h-28.2v-87.8h28.2V4005.6z M2705.7,3893.3
			h-28.2v-87.8h28.2V3893.3z M2705.7,3780.9h-28.2v-87.8h28.2V3780.9z M2705.7,3668.6h-28.2v-87.8h28.2V3668.6z M2705.7,3556.2
			h-28.2v-87.8h28.2V3556.2z M2749.3,4230.3h-28.2v-87.8h28.2V4230.3z M2749.3,4117.9h-28.2v-87.8h28.2V4117.9z M2749.3,4005.6
			h-28.2v-87.8h28.2V4005.6z M2749.3,3893.3h-28.2v-87.8h28.2V3893.3z M2749.3,3780.9h-28.2v-87.8h28.2V3780.9z M2749.3,3668.6
			h-28.2v-87.8h28.2V3668.6z M2749.3,3556.2h-28.2v-87.8h28.2V3556.2z M2792.8,4230.3h-28.2v-87.8h28.2V4230.3z M2792.8,4117.9
			h-28.2v-87.8h28.2V4117.9z M2792.8,4005.6h-28.2v-87.8h28.2V4005.6z M2792.8,3893.3h-28.2v-87.8h28.2V3893.3z M2792.8,3780.9
			h-28.2v-87.8h28.2V3780.9z M2792.8,3668.6h-28.2v-87.8h28.2V3668.6z M2792.8,3556.2h-28.2v-87.8h28.2V3556.2z M2836.3,4230.3
			h-28.2v-87.8h28.2V4230.3z M2836.3,4117.9h-28.2v-87.8h28.2V4117.9z M2836.3,4005.6h-28.2v-87.8h28.2V4005.6z M2836.3,3893.3
			h-28.2v-87.8h28.2V3893.3z M2836.3,3780.9h-28.2v-87.8h28.2V3780.9z M2836.3,3668.6h-28.2v-87.8h28.2V3668.6z M2836.3,3556.2
			h-28.2v-87.8h28.2V3556.2z M2879.8,4230.3h-28.2v-87.8h28.2V4230.3z M2879.8,4117.9h-28.2v-87.8h28.2V4117.9z M2879.8,4005.6
			h-28.2v-87.8h28.2V4005.6z M2879.8,3893.3h-28.2v-87.8h28.2V3893.3z M2879.8,3780.9h-28.2v-87.8h28.2V3780.9z M2879.8,3668.6
			h-28.2v-87.8h28.2V3668.6z M2879.8,3556.2h-28.2v-87.8h28.2V3556.2z M3158,4181h-221.5V4133H3158V4181z M3158,4019.2h-221.5v-47.9
			H3158V4019.2z M3158,3857.4h-221.5v-47.9H3158V3857.4z M3158,3695.6h-221.5v-47.9H3158V3695.6z M3158,3533.8h-221.5v-47.9H3158
			V3533.8z M3158,3372h-221.5V3324H3158V3372z M3158,3210.2h-221.5v-47.9H3158V3210.2z M3158,3048.4h-221.5v-47.9H3158V3048.4z
			 M3237.5,4230.3h-28.2v-87.8h28.2V4230.3z M3237.5,4117.9h-28.2v-87.8h28.2V4117.9z M3237.5,4005.6h-28.2v-87.8h28.2V4005.6z
			 M3237.5,3893.3h-28.2v-87.8h28.2V3893.3z M3237.5,3780.9h-28.2v-87.8h28.2V3780.9z M3237.5,3668.6h-28.2v-87.8h28.2V3668.6z
			 M3237.5,3556.2h-28.2v-87.8h28.2V3556.2z M3281,4230.3h-28.2v-87.8h28.2V4230.3z M3281,4117.9h-28.2v-87.8h28.2V4117.9z
			 M3281,4005.6h-28.2v-87.8h28.2V4005.6z M3281,3893.3h-28.2v-87.8h28.2V3893.3z M3281,3780.9h-28.2v-87.8h28.2V3780.9z
			 M3281,3668.6h-28.2v-87.8h28.2V3668.6z M3281,3556.2h-28.2v-87.8h28.2V3556.2z M3324.5,4230.3h-28.2v-87.8h28.2V4230.3z
			 M3324.5,4117.9h-28.2v-87.8h28.2V4117.9z M3324.5,4005.6h-28.2v-87.8h28.2V4005.6z M3324.5,3893.3h-28.2v-87.8h28.2V3893.3z
			 M3324.5,3780.9h-28.2v-87.8h28.2V3780.9z M3324.5,3668.6h-28.2v-87.8h28.2V3668.6z M3324.5,3556.2h-28.2v-87.8h28.2V3556.2z
			 M3368.1,4230.3h-28.2v-87.8h28.2V4230.3z M3368.1,4117.9h-28.2v-87.8h28.2V4117.9z M3368.1,4005.6h-28.2v-87.8h28.2V4005.6z
			 M3368.1,3893.3h-28.2v-87.8h28.2V3893.3z M3368.1,3780.9h-28.2v-87.8h28.2V3780.9z M3368.1,3668.6h-28.2v-87.8h28.2V3668.6z
			 M3368.1,3556.2h-28.2v-87.8h28.2V3556.2z M3411.6,4230.3h-28.2v-87.8h28.2V4230.3z M3411.6,4117.9h-28.2v-87.8h28.2V4117.9z
			 M3411.6,4005.6h-28.2v-87.8h28.2V4005.6z M3411.6,3893.3h-28.2v-87.8h28.2V3893.3z M3411.6,3780.9h-28.2v-87.8h28.2V3780.9z
			 M3411.6,3668.6h-28.2v-87.8h28.2V3668.6z M3411.6,3556.2h-28.2v-87.8h28.2V3556.2z M3434,2787.5h45.3v49.2H3434V2787.5z
			 M3480.5,2971.3v49.2h-45.3v-49.2H3480.5z M3434,3294h45.3v49.2H3434V3294z M3480.2,3667.1v49.2h-45.3v-49.2H3480.2z
			 M3426.8,3478.5h45.3v49.2h-45.3V3478.5z M3423.6,3913.8v-49.2h43.1v49.2H3423.6z M3481.1,4121.4h-45.3v-49.2h45.3V4121.4z
			 M3685.9,2762.6v-46.5h44.3v46.5v3.8h-44.3V2762.6z M3672.7,3754.1v-59.6h57.9v59.6H3672.7z M3719.9,3859v64.4h-56.6V3859H3719.9z
			 M3729.3,3581.6h-56.6v-64.4h56.6V3581.6z M3726.9,3331.3h-56.6v-64.4h56.6V3331.3z M3703.8,3162h-57.9v-59.6h57.9V3162z
			 M3627.9,2847.2h45.4v49.2h-45.4V2847.2z M3624.6,3433.2h56.6v63h-56.6V3433.2z M3636.5,3517.2v64.4h-56.6v-64.4H3636.5z
			 M3566.7,2762.6v-46.5h45.4v46.5v2.6h-45.4V2762.6z M3567.8,3517.2v64.4h-56.6v-64.4H3567.8z M3510.8,2847.2h44.3v49.2h-44.3
			V2847.2z M3510.8,2971.3h44.3v49.2h-44.3V2971.3z M3508,3183h56.6v64.4H3508V3183z M3502.5,3350.8h56.6v62.9h-56.6V3350.8z
			 M3502.5,3775.1h56.6v64.4h-56.6V3775.1z M3563.8,3942.9v62.9h-56.6v-62.9H3563.8z M3559.9,4258.9h-56.6v-64.4h56.6V4258.9z
			 M3608.4,4173.7h-56.6v-64.4h56.6V4173.7z M3624.6,4025.4h56.6v63h-56.6V4025.4z M3730.8,4173.7h-56.6v-64.4h56.6V4173.7z
			 M3731.2,3020.4h-44.3v-49.2h44.3V3020.4z M3746,2787.5h44.3v49.2H3746V2787.5z M3800.2,3054.3v49.2h-45.3v-49.2H3800.2z
			 M3748.5,3313h45.3v49.2h-45.3V3313z M3800.2,3568.8v39.5v9.7h-6.4h-38.9v-49.2H3800.2z M3794.7,4077.3h-11.1h-34.2v-49.2h34.2
			h11.1V4077.3z M3803.8,3851.6h-3h-17.2h-25.2v-49.2h25.2h17.2h3V3851.6z M4281.8,3438h97.9v108.7h-97.9V3438z M4281.8,3577.3h97.9
			v108.7h-97.9V3577.3z M4281.8,3716.5h97.9v108.7h-97.9V3716.5z M4281.8,3855.8h97.9v69.3h-97.9V3855.8z M3969.1,3493.3h63.2V3602
			h-63.2V3493.3z M4065.1,4351.3h-128.7V4159h128.7V4351.3z M4188.3,4103.7v30.4h-84.7h-21h-269.5v-72.4h269.5h21h23.2h61.5V4103.7z
			 M4188.3,3964.4v30.6v13h-61.5h-23.2h-21h-269.5v-72.4h269.5h21h23.2h61.5V3964.4z M4188.3,3825.2v30.6v26.2h-61.5h-23.2h-21
			h-269.5v-72.4h269.5h21h23.2h61.5V3825.2z M4188.3,3685.9v30.6v39.4h-61.5h-23.2h-21h-269.5v-72.4h269.5h21h23.2h61.5V3685.9z
			 M4224.8,3925.1h-7v-69.3h7V3925.1z M4224.8,3825.2h-7v-108.7h7V3825.2z M4224.8,3685.9h-7v-52.7l-37.1-56h44.1V3685.9z
			 M4224.8,3546.7h-64.4l-33.5-50.6V3438h97.9V3546.7z M4308.2,4242.9v47.9h-66.3v-73.6h39.9h26.4V4242.9z M4308.2,4134.3v44.2
			h-26.4h-39.9v-73.6h66.3V4134.3z M4308.2,3995v73.3h-26.4h-39.9v-73.6h66.3V3995z M4412.6,4290.8h-23.8h-42.5v-47.9v-25.7h33.5h9
			h23.8V4290.8z M4412.6,4178.5h-23.8h-9h-33.5v-44.2v-29.4h42.5h23.8V4178.5z M4412.6,4068.4h-23.8h-9h-33.5V3995v-0.2h42.5h23.8
			V4068.4z M4516.9,4290.8h-65.3h-1v-73.6h1h65.3V4290.8z M4516.9,4178.5h-65.3h-1v-73.6h1h65.3V4178.5z M4516.9,4068.4h-65.3h-1
			v-73.6h1h65.3V4068.4z M4621.2,4290.8h-66.3v-73.6h66.3V4290.8z M4621.2,4178.5h-66.3v-73.6h66.3V4178.5z M4621.2,4068.4h-66.3
			v-73.6h66.3V4068.4z M4656.1,3963.7h-6v-38.7H4473V3901h183.1V3963.7z M4656.1,3863.5H4473v-62.7h183.1V3863.5z M4656.1,3763.2
			H4473v-62.7h183.1V3763.2z M4656.1,3668.2H4473v-62.7h183.1V3668.2z M4656.1,3420.1H4473v-62.7h183.1V3420.1z M4656.1,3319.9H4473
			v-62.7h183.1V3319.9z M4656.1,3219.6H4473v-62.7h183.1V3219.6z M4893.9,3963.7h-183.1V3901h183.1V3963.7z M4893.9,3863.5h-183.1
			v-62.7h183.1V3863.5z M4893.9,3763.2h-183.1v-62.7h183.1V3763.2z M4893.9,3668.2h-183.1v-62.7h183.1V3668.2z M4893.9,3420.1
			h-183.1v-62.7h183.1V3420.1z M4893.9,3319.9h-183.1v-62.7h183.1V3319.9z M4893.9,3219.6h-183.1v-62.7h183.1V3219.6z"/>
	</g>
	<path class="st0" d="M2521.1,3408.7v-405.7h-597.4v-52.2h-109.2v52.2h-61.9v405.7h-325.9v-13.9h-183.2v49.2L1143,3595.6v-832.7
		h-0.3h-64.4v-0.3v-62.9h-5.6h-80.9v-0.6v-148h-30.6v-297.3h-21.1V2551h-28.5v148v0.6h-28.2h-57.3v62.9v0.3H825h-47.8h-25.9v606.2
		l-0.1-0.1l-219.5-241.8v-276h-308v278.6L0,3376.4v984.1h223.8h2.5h305.4h0.1h219.6h6.6h3h19.7h7.2h37h253.3h39.7h0.4h16.8h7.8h274
		h130.5h4.7h200.4h5.8h27.5h198.5h57.9v-334.3h188.9v334.3H2332h142h47h152.4v-951.8H2521.1z M40.2,4230.3H12v-87.8h28.2V4230.3z
		 M40.2,4117.9H12v-87.8h28.2V4117.9z M40.2,4005.6H12v-87.8h28.2V4005.6z M40.2,3893.3H12v-87.8h28.2V3893.3z M40.2,3780.9H12
		v-87.8h28.2V3780.9z M40.2,3668.6H12v-87.8h28.2V3668.6z M40.2,3556.2H12v-87.8h28.2V3556.2z M83.7,4230.3H55.5v-87.8h28.2V4230.3z
		 M83.7,4117.9H55.5v-87.8h28.2V4117.9z M83.7,4005.6H55.5v-87.8h28.2V4005.6z M83.7,3893.3H55.5v-87.8h28.2V3893.3z M83.7,3780.9
		H55.5v-87.8h28.2V3780.9z M83.7,3668.6H55.5v-87.8h28.2V3668.6z M83.7,3556.2H55.5v-87.8h28.2V3556.2z M127.2,4230.3H99.1v-87.8
		h28.2V4230.3z M127.2,4117.9H99.1v-87.8h28.2V4117.9z M127.2,4005.6H99.1v-87.8h28.2V4005.6z M127.2,3893.3H99.1v-87.8h28.2V3893.3
		z M127.2,3780.9H99.1v-87.8h28.2V3780.9z M127.2,3668.6H99.1v-87.8h28.2V3668.6z M127.2,3556.2H99.1v-87.8h28.2V3556.2z
		 M170.8,4230.3h-28.2v-87.8h28.2V4230.3z M170.8,4117.9h-28.2v-87.8h28.2V4117.9z M170.8,4005.6h-28.2v-87.8h28.2V4005.6z
		 M170.8,3893.3h-28.2v-87.8h28.2V3893.3z M170.8,3780.9h-28.2v-87.8h28.2V3780.9z M170.8,3668.6h-28.2v-87.8h28.2V3668.6z
		 M170.8,3556.2h-28.2v-87.8h28.2V3556.2z M214.3,4230.3h-28.2v-87.8h28.2V4230.3z M214.3,4117.9h-28.2v-87.8h28.2V4117.9z
		 M214.3,4005.6h-28.2v-87.8h28.2V4005.6z M214.3,3893.3h-28.2v-87.8h28.2V3893.3z M214.3,3780.9h-28.2v-87.8h28.2V3780.9z
		 M214.3,3668.6h-28.2v-87.8h28.2V3668.6z M214.3,3556.2h-28.2v-87.8h28.2V3556.2z M492.4,4181H271V4133h221.5V4181z M492.4,4019.2
		H271v-47.9h221.5V4019.2z M492.4,3857.4H271v-47.9h221.5V3857.4z M492.4,3695.6H271v-47.9h221.5V3695.6z M492.4,3533.8H271v-47.9
		h221.5V3533.8z M492.4,3372H271V3324h221.5V3372z M492.4,3210.2H271v-47.9h221.5V3210.2z M492.4,3048.4H271v-47.9h221.5V3048.4z
		 M2629.2,3716.5v108.7h-97.9v-108.7H2629.2z M2531.3,3685.9v-108.7h97.9v108.7H2531.3z M2629.2,3855.8v108.7h-97.9v-108.7H2629.2z
		 M2629.2,3995v108.7h-97.9V3995H2629.2z M2629.2,4134.3v108.7h-97.9v-108.7H2629.2z M2629.2,3546.7h-97.9V3438h97.9V3546.7z
		 M2376.3,3995h97.8h0.2v108.7h-0.2h-97.8V3995z M2474,3964.4h-97.8v-0.7V3901v-37.5v-7.7h90h7.8h0.2v108.7H2474z M2332,3668.2
		h-48.9v-62.7h48.9V3668.2z M2332,3700.5v62.7h-48.9v-62.7H2332z M2474,3825.2h-7.8h-90v-24.5v-37.5v-46.7h90h7.8h0.2v108.7H2474z
		 M2474,3685.9h-97.8v-17.7v-62.7v-28.2h97.8h0.2v108.7H2474z M2332,3408.7v11.4h-48.9v-62.7h183.1v51.3H2332z M2283.2,3319.9v-62.7
		h183.1v62.7H2283.2z M2466.2,3219.6h-183.1v-62.7h183.1V3219.6z M2283.2,3800.7h48.9v62.7h-48.9V3800.7z M2376.3,4134.3h97.8h0.2
		v108.7h-0.2h-97.8V4134.3z M2474.2,3546.7h-0.2h-97.8V3438h97.8h0.2V3546.7z M1642.7,3995v73.3h-26.4h-39.9v-73.6h66.3V3995z
		 M1642.7,4134.3v44.2h-26.4h-39.9v-73.6h66.3V4134.3z M1303.5,3493.3h63.2V3602h-63.2V3493.3z M1417,3683.5h21h23.2h61.5v2.5v30.6
		v39.4h-61.5H1438h-21h-269.5v-72.4H1417z M1616.3,3685.9v-108.7h97.9v108.7H1616.3z M1714.2,3716.5v108.7h-97.9v-108.7H1714.2z
		 M1616.3,3546.7V3438h97.9v108.7H1616.3z M1461.3,3438h97.9v108.7h-64.4l-33.5-50.6V3438z M1552.2,3716.5h7v108.7h-7V3716.5z
		 M1552.2,3685.9v-52.7l-37.1-56h44.1v108.7H1552.2z M1522.7,3825.2v30.6v26.2h-61.5H1438h-21h-269.5v-72.4H1417h21h23.2h61.5
		V3825.2z M1552.2,3925.1v-69.3h7v69.3H1552.2z M1147.5,3935.6H1417h21h23.2h61.5v28.8v30.6v13h-61.5H1438h-21h-269.5V3935.6z
		 M1642.7,4290.8h-66.3v-73.6h39.9h26.4v25.7V4290.8z M1616.3,3925.1v-69.3h97.9v69.3H1616.3z M1138.2,3851.6h-3H1118h-25.2v-49.2
		h25.2h17.2h3V3851.6z M1129.2,4077.3H1118h-34.2v-49.2h34.2h11.1V4077.3z M1082.9,3313h45.3v49.2h-45.3V3313z M1134.6,3617.9h-6.4
		h-38.9v-49.2h45.3v39.5V3617.9z M1134.6,3103.4h-45.3v-49.2h45.3V3103.4z M1080.4,2787.5h44.3v49.2h-44.3V2787.5z M886.3,4173.7
		v-64.4h56.6v64.4H886.3z M894.3,4194.4v64.4h-56.6v-64.4H894.3z M841.7,4005.9v-62.9h56.6v62.9H841.7z M845.6,3581.6v-64.4h56.6
		v64.4H845.6z M914.3,3581.6v-64.4h56.6v64.4H914.3z M1007.1,3754.1v-59.6h57.9v59.6H1007.1z M1054.4,3859v64.4h-56.6V3859H1054.4z
		 M1063.7,3581.6h-56.6v-64.4h56.6V3581.6z M1061.3,3331.3h-56.6v-64.4h56.6V3331.3z M1038.2,3162h-57.9v-59.6h57.9V3162z
		 M1007.6,2896.3h-45.4v-49.2h45.4V2896.3z M1015.6,3433.2v63H959v-63H1015.6z M959,4025.4h56.6v63H959V4025.4z M1008.7,4109.3h56.6
		v64.4h-56.6V4109.3z M1021.3,3020.4v-49.2h44.3v49.2H1021.3z M889.5,2847.2v49.2h-44.3v-49.2H889.5z M889.5,2971.3v49.2h-44.3
		v-49.2H889.5z M899,3183v64.4h-56.6V3183H899z M893.5,3350.8v62.9h-56.6v-62.9H893.5z M893.5,3775.1v64.4h-56.6v-64.4H893.5z
		 M1020.3,2716.1h44.3v46.5v3.8h-44.3v-3.8V2716.1z M901.1,2716.1h45.4v46.5v2.6h-45.4v-2.6V2716.1z M758,3864.6h43.1v49.2H758
		V3864.6z M769.3,3716.2v-49.2h45.3v49.2H769.3z M815.6,4121.4h-45.3v-49.2h45.3V4121.4z M814.9,3020.4h-45.3v-49.2h45.3V3020.4z
		 M768.4,2787.5h45.3v49.2h-45.3V2787.5z M768.4,3294h45.3v49.2h-45.3V3294z M761.2,3478.5h45.3v49.2h-45.3V3478.5z M571.9,4230.3
		h-28.2v-87.8h28.2V4230.3z M571.9,4117.9h-28.2v-87.8h28.2V4117.9z M571.9,4005.6h-28.2v-87.8h28.2V4005.6z M571.9,3893.3h-28.2
		v-87.8h28.2V3893.3z M571.9,3780.9h-28.2v-87.8h28.2V3780.9z M571.9,3668.6h-28.2v-87.8h28.2V3668.6z M571.9,3556.2h-28.2v-87.8
		h28.2V3556.2z M615.4,4230.3h-28.2v-87.8h28.2V4230.3z M615.4,4117.9h-28.2v-87.8h28.2V4117.9z M615.4,4005.6h-28.2v-87.8h28.2
		V4005.6z M615.4,3893.3h-28.2v-87.8h28.2V3893.3z M615.4,3780.9h-28.2v-87.8h28.2V3780.9z M615.4,3668.6h-28.2v-87.8h28.2V3668.6z
		 M615.4,3556.2h-28.2v-87.8h28.2V3556.2z M659,4230.3h-28.2v-87.8H659V4230.3z M659,4117.9h-28.2v-87.8H659V4117.9z M659,4005.6
		h-28.2v-87.8H659V4005.6z M659,3893.3h-28.2v-87.8H659V3893.3z M659,3780.9h-28.2v-87.8H659V3780.9z M659,3668.6h-28.2v-87.8H659
		V3668.6z M659,3556.2h-28.2v-87.8H659V3556.2z M702.5,4230.3h-28.2v-87.8h28.2V4230.3z M702.5,4117.9h-28.2v-87.8h28.2V4117.9z
		 M702.5,4005.6h-28.2v-87.8h28.2V4005.6z M702.5,3893.3h-28.2v-87.8h28.2V3893.3z M702.5,3780.9h-28.2v-87.8h28.2V3780.9z
		 M702.5,3668.6h-28.2v-87.8h28.2V3668.6z M702.5,3556.2h-28.2v-87.8h28.2V3556.2z M746,4230.3h-28.2v-87.8H746V4230.3z M746,4117.9
		h-28.2v-87.8H746V4117.9z M746,4005.6h-28.2v-87.8H746V4005.6z M746,3893.3h-28.2v-87.8H746V3893.3z M746,3780.9h-28.2v-87.8H746
		V3780.9z M746,3668.6h-28.2v-87.8H746V3668.6z M746,3556.2h-28.2v-87.8H746V3556.2z M1399.5,4351.3h-128.7V4159h128.7V4351.3z
		 M1147.5,4134.1v-72.4H1417h21h23.2h61.5v42v30.4H1438h-21H1147.5z M1747,4290.8h-23.8h-42.5v-47.9v-25.7h33.5h9h23.8V4290.8z
		 M1747,4178.5h-23.8h-9h-33.5v-44.2v-29.4h42.5h23.8V4178.5z M1747,4068.4h-23.8h-9h-33.5V3995v-0.2h42.5h23.8V4068.4z
		 M1851.3,4290.8H1786h-1v-73.6h1h65.3V4290.8z M1851.3,4178.5H1786h-1v-73.6h1h65.3V4178.5z M1851.3,4068.4H1786h-1v-73.6h1h65.3
		V4068.4z M1955.7,4290.8h-66.3v-73.6h66.3V4290.8z M1955.7,4178.5h-66.3v-73.6h66.3V4178.5z M1955.7,4068.4h-66.3v-73.6h66.3
		V4068.4z M1990.5,3963.7h-6v-38.7h-177.1V3901h183.1V3963.7z M1990.5,3863.5h-183.1v-62.7h183.1V3863.5z M1990.5,3763.2h-183.1
		v-62.7h183.1V3763.2z M1990.5,3668.2h-183.1v-62.7h183.1V3668.2z M1990.5,3420.1h-183.1v-62.7h183.1V3420.1z M1990.5,3319.9h-183.1
		v-62.7h183.1V3319.9z M1990.5,3219.6h-183.1v-62.7h183.1V3219.6z M2228.4,3963.7h-183.1V3901h183.1V3963.7z M2228.4,3863.5h-183.1
		v-62.7h183.1V3863.5z M2228.4,3763.2h-183.1v-62.7h183.1V3763.2z M2228.4,3668.2h-183.1v-62.7h183.1V3668.2z M2228.4,3420.1h-183.1
		v-62.7h183.1V3420.1z M2228.4,3319.9h-183.1v-62.7h183.1V3319.9z M2228.4,3219.6h-183.1v-62.7h183.1V3219.6z M2283.2,3963.7V3901
		h48.9v62.7H2283.2z"/>
</g>
<path class="st1" d="M908.9,620.8c0-48.9-35.1-89.6-81.5-98.2c1.1-4.9,1.7-9.9,1.7-15.2c0-11.1-2.7-21.5-7.4-30.7
	c-8.7-16.9-24.3-29.7-43.1-34.6c-5.4-1.4-11.1-2.2-17-2.2c-12.6,0-24.3,3.5-34.4,9.5c-9-45-36.2-83.5-73.6-107.3
	c-25.8-16.4-56.3-25.9-89.2-25.9c-56.1,0-105.8,27.9-135.8,70.5c-15-10.7-33.3-17.1-53.2-17.1c-50.5,0-91.5,41-91.5,91.5
	c0,5.2,0.5,10.3,1.3,15.3c-50.7,15.9-87.4,63.3-87.4,119.2c0,11.3,1.5,22.3,4.3,32.7c6,22.1,17.9,41.8,33.9,57.3
	c19.6,18.9,45.3,31.4,73.9,34.3l-0.5,0.6H817l-0.2-0.3C868.3,716.4,908.9,673.4,908.9,620.8z"/>
<path class="st1" d="M4614.8,1794.6c0-67.6-48.6-123.7-112.7-135.6c1.5-6.7,2.4-13.7,2.4-20.9c0-15.3-3.7-29.7-10.2-42.4
	c-12-23.4-33.6-41-59.5-47.8c-7.5-1.9-15.3-3-23.4-3c-17.4,0-33.6,4.8-47.6,13.1c-12.4-62.2-50.1-115.3-101.8-148.3
	c-35.6-22.7-77.8-35.8-123.2-35.8c-77.6,0-146.1,38.5-187.7,97.4c-20.7-14.8-46.1-23.6-73.5-23.6c-69.8,0-126.4,56.6-126.4,126.4
	c0,7.2,0.6,14.3,1.8,21.2c-70,22-120.8,87.4-120.8,164.7c0,15.6,2.1,30.8,6,45.2c8.3,30.6,24.7,57.8,46.9,79.1
	c27.1,26.1,62.6,43.4,102.1,47.4l-0.6,0.9h701.2l-0.3-0.5C4558.7,1926.7,4614.8,1867.2,4614.8,1794.6z"/>
<g>
	
		<ellipse transform="matrix(0.7665 -0.6423 0.6423 0.7665 -2682.5642 1841.4285)" class="st2" cx="1191" cy="4609.7" rx="138.6" ry="138.6"/>
	<polygon class="st3" points="1159.6,4679.6 1103.4,4688.7 1170.8,4628.9 1110.9,4676.3 1118.5,4646.8 1106.2,4680 1000.3,4759.6 
		1014.7,4776.8 1096.8,4694.5 	"/>
</g>
<g>
	<circle class="st4" cx="1780.7" cy="4471" r="240.7"/>
	<polygon class="st3" points="1838.6,4590.6 1788.1,4675.7 1783.7,4519.3 1780,4651.7 1749.3,4608.8 1779.7,4662.3 1764.2,5000 
		1803.1,5000 1788.5,4690.8 	"/>
</g>
<g>
	<circle class="st5" cx="2235.1" cy="4266.5" r="333.7"/>
	<polygon class="st3" points="2315.4,4432.4 2245.3,4550.4 2239.3,4333.5 2234.1,4517.1 2191.5,4457.6 2233.6,4531.7 2212.2,5000 
		2266.1,5000 2245.9,4571.3 	"/>
</g>
<g>
	<circle class="st5" cx="1419.1" cy="4095.1" r="411.7"/>
	<polygon class="st3" points="1518.2,4299.8 1431.7,4445.4 1424.3,4177.8 1417.8,4404.3 1365.3,4330.9 1417.3,4422.4 1390.8,5000 
		1457.3,5000 1432.5,4471.2 	"/>
</g>
<g>
	<circle class="st4" cx="1007.5" cy="4239.3" r="345.1"/>
	<polygon class="st3" points="1090.5,4410.9 1018.1,4532.9 1011.8,4308.6 1006.4,4498.5 962.4,4437 1006,4513.6 983.8,4997.9 
		1039.5,4997.9 1018.7,4554.6 	"/>
</g>
<g>
	<g>
		<g>
			<polygon class="st6" points="3347.1,3385.5 2910.3,3373.8 2910.3,3371.4 2866,3372.6 2821.6,3371.4 2821.6,3373.8 2384.8,3385.5 
				2395.1,3420.2 3336.9,3420.2 			"/>
			<polygon class="st7" points="2514.8,3825 3217.1,3825 3221.7,3809.5 2510.2,3809.5 			"/>
			<polygon class="st7" points="2560.8,3980.4 2821.6,3980.4 2910.3,3980.4 3171.1,3980.4 3213.7,3836.5 2518.2,3836.5 			"/>
			<polygon class="st7" points="2395.1,3420.2 2506.8,3798 3225.1,3798 3336.9,3420.2 			"/>
			<polygon class="st6" points="2518.2,3836.5 3213.7,3836.5 3217.1,3825 2514.8,3825 			"/>
			<polygon class="st6" points="2510.2,3809.5 3221.7,3809.5 3225.1,3798 2506.8,3798 			"/>
		</g>
		<path class="st7" d="M3372.1,3371.4c0,16.7-13.5,30.2-30.2,30.2H2374c-16.7,0-30.2-13.5-30.2-30.2l0,0c0-16.7,13.5-30.2,30.2-30.2
			h967.8C3358.6,3341.2,3372.1,3354.7,3372.1,3371.4L3372.1,3371.4z"/>
	</g>
	<circle class="st7" cx="2430.2" cy="3341.2" r="19.9"/>
	<circle class="st7" cx="2655.2" cy="3341.2" r="19.9"/>
	<circle class="st7" cx="3052.2" cy="3341.2" r="19.9"/>
	<circle class="st7" cx="3277.2" cy="3341.2" r="19.9"/>
	
		<rect x="2248.5" y="1139.8" transform="matrix(0.9868 -0.1617 0.1617 0.9868 -333.9221 393.6706)" class="st7" width="5" height="2215.9"/>
	
		<rect x="2324.2" y="2207.7" transform="matrix(0.1698 -0.9855 0.9855 0.1698 704.1649 5256.3257)" class="st7" width="2295.2" height="5"/>
	
		<rect x="2605.9" y="2263" transform="matrix(0.9962 -8.662421e-02 8.662421e-02 0.9962 -233.0146 236.4846)" class="st7" width="5" height="1080.2"/>
	
		<rect x="2563.2" y="2800.6" transform="matrix(9.550513e-02 -0.9954 0.9954 9.550513e-02 16.9665 5624.9414)" class="st7" width="1081" height="5"/>
	<g>
		<g>
			<g>
				<polygon class="st8" points="2561.6,1973.3 3155.2,1973.3 3155.2,2239.3 3146.5,2239.3 3067.3,2352.9 2940.9,2365 
					2940.9,2379.4 2865.4,2372.2 2790,2379.4 2790,2365 2663.6,2352.9 2584.3,2239.3 2561.6,2239.3 				"/>
				<g>
					<g>
						<path class="st7" d="M2470.9,2060.2c0,33.8,31.4,61.2,70.1,61.2h649c38.7,0,70-27.4,70-61.2l0,0c0-33.8-31.4-61.2-70-61.2
							h-649C2502.2,1999,2470.9,2026.4,2470.9,2060.2L2470.9,2060.2z"/>
						<path class="st7" d="M2470.9,2203.9c0,33.8,31.4,61.2,70.1,61.2h649c38.7,0,70-27.4,70-61.2l0,0c0-33.8-31.4-61.2-70-61.2
							h-649C2502.2,2142.7,2470.9,2170.1,2470.9,2203.9L2470.9,2203.9z"/>
						<path class="st7" d="M2640.7,2344.6c0,33.8,31.4,61.2,70.1,61.2h309.3c38.7,0,70.1-27.4,70.1-61.2l0,0
							c0-33.8-31.4-61.2-70.1-61.2h-309.3C2672,2283.4,2640.7,2310.8,2640.7,2344.6L2640.7,2344.6z"/>
					</g>
					<path class="st9" d="M3662.4,1100.5c9.4-45.6,14.3-91.1,14.3-135.6c0-82-16.7-160.8-47.2-233.9
						c-106.8-321.4-409.9-553.2-767.1-553.2c-396.2,0-725.7,285.1-794.8,661.2c-8.8,40.8-13.3,82.9-13.3,125.9c0,3.2,0,6.5,0.1,9.7
						c-0.1,3.8-0.1,7.5-0.1,11.3c0,267.7,130.2,505.1,330.7,652.1c61.7,83.1,131.1,198.3,131.1,286c0,22.8,15.6,43.2,39.7,52.1
						l53.4,0.8v3.7h26.3h96.9h20.3h79.8h32.9h20.9h112.8h20.3h19.8h123.4v-1.7c28.4-6.2,49.5-28.4,49.5-54.9
						c0-93.7,77-213.7,136.6-292.6C3515.3,1505.7,3631.7,1316.9,3662.4,1100.5z"/>
				</g>
				<path class="st1" d="M2571.5,1345c17.7,17,44.2,25.6,78.9,25.6h90v609.2h29.1v-609.2h85.4h20.4h85.4v609.2h29.1v-609.2h90
					c34.6,0,61.2-8.6,78.9-25.6c23-22.1,22.2-50.5,21.8-56.1c0.1-6.2-0.3-45.1-28.9-71.1c-16.9-15.4-39.8-23.1-68-23.1
					c-37.1,0-66.8,10.5-88.1,31.2c-40.6,39.4-35.5,102-34.7,109.8v9.6h-85.4h-20.4h-85.4v-9.6c0.8-7.8,5.9-70.4-34.7-109.8
					c-21.3-20.7-50.9-31.2-88.1-31.2c-28.3,0-51.2,7.8-68.1,23.1c-28.6,26-29,64.9-28.9,71.1
					C2549.3,1294.5,2548.5,1322.9,2571.5,1345z M3016.9,1242.7c15.6-15,37.9-22.7,66.4-22.7c20.3,0,35.7,5,47,15.2
					c22,19.8,20.9,53.1,20.9,53.4l0,0.8l0.1,0.8c0,0.1,1.9,22.1-14.5,37.7c-12,11.4-31.2,17.1-57.2,17.1h-90l-0.1-11.6
					C2989.4,1333.1,2983.1,1275.4,3016.9,1242.7z M2578.7,1290.4l0.1-0.8l0-0.8c0-0.3-1-33.6,20.9-53.4c11.3-10.3,26.7-15.2,47-15.2
					c28.5,0,50.9,7.6,66.4,22.7c33.8,32.7,27.5,90.4,27.4,90.9l-0.1,11.6h-90c-26,0-45.2-5.8-57.2-17.1
					C2576.7,1312.5,2578.6,1290.5,2578.7,1290.4z"/>
			</g>
		</g>
		<path class="st10" d="M3407.6,1221.6c12.9-0.5,25.4-6.2,33-16.4c1.8-2.5,45.6-61.5,76.6-154.7c41.1-123.5,40.2-249.7-2.4-364.9
			c-24.4-65.8-65.8-125.1-123.2-176.4c-45.3-40.4-100.5-75.8-164.2-105.2c-107.4-49.6-201.7-65-205.7-65.6
			c-22.6-3.6-44.2,9.5-48.3,29.2c-4.1,19.7,10.8,38.6,33.3,42.2c1.6,0.3,88,14.7,184,59.4c125.6,58.5,208.1,138.8,245.1,238.8
			c90.9,245.5-63.1,455.5-64.6,457.6c-12.5,16.8-7.2,39.2,12,50.2C3390.6,1220,3399.2,1221.9,3407.6,1221.6z"/>
	</g>
	<path class="st11" d="M2933,3040.7c0,0-6.6,21.3-23.1,23.7c-16.6,2.4-117.2,21.3-130.2,49.7c-13,28.4-11.8,179.9-11.8,179.9
		l37.2-1.4c0,0,15.1-122.4,31.7-134.2c16.6-11.8,152.6-14,169-40c0,0,67.5,101.4,78.1,121.9c10.7,20.5,45.3,100.8,45.3,100.8h42.6
		c0,0-24-94.5-31.1-120.6c-7.1-26-17.8-146.8-24.9-179.9C3108.8,3007.6,2933,3040.7,2933,3040.7z"/>
	<g>
		<path class="st12" d="M2976.9,2722h84.4v19.9h0.3c3,6.7,7.1,12.9,12.1,18.2c-14.2-4.1-83.6-24.4-96.7-34.3V2722z"/>
		<path class="st13" d="M2976.9,2753.9v-28c13.1,9.9,82.5,30.2,96.7,34.3c5.6,6.1,12.3,11.2,19.8,15c-8.3,11.8,1,36.2-11.9,42.8
			l-8.9,17.5l-7.2,12.7l-48.8,71.2l-39.6-77l-9.6-8.9l-4.8-12.4l-11-12.4c-11.5-6.6,3.9-22.9-3.7-33.8
			C2959.9,2769.2,2969.9,2765.2,2976.9,2753.9z"/>
	</g>
	<path class="st13" d="M2850.8,2992.6l5.3,11.8c0,0,22.6,4.4,21.9,21.4l0.6,9.2c0,0,6,8.3,1.7,11.6c-4.3,3.3-5.7,1.6-7.8,1.7
		c0,0,1.9,9-3.1,11.5c-5,2.4-11.1-0.8-11.1-0.8s-1.5,6.3-5.3,7c-3.9,0.7-9.3-1.2-9.3-1.2s0.1,2.8-3.6,4.1
		c-3.7,1.3-10.4-4.6-10.4-4.6s-19.3-18.9-9.8-44.2l3.1-7.2l-3.4-16.5L2850.8,2992.6z"/>
	<path class="st13" d="M3335.2,2721l11.7-14.6c0,0-2.5-22.9,13.9-27.3l8.6-3.3c0,0,6.1-8.2,10.5-5.1c4.4,3.1,3.3,5,4,6.9
		c0,0,8.1-4.5,11.9-0.5c3.8,4,2.6,10.9,2.6,10.9s6.4-0.5,8.3,3c1.9,3.5,1.7,9.3,1.7,9.3s2.7-0.9,5,2.2c2.3,3.1-1.3,11.3-1.3,11.3
		s-12.3,24-39.3,22.6l-7.7-0.8l-14.8,8.2L3335.2,2721z"/>
	<path class="st14" d="M3138.2,2775.6c-27.4-8.9-53.7-14.8-53.7-14.8l-40.1,23.7l-20.1,2l-4.9,262.7H3123l32.5-185.7l-18-84.8
		L3138.2,2775.6z"/>
	<path class="st15" d="M2801,2866.4c10.1-22.9,27.5-42.7,50.3-57.4c16.8-10.8,53.4-31.8,55.4-32.2c0,0,0,0,0,0
		c3.6-1,7.3-1.9,10.9-2.8l0.6,3.1l-19.6,84.7c-0.9-0.2-6.3-1.9-7.2-2.1c-11.9,1-24.3,3.8-34.6,9.8c-6.3,4.3-10.6,9.4-14.1,17.4
		c-12.3,28.1-10.1,63.6,10.7,107.1l-36.2,17.3c-14.1-29.4-25.1-55.9-26.7-81.4C2789,2907,2792.5,2885.6,2801,2866.4z"/>
	<g>
		<path class="st15" d="M2961.8,2760.9l40.1,23.7l20.1,2l4.9,262.7h-108.7l-23.7-200.2c5.8-19.3,13.4-41.4,18-73.7
			C2938.5,2767.2,2961.8,2760.9,2961.8,2760.9z"/>
	</g>
	<path class="st16" d="M2696.8,3366.4c0,0-6.9,1.2-6.3,12.6c0.6,11.5,33.2,19.5,57.9,14.3c24.6-5.2,68.2-28.6,68.2-28.6
		s1.7-12.6-1.7-14.9C2811.4,3347.5,2696.8,3366.4,2696.8,3366.4z"/>
	<path class="st17" d="M2764.6,3323.4c0,0-9.9-1.7-24.8,8c-14.9,9.7-44.7,9.7-47,38.9c0,0,6.3,10.9,33.2,10.9
		c26.9,0,87.1-25.8,87.1-25.8s8.6-26.9-7.4-29.8L2764.6,3323.4z"/>
	<path class="st18" d="M2800.9,3315.6c0,0,14.8,21.7-11,23.9c0,0-14-16.7-25.3-16.2v-13.3l35.9-7.4L2800.9,3315.6z"/>
	<path class="st13" d="M2941.5,2631.9c1.9,13.1-1.8,24.4-8.2,25.4c-6.4,1-13.2-8.9-15.1-22c-1.9-13.1,1.8-24.4,8.2-25.4
		C2932.9,2609,2939.6,2618.9,2941.5,2631.9z"/>
	<path class="st18" d="M3101.4,2630.9c-1.3,12.9,2.5,23.8,8.4,24.4c5.9,0.6,11.7-9.4,12.9-22.3c1.2-12.9-2.5-23.8-8.4-24.4
		C3108.4,2608,3102.7,2618,3101.4,2630.9z"/>
	<g>
		<path class="st18" d="M3021.9,2533.8c77.9-2.1,86.6,30.2,86.6,91c0,61.8-38.6,111.9-86.6,113.3c-0.7,0-1.4,0.1-2,0.1h0v-204.5
			C3020.6,2533.8,3021.2,2533.8,3021.9,2533.8z"/>
		<path class="st13" d="M2931.3,2624.8c0-62.6,37.7-91.1,86.6-91.1c0.7,0,1.3,0,2,0v204.5C2971,2738.2,2931.3,2687.4,2931.3,2624.8z
			"/>
	</g>
	<g>
		<path class="st19" d="M3043.6,2692.4c0,5-4.1,9.1-9.1,9.1h-14.6v-18.2h14.6C3039.5,2683.3,3043.6,2687.4,3043.6,2692.4z"/>
		<path class="st19" d="M3005.6,2701.5c-5,0-9.1-4.1-9.1-9.1c0-5,4.1-9.1,9.1-9.1h14.3v18.2H3005.6z"/>
	</g>
	<path class="st20" d="M3108.8,2631.9c0,0,8.9-65,2.2-72.1c-6.8-7-10.4-4.8-10.4-4.8s8.4-13,5.6-18.9c-2.8-5.9-27.3-47.9-100.8-38.6
		c-73.5,9.3-77.4,77.4-77.4,77.4s2,53.2,4.2,63.1l3.9-0.6l7.9-64.7c0,0,9,16,36.3,6.8c27.3-9.3,60.5-53.2,110.9-23.4
		c0,0,7.9,9.9,8.2,14.4c0.3,4.5,8.4,52.9,5.1,65.6L3108.8,2631.9z"/>
	<path class="st20" d="M3090.8,2603.3c1.3,0,2.6-0.7,3.2-2c0.9-1.7,0.1-3.9-1.6-4.7c-0.2-0.1-5.9-2.8-15.2-4.4
		c-8.5-1.4-22.1-2.2-37.8,2.4c-1.9,0.5-2.9,2.5-2.4,4.4c0.5,1.9,2.5,2.9,4.4,2.4c27.7-8.1,47.8,1.5,48,1.6
		C3089.7,2603.2,3090.3,2603.3,3090.8,2603.3z"/>
	<path class="st20" d="M2956.4,2603.3c0.5,0,1-0.1,1.5-0.4c0.1-0.1,5.2-2.5,13.6-3.9c7.8-1.3,20-1.9,34.4,2.3
		c1.9,0.5,3.8-0.5,4.4-2.4c0.5-1.9-0.5-3.8-2.4-4.4c-15.8-4.6-29.3-3.9-37.8-2.4c-9.4,1.6-15,4.3-15.2,4.4c-1.8,0.9-2.5,3-1.6,4.7
		C2953.8,2602.6,2955.1,2603.3,2956.4,2603.3z"/>
	<path class="st20" d="M2934.9,2633.7c12.2,40.4,34.4,50.6,44.6,53.2c0.7-2.2,3.9-9.9,16.9-13c5.5-1.6,11.8-2.8,16.7-2.8
		c1.4,0,2.8-0.1,4.4-0.1h5.3c1.5,0,3,0.1,4.4,0.1c4.7,0,10.9,1.2,16.2,2.7c13.3,3,16.5,10.8,17.3,13.1c10.2-2.6,32.4-12.9,44.5-53.2
		l3.7-1.7c0,0-6.7,110.7-88.3,111.6v0c0,0-0.3,0-0.5,0c0,0,0,0,0,0c-0.1,0-0.3,0-0.3,0v0c-81.6-1-88.4-111.6-88.4-111.6
		L2934.9,2633.7z"/>
	<g>
		<g>
			<g>
				<g>
					<ellipse class="st18" cx="3031.8" cy="2662" rx="9.6" ry="6.7"/>
				</g>
				<ellipse class="st13" cx="3006.8" cy="2662" rx="9.6" ry="6.7"/>
			</g>
		</g>
		<g>
			<path class="st18" d="M3029.2,2665.5c0,3.6-4.1,6.5-9.3,6.7v-13.3C3025.1,2659,3029.2,2661.9,3029.2,2665.5z"/>
			<path class="st13" d="M3019.6,2658.9c0.1,0,0.2,0,0.3,0v13.3c-0.1,0-0.2,0-0.3,0c-5.3,0-9.6-3-9.6-6.7
				C3010,2661.9,3014.3,2658.9,3019.6,2658.9z"/>
		</g>
	</g>
	<path class="st21" d="M2757,3305.9c0,4.2,3.4,7.5,7.5,7.5h45.2c4.2,0,7.5-3.4,7.5-7.5v-15.7c0-4.2-3.4-7.5-7.5-7.5h-45.2
		c-4.2,0-7.5,3.4-7.5,7.5V3305.9z"/>
	<polygon class="st22" points="3041.3,2785.1 3011,2786.9 2975.6,2791 2991.1,2833.1 2998.8,2892.5 3021.3,2960.3 3061.6,2809.4 	
		"/>
	<polygon class="st23" points="3022.8,2787.2 3022.8,2787.1 3022.9,2787.1 3023,2787.1 3023,2787.2 3039.2,2794.7 3033.3,2807.4 
		3023,2807.4 3022.8,2807.4 3012.5,2807.4 3006.6,2794.7 	"/>
	<polygon class="st23" points="3033.3,2808.6 3012.7,2808.6 3003.4,2897.9 3021.3,2961 3044.5,2893.3 	"/>
	<path class="st14" d="M3152,2864.9l-19.3-91c62.6,13.2,120.5,23.4,156.2-13c22.3-22.8,35.2-31.2,49.3-46.8l22.4,26.2
		c0,0-26.5,31.5-37.9,45.2c-16.2,19.7-35.1,38.5-63,50.1C3223.1,2850.9,3190.8,2857.8,3152,2864.9z"/>
	<polygon class="st24" points="3057.5,2809.8 3056.1,2823.3 3022.8,2787.1 2990.7,2820.4 2985.8,2813.7 3022.4,2786.6 	"/>
	<polygon class="st1" points="3068.9,2758.1 3074,2769.4 3055.4,2819.5 3022.4,2786.6 	"/>
	<polygon class="st1" points="2975.6,2755.6 2970.9,2769.1 2990.7,2817.6 3023.5,2786.6 	"/>
	<path class="st25" d="M3063.5,2761l-42.1,200l47.9-115.7l-8.7-13.1l24,1.8l7.2-71.8C3091.7,2762.2,3071.8,2752.6,3063.5,2761z"/>
	<path class="st25" d="M2979.9,2758.5l41.3,202.4l-47.2-118.2l8.7-13.1l-24,1.8l-6.5-69.5C2952.4,2762,2971.6,2750.2,2979.9,2758.5z
		"/>
	<g>
		<g>
			<path class="st26" d="M3043.6,2692.3c0,0-0.2,1-0.8,2.5c-1.3,3.3-4.3,9.3-10.1,13.3c-3.2,2.2-7.1,3.8-12.2,4.2
				c-5-0.4-9-2-12.2-4.2c-5.9-4.1-8.9-10-10.1-13.4c-0.6-1.5-0.8-2.5-0.8-2.5H3043.6z"/>
			<path class="st13" d="M3020.3,2714.1c-4.9-0.4-9.2-1.9-13-4.5c-6.3-4.3-9.5-10.7-10.8-14.1c-0.6-1.6-0.9-2.6-0.9-2.6
				c-0.1-0.5,0-1,0.3-1.5c0.3-0.4,0.8-0.6,1.4-0.6h46.3c0.5,0,1.1,0.2,1.4,0.6c0.3,0.4,0.5,0.9,0.3,1.4c0,0-0.3,1.1-0.9,2.7
				c-1.3,3.4-4.5,9.8-10.8,14.2c-3.8,2.6-8.2,4.1-13,4.5c0,0-0.1,0-0.1,0C3020.4,2714.1,3020.4,2714.1,3020.3,2714.1z
				 M2999.8,2694.3C2999.8,2694.3,2999.8,2694.3,2999.8,2694.3c1.2,3,4,8.6,9.5,12.4c3.2,2.2,7,3.5,11.2,3.9
				c4.2-0.3,7.9-1.6,11.2-3.8c5.5-3.8,8.3-9.4,9.5-12.5c0,0,0,0,0,0H2999.8z"/>
		</g>
		<path class="st1" d="M3008.3,2708.2h24.3c-3.2,2.2-7.1,3.8-12.2,4.2C3015.4,2712,3011.4,2710.3,3008.3,2708.2z"/>
	</g>
	<g>
		<path class="st1" d="M3043.6,2692.4c0,0-0.2,1-0.8,2.4c-0.2,0.5-0.4,1-0.6,1.5h-43.3c-0.3-0.6-0.5-1.1-0.6-1.5
			c-0.6-1.5-0.8-2.4-0.8-2.4H3043.6z"/>
		<path class="st26" d="M3042.1,2696.4c-1.5,3.4-4.4,8.3-9.5,11.8h-24.3c-5.1-3.5-8-8.4-9.5-11.8H3042.1z"/>
	</g>
	<path class="st1" d="M3044.6,2620.8c0,0,8.1,7.7,18.2,7.7c10,0,18.2-7.7,18.2-7.7s-8.1-7.7-18.2-7.7
		C3052.7,2613,3044.6,2620.8,3044.6,2620.8z"/>
	<path class="st1" d="M2957.3,2620.8c0,0,8.1,7.7,18.2,7.7c10,0,18.2-7.7,18.2-7.7s-8.1-7.7-18.2-7.7
		C2965.4,2613,2957.3,2620.8,2957.3,2620.8z"/>
	<g>
		<circle class="st27" cx="3064.1" cy="2621.2" r="7.4"/>
		<circle class="st1" cx="3062.3" cy="2619.2" r="2.5"/>
	</g>
	<g>
		<circle class="st27" cx="2975.7" cy="2621.2" r="7.4"/>
		<circle class="st1" cx="2973.9" cy="2619.2" r="2.5"/>
	</g>
</g>
<g>
	<circle class="st5" cx="624.2" cy="4095.1" r="411.7"/>
	<polygon class="st3" points="723.3,4299.8 636.8,4445.4 629.3,4177.8 622.9,4404.3 570.4,4330.9 622.4,4422.4 595.9,5000 
		662.4,5000 637.6,4471.2 	"/>
</g>
<g>
	<g>
		<path class="st4" d="M260.9,3932.7c-105.6,0-199.7,49.1-260.9,125.6v416.1c61.1,76.6,155.3,125.6,260.9,125.6
			c184.3,0,333.7-149.4,333.7-333.7C594.6,4082.1,445.2,3932.7,260.9,3932.7z"/>
	</g>
	<polygon class="st3" points="341.2,4432.4 271.1,4550.4 265.1,4333.5 259.9,4517.1 217.3,4457.6 259.4,4531.7 238,5000 291.9,5000 
		271.7,4571.3 	"/>
</g>
<g>
	<g>
		
			<ellipse transform="matrix(0.6423 -0.7665 0.7665 0.6423 -2145.0371 4718.3003)" class="st2" cx="3982.3" cy="4657.2" rx="121.8" ry="121.8"/>
		<polygon class="st3" points="4009.8,4718.5 4059.3,4726.6 4000,4674 4052.6,4715.6 4045.9,4689.8 4056.8,4718.9 4149.8,4788.9 
			4137.2,4803.9 4065,4731.6 		"/>
	</g>
	<g>
		<circle class="st4" cx="3464.2" cy="4535.3" r="211.4"/>
		<polygon class="st3" points="3413.3,4640.4 3457.7,4715.1 3461.6,4577.7 3464.9,4694 3491.8,4656.4 3465.1,4703.3 3478.8,5000 
			3444.6,5000 3457.4,4728.4 		"/>
	</g>
	<g>
		<circle class="st5" cx="3065.1" cy="4355.6" r="293.2"/>
		<polygon class="st3" points="2994.5,4501.4 3056.1,4605 3061.4,4414.5 3066,4575.8 3103.4,4523.5 3066.3,4588.6 3085.2,5000 
			3037.9,5000 3055.6,4623.4 		"/>
	</g>
	<g>
		<circle class="st5" cx="3781.9" cy="4205.1" r="361.6"/>
		<polygon class="st3" points="3694.9,4384.9 3770.8,4512.8 3777.4,4277.7 3783,4476.7 3829.1,4412.2 3783.5,4492.6 3806.7,5000 
			3748.3,5000 3770.2,4535.5 		"/>
	</g>
	<g>
		<path class="st4" d="M4770.8,4062.4c92.8,0,175.5,43.1,229.2,110.4v365.6c-53.7,67.3-136.4,110.4-229.2,110.4
			c-161.9,0-293.2-131.3-293.2-293.2S4608.9,4062.4,4770.8,4062.4z"/>
	</g>
	<g>
		<circle class="st4" cx="4143.5" cy="4331.7" r="303.2"/>
		<polygon class="st3" points="4070.5,4482.5 4134.2,4589.7 4139.7,4392.6 4144.4,4559.4 4183.1,4505.4 4144.8,4572.7 
			4164.3,4998.1 4115.3,4998.1 4133.7,4608.7 		"/>
	</g>
	<g>
		<circle class="st5" cx="4480.2" cy="4205.1" r="361.6"/>
		<polygon class="st3" points="4393.2,4384.9 4469.1,4512.8 4475.7,4277.7 4481.3,4476.7 4527.4,4412.2 4481.8,4492.6 4505,5000 
			4446.6,5000 4468.5,4535.5 		"/>
	</g>
	<polygon class="st3" points="4700.3,4501.4 4761.8,4605 4767.2,4414.5 4771.7,4575.8 4809.1,4523.5 4772.1,4588.6 4791,5000 
		4743.6,5000 4761.3,4623.4 	"/>
</g>
<g>
	<circle class="st4" cx="2669.6" cy="4471" r="240.7"/>
	<polygon class="st3" points="2727.6,4590.6 2677,4675.7 2672.6,4519.3 2668.9,4651.7 2638.2,4608.8 2668.6,4662.3 2653.1,5000 
		2692,5000 2677.4,4690.8 	"/>
</g>
<path class="st1" d="M1752.7,2579.7c0-53.3-38.3-97.6-88.8-107c1.2-5.3,1.9-10.8,1.9-16.5c0-12.1-2.9-23.4-8-33.5
	c-9.4-18.4-26.5-32.3-46.9-37.7c-5.9-1.5-12.1-2.3-18.5-2.3c-13.7,0-26.5,3.8-37.5,10.3c-9.8-49.1-39.5-90.9-80.2-116.9
	c-28.1-17.9-61.4-28.3-97.1-28.3c-61.2,0-115.2,30.4-148,76.8c-16.3-11.7-36.3-18.6-57.9-18.6c-55.1,0-99.7,44.6-99.7,99.7
	c0,5.7,0.5,11.3,1.4,16.7c-55.2,17.4-95.2,68.9-95.2,129.9c0,12.3,1.6,24.3,4.7,35.7c6.5,24.1,19.5,45.6,37,62.4
	c21.3,20.6,49.4,34.2,80.5,37.4l-0.5,0.7h552.9l-0.3-0.4C1708.5,2683.8,1752.7,2637,1752.7,2579.7z"/>
</svg>
