<?xml version="1.0" encoding="utf-8"?>
<!-- Generator: Adobe Illustrator 21.0.0, SVG Export Plug-In . SVG Version: 6.00 Build 0)  -->
<svg version="1.1" id="Layer_1" xmlns="http://www.w3.org/2000/svg" xmlns:xlink="http://www.w3.org/1999/xlink" x="0px" y="0px"
	 viewBox="0 0 500 500" style="enable-background:new 0 0 500 500;" xml:space="preserve">
<style type="text/css">
	.st0{opacity:0.1;fill:#F7F9FA;}
	.st1{fill:#EAC045;}
	.st2{fill:#E39F40;}
	.st3{fill:#DC4948;}
	.st4{opacity:0.2;}
	.st5{fill:#F7F9FA;}
	.st6{fill:#75CFCF;}
	.st7{fill:#89F3F2;}
	.st8{opacity:0.1;}
</style>
<g>
	
		<ellipse transform="matrix(0.7467 -0.6651 0.6651 0.7467 -90.0964 207.9455)" class="st0" cx="228" cy="222.3" rx="175.1" ry="175.1"/>
	<g>
		<g>
			<path class="st1" d="M416.2,377.4c7.1,24.7,8.7,41.5,35.5,87c0.1,0.1,0.1,0.2,0.2,0.3c-0.1-0.1-0.2-0.1-0.3-0.2
				c-42.2-31.8-58.6-35.4-82.4-45.3c-23.9-10-34.4-38.6-34.4-38.6l22-22.5l0.1-0.1l24.9-19.2C381.8,338.8,409.1,352.5,416.2,377.4z"
				/>
			<path class="st2" d="M415.4,423.8c-12.7-7.2-22.4-11-32.4-15c-3.3-1.3-6.6-2.6-10.1-4.1c-11.4-4.8-24-22.3-27.8-29.4l14.5-12.9
				l14.9-13.3c6.6,4.6,23.5,18.2,26.9,30.2c1,3.6,2,7.1,2.9,10.5C407,400.2,409.7,410.3,415.4,423.8z"/>
		</g>
		<g>
			<g>
				<path class="st3" d="M268.9,333.3c-0.9,0.8-8.1,7.1-11.5,16.8c-4.3,12.2-2.7,29.8,24.7,48.5c21,14.3,33.5,26.4,40.8,35.2
					c1.9,2.3,1.8,5.2,0.5,7.3c-1.4,2.3-4.3,3.6-7.4,2.5c-27.6-10.3-81.7-33.4-103.5-63.8c-14.5-20.2-18.3-49.4-18.4-74.2
					c-0.1-23.3,3.1-42.6,3.8-46.7c19.2,24.9,39,46.4,58.2,63.7l0,0c0.5,0.4,0.9,0.8,1.4,1.3C261.4,327,265.2,330.2,268.9,333.3z"/>
				<path class="st4" d="M268.9,333.3c-0.9,0.8-8.1,7.1-11.5,16.8c-4.3,12.2-2.7,29.8,24.7,48.5c21,14.3,33.5,26.4,40.8,35.2
					c1.9,2.3,1.8,5.2,0.5,7.3c-2.8-1.5-5.5-3.7-7.7-6.8c-13.3-18.3-56.3-33.8-73.4-54.9c-5.7-7-8.6-14.4-9.9-21.2
					c-3.7-19-14.4-35.8-30.2-46.9l-8.1-5.7c-0.1-23.3,3.1-42.6,3.8-46.7c19.2,24.9,39,46.4,58.2,63.7l0,0c0.5,0.4,0.9,0.8,1.4,1.3
					c0.2,0.2,0.4,0.3,0.5,0.5c0.6,0.5,1.2,1.1,1.8,1.6c0.8,0.7,1.6,1.4,2.3,2c0.1,0.1,0.2,0.2,0.3,0.3c0.8,0.7,1.5,1.3,2.3,1.9
					C266.3,331.1,267.6,332.2,268.9,333.3z"/>
			</g>
			<g>
				<path class="st3" d="M341,269c0.9-0.8,8-7.2,18-9.5c12.6-2.9,29.9,0.7,45.3,30.2c11.8,22.6,22.4,36.3,30.3,44.6
					c2.1,2.2,4.9,2.4,7.2,1.3c2.4-1.2,4.1-3.9,3.3-7.1c-7-28.6-23.8-85-51.4-110.1c-18.4-16.7-47-23.9-71.6-26.8
					c-23.1-2.8-42.6-1.9-46.8-1.6c22.6,22,41.6,44.1,56.5,65.2l0,0c0.4,0.5,0.7,1,1.1,1.6C335.7,260.8,338.5,265,341,269z"/>
				<path class="st4" d="M341,269c0.9-0.8,8-7.2,18-9.5c12.6-2.9,29.9,0.7,45.3,30.2c11.8,22.6,22.4,36.3,30.3,44.6
					c2.1,2.2,4.9,2.4,7.2,1.3c-1.2-3-3.1-5.9-5.9-8.5c-16.6-15.3-27.1-59.8-46.1-79.2c-6.3-6.5-13.3-10.2-20-12.3
					c-18.4-5.8-33.9-18.4-43.1-35.4l-4.7-8.7c-23.1-2.8-42.6-1.9-46.8-1.6c22.6,22,41.6,44.1,56.5,65.2l0,0c0.4,0.5,0.7,1,1.1,1.6
					c0.1,0.2,0.3,0.4,0.4,0.6c0.5,0.7,0.9,1.3,1.4,2c0.6,0.9,1.2,1.7,1.7,2.6c0.1,0.1,0.2,0.2,0.3,0.4c0.6,0.8,1.1,1.7,1.6,2.5
					C339.2,266.1,340.1,267.6,341,269z"/>
			</g>
			<g>
				<path class="st5" d="M378,324.7c5.5,9.4,8.6,14.9,8.6,14.9c-7.5,13.4-17.2,24.4-28.8,33.1c-6.9,5.2-14.6,9.5-23,13.1
					c0,0-5.5-4-14.8-11C276.2,342,147.6,244.1,105.2,194.4c-10.1-11.8-17.8-25.3-23.7-39.5c-1.9-4.5-3.6-9-5.1-13.5
					c-1.2-3.5-2.3-7.1-3.3-10.6c-9.9-35.6-10.6-70.9-10.2-89c0.1-3.2,1.4-6.1,3.5-8.2c2.4-2.4,5.9-3.8,9.6-3.5
					c18.3,1.6,53.9,6.5,88.5,20.9c3.2,1.3,6.4,2.7,9.5,4.2c4.3,2.1,8.6,4.3,12.8,6.7c13.1,7.4,25.4,16.6,35.9,27.8
					C267.7,137.8,351,278.5,378,324.7z"/>
				<path class="st3" d="M378,324.7c5.5,9.4,8.6,14.9,8.6,14.9c-7.5,13.4-17.2,24.4-28.8,33.1c-6.9,5.2-14.6,9.5-23,13.1
					c0,0-5.5-4-14.8-11c4.5-1,18.8-5.2,34.4-19.1C367.8,343.8,375,331.1,378,324.7z"/>
				<g>
					<g>
						<path class="st3" d="M187,61.8c-11.7,17.6-27.5,38.7-45.6,54.8c-17.7,15.8-40.6,28.8-59.9,38.3c-1.9-4.5-3.6-9-5.1-13.5
							c18.2-9,39.4-21.1,55.5-35.4c16.4-14.6,31.2-34.1,42.3-50.8C178.5,57.2,182.8,59.4,187,61.8z"/>
					</g>
				</g>
				<path class="st4" d="M357.8,372.8c-6.9,5.2-14.6,9.5-23,13.1c0,0-178.1-131.2-229.6-191.5c-10.1-11.8-17.8-25.3-23.7-39.5
					c-1.9-4.5-3.6-9-5.1-13.5c-1.2-3.5-2.3-7.1-3.3-10.6c-9.9-35.6-10.6-70.9-10.2-89c0.1-3.2,1.4-6.1,3.5-8.2
					C76,64.7,123.3,166.9,357.8,372.8z"/>
			</g>
			<path class="st3" d="M164.6,50.9c-5,7.6-11.2,16.1-19,25c-6.2,7-13.3,14.3-21.5,21.6c-20.5,18.2-37.8,28-50.9,33.2
				c-9.9-35.6-10.6-70.9-10.2-89c0.1-3.6,1.7-6.7,4.3-8.9c2.4-2,5.5-3.1,8.9-2.8c16.5,1.5,47.2,5.6,78.5,17l0,0
				C158,48.2,161.3,49.5,164.6,50.9z"/>
			<g>
				<path class="st3" d="M383.2,383c0.6,1.6,0.1,3.1-1,4c-1,0.9-2.6,1.3-4.1,0.5c-54.7-28-106.4-108-126.2-141.5
					c-1-1.7-0.5-3.5,0.7-4.5c1.2-1.1,3-1.4,4.6-0.2C288.1,264.9,361.7,325.4,383.2,383z"/>
				<path class="st4" d="M252.6,241.5l129.6,145.5c-1,0.9-2.6,1.3-4.1,0.5c-54.7-28-106.4-108-126.2-141.5
					C250.9,244.3,251.4,242.5,252.6,241.5z"/>
			</g>
			<g>
				
					<ellipse transform="matrix(0.7467 -0.6651 0.6651 0.7467 -67.6799 173.828)" class="st3" cx="194.4" cy="175.8" rx="42" ry="42"/>
				<path class="st6" d="M219.2,153.7c0.1,0.1,0.2,0.2,0.3,0.3c11.8,13.6,10.6,34.1-2.7,46.2c-0.1,0.1-0.2,0.2-0.3,0.3
					c-2.3,2.1-4.9,3.8-7.6,5.1c-4.9,2.4-10.2,3.5-15.4,3.3c-4.5-0.1-9-1.2-13.1-3.1c-4-1.9-7.6-4.5-10.7-8
					c-12.2-13.7-11-34.7,2.7-46.9c3.5-3.1,7.4-5.3,11.6-6.7c4.3-1.4,8.9-2,13.4-1.6c5.2,0.5,10.4,2.2,15,5.1
					C214.8,149.4,217.1,151.4,219.2,153.7z"/>
				<path class="st7" d="M197.3,142.7l-3.8,66.2c-4.5-0.1-9-1.2-13.1-3.1l3.6-61.6C188.3,142.8,192.8,142.3,197.3,142.7z"/>
				<path class="st7" d="M219.2,153.7c0.1,0.1,0.2,0.2,0.3,0.3l-2.7,46.2c-0.1,0.1-0.2,0.2-0.3,0.3c-2.3,2.1-4.9,3.8-7.6,5.1
					l3.3-57.8C214.8,149.4,217.1,151.4,219.2,153.7z"/>
				<path class="st8" d="M212.3,147.8c-4.6-2.9-9.7-4.6-15-5.1c-4.5-0.4-9.1,0.1-13.4,1.6c-4.2,1.4-8.1,3.6-11.6,6.7
					c-13.7,12.2-14.9,33.2-2.7,46.9c0.6,0.7,1.2,1.3,1.9,1.9c-10.3-13.6-8.5-33.2,4.5-44.7c3.5-3.1,7.4-5.3,11.6-6.7
					c4.3-1.4,8.9-2,13.4-1.6c5.2,0.5,10.4,2.2,15,5.1c1.8,1.1,3.5,2.4,5,3.9c-0.5-0.6-0.9-1.2-1.4-1.8c-0.1-0.1-0.2-0.2-0.3-0.3
					C217.1,151.4,214.8,149.4,212.3,147.8z"/>
			</g>
			<path class="st4" d="M164.6,50.9c-5,7.6-11.2,16.1-19,25c-6.2,7-13.3,14.3-21.5,21.6c-20.5,18.2-37.8,28-50.9,33.2
				c-9.9-35.6-10.6-70.9-10.2-89c0.1-3.6,1.7-6.7,4.3-8.9c0,0.7,0.9,28.7,18.9,47.7c18.2,19.2,56.6-7.4,68.5-33.6l0,0
				C158,48.2,161.3,49.5,164.6,50.9z"/>
			<polygon class="st1" points="354.5,360.2 354.5,360.2 354.4,360.3 			"/>
		</g>
	</g>
</g>
</svg>
