<?xml version="1.0" encoding="iso-8859-1"?>
<!-- Generator: Adobe Illustrator 19.0.0, SVG Export Plug-In . SVG Version: 6.00 Build 0)  -->
<svg version="1.1" id="Capa_1" xmlns="http://www.w3.org/2000/svg" xmlns:xlink="http://www.w3.org/1999/xlink" x="0px" y="0px"
	 viewBox="0 0 512 512" style="enable-background:new 0 0 512 512;" xml:space="preserve">
<path style="fill:#CED6E0;" d="M428.8,118.4c-8.533-3.2-16-8.533-21.333-16L268.8,321.067l-55.467-91.733
	c-6.4,5.333-13.867,10.667-23.467,12.8l60.8,98.133L118.4,405.333c5.333,7.467,8.533,16,10.667,24.533l136.533-67.2h9.6
	l114.133,67.2c2.133-8.533,5.333-17.067,9.6-24.533L288,340.267L428.8,118.4z"/>
<circle style="fill:#F3F3F3;" cx="146.133" cy="146.133" r="105.6"/>
<path style="fill:#415A6B;" d="M233.6,235.733c-1.067-2.133-1.067-5.333-2.133-7.467c-4.267-11.733-11.733-13.867-11.733-13.867
	l-6.4,35.2C219.733,246.4,226.133,241.067,233.6,235.733z"/>
<g>
	<path style="fill:#344A5E;" d="M92.8,215.467c17.067,8.533,22.4,25.6,11.733,35.2c-1.067,1.067-2.133,3.2-3.2,5.333
		c6.4,2.133,12.8,4.267,19.2,5.333c20.267,3.2,40.533,3.2,58.667-1.067L119.467,192l-16-5.333c0,0-6.4,3.2-14.933,6.4
		C80,195.2,61.867,204.8,61.867,204.8C68.267,203.733,76.8,206.933,92.8,215.467z"/>
	<path style="fill:#344A5E;" d="M185.6,259.2c13.867-3.2,27.733-9.6,40.533-18.133V240c-1.067-12.8-7.467-25.6-7.467-25.6
		s-8.533-2.133-18.133-8.533c-8.533-5.333-19.2-8.533-19.2-8.533s5.333,11.733,5.333,21.333
		C187.733,225.067,186.667,247.467,185.6,259.2z"/>
</g>
<g>
	
		<ellipse transform="matrix(0.0972 -0.9953 0.9953 0.0972 34.5306 289.8483)" style="fill:#FFD15C;" cx="177.034" cy="125.89" rx="10.667" ry="5.334"/>
	
		<ellipse transform="matrix(0.2547 0.967 -0.967 0.2547 206.9555 -10.8565)" style="fill:#FFD15C;" cx="110.521" cy="128.834" rx="10.666" ry="5.333"/>
	<path style="fill:#FFD15C;" d="M173.867,110.933l1.067,10.667c0,0,1.067,16,0,24.533c-1.067,8.533-6.4,17.067-6.4,17.067
		s0,21.333,7.467,35.2h-53.333l-2.133-30.933c0,0,0-6.4-2.133-11.733c-2.133-5.333-5.333-14.933-6.4-28.8
		c-1.067-13.867-2.133-13.867-2.133-13.867s-2.133-25.6,7.467-35.2c9.6-10.667,40.533-6.4,48-1.067
		C172.8,81.067,176,96,173.867,110.933z"/>
</g>
<path style="fill:#415A6B;" d="M112,126.933c0,0,1.067-5.333,0-14.933c-1.067-9.6,0-14.933,3.2-18.133c0,0-2.133-6.4,6.4-9.6
	c8.533-2.133,19.2,3.2,37.333-1.067c0,0,9.6,3.2,11.733,11.733c2.133,8.533,0,10.667,2.133,16c2.133,5.333,3.2,11.733,3.2,11.733
	h1.067c0,0,0-4.267,2.133-10.667c1.067-6.4,1.067-27.733-9.6-41.6s-46.933-16-56.533,3.2s-5.333,41.6-2.133,46.933
	C112,125.867,112,126.933,112,126.933z"/>
<path style="fill:#F7B64C;" d="M119.467,160v1.067C120.533,166.4,126.933,185.6,160,198.4h17.067c-6.4-13.867-7.467-35.2-7.467-35.2
	S140.8,194.133,119.467,160z"/>
<path style="fill:#CED6E0;" d="M185.6,259.2v-42.667l-12.8-17.067l-6.4-4.267c0,0-2.133,0-7.467-1.067
	c-5.333-2.133-20.267,14.933-20.267,14.933l41.6,52.267C181.333,260.267,183.467,260.267,185.6,259.2z"/>
<path style="fill:#4ABAA5;" d="M180.267,261.333c2.133,0,5.333-1.067,7.467-2.133c-1.067-4.267-4.267-11.733-6.4-17.067
	c-3.2-7.467-11.733-32-11.733-32s-9.6-7.467-10.667-7.467l-2.133,10.667c0,0-1.067,6.4,2.133,13.867
	C162.133,231.467,174.933,251.733,180.267,261.333z"/>
<path style="fill:#66C6B9;" d="M153.6,193.067h5.333H160h5.333l5.333,3.2c0,0-2.133,9.6-1.067,13.867c0,0-8.533-2.133-12.8,3.2
	c0,0-6.4-8.533-14.933-10.667C134.4,199.467,153.6,193.067,153.6,193.067z"/>
<path style="fill:#F3F3F3;" d="M170.667,174.933c0,0-5.333,16-9.6,19.2c0,0,7.467,0,9.6,6.4c3.2,6.4,11.733,14.933,11.733,14.933
	l-4.267-19.2C178.133,195.2,170.667,181.333,170.667,174.933z"/>
<path style="fill:#415A6B;" d="M185.6,260.267c2.133-1.067,5.333-1.067,7.467-2.133c1.067-6.4,1.067-11.733,4.267-17.067
	c3.2-7.467,7.467-23.467,7.467-23.467L192,208l3.2-1.067c0,0-8.533-4.267-12.8-10.667c-4.267-6.4-8.533-11.733-8.533-11.733
	s5.333,30.933,6.4,38.4C181.333,228.267,183.467,245.333,185.6,260.267z"/>
<path style="fill:#F3F3F3;" d="M119.467,167.467c0,0,5.333,5.333,10.667,7.467c5.333,2.133,25.6,12.8,28.8,18.133
	c0,0-7.467,3.2-16,18.133L112,182.4C113.067,182.4,116.267,170.667,119.467,167.467z"/>
<g>
	<path style="fill:#415A6B;" d="M120.533,204.8l-4.267,9.6c0,0,41.6,24.533,55.467,40.533c2.133,2.133,3.2,4.267,5.333,6.4
		c2.133,0,5.333-1.067,7.467-2.133c-10.667-20.267-49.067-68.267-57.6-74.667c-9.6-7.467-11.733-11.733-11.733-11.733
		s-3.2,1.067-5.333,6.4c-2.133,4.267-6.4,5.333-7.467,8.533c0,3.2,3.2,17.067,3.2,17.067L120.533,204.8z"/>
	<path style="fill:#415A6B;" d="M120.533,261.333c-1.067-2.133-1.067-4.267-2.133-6.4c-5.333-12.8-7.467-16-7.467-16l0,0l0,0
		c0-8.533-6.4-17.067-17.067-23.467c-6.4-4.267-12.8-6.4-17.067-8.533c-8.533-4.267-12.8-1.067-13.867-1.067
		c0,0-8.533,3.2-8.533,21.333C73.6,243.2,93.867,257.067,120.533,261.333z"/>
</g>
<path style="fill:#F3705A;" d="M146.133,0C65.067,0,0,66.133,0,147.2s66.133,146.133,147.2,145.067
	c81.067,0,146.133-66.133,146.133-147.2C292.267,65.067,227.2,0,146.133,0z M147.2,251.733c-57.6,0-105.6-46.933-105.6-104.533
	c0-58.667,46.933-105.6,104.533-105.6s105.6,46.933,105.6,104.533S204.8,251.733,147.2,251.733z"/>
<circle style="fill:#FFD15C;" cx="439.467" cy="72.533" r="72.533"/>
<circle style="fill:#F7B64C;" cx="439.467" cy="72.533" r="39.467"/>
<circle style="fill:#F3705A;" cx="439.467" cy="439.467" r="72.533"/>
<circle style="fill:#F05540;" cx="439.467" cy="439.467" r="39.467"/>
<circle style="fill:#415A6B;" cx="72.533" cy="439.467" r="72.533"/>
<circle style="fill:#344A5E;" cx="72.533" cy="439.467" r="39.467"/>
<circle style="fill:#66C6B9;" cx="268.8" cy="345.6" r="72.533"/>
<circle style="fill:#4ABAA5;" cx="268.8" cy="345.6" r="39.467"/>
<g>
</g>
<g>
</g>
<g>
</g>
<g>
</g>
<g>
</g>
<g>
</g>
<g>
</g>
<g>
</g>
<g>
</g>
<g>
</g>
<g>
</g>
<g>
</g>
<g>
</g>
<g>
</g>
<g>
</g>
</svg>
